<?xml version="1.0" encoding="UTF-8"?>
<!DOCTYPE svg PUBLIC "-//W3C//DTD SVG 1.1//EN" "http://www.w3.org/Graphics/SVG/1.1/DTD/svg11.dtd">
<svg xmlns="http://www.w3.org/2000/svg" version="1.1" width="368px" height="322px" style="shape-rendering:geometricPrecision; text-rendering:geometricPrecision; image-rendering:optimizeQuality; fill-rule:evenodd; clip-rule:evenodd" xmlns:xlink="http://www.w3.org/1999/xlink">
<g><path style="opacity:0.012" fill="#514d46" d="M 128.5,-0.5 C 129.167,-0.5 129.833,-0.5 130.5,-0.5C 129.833,0.833333 129.167,0.833333 128.5,-0.5 Z"/></g>
<g><path style="opacity:0.008" fill="#524d48" d="M 125.5,1.5 C 125.897,0.474981 126.563,0.308314 127.5,1C 126.906,1.46434 126.239,1.63101 125.5,1.5 Z"/></g>
<g><path style="opacity:0.008" fill="#514c47" d="M 125.5,1.5 C 125.5,1.83333 125.5,2.16667 125.5,2.5C 122.833,2.16667 122.833,1.83333 125.5,1.5 Z"/></g>
<g><path style="opacity:0.012" fill="#524e48" d="M 121.5,2.5 C 122.833,3.16667 122.833,3.16667 121.5,2.5 Z"/></g>
<g><path style="opacity:0.012" fill="#524e48" d="M 119.5,3.5 C 120.833,4.16667 120.833,4.16667 119.5,3.5 Z"/></g>
<g><path style="opacity:0.012" fill="#49453f" d="M 172.5,5.5 C 173.833,6.16667 173.833,6.16667 172.5,5.5 Z"/></g>
<g><path style="opacity:1" fill="#34302c" d="M 186.5,20.5 C 188.395,21.973 190.061,23.6397 191.5,25.5C 194.767,32.0189 197.434,38.6855 199.5,45.5C 199.5,51.1667 199.5,56.8333 199.5,62.5C 199.167,62.5 198.833,62.5 198.5,62.5C 199.763,46.875 194.763,33.7083 183.5,23C 181.975,21.9914 180.308,21.4914 178.5,21.5C 166.922,19.7022 159.422,24.3689 156,35.5C 155.164,40.5131 154.331,45.5131 153.5,50.5C 148.32,45.7379 142.987,45.4046 137.5,49.5C 137.167,49.5 136.833,49.5 136.5,49.5C 135.73,42.2078 133.897,35.2078 131,28.5C 124.899,22.0714 117.399,19.7381 108.5,21.5C 107.624,21.6309 106.957,21.2975 106.5,20.5C 108.276,15.8491 111.61,12.0158 116.5,9C 131.356,0.964686 147.023,-0.701981 163.5,4C 172.161,8.16798 179.828,13.668 186.5,20.5 Z"/></g>
<g><path style="opacity:0.008" fill="#4a4741" d="M 174.5,6.5 C 175.833,7.16667 175.833,7.16667 174.5,6.5 Z"/></g>
<g><path style="opacity:0.008" fill="#54504b" d="M 111.5,8.5 C 112.833,9.16667 112.833,9.16667 111.5,8.5 Z"/></g>
<g><path style="opacity:0.99" fill="#4f4a45" d="M 135.5,-0.5 C 141.833,-0.5 148.167,-0.5 154.5,-0.5C 160.571,1.41684 166.571,3.75017 172.5,6.5C 178.161,10.1605 182.827,14.8272 186.5,20.5C 179.828,13.668 172.161,8.16798 163.5,4C 147.023,-0.701981 131.356,0.964686 116.5,9C 111.61,12.0158 108.276,15.8491 106.5,20.5C 106.957,21.2975 107.624,21.6309 108.5,21.5C 100.75,27.2731 95.7496,34.9398 93.5,44.5C 91.5574,49.897 91.0574,55.5637 92,61.5C 93.4039,66.5436 94.9039,71.5436 96.5,76.5C 96.1667,76.5 95.8333,76.5 95.5,76.5C 95.6716,75.5084 95.3382,74.8417 94.5,74.5C 94.6716,73.5084 94.3382,72.8417 93.5,72.5C 93.7373,71.209 93.404,70.209 92.5,69.5C 92.6716,68.5084 92.3382,67.8417 91.5,67.5C 91.7678,65.901 91.4345,64.5676 90.5,63.5C 90.5,57.1667 90.5,50.8333 90.5,44.5C 91.4345,43.4324 91.7678,42.099 91.5,40.5C 92.404,39.791 92.7373,38.791 92.5,37.5C 93.9313,36.2196 94.5979,34.5529 94.5,32.5C 95.3382,32.1583 95.6716,31.4916 95.5,30.5C 96.9063,30.0269 97.573,29.0269 97.5,27.5C 104.323,16.3429 113.656,8.0096 125.5,2.5C 129.048,1.86993 132.381,0.86993 135.5,-0.5 Z"/></g>
<g><path style="opacity:1" fill="#d3cdc7" d="M 178.5,21.5 C 180.308,21.4914 181.975,21.9914 183.5,23C 194.763,33.7083 199.763,46.875 198.5,62.5C 198.5,63.8333 198.5,65.1667 198.5,66.5C 197.596,67.209 197.263,68.209 197.5,69.5C 196.662,69.8417 196.328,70.5084 196.5,71.5C 194.992,73.1815 193.992,75.1815 193.5,77.5C 192.662,77.8417 192.328,78.5084 192.5,79.5C 191.662,79.8417 191.328,80.5084 191.5,81.5C 190.833,81.5 190.5,81.8333 190.5,82.5C 190.167,82.5 189.833,82.5 189.5,82.5C 185.26,85.5791 182.927,89.7458 182.5,95C 184.134,106.068 187.468,116.568 192.5,126.5C 193.988,131.467 195.988,136.134 198.5,140.5C 199.969,145.574 201.636,150.574 203.5,155.5C 206.875,167.94 211.708,179.94 218,191.5C 219,192.833 220,192.833 221,191.5C 222.038,195.468 223.538,199.135 225.5,202.5C 225.833,202.5 226.167,202.5 226.5,202.5C 226.205,204.735 226.539,206.735 227.5,208.5C 227.194,211.385 227.527,214.052 228.5,216.5C 228.5,222.833 228.5,229.167 228.5,235.5C 227.356,239.964 226.69,244.63 226.5,249.5C 225.232,251.905 224.565,254.572 224.5,257.5C 223.262,259.214 222.595,261.214 222.5,263.5C 221.596,264.209 221.263,265.209 221.5,266.5C 220.662,266.842 220.328,267.508 220.5,268.5C 219.662,268.842 219.328,269.508 219.5,270.5C 218.662,270.842 218.328,271.508 218.5,272.5C 217.662,272.842 217.328,273.508 217.5,274.5C 216.833,274.5 216.5,274.833 216.5,275.5C 215.662,275.842 215.328,276.508 215.5,277.5C 214.833,277.5 214.5,277.833 214.5,278.5C 213.833,278.5 213.5,278.833 213.5,279.5C 213.167,279.5 212.833,279.5 212.5,279.5C 195.408,281.75 178.741,285.583 162.5,291C 156.97,292.039 151.47,293.206 146,294.5C 132.359,292.438 118.859,289.605 105.5,286C 98.7526,285.208 92.0859,285.374 85.5,286.5C 84.8333,286.5 84.1667,286.5 83.5,286.5C 82.4154,284.413 80.7488,283.08 78.5,282.5C 78.1667,281.833 77.8333,281.167 77.5,280.5C 96.8556,279.562 115.856,281.562 134.5,286.5C 147.305,286.612 160.305,285.112 173.5,282C 183.106,279.181 192.773,276.515 202.5,274C 212.928,270.243 218.928,262.909 220.5,252C 220.327,236.159 215.827,221.992 207,209.5C 202.038,190.536 197.371,171.202 193,151.5C 187.753,134.011 182.587,116.511 177.5,99C 176.961,89.8691 180.461,82.7024 188,77.5C 189.852,73.7071 191.019,69.7071 191.5,65.5C 190.112,61.6403 188.279,57.9736 186,54.5C 184.333,54.5 182.667,54.5 181,54.5C 179.667,55.1667 178.333,55.8333 177,56.5C 173.687,55.6802 170.521,54.6802 167.5,53.5C 175.339,53.1608 178.339,49.1608 176.5,41.5C 177.117,41.3893 177.617,41.056 178,40.5C 180.28,44.4467 182.947,48.1134 186,51.5C 186.5,51 187,50.5 187.5,50C 185.898,41.8389 183.398,33.6722 180,25.5C 178.174,23.9262 176.007,23.0929 173.5,23C 175.382,22.8019 177.048,22.3019 178.5,21.5 Z"/></g>
<g><path style="opacity:0.008" fill="#514d47" d="M 98.5,22.5 C 99.8333,23.1667 99.8333,23.1667 98.5,22.5 Z"/></g>
<g><path style="opacity:1" fill="#eae6e1" d="M 108.5,21.5 C 117.399,19.7381 124.899,22.0714 131,28.5C 133.897,35.2078 135.73,42.2078 136.5,49.5C 133.469,52.6866 129.969,55.3532 126,57.5C 125.162,60.4807 125.995,62.8141 128.5,64.5C 131.257,67.5792 134.59,69.9125 138.5,71.5C 137.766,72.7079 137.433,74.0413 137.5,75.5C 135.193,75.9863 133.027,75.9863 131,75.5C 103.262,83.111 91.2618,72.4444 95,43.5C 94.6667,44.5 94.3333,45.5 94,46.5C 93.5357,45.9056 93.369,45.2389 93.5,44.5C 95.7496,34.9398 100.75,27.2731 108.5,21.5 Z"/></g>
<g><path style="opacity:0.012" fill="#46423d" d="M 191.5,24.5 C 192.833,25.1667 192.833,25.1667 191.5,24.5 Z"/></g>
<g><path style="opacity:0.008" fill="#4f4843" d="M 97.5,27.5 C 97.1667,27.5 96.8333,27.5 96.5,27.5C 96.8333,24.8333 97.1667,24.8333 97.5,27.5 Z"/></g>
<g><path style="opacity:0.012" fill="#514d46" d="M 96.5,27.5 C 95.8333,28.1667 95.8333,28.1667 96.5,27.5 Z"/></g>
<g><path style="opacity:0.012" fill="#4e4a43" d="M 95.5,30.5 C 94.8333,29.1667 94.8333,29.1667 95.5,30.5 Z"/></g>
<g><path style="opacity:0.012" fill="#4e4b44" d="M 94.5,32.5 C 93.8333,31.1667 93.8333,31.1667 94.5,32.5 Z"/></g>
<g><path style="opacity:0.012" fill="#4e4843" d="M 92.5,37.5 C 91.475,37.1034 91.3083,36.4368 92,35.5C 92.4643,36.0944 92.631,36.7611 92.5,37.5 Z"/></g>
<g><path style="opacity:1" fill="#312d29" d="M 114.5,37.5 C 125.584,37.0353 128.584,41.8687 123.5,52C 113.971,55.1474 109.804,51.6474 111,41.5C 112.376,40.2949 113.542,38.9616 114.5,37.5 Z"/></g>
<g><path style="opacity:0.01" fill="#4b4641" d="M 91.5,40.5 C 90.475,40.1034 90.3083,39.4368 91,38.5C 91.4643,39.0944 91.631,39.7611 91.5,40.5 Z"/></g>
<g><path style="opacity:0.01" fill="#4a4640" d="M 90.5,44.5 C 89.4265,43.7494 89.2599,42.7494 90,41.5C 90.4828,42.448 90.6495,43.448 90.5,44.5 Z"/></g>
<g><path style="opacity:0.012" fill="#3e3a35" d="M 199.5,45.5 C 199.343,44.1266 199.51,42.7932 200,41.5C 200.765,43.0657 200.598,44.3991 199.5,45.5 Z"/></g>
<g><path style="opacity:0.013" fill="#524e48" d="M 88.5,45.5 C 89.6291,47.6282 89.7958,49.9615 89,52.5C 88.5034,50.1902 88.3367,47.8568 88.5,45.5 Z"/></g>
<g><path style="opacity:1" fill="#ebbf75" d="M 128.5,64.5 C 125.995,62.8141 125.162,60.4807 126,57.5C 129.969,55.3532 133.469,52.6866 136.5,49.5C 136.833,49.5 137.167,49.5 137.5,49.5C 140.106,48.8641 142.606,48.8641 145,49.5C 145.345,54.6463 146.011,59.6463 147,64.5C 140.606,65.5683 134.44,65.5683 128.5,64.5 Z"/></g>
<g><path style="opacity:1" fill="#2f2b27" d="M 176.5,41.5 C 178.339,49.1608 175.339,53.1608 167.5,53.5C 162.431,49.9 161.264,45.2333 164,39.5C 168.838,36.4454 173.004,37.1121 176.5,41.5 Z"/></g>
<g><path style="opacity:1" fill="#dca965" d="M 153.5,50.5 C 156.332,53.1783 159.499,55.5116 163,57.5C 162.632,63.5645 159.465,67.7311 153.5,70C 149.368,71.8997 145.034,72.733 140.5,72.5C 139.833,72.1667 139.167,71.8333 138.5,71.5C 134.59,69.9125 131.257,67.5792 128.5,64.5C 134.44,65.5683 140.606,65.5683 147,64.5C 146.011,59.6463 145.345,54.6463 145,49.5C 142.606,48.8641 140.106,48.8641 137.5,49.5C 142.987,45.4046 148.32,45.7379 153.5,50.5 Z"/></g>
<g><path style="opacity:0.012" fill="#494541" d="M 200.5,46.5 C 201.65,51.3158 201.816,56.3158 201,61.5C 200.501,56.5111 200.334,51.5111 200.5,46.5 Z"/></g>
<g><path style="opacity:0.016" fill="#635e59" d="M 88.5,56.5 C 89.6225,58.2884 89.7891,60.2884 89,62.5C 88.5045,60.5273 88.3379,58.5273 88.5,56.5 Z"/></g>
<g><path style="opacity:0.012" fill="#7a746f" d="M 90.5,63.5 C 90.6495,64.552 90.4828,65.552 90,66.5C 89.2599,65.2506 89.4265,64.2506 90.5,63.5 Z"/></g>
<g><path style="opacity:0.004" fill="#6b6661" d="M 199.5,62.5 C 200.833,63.8333 200.833,65.1667 199.5,66.5C 199.5,65.1667 199.5,63.8333 199.5,62.5 Z"/></g>
<g><path style="opacity:0.012" fill="#8f8983" d="M 198.5,66.5 C 198.833,66.5 199.167,66.5 199.5,66.5C 199.737,67.791 199.404,68.791 198.5,69.5C 198.5,68.5 198.5,67.5 198.5,66.5 Z"/></g>
<g><path style="opacity:0.008" fill="#77716d" d="M 91.5,67.5 C 91.5,68.1667 91.5,68.8333 91.5,69.5C 90.1667,68.8333 90.1667,68.1667 91.5,67.5 Z"/></g>
<g><path style="opacity:0.012" fill="#b7b2af" d="M 91.5,69.5 C 91.8333,69.5 92.1667,69.5 92.5,69.5C 92.1667,72.1667 91.8333,72.1667 91.5,69.5 Z"/></g>
<g><path style="opacity:0.008" fill="#98938c" d="M 197.5,69.5 C 197.833,69.5 198.167,69.5 198.5,69.5C 198.672,70.4916 198.338,71.1583 197.5,71.5C 197.5,70.8333 197.5,70.1667 197.5,69.5 Z"/></g>
<g><path style="opacity:1" fill="#e1ddd8" d="M 138.5,71.5 C 139.167,71.8333 139.833,72.1667 140.5,72.5C 144.078,74.8912 147.578,77.5579 151,80.5C 153.626,84.0593 155.293,87.726 156,91.5C 156.333,91.1667 156.667,90.8333 157,90.5C 161.79,93.434 166.957,95.6007 172.5,97C 174.761,99.7716 176.261,102.938 177,106.5C 181.493,128.138 185.826,149.805 190,171.5C 190.186,178.7 191.019,186.033 192.5,193.5C 191.333,199.249 191.333,205.082 192.5,211C 191.743,213.944 191.077,216.944 190.5,220C 190.735,220.873 191.069,221.707 191.5,222.5C 190.198,227.118 189.532,231.618 189.5,236C 189.325,237.658 188.658,238.991 187.5,240C 188.214,241.343 187.88,242.676 186.5,244C 186.957,244.414 187.291,244.914 187.5,245.5C 184.802,249.367 182.302,253.367 180,257.5C 176.437,260.275 173.104,263.275 170,266.5C 157.451,270.443 144.451,274.11 131,277.5C 113.951,277.249 97.1178,276.749 80.5,276C 76.1091,274.423 72.4424,271.923 69.5,268.5C 69.3404,266.847 68.6737,265.514 67.5,264.5C 67.7373,263.209 67.404,262.209 66.5,261.5C 66.7373,260.209 66.404,259.209 65.5,258.5C 65.4349,255.572 64.7682,252.905 63.5,250.5C 63.7845,248.585 63.4511,246.919 62.5,245.5C 61.1667,232.5 61.1667,219.5 62.5,206.5C 63.4511,205.081 63.7845,203.415 63.5,201.5C 64.4345,200.432 64.7678,199.099 64.5,197.5C 65.4345,196.432 65.7678,195.099 65.5,193.5C 66.1667,193.5 66.5,193.167 66.5,192.5C 72.657,179.517 79.3236,166.851 86.5,154.5C 86.6775,155.695 87.0109,156.862 87.5,158C 84.888,161.39 83.5547,165.224 83.5,169.5C 74.8686,185.125 68.7019,201.792 65,219.5C 64.3679,229.859 64.7012,240.193 66,250.5C 66.6875,258.724 70.5208,264.891 77.5,269C 91.5639,270.992 105.564,272.158 119.5,272.5C 136.093,270.697 150.76,264.53 163.5,254C 169.035,246.553 173.368,238.886 176.5,231C 175.795,229.578 175.461,228.245 175.5,227C 176.717,225.352 177.55,223.519 178,221.5C 178.758,212.302 180.258,203.302 182.5,194.5C 181.651,188.409 181.651,182.409 182.5,176.5C 180.978,171.749 180.645,167.249 181.5,163C 177.492,145.442 174.992,127.609 174,109.5C 172.305,101.633 167.472,97.6334 159.5,97.5C 144.141,98.1269 129.141,96.1269 114.5,91.5C 112.308,91.7573 110.641,92.7573 109.5,94.5C 108.3,95.7198 108.3,98.3865 109.5,102.5C 107.906,106.25 106.739,110.25 106,114.5C 105.329,113.748 104.496,113.414 103.5,113.5C 104.559,108.487 105.725,103.487 107,98.5C 107.801,95.633 107.634,92.9664 106.5,90.5C 104.292,86.7229 101.625,83.3896 98.5,80.5C 98.5,79.8333 98.1667,79.5 97.5,79.5C 97.4431,78.391 97.1098,77.391 96.5,76.5C 94.9039,71.5436 93.4039,66.5436 92,61.5C 91.0574,55.5637 91.5574,49.897 93.5,44.5C 93.369,45.2389 93.5357,45.9056 94,46.5C 94.3333,45.5 94.6667,44.5 95,43.5C 91.2618,72.4444 103.262,83.111 131,75.5C 133.027,75.9863 135.193,75.9863 137.5,75.5C 137.433,74.0413 137.766,72.7079 138.5,71.5 Z"/></g>
<g><path style="opacity:1" fill="#dbd7d2" d="M 178.5,21.5 C 177.048,22.3019 175.382,22.8019 173.5,23C 176.007,23.0929 178.174,23.9262 180,25.5C 183.398,33.6722 185.898,41.8389 187.5,50C 187,50.5 186.5,51 186,51.5C 182.947,48.1134 180.28,44.4467 178,40.5C 177.617,41.056 177.117,41.3893 176.5,41.5C 173.004,37.1121 168.838,36.4454 164,39.5C 161.264,45.2333 162.431,49.9 167.5,53.5C 170.521,54.6802 173.687,55.6802 177,56.5C 178.333,55.8333 179.667,55.1667 181,54.5C 182.667,54.5 184.333,54.5 186,54.5C 188.279,57.9736 190.112,61.6403 191.5,65.5C 191.019,69.7071 189.852,73.7071 188,77.5C 180.461,82.7024 176.961,89.8691 177.5,99C 182.587,116.511 187.753,134.011 193,151.5C 197.371,171.202 202.038,190.536 207,209.5C 215.827,221.992 220.327,236.159 220.5,252C 218.928,262.909 212.928,270.243 202.5,274C 192.773,276.515 183.106,279.181 173.5,282C 160.305,285.112 147.305,286.612 134.5,286.5C 115.856,281.562 96.8556,279.562 77.5,280.5C 75.8036,278.475 74.137,276.475 72.5,274.5C 72.573,272.973 71.9063,271.973 70.5,271.5C 70.6716,270.508 70.3382,269.842 69.5,269.5C 69.5,269.167 69.5,268.833 69.5,268.5C 72.4424,271.923 76.1091,274.423 80.5,276C 97.1178,276.749 113.951,277.249 131,277.5C 144.451,274.11 157.451,270.443 170,266.5C 173.104,263.275 176.437,260.275 180,257.5C 182.302,253.367 184.802,249.367 187.5,245.5C 187.291,244.914 186.957,244.414 186.5,244C 187.88,242.676 188.214,241.343 187.5,240C 188.658,238.991 189.325,237.658 189.5,236C 189.532,231.618 190.198,227.118 191.5,222.5C 191.069,221.707 190.735,220.873 190.5,220C 191.077,216.944 191.743,213.944 192.5,211C 191.333,205.082 191.333,199.249 192.5,193.5C 191.019,186.033 190.186,178.7 190,171.5C 185.826,149.805 181.493,128.138 177,106.5C 176.261,102.938 174.761,99.7716 172.5,97C 166.957,95.6007 161.79,93.434 157,90.5C 156.667,90.8333 156.333,91.1667 156,91.5C 155.293,87.726 153.626,84.0593 151,80.5C 147.578,77.5579 144.078,74.8912 140.5,72.5C 145.034,72.733 149.368,71.8997 153.5,70C 159.465,67.7311 162.632,63.5645 163,57.5C 159.499,55.5116 156.332,53.1783 153.5,50.5C 154.331,45.5131 155.164,40.5131 156,35.5C 159.422,24.3689 166.922,19.7022 178.5,21.5 Z"/></g>
<g><path style="opacity:0.012" fill="#bcb8b3" d="M 196.5,71.5 C 196.833,71.5 197.167,71.5 197.5,71.5C 197.167,74.1667 196.833,74.1667 196.5,71.5 Z"/></g>
<g><path style="opacity:0.004" fill="#8b8480" d="M 93.5,72.5 C 93.5,73.1667 93.5,73.8333 93.5,74.5C 92.1667,73.8333 92.1667,73.1667 93.5,72.5 Z"/></g>
<g><path style="opacity:0.012" fill="#a39e97" d="M 195.5,74.5 C 196.833,75.1667 196.833,75.1667 195.5,74.5 Z"/></g>
<g><path style="opacity:0.004" fill="#8c8581" d="M 93.5,74.5 C 93.8333,74.5 94.1667,74.5 94.5,74.5C 94.5,75.1667 94.5,75.8333 94.5,76.5C 93.6618,76.1583 93.3284,75.4916 93.5,74.5 Z"/></g>
<g><path style="opacity:0.012" fill="#ada8a3" d="M 94.5,76.5 C 94.8333,76.5 95.1667,76.5 95.5,76.5C 95.3147,77.1701 94.9813,77.1701 94.5,76.5 Z"/></g>
<g><path style="opacity:0.012" fill="#99948d" d="M 194.5,76.5 C 195.833,77.1667 195.833,77.1667 194.5,76.5 Z"/></g>
<g><path style="opacity:0.012" fill="#8c8682" d="M 96.5,79.5 C 95.8333,78.1667 95.8333,78.1667 96.5,79.5 Z"/></g>
<g><path style="opacity:0.008" fill="#a7a29d" d="M 193.5,77.5 C 193.833,77.5 194.167,77.5 194.5,77.5C 194.672,78.4916 194.338,79.1583 193.5,79.5C 193.5,78.8333 193.5,78.1667 193.5,77.5 Z"/></g>
<g><path style="opacity:0.008" fill="#918c89" d="M 96.5,79.5 C 96.8333,79.5 97.1667,79.5 97.5,79.5C 97.5,80.1667 97.5,80.8333 97.5,81.5C 96.6618,81.1583 96.3284,80.4916 96.5,79.5 Z"/></g>
<g><path style="opacity:0.004" fill="#6b6661" d="M 192.5,79.5 C 192.833,79.5 193.167,79.5 193.5,79.5C 193.672,80.4916 193.338,81.1583 192.5,81.5C 192.5,80.8333 192.5,80.1667 192.5,79.5 Z"/></g>
<g><path style="opacity:0.012" fill="#6e6a63" d="M 191.5,81.5 C 191.833,81.5 192.167,81.5 192.5,81.5C 192.315,82.1701 191.981,82.1701 191.5,81.5 Z"/></g>
<g><path style="opacity:0.004" fill="#514a47" d="M 97.5,81.5 C 97.8333,81.5 98.1667,81.5 98.5,81.5C 98.1667,84.1667 97.8333,84.1667 97.5,81.5 Z"/></g>
<g><path style="opacity:0.008" fill="#797672" d="M 190.5,82.5 C 190.833,82.5 191.167,82.5 191.5,82.5C 191.672,83.4916 191.338,84.1583 190.5,84.5C 190.5,83.8333 190.5,83.1667 190.5,82.5 Z"/></g>
<g><path style="opacity:0.012" fill="#605b56" d="M 100.5,84.5 C 100.631,85.2389 100.464,85.9056 100,86.5C 99.3083,85.5632 99.475,84.8966 100.5,84.5 Z"/></g>
<g><path style="opacity:0.008" fill="#48433e" d="M 189.5,84.5 C 189.833,84.5 190.167,84.5 190.5,84.5C 190.672,85.4916 190.338,86.1583 189.5,86.5C 189.5,85.8333 189.5,85.1667 189.5,84.5 Z"/></g>
<g><path style="opacity:0.008" fill="#47423d" d="M 188.5,86.5 C 188.833,86.5 189.167,86.5 189.5,86.5C 189.167,89.1667 188.833,89.1667 188.5,86.5 Z"/></g>
<g><path style="opacity:0.004" fill="#403e37" d="M 187.5,89.5 C 188.833,90.1667 188.833,90.1667 187.5,89.5 Z"/></g>
<g><path style="opacity:0.006" fill="#453f3b" d="M 188.5,91.5 C 189.573,92.2506 189.74,93.2506 189,94.5C 188.517,93.552 188.351,92.552 188.5,91.5 Z"/></g>
<g><path style="opacity:1" fill="#eeeae6" d="M 109.5,94.5 C 109.202,97.3356 109.869,97.8356 111.5,96C 113.333,95.8333 115.167,95.6667 117,95.5C 125.027,97.3841 133.193,98.3841 141.5,98.5C 144.641,99.3213 147.975,99.8213 151.5,100C 153.286,100.196 154.619,101.029 155.5,102.5C 151.151,108.004 146.651,112.671 142,116.5C 139.964,119.402 139.131,122.402 139.5,125.5C 138.102,127.13 137.102,128.964 136.5,131C 137.167,131.333 137.833,131.667 138.5,132C 137.809,133.067 137.309,134.234 137,135.5C 136.346,134.304 135.846,134.304 135.5,135.5C 137.991,136.541 137.991,137.374 135.5,138C 136.586,141.604 136.253,145.437 134.5,149.5C 135.641,150.425 135.641,151.259 134.5,152C 136.661,154.376 136.661,157.043 134.5,160C 135.479,161.779 135.146,163.445 133.5,165C 134.409,171.387 134.742,177.387 134.5,183C 133.672,183.915 132.672,184.581 131.5,185C 132.167,185.333 132.833,185.667 133.5,186C 132.5,186.833 131.5,187.667 130.5,188.5C 131.025,189.192 131.692,189.692 132.5,190C 130.741,191.008 129.574,192.508 129,194.5C 127.334,193.66 127.167,194.16 128.5,196C 126.699,196.317 126.366,196.984 127.5,198C 125.715,199.163 123.715,199.83 121.5,200C 124.332,201.908 123.999,202.741 120.5,202.5C 119.094,203.956 117.927,206.29 117,209.5C 116.667,208.833 116.333,208.167 116,207.5C 113.451,210.05 110.618,212.217 107.5,214C 108.167,214.333 108.833,214.667 109.5,215C 108.107,216.171 107.273,217.671 107,219.5C 106.586,219.957 106.086,220.291 105.5,220.5C 105.167,219.833 104.833,219.167 104.5,218.5C 103.09,220.949 103.424,223.116 105.5,225C 103.047,227.353 101.381,226.853 100.5,223.5C 99.4301,225.931 97.9301,228.597 96,231.5C 93.6573,232.171 91.6573,232.171 90,231.5C 89.4926,230.004 89.9926,228.837 91.5,228C 90.5509,227.383 89.7175,227.549 89,228.5C 88.6827,226.699 88.016,226.366 87,227.5C 85.0168,224.932 85.1835,222.599 87.5,220.5C 86.7376,220.089 85.7376,219.923 84.5,220C 85.1667,219.333 85.8333,218.667 86.5,218C 86.507,216.417 86.1737,214.751 85.5,213C 88.2014,209.855 88.5347,206.689 86.5,203.5C 87.1279,201.742 88.1279,200.242 89.5,199C 88.3659,197.984 88.6992,197.317 90.5,197C 90.4463,193.801 90.4463,190.634 90.5,187.5C 92.5254,185.116 92.8588,182.783 91.5,180.5C 92.2403,176.427 93.5736,172.26 95.5,168C 95.3552,167.228 95.0219,166.561 94.5,166C 96.67,163.197 97.3366,160.197 96.5,157C 97.8491,156.228 98.6824,155.061 99,153.5C 99.8422,147.281 101.675,141.447 104.5,136C 103.978,133.519 103.978,131.186 104.5,129C 108.003,120.864 109.67,112.031 109.5,102.5C 108.3,98.3865 108.3,95.7198 109.5,94.5 Z"/></g>
<g><path style="opacity:0.01" fill="#45403c" d="M 189.5,95.5 C 190.525,95.8966 190.692,96.5632 190,97.5C 189.536,96.9056 189.369,96.2389 189.5,95.5 Z"/></g>
<g><path style="opacity:1" fill="#e5e1dd" d="M 159.5,97.5 C 167.472,97.6334 172.305,101.633 174,109.5C 174.992,127.609 177.492,145.442 181.5,163C 180.645,167.249 180.978,171.749 182.5,176.5C 181.651,182.409 181.651,188.409 182.5,194.5C 180.258,203.302 178.758,212.302 178,221.5C 177.55,223.519 176.717,225.352 175.5,227C 175.461,228.245 175.795,229.578 176.5,231C 173.368,238.886 169.035,246.553 163.5,254C 150.76,264.53 136.093,270.697 119.5,272.5C 105.564,272.158 91.5639,270.992 77.5,269C 70.5208,264.891 66.6875,258.724 66,250.5C 64.7012,240.193 64.3679,229.859 65,219.5C 68.7019,201.792 74.8686,185.125 83.5,169.5C 79.7989,182.634 75.6322,195.634 71,208.5C 66.1087,224.937 66.442,240.937 72,256.5C 74.7718,260.601 78.6051,263.101 83.5,264C 110.038,269.628 132.205,261.794 150,240.5C 150.862,238.913 151.529,237.246 152,235.5C 152.333,235.833 152.667,236.167 153,236.5C 153.465,235.069 154.299,233.903 155.5,233C 155.167,232.667 154.833,232.333 154.5,232C 155.191,230.933 155.691,229.766 156,228.5C 157.76,225.322 159.594,222.155 161.5,219C 160.833,218.667 160.167,218.333 159.5,218C 160.833,217.333 160.833,216.667 159.5,216C 160.667,215.5 161.5,214.667 162,213.5C 162.251,211.567 162.751,209.734 163.5,208C 162.185,206.605 162.519,205.605 164.5,205C 163.295,202.766 163.961,201.099 166.5,200C 165.833,199.667 165.167,199.333 164.5,199C 165.159,194.163 166.159,189.163 167.5,184C 168.081,167.581 168.081,151.581 167.5,136C 168.524,127.423 169.191,118.923 169.5,110.5C 169.729,103.246 166.396,98.9122 159.5,97.5 Z"/></g>
<g><path style="opacity:0.012" fill="#504a45" d="M 99.5,99.5 C 98.475,99.1034 98.3083,98.4368 99,97.5C 99.4643,98.0944 99.631,98.7611 99.5,99.5 Z"/></g>
<g><path style="opacity:1" fill="#ece8e3" d="M 141.5,98.5 C 147.206,98.1712 152.872,98.5046 158.5,99.5C 159.833,101.833 159.833,104.167 158.5,106.5C 156.723,107.901 155.056,109.401 153.5,111C 153.5,112.333 153.5,113.667 153.5,115C 151.528,120.367 149.528,124.7 147.5,128C 148.833,128.667 148.833,129.333 147.5,130C 148.167,130.333 148.833,130.667 149.5,131C 146.382,133.23 146.049,135.73 148.5,138.5C 147.65,140.621 146.65,142.788 145.5,145C 145.324,146.66 145.991,148.326 147.5,150C 146.643,150.689 145.977,151.522 145.5,152.5C 145.3,156.007 145.634,159.34 146.5,162.5C 145.975,163.192 145.308,163.692 144.5,164C 145.196,168.134 145.863,172.3 146.5,176.5C 144.009,177.541 144.009,178.374 146.5,179C 145.668,182.493 145.668,186.16 146.5,190C 145.833,190.667 145.167,191.333 144.5,192C 146,195.729 145.333,199.395 142.5,203C 143.167,203.333 143.833,203.667 144.5,204C 142.971,205.791 141.304,207.458 139.5,209C 140.634,210.016 140.301,210.683 138.5,211C 138.5,212.333 138.5,213.667 138.5,215C 137.551,215.617 136.718,215.451 136,214.5C 135.788,217.44 134.288,219.274 131.5,220C 132.167,220.333 132.833,220.667 133.5,221C 131.781,222.057 129.947,222.89 128,223.5C 125.517,226.347 123.85,229.68 123,233.5C 122.667,232.833 122.333,232.167 122,231.5C 121.316,232.784 121.483,233.951 122.5,235C 121.333,235.5 120.5,236.333 120,237.5C 118.817,236.269 117.651,236.269 116.5,237.5C 117.55,239.102 116.883,239.935 114.5,240C 114.335,241.117 114.002,242.284 113.5,243.5C 111.677,244.491 110.177,245.824 109,247.5C 108.586,247.043 108.086,246.709 107.5,246.5C 106.52,247.981 105.353,249.315 104,250.5C 103.667,250.167 103.333,249.833 103,249.5C 101.757,251.833 100.091,252.5 98,251.5C 97.6758,253.569 96.8425,253.902 95.5,252.5C 94.5224,252.977 93.6891,253.643 93,254.5C 87.3842,253.563 82.7176,250.896 79,246.5C 77.8333,244 76.6667,241.5 75.5,239C 75.9325,233.531 75.9325,228.198 75.5,223C 77.8333,214.667 80.1667,206.333 82.5,198C 81.5209,196.221 81.8542,194.555 83.5,193C 83.1667,192.667 82.8333,192.333 82.5,192C 88.3656,170.54 94.6989,149.206 101.5,128C 101.167,127.667 100.833,127.333 100.5,127C 100.895,123.259 102.228,119.926 104.5,117C 104.056,115.238 103.556,115.405 103,117.5C 102.536,116.906 102.369,116.239 102.5,115.5C 102.328,114.508 102.662,113.842 103.5,113.5C 104.496,113.414 105.329,113.748 106,114.5C 106.739,110.25 107.906,106.25 109.5,102.5C 109.67,112.031 108.003,120.864 104.5,129C 103.978,131.186 103.978,133.519 104.5,136C 101.675,141.447 99.8422,147.281 99,153.5C 98.6824,155.061 97.8491,156.228 96.5,157C 97.3366,160.197 96.67,163.197 94.5,166C 95.0219,166.561 95.3552,167.228 95.5,168C 93.5736,172.26 92.2403,176.427 91.5,180.5C 92.8588,182.783 92.5254,185.116 90.5,187.5C 90.4463,190.634 90.4463,193.801 90.5,197C 88.6992,197.317 88.3659,197.984 89.5,199C 88.1279,200.242 87.1279,201.742 86.5,203.5C 88.5347,206.689 88.2014,209.855 85.5,213C 86.1737,214.751 86.507,216.417 86.5,218C 85.8333,218.667 85.1667,219.333 84.5,220C 85.7376,219.923 86.7376,220.089 87.5,220.5C 85.1835,222.599 85.0168,224.932 87,227.5C 88.016,226.366 88.6827,226.699 89,228.5C 89.7175,227.549 90.5509,227.383 91.5,228C 89.9926,228.837 89.4926,230.004 90,231.5C 91.6573,232.171 93.6573,232.171 96,231.5C 97.9301,228.597 99.4301,225.931 100.5,223.5C 101.381,226.853 103.047,227.353 105.5,225C 103.424,223.116 103.09,220.949 104.5,218.5C 104.833,219.167 105.167,219.833 105.5,220.5C 106.086,220.291 106.586,219.957 107,219.5C 107.273,217.671 108.107,216.171 109.5,215C 108.833,214.667 108.167,214.333 107.5,214C 110.618,212.217 113.451,210.05 116,207.5C 116.333,208.167 116.667,208.833 117,209.5C 117.927,206.29 119.094,203.956 120.5,202.5C 123.999,202.741 124.332,201.908 121.5,200C 123.715,199.83 125.715,199.163 127.5,198C 126.366,196.984 126.699,196.317 128.5,196C 127.167,194.16 127.334,193.66 129,194.5C 129.574,192.508 130.741,191.008 132.5,190C 131.692,189.692 131.025,189.192 130.5,188.5C 131.5,187.667 132.5,186.833 133.5,186C 132.833,185.667 132.167,185.333 131.5,185C 132.672,184.581 133.672,183.915 134.5,183C 134.742,177.387 134.409,171.387 133.5,165C 135.146,163.445 135.479,161.779 134.5,160C 136.661,157.043 136.661,154.376 134.5,152C 135.641,151.259 135.641,150.425 134.5,149.5C 136.253,145.437 136.586,141.604 135.5,138C 137.991,137.374 137.991,136.541 135.5,135.5C 135.846,134.304 136.346,134.304 137,135.5C 137.309,134.234 137.809,133.067 138.5,132C 137.833,131.667 137.167,131.333 136.5,131C 137.102,128.964 138.102,127.13 139.5,125.5C 139.131,122.402 139.964,119.402 142,116.5C 146.651,112.671 151.151,108.004 155.5,102.5C 154.619,101.029 153.286,100.196 151.5,100C 147.975,99.8213 144.641,99.3213 141.5,98.5 Z"/></g>
<g><path style="opacity:1" fill="#e9e5e0" d="M 159.5,97.5 C 166.396,98.9122 169.729,103.246 169.5,110.5C 169.191,118.923 168.524,127.423 167.5,136C 168.081,151.581 168.081,167.581 167.5,184C 166.159,189.163 165.159,194.163 164.5,199C 165.167,199.333 165.833,199.667 166.5,200C 163.961,201.099 163.295,202.766 164.5,205C 162.519,205.605 162.185,206.605 163.5,208C 162.751,209.734 162.251,211.567 162,213.5C 161.5,214.667 160.667,215.5 159.5,216C 160.833,216.667 160.833,217.333 159.5,218C 160.167,218.333 160.833,218.667 161.5,219C 159.594,222.155 157.76,225.322 156,228.5C 155.691,229.766 155.191,230.933 154.5,232C 154.833,232.333 155.167,232.667 155.5,233C 154.299,233.903 153.465,235.069 153,236.5C 152.667,236.167 152.333,235.833 152,235.5C 151.529,237.246 150.862,238.913 150,240.5C 132.205,261.794 110.038,269.628 83.5,264C 78.6051,263.101 74.7718,260.601 72,256.5C 66.442,240.937 66.1087,224.937 71,208.5C 75.6322,195.634 79.7989,182.634 83.5,169.5C 83.5547,165.224 84.888,161.39 87.5,158C 87.0109,156.862 86.6775,155.695 86.5,154.5C 86.8333,153.167 87.1667,151.833 87.5,150.5C 89.0652,148.491 90.0652,146.157 90.5,143.5C 92.5388,139.734 94.2055,135.734 95.5,131.5C 97.8504,126.095 100.184,120.761 102.5,115.5C 102.369,116.239 102.536,116.906 103,117.5C 103.556,115.405 104.056,115.238 104.5,117C 102.228,119.926 100.895,123.259 100.5,127C 100.833,127.333 101.167,127.667 101.5,128C 94.6989,149.206 88.3656,170.54 82.5,192C 82.8333,192.333 83.1667,192.667 83.5,193C 81.8542,194.555 81.5209,196.221 82.5,198C 80.1667,206.333 77.8333,214.667 75.5,223C 75.9325,228.198 75.9325,233.531 75.5,239C 76.6667,241.5 77.8333,244 79,246.5C 82.7176,250.896 87.3842,253.563 93,254.5C 93.6891,253.643 94.5224,252.977 95.5,252.5C 96.8425,253.902 97.6758,253.569 98,251.5C 100.091,252.5 101.757,251.833 103,249.5C 103.333,249.833 103.667,250.167 104,250.5C 105.353,249.315 106.52,247.981 107.5,246.5C 108.086,246.709 108.586,247.043 109,247.5C 110.177,245.824 111.677,244.491 113.5,243.5C 114.002,242.284 114.335,241.117 114.5,240C 116.883,239.935 117.55,239.102 116.5,237.5C 117.651,236.269 118.817,236.269 120,237.5C 120.5,236.333 121.333,235.5 122.5,235C 121.483,233.951 121.316,232.784 122,231.5C 122.333,232.167 122.667,232.833 123,233.5C 123.85,229.68 125.517,226.347 128,223.5C 129.947,222.89 131.781,222.057 133.5,221C 132.833,220.667 132.167,220.333 131.5,220C 134.288,219.274 135.788,217.44 136,214.5C 136.718,215.451 137.551,215.617 138.5,215C 138.5,213.667 138.5,212.333 138.5,211C 140.301,210.683 140.634,210.016 139.5,209C 141.304,207.458 142.971,205.791 144.5,204C 143.833,203.667 143.167,203.333 142.5,203C 145.333,199.395 146,195.729 144.5,192C 145.167,191.333 145.833,190.667 146.5,190C 145.668,186.16 145.668,182.493 146.5,179C 144.009,178.374 144.009,177.541 146.5,176.5C 145.863,172.3 145.196,168.134 144.5,164C 145.308,163.692 145.975,163.192 146.5,162.5C 145.634,159.34 145.3,156.007 145.5,152.5C 145.977,151.522 146.643,150.689 147.5,150C 145.991,148.326 145.324,146.66 145.5,145C 146.65,142.788 147.65,140.621 148.5,138.5C 146.049,135.73 146.382,133.23 149.5,131C 148.833,130.667 148.167,130.333 147.5,130C 148.833,129.333 148.833,128.667 147.5,128C 149.528,124.7 151.528,120.367 153.5,115C 153.5,113.667 153.5,112.333 153.5,111C 155.056,109.401 156.723,107.901 158.5,106.5C 159.833,104.167 159.833,101.833 158.5,99.5C 152.872,98.5046 147.206,98.1712 141.5,98.5C 133.193,98.3841 125.027,97.3841 117,95.5C 115.167,95.6667 113.333,95.8333 111.5,96C 109.869,97.8356 109.202,97.3356 109.5,94.5C 110.641,92.7573 112.308,91.7573 114.5,91.5C 129.141,96.1269 144.141,98.1269 159.5,97.5 Z"/></g>
<g><path style="opacity:0.008" fill="#524e48" d="M 82.5,116.5 C 83.8333,117.167 83.8333,117.167 82.5,116.5 Z"/></g>
<g><path style="opacity:0.008" fill="#534f49" d="M 71.5,124.5 C 72.8333,125.167 72.8333,125.167 71.5,124.5 Z"/></g>
<g><path style="opacity:0.008" fill="#524e49" d="M 67.5,127.5 C 68.8333,128.167 68.8333,128.167 67.5,127.5 Z"/></g>
<g><path style="opacity:1" fill="#282623" d="M 189.5,82.5 C 189.5,83.1667 189.5,83.8333 189.5,84.5C 188.662,84.8417 188.328,85.5084 188.5,86.5C 187.596,87.209 187.263,88.209 187.5,89.5C 187.992,97.839 191.325,105.172 197.5,111.5C 198.203,113.716 199.536,115.549 201.5,117C 227.277,134.277 249.277,155.444 267.5,180.5C 268.391,182.609 269.558,184.609 271,186.5C 271.667,187.833 271.667,189.167 271,190.5C 263.582,180.411 255.415,170.911 246.5,162C 243.383,159.601 240.05,157.435 236.5,155.5C 232.383,150.882 228.05,146.382 223.5,142C 213.499,136.165 203.166,130.998 192.5,126.5C 187.468,116.568 184.134,106.068 182.5,95C 182.927,89.7458 185.26,85.5791 189.5,82.5 Z"/></g>
<g><path style="opacity:0.999" fill="#312d29" d="M 192.5,126.5 C 203.166,130.998 213.499,136.165 223.5,142C 228.05,146.382 232.383,150.882 236.5,155.5C 240.05,157.435 243.383,159.601 246.5,162C 255.415,170.911 263.582,180.411 271,190.5C 271.667,189.167 271.667,187.833 271,186.5C 269.558,184.609 268.391,182.609 267.5,180.5C 269.395,181.973 271.061,183.64 272.5,185.5C 272.427,187.027 273.094,188.027 274.5,188.5C 276.255,191.68 278.255,194.68 280.5,197.5C 282.11,201.1 284.11,204.434 286.5,207.5C 286.427,209.027 287.094,210.027 288.5,210.5C 288.402,212.553 289.069,214.22 290.5,215.5C 290.5,217.167 290.5,218.833 290.5,220.5C 288.833,220.5 287.167,220.5 285.5,220.5C 283.819,218.992 281.819,217.992 279.5,217.5C 278.738,215.738 277.404,214.738 275.5,214.5C 274.738,212.738 273.404,211.738 271.5,211.5C 262.867,204.202 254.533,196.535 246.5,188.5C 248.017,188.511 249.184,189.177 250,190.5C 250.167,190.167 250.333,189.833 250.5,189.5C 246.841,185.336 243.341,181.003 240,176.5C 238.589,174.35 237.755,172.016 237.5,169.5C 239.5,169.833 241.5,170.167 243.5,170.5C 236.223,160.825 226.89,153.491 215.5,148.5C 211.591,146.779 207.925,143.946 204.5,140C 202.919,139.293 201.419,138.46 200,137.5C 199.768,138.737 199.268,139.737 198.5,140.5C 195.988,136.134 193.988,131.467 192.5,126.5 Z"/></g>
<g><path style="opacity:1" fill="#4f4b46" d="M 98.5,81.5 C 98.5,81.1667 98.5,80.8333 98.5,80.5C 101.625,83.3896 104.292,86.7229 106.5,90.5C 103.59,96.0189 100.757,101.686 98,107.5C 95.1667,110.333 92.3333,113.167 89.5,116C 70.5017,127.999 53.6684,142.499 39,159.5C 27.5674,174.723 16.4008,190.057 5.5,205.5C 5.5,204.833 5.5,204.167 5.5,203.5C 6.88972,202.101 7.88972,200.434 8.5,198.5C 9.90632,198.027 10.573,197.027 10.5,195.5C 11.9063,195.027 12.573,194.027 12.5,192.5C 22.7048,178.114 33.5381,164.114 45,150.5C 58.3388,137.153 72.8388,125.32 88.5,115C 94.0062,111.016 97.6728,105.85 99.5,99.5C 101.469,96.9263 102.469,93.9263 102.5,90.5C 102.639,88.1175 101.972,86.1175 100.5,84.5C 100.068,83.2905 99.4013,82.2905 98.5,81.5 Z"/></g>
<g><path style="opacity:0.212" fill="#44403b" d="M 197.5,111.5 C 209.786,120.451 221.786,129.785 233.5,139.5C 233.5,140.167 233.833,140.5 234.5,140.5C 241.528,147.86 248.528,155.193 255.5,162.5C 259.122,168.122 263.122,173.455 267.5,178.5C 267.5,179.167 267.5,179.833 267.5,180.5C 249.277,155.444 227.277,134.277 201.5,117C 199.536,115.549 198.203,113.716 197.5,111.5 Z"/></g>
<g><path style="opacity:0.999" fill="#2a2724" d="M 246.5,188.5 C 243.907,187.246 241.573,185.58 239.5,183.5C 239.027,182.094 238.027,181.427 236.5,181.5C 235.5,179.833 234.167,178.5 232.5,177.5C 232.027,176.094 231.027,175.427 229.5,175.5C 228.833,174.167 227.833,173.167 226.5,172.5C 226.027,171.094 225.027,170.427 223.5,170.5C 222.415,168.413 220.749,167.08 218.5,166.5C 218.167,165.5 217.5,164.833 216.5,164.5C 216.158,163.662 215.492,163.328 214.5,163.5C 214.5,162.833 214.167,162.5 213.5,162.5C 213.5,161.833 213.167,161.5 212.5,161.5C 212.158,160.662 211.492,160.328 210.5,160.5C 210.328,161.492 210.662,162.158 211.5,162.5C 211.328,163.492 211.662,164.158 212.5,164.5C 212.328,165.492 212.662,166.158 213.5,166.5C 213.66,168.153 214.326,169.486 215.5,170.5C 216.042,173.912 217.375,176.912 219.5,179.5C 219.263,180.791 219.596,181.791 220.5,182.5C 220.5,183.5 220.5,184.5 220.5,185.5C 214.819,175.468 209.153,165.468 203.5,155.5C 201.636,150.574 199.969,145.574 198.5,140.5C 199.268,139.737 199.768,138.737 200,137.5C 201.419,138.46 202.919,139.293 204.5,140C 207.925,143.946 211.591,146.779 215.5,148.5C 226.89,153.491 236.223,160.825 243.5,170.5C 241.5,170.167 239.5,169.833 237.5,169.5C 237.755,172.016 238.589,174.35 240,176.5C 243.341,181.003 246.841,185.336 250.5,189.5C 250.333,189.833 250.167,190.167 250,190.5C 249.184,189.177 248.017,188.511 246.5,188.5 Z M 210.5,160.5 C 211.492,160.328 212.158,160.662 212.5,161.5C 211.833,161.5 211.5,161.833 211.5,162.5C 210.662,162.158 210.328,161.492 210.5,160.5 Z M 223.5,170.5 C 225.027,170.427 226.027,171.094 226.5,172.5C 224.973,172.573 223.973,171.906 223.5,170.5 Z M 229.5,175.5 C 231.027,175.427 232.027,176.094 232.5,177.5C 230.973,177.573 229.973,176.906 229.5,175.5 Z M 236.5,181.5 C 238.027,181.427 239.027,182.094 239.5,183.5C 237.973,183.573 236.973,182.906 236.5,181.5 Z"/></g>
<g><path style="opacity:0.004" fill="#3f3a36" d="M 233.5,139.5 C 234.497,138.287 235.497,138.454 236.5,140C 235.906,140.464 235.239,140.631 234.5,140.5C 233.833,140.5 233.5,140.167 233.5,139.5 Z"/></g>
<g><path style="opacity:1" fill="#443f39" d="M 95.5,131.5 C 94.2055,135.734 92.5388,139.734 90.5,143.5C 90.5386,142.244 90.0386,141.244 89,140.5C 82.1115,144.195 74.9448,147.195 67.5,149.5C 60.0596,153.302 53.2262,157.968 47,163.5C 38.0779,175.093 28.4112,186.093 18,196.5C 19.6377,191.568 22.1377,186.901 25.5,182.5C 35.4008,172.1 45.4008,161.934 55.5,152C 59.1872,149.636 62.8539,147.302 66.5,145C 68.1584,141.832 70.825,140.165 74.5,140C 80.5285,135.194 86.8618,131.527 93.5,129C 94.0659,129.995 94.7326,130.828 95.5,131.5 Z"/></g>
<g><path style="opacity:0.997" fill="#302c29" d="M 87.5,150.5 C 87.1667,151.833 86.8333,153.167 86.5,154.5C 79.3236,166.851 72.657,179.517 66.5,192.5C 68.1708,187.155 69.8374,181.822 71.5,176.5C 74.2895,172.584 76.2895,168.251 77.5,163.5C 78.8478,162.473 79.3478,161.14 79,159.5C 77.955,160.373 77.1217,161.373 76.5,162.5C 74.9731,162.427 73.9731,163.094 73.5,164.5C 72.8333,164.5 72.5,164.833 72.5,165.5C 70.9731,165.427 69.9731,166.094 69.5,167.5C 68.8333,167.5 68.5,167.833 68.5,168.5C 67.8333,168.5 67.5,168.833 67.5,169.5C 65.9731,169.427 64.9731,170.094 64.5,171.5C 63.8333,171.5 63.5,171.833 63.5,172.5C 62.8333,172.5 62.5,172.833 62.5,173.5C 61.8333,173.5 61.5,173.833 61.5,174.5C 59.9731,174.427 58.9731,175.094 58.5,176.5C 57.8333,176.5 57.5,176.833 57.5,177.5C 56.8333,177.5 56.5,177.833 56.5,178.5C 55.8333,178.5 55.5,178.833 55.5,179.5C 53.9731,179.427 52.9731,180.094 52.5,181.5C 51.8333,181.5 51.5,181.833 51.5,182.5C 50.8333,182.5 50.5,182.833 50.5,183.5C 49.8333,183.5 49.5,183.833 49.5,184.5C 48.8333,184.5 48.5,184.833 48.5,185.5C 47.8333,185.5 47.5,185.833 47.5,186.5C 45.9731,186.427 44.9731,187.094 44.5,188.5C 43.8333,188.5 43.5,188.833 43.5,189.5C 42.8333,189.5 42.5,189.833 42.5,190.5C 41.8333,190.5 41.5,190.833 41.5,191.5C 40.8333,191.5 40.5,191.833 40.5,192.5C 37.8908,193.443 35.8908,195.11 34.5,197.5C 33.8333,197.5 33.5,197.833 33.5,198.5C 32.8333,198.5 32.5,198.833 32.5,199.5C 30.246,200.124 28.5794,201.457 27.5,203.5C 26.8333,203.5 26.5,203.833 26.5,204.5C 25.8333,204.5 25.5,204.833 25.5,205.5C 25.1667,205.5 24.8333,205.5 24.5,205.5C 23.8485,204.909 23.1818,204.243 22.5,203.5C 21.1667,204.5 19.8333,205.5 18.5,206.5C 17.479,205.998 17.3123,205.332 18,204.5C 30.8976,192.271 43.0643,179.438 54.5,166C 63.5011,158.27 73.5011,152.104 84.5,147.5C 85.2811,148.729 85.7811,150.062 86,151.5C 86.3333,150.833 86.6667,150.167 87,149.5C 87.3988,149.728 87.5654,150.062 87.5,150.5 Z M 77.5,163.5 C 77.5,162.833 77.1667,162.5 76.5,162.5C 77.1217,161.373 77.955,160.373 79,159.5C 79.3478,161.14 78.8478,162.473 77.5,163.5 Z M 72.5,165.5 C 72.0269,166.906 71.0269,167.573 69.5,167.5C 69.9731,166.094 70.9731,165.427 72.5,165.5 Z M 67.5,169.5 C 67.0269,170.906 66.0269,171.573 64.5,171.5C 64.9731,170.094 65.9731,169.427 67.5,169.5 Z M 61.5,174.5 C 61.0269,175.906 60.0269,176.573 58.5,176.5C 58.9731,175.094 59.9731,174.427 61.5,174.5 Z M 55.5,179.5 C 55.0269,180.906 54.0269,181.573 52.5,181.5C 52.9731,180.094 53.9731,179.427 55.5,179.5 Z M 47.5,186.5 C 47.0269,187.906 46.0269,188.573 44.5,188.5C 44.9731,187.094 45.9731,186.427 47.5,186.5 Z"/></g>
<g><path style="opacity:0.012" fill="#48443e" d="M 256.5,162.5 C 255.833,161.167 255.833,161.167 256.5,162.5 Z"/></g>
<g><path style="opacity:0.008" fill="#494640" d="M 256.5,162.5 C 257.833,163.167 257.833,163.167 256.5,162.5 Z"/></g>
<g><path style="opacity:0.016" fill="#181715" d="M 73.5,164.5 C 74.8333,165.167 74.8333,165.167 73.5,164.5 Z"/></g>
<g><path style="opacity:0.012" fill="#23211e" d="M 213.5,162.5 C 214.167,162.5 214.5,162.833 214.5,163.5C 214.842,164.338 215.508,164.672 216.5,164.5C 215.71,165.401 214.71,166.068 213.5,166.5C 213.672,165.508 213.338,164.842 212.5,164.5C 212.328,163.508 212.662,162.842 213.5,162.5 Z"/></g>
<g><path style="opacity:0.012" fill="#161513" d="M 218.5,166.5 C 218.5,166.833 218.5,167.167 218.5,167.5C 217.83,167.019 217.83,166.685 218.5,166.5 Z"/></g>
<g><path style="opacity:0.008" fill="#191816" d="M 218.5,167.5 C 219.833,168.167 219.833,168.167 218.5,167.5 Z"/></g>
<g><path style="opacity:0.016" fill="#1e1d19" d="M 68.5,168.5 C 69.8333,169.167 69.8333,169.167 68.5,168.5 Z"/></g>
<g><path style="opacity:0.012" fill="#2e2b28" d="M 215.5,170.5 C 215.369,169.761 215.536,169.094 216,168.5C 216.692,169.437 216.525,170.103 215.5,170.5 Z"/></g>
<g><path style="opacity:0.012" fill="#2f2c28" d="M 216.5,171.5 C 217.833,172.167 217.833,172.167 216.5,171.5 Z"/></g>
<g><path style="opacity:0.999" fill="#37332f" d="M 106.5,90.5 C 107.634,92.9664 107.801,95.633 107,98.5C 105.725,103.487 104.559,108.487 103.5,113.5C 102.662,113.842 102.328,114.508 102.5,115.5C 100.184,120.761 97.8504,126.095 95.5,131.5C 94.7326,130.828 94.0659,129.995 93.5,129C 86.8618,131.527 80.5285,135.194 74.5,140C 70.825,140.165 68.1584,141.832 66.5,145C 62.8539,147.302 59.1872,149.636 55.5,152C 45.4008,161.934 35.4008,172.1 25.5,182.5C 22.1377,186.901 19.6377,191.568 18,196.5C 28.4112,186.093 38.0779,175.093 47,163.5C 53.2262,157.968 60.0596,153.302 67.5,149.5C 74.9448,147.195 82.1115,144.195 89,140.5C 90.0386,141.244 90.5386,142.244 90.5,143.5C 90.0652,146.157 89.0652,148.491 87.5,150.5C 87.5654,150.062 87.3988,149.728 87,149.5C 86.6667,150.167 86.3333,150.833 86,151.5C 85.7811,150.062 85.2811,148.729 84.5,147.5C 73.5011,152.104 63.5011,158.27 54.5,166C 43.0643,179.438 30.8976,192.271 18,204.5C 17.3123,205.332 17.479,205.998 18.5,206.5C 19.8333,205.5 21.1667,204.5 22.5,203.5C 23.1818,204.243 23.8485,204.909 24.5,205.5C 22.8608,206.473 21.5274,207.806 20.5,209.5C 18.246,210.124 16.5794,211.457 15.5,213.5C 14.8333,213.5 14.5,213.833 14.5,214.5C 13.5084,214.328 12.8417,214.662 12.5,215.5C 11.8333,215.5 11.5,215.833 11.5,216.5C 10.5084,216.328 9.84171,216.662 9.5,217.5C 8.83333,217.5 8.5,217.833 8.5,218.5C 7.50838,218.328 6.84171,218.662 6.5,219.5C 5.50838,219.328 4.84171,219.662 4.5,220.5C 2.83333,220.5 1.16667,220.5 -0.5,220.5C -0.5,218.5 -0.5,216.5 -0.5,214.5C 0.338246,214.158 0.67158,213.492 0.5,212.5C 1.92126,209.991 3.58793,207.657 5.5,205.5C 16.4008,190.057 27.5674,174.723 39,159.5C 53.6684,142.499 70.5017,127.999 89.5,116C 92.3333,113.167 95.1667,110.333 98,107.5C 100.757,101.686 103.59,96.0189 106.5,90.5 Z"/></g>
<g><path style="opacity:0.016" fill="#25231f" d="M 63.5,172.5 C 64.8333,173.167 64.8333,173.167 63.5,172.5 Z"/></g>
<g><path style="opacity:0.016" fill="#292723" d="M 62.5,173.5 C 62.8333,173.5 63.1667,173.5 63.5,173.5C 63.3147,174.17 62.9813,174.17 62.5,173.5 Z"/></g>
<g><path style="opacity:0.012" fill="#2e2a27" d="M 71.5,176.5 C 70.475,176.103 70.3083,175.437 71,174.5C 71.4643,175.094 71.631,175.761 71.5,176.5 Z"/></g>
<g><path style="opacity:0.016" fill="#2a2723" d="M 57.5,177.5 C 58.8333,178.167 58.8333,178.167 57.5,177.5 Z"/></g>
<g><path style="opacity:0.016" fill="#44403b" d="M 268.5,178.5 C 267.833,177.167 267.833,177.167 268.5,178.5 Z"/></g>
<g><path style="opacity:0.016" fill="#312e2a" d="M 56.5,178.5 C 56.8333,178.5 57.1667,178.5 57.5,178.5C 57.3147,179.17 56.9813,179.17 56.5,178.5 Z"/></g>
<g><path style="opacity:0.998" fill="#b4aea7" d="M 203.5,155.5 C 209.153,165.468 214.819,175.468 220.5,185.5C 221.833,188.5 223.167,191.5 224.5,194.5C 224.232,196.099 224.566,197.432 225.5,198.5C 225.5,199.833 225.5,201.167 225.5,202.5C 223.538,199.135 222.038,195.468 221,191.5C 220,192.833 219,192.833 218,191.5C 211.708,179.94 206.875,167.94 203.5,155.5 Z"/></g>
<g><path style="opacity:0.012" fill="#342f2c" d="M 219.5,179.5 C 219.369,178.761 219.536,178.094 220,177.5C 220.692,178.437 220.525,179.103 219.5,179.5 Z"/></g>
<g><path style="opacity:0.012" fill="#48443e" d="M 268.5,178.5 C 269.833,179.167 269.833,179.167 268.5,178.5 Z"/></g>
<g><path style="opacity:0.008" fill="#4f4c45" d="M 19.5,179.5 C 20.8333,180.167 20.8333,180.167 19.5,179.5 Z"/></g>
<g><path style="opacity:0.004" fill="#2f2b27" d="M 221.5,182.5 C 221.167,182.5 220.833,182.5 220.5,182.5C 220.833,179.833 221.167,179.833 221.5,182.5 Z"/></g>
<g><path style="opacity:0.012" fill="#2c2a24" d="M 51.5,182.5 C 52.8333,183.167 52.8333,183.167 51.5,182.5 Z"/></g>
<g><path style="opacity:0.016" fill="#332f2a" d="M 50.5,183.5 C 50.8333,183.5 51.1667,183.5 51.5,183.5C 51.3147,184.17 50.9813,184.17 50.5,183.5 Z"/></g>
<g><path style="opacity:0.012" fill="#37332f" d="M 221.5,182.5 C 222.525,182.897 222.692,183.563 222,184.5C 221.536,183.906 221.369,183.239 221.5,182.5 Z"/></g>
<g><path style="opacity:0.016" fill="#383530" d="M 49.5,184.5 C 49.8333,184.5 50.1667,184.5 50.5,184.5C 50.3147,185.17 49.9813,185.17 49.5,184.5 Z"/></g>
<g><path style="opacity:0.016" fill="#433f3a" d="M 273.5,185.5 C 272.833,184.167 272.833,184.167 273.5,185.5 Z"/></g>
<g><path style="opacity:0.016" fill="#3a3631" d="M 48.5,185.5 C 48.8333,185.5 49.1667,185.5 49.5,185.5C 49.3147,186.17 48.9813,186.17 48.5,185.5 Z"/></g>
<g><path style="opacity:0.008" fill="#46423c" d="M 273.5,185.5 C 274.833,186.167 274.833,186.167 273.5,185.5 Z"/></g>
<g><path style="opacity:0.012" fill="#3f3a36" d="M 222.5,185.5 C 223.525,185.897 223.692,186.563 223,187.5C 222.536,186.906 222.369,186.239 222.5,185.5 Z"/></g>
<g><path style="opacity:0.016" fill="#403c37" d="M 275.5,188.5 C 274.833,187.167 274.833,187.167 275.5,188.5 Z"/></g>
<g><path style="opacity:0.008" fill="#45423c" d="M 275.5,188.5 C 276.833,189.167 276.833,189.167 275.5,188.5 Z"/></g>
<g><path style="opacity:0.008" fill="#504c46" d="M 12.5,189.5 C 13.8333,190.167 13.8333,190.167 12.5,189.5 Z"/></g>
<g><path style="opacity:0.012" fill="#302e27" d="M 43.5,189.5 C 44.8333,190.167 44.8333,190.167 43.5,189.5 Z"/></g>
<g><path style="opacity:0.012" fill="#56514c" d="M 223.5,188.5 C 224.525,188.897 224.692,189.563 224,190.5C 223.536,189.906 223.369,189.239 223.5,188.5 Z"/></g>
<g><path style="opacity:0.016" fill="#393630" d="M 42.5,190.5 C 42.8333,190.5 43.1667,190.5 43.5,190.5C 43.3147,191.17 42.9813,191.17 42.5,190.5 Z"/></g>
<g><path style="opacity:0.016" fill="#4d4943" d="M 12.5,192.5 C 11.8333,191.167 11.8333,191.167 12.5,192.5 Z"/></g>
<g><path style="opacity:0.016" fill="#3d3933" d="M 41.5,191.5 C 41.8333,191.5 42.1667,191.5 42.5,191.5C 42.3147,192.17 41.9813,192.17 41.5,191.5 Z"/></g>
<g><path style="opacity:0.012" fill="#78726b" d="M 65.5,193.5 C 64.4265,192.749 64.2599,191.749 65,190.5C 65.4828,191.448 65.6495,192.448 65.5,193.5 Z"/></g>
<g><path style="opacity:0.008" fill="#4f4b45" d="M 11.5,192.5 C 10.8333,193.167 10.8333,193.167 11.5,192.5 Z"/></g>
<g><path style="opacity:0.016" fill="#3f3b35" d="M 40.5,192.5 C 40.8333,192.5 41.1667,192.5 41.5,192.5C 41.3147,193.17 40.9813,193.17 40.5,192.5 Z"/></g>
<g><path style="opacity:0.012" fill="#8d877f" d="M 224.5,194.5 C 224.351,193.448 224.517,192.448 225,191.5C 225.74,192.749 225.573,193.749 224.5,194.5 Z"/></g>
<g><path style="opacity:0.016" fill="#4b4741" d="M 10.5,195.5 C 9.83333,194.167 9.83333,194.167 10.5,195.5 Z"/></g>
<g><path style="opacity:0.008" fill="#4e4b44" d="M 9.5,195.5 C 8.83333,196.167 8.83333,196.167 9.5,195.5 Z"/></g>
<g><path style="opacity:0.012" fill="#c3beb8" d="M 64.5,197.5 C 63.4265,196.749 63.2599,195.749 64,194.5C 64.4828,195.448 64.6495,196.448 64.5,197.5 Z"/></g>
<g><path style="opacity:0.012" fill="#b4ada5" d="M 225.5,198.5 C 225.351,197.448 225.517,196.448 226,195.5C 226.74,196.749 226.573,197.749 225.5,198.5 Z"/></g>
<g><path style="opacity:0.012" fill="#3f3b37" d="M 281.5,197.5 C 281.167,197.5 280.833,197.5 280.5,197.5C 280.833,194.833 281.167,194.833 281.5,197.5 Z"/></g>
<g><path style="opacity:0.016" fill="#4b4740" d="M 8.5,198.5 C 7.83333,197.167 7.83333,197.167 8.5,198.5 Z"/></g>
<g><path style="opacity:0.016" fill="#3a3730" d="M 34.5,197.5 C 35.8333,198.167 35.8333,198.167 34.5,197.5 Z"/></g>
<g><path style="opacity:0.012" fill="#44403a" d="M 281.5,197.5 C 282.833,198.167 282.833,198.167 281.5,197.5 Z"/></g>
<g><path style="opacity:0.008" fill="#4e4a44" d="M 7.5,198.5 C 6.83333,199.167 6.83333,199.167 7.5,198.5 Z"/></g>
<g><path style="opacity:0.016" fill="#3e3a34" d="M 33.5,198.5 C 33.8333,198.5 34.1667,198.5 34.5,198.5C 34.3147,199.17 33.9813,199.17 33.5,198.5 Z"/></g>
<g><path style="opacity:0.016" fill="#413c36" d="M 32.5,199.5 C 32.8333,199.5 33.1667,199.5 33.5,199.5C 33.3147,200.17 32.9813,200.17 32.5,199.5 Z"/></g>
<g><path style="opacity:0.012" fill="#d8d3cc" d="M 63.5,201.5 C 62.4265,200.749 62.2599,199.749 63,198.5C 63.4828,199.448 63.6495,200.448 63.5,201.5 Z"/></g>
<g><path style="opacity:0.01" fill="#c0bab3" d="M 226.5,202.5 C 226.351,201.448 226.517,200.448 227,199.5C 227.74,200.749 227.573,201.749 226.5,202.5 Z"/></g>
<g><path style="opacity:0.008" fill="#433e39" d="M 5.5,203.5 C 5.16667,203.5 4.83333,203.5 4.5,203.5C 4.83333,200.833 5.16667,200.833 5.5,203.5 Z"/></g>
<g><path style="opacity:0.012" fill="#49453f" d="M 4.5,203.5 C 3.83333,204.167 3.83333,204.167 4.5,203.5 Z"/></g>
<g><path style="opacity:0.012" fill="#37342c" d="M 27.5,203.5 C 28.8333,204.167 28.8333,204.167 27.5,203.5 Z"/></g>
<g><path style="opacity:0.012" fill="#dad5cf" d="M 62.5,206.5 C 61.4017,205.399 61.235,204.066 62,202.5C 62.49,203.793 62.6567,205.127 62.5,206.5 Z"/></g>
<g><path style="opacity:0.016" fill="#3d3933" d="M 26.5,204.5 C 26.8333,204.5 27.1667,204.5 27.5,204.5C 27.3147,205.17 26.9813,205.17 26.5,204.5 Z"/></g>
<g><path style="opacity:0.012" fill="#c7c1bb" d="M 227.5,208.5 C 227.34,206.801 227.506,205.134 228,203.5C 228.78,205.387 228.613,207.054 227.5,208.5 Z"/></g>
<g><path style="opacity:0.016" fill="#3f3b35" d="M 25.5,205.5 C 25.8333,205.5 26.1667,205.5 26.5,205.5C 26.3147,206.17 25.9813,206.17 25.5,205.5 Z"/></g>
<g><path style="opacity:0.004" fill="#211f1d" d="M 287.5,207.5 C 287.167,207.5 286.833,207.5 286.5,207.5C 286.833,204.833 287.167,204.833 287.5,207.5 Z"/></g>
<g><path style="opacity:0.012" fill="#373430" d="M 287.5,207.5 C 288.833,208.167 288.833,208.167 287.5,207.5 Z"/></g>
<g><path style="opacity:0.016" fill="#3a3630" d="M 20.5,209.5 C 21.8333,210.167 21.8333,210.167 20.5,209.5 Z"/></g>
<g><path style="opacity:0.012" fill="#33312c" d="M 288.5,209.5 C 289.833,210.167 289.833,210.167 288.5,209.5 Z"/></g>
<g><path style="opacity:0.012" fill="#3b3732" d="M -0.5,210.5 C 0.338246,210.842 0.67158,211.508 0.5,212.5C 0.166667,212.5 -0.166667,212.5 -0.5,212.5C -0.5,211.833 -0.5,211.167 -0.5,210.5 Z"/></g>
<g><path style="opacity:0.008" fill="#e0dcd7" d="M 60.5,207.5 C 61.6225,209.288 61.7891,211.288 61,213.5C 60.5045,211.527 60.3379,209.527 60.5,207.5 Z"/></g>
<g><path style="opacity:0.012" fill="#302e2a" d="M 271.5,211.5 C 271.5,211.833 271.5,212.167 271.5,212.5C 270.83,212.019 270.83,211.685 271.5,211.5 Z"/></g>
<g><path style="opacity:0.012" fill="#302e2a" d="M 289.5,211.5 C 290.833,212.167 290.833,212.167 289.5,211.5 Z"/></g>
<g><path style="opacity:0.012" fill="#cbc6bf" d="M 228.5,216.5 C 228.337,214.143 228.503,211.81 229,209.5C 229.796,212.039 229.629,214.372 228.5,216.5 Z"/></g>
<g><path style="opacity:0.008" fill="#322f2c" d="M 271.5,212.5 C 272.833,213.167 272.833,213.167 271.5,212.5 Z"/></g>
<g><path style="opacity:0.016" fill="#3c3731" d="M 15.5,213.5 C 16.8333,214.167 16.8333,214.167 15.5,213.5 Z"/></g>
<g><path style="opacity:0.012" fill="#403b35" d="M 14.5,214.5 C 14.8333,214.5 15.1667,214.5 15.5,214.5C 15.3147,215.17 14.9813,215.17 14.5,214.5 Z"/></g>
<g><path style="opacity:0.016" fill="#2e2c29" d="M 275.5,214.5 C 275.5,214.833 275.5,215.167 275.5,215.5C 274.83,215.019 274.83,214.685 275.5,214.5 Z"/></g>
<g><path style="opacity:0.012" fill="#2b2826" d="M 290.5,215.5 C 290.369,214.761 290.536,214.094 291,213.5C 291.692,214.437 291.525,215.103 290.5,215.5 Z"/></g>
<g><path style="opacity:0.004" fill="#3c3733" d="M 12.5,216.5 C 12.5,216.167 12.5,215.833 12.5,215.5C 13.1667,215.5 13.8333,215.5 14.5,215.5C 14.1583,216.338 13.4916,216.672 12.5,216.5 Z"/></g>
<g><path style="opacity:0.008" fill="#312e2b" d="M 275.5,215.5 C 276.833,216.167 276.833,216.167 275.5,215.5 Z"/></g>
<g><path style="opacity:0.016" fill="#3b3731" d="M 11.5,216.5 C 11.8333,216.5 12.1667,216.5 12.5,216.5C 12.3147,217.17 11.9813,217.17 11.5,216.5 Z"/></g>
<g><path style="opacity:0.01" fill="#322f2b" d="M 291.5,216.5 C 292.573,217.251 292.74,218.251 292,219.5C 291.517,218.552 291.351,217.552 291.5,216.5 Z"/></g>
<g><path style="opacity:0.008" fill="#35312d" d="M 9.5,218.5 C 9.5,218.167 9.5,217.833 9.5,217.5C 10.1667,217.5 10.8333,217.5 11.5,217.5C 11.1583,218.338 10.4916,218.672 9.5,218.5 Z"/></g>
<g><path style="opacity:0.012" fill="#2f2c29" d="M 279.5,217.5 C 278.833,218.167 278.833,218.167 279.5,217.5 Z"/></g>
<g><path style="opacity:0.012" fill="#3b3631" d="M 8.5,218.5 C 8.83333,218.5 9.16667,218.5 9.5,218.5C 9.31468,219.17 8.98135,219.17 8.5,218.5 Z"/></g>
<g><path style="opacity:0.004" fill="#3b3632" d="M 6.5,220.5 C 6.5,220.167 6.5,219.833 6.5,219.5C 7.16667,219.5 7.83333,219.5 8.5,219.5C 8.15829,220.338 7.49162,220.672 6.5,220.5 Z"/></g>
<g><path style="opacity:0.008" fill="#373230" d="M 4.5,221.5 C 4.5,221.167 4.5,220.833 4.5,220.5C 5.16667,220.5 5.83333,220.5 6.5,220.5C 6.15829,221.338 5.49162,221.672 4.5,221.5 Z"/></g>
<g><path style="opacity:0.008" fill="#cac4be" d="M 229.5,217.5 C 230.651,222.65 230.817,227.984 230,233.5C 229.501,228.177 229.334,222.844 229.5,217.5 Z"/></g>
<g><path style="opacity:0.004" fill="#2a2422" d="M 285.5,220.5 C 285.5,220.833 285.5,221.167 285.5,221.5C 282.833,221.167 282.833,220.833 285.5,220.5 Z"/></g>
<g><path style="opacity:0.012" fill="#393532" d="M -0.5,222.5 C -0.5,222.167 -0.5,221.833 -0.5,221.5C 1.16667,221.5 2.83333,221.5 4.5,221.5C 3.08134,222.451 1.41467,222.784 -0.5,222.5 Z"/></g>
<g><path style="opacity:0.009" fill="#2e2b28" d="M 285.5,221.5 C 286.873,221.343 288.207,221.51 289.5,222C 287.934,222.765 286.601,222.598 285.5,221.5 Z"/></g>
<g><path style="opacity:0.012" fill="#dfdbd6" d="M 59.5,215.5 C 60.6546,222.321 60.8213,229.321 60,236.5C 59.5004,229.508 59.3337,222.508 59.5,215.5 Z"/></g>
<g><path style="opacity:0.012" fill="#d2cdc8" d="M 228.5,235.5 C 229.629,237.628 229.796,239.961 229,242.5C 228.503,240.19 228.337,237.857 228.5,235.5 Z"/></g>
<g><path style="opacity:0.012" fill="#e1ddd8" d="M 60.5,238.5 C 61.6225,240.288 61.7891,242.288 61,244.5C 60.5045,242.527 60.3379,240.527 60.5,238.5 Z"/></g>
<g><path style="opacity:0.01" fill="#d0cbc6" d="M 227.5,244.5 C 228.598,245.601 228.765,246.934 228,248.5C 227.51,247.207 227.343,245.873 227.5,244.5 Z"/></g>
<g><path style="opacity:0.01" fill="#e1ddd8" d="M 62.5,245.5 C 62.5,247.167 62.5,248.833 62.5,250.5C 61.1667,248.833 61.1667,247.167 62.5,245.5 Z"/></g>
<g><path style="opacity:0.012" fill="#e4e1dc" d="M 62.5,250.5 C 62.8333,250.5 63.1667,250.5 63.5,250.5C 63.1667,255.833 62.8333,255.833 62.5,250.5 Z"/></g>
<g><path style="opacity:0.008" fill="#d2cdc8" d="M 226.5,249.5 C 227.598,250.601 227.765,251.934 227,253.5C 226.51,252.207 226.343,250.873 226.5,249.5 Z"/></g>
<g><path style="opacity:0.012" fill="#d0ccc6" d="M 225.5,257.5 C 225.351,256.448 225.517,255.448 226,254.5C 226.74,255.749 226.573,256.749 225.5,257.5 Z"/></g>
<g><path style="opacity:0.012" fill="#dfdbd7" d="M 64.5,258.5 C 63.4265,257.749 63.2599,256.749 64,255.5C 64.4828,256.448 64.6495,257.448 64.5,258.5 Z"/></g>
<g><path style="opacity:0.012" fill="#d5d1cb" d="M 224.5,257.5 C 224.833,257.5 225.167,257.5 225.5,257.5C 225.167,261.5 224.833,261.5 224.5,257.5 Z"/></g>
<g><path style="opacity:0.012" fill="#e1deda" d="M 64.5,258.5 C 64.8333,258.5 65.1667,258.5 65.5,258.5C 65.5,259.5 65.5,260.5 65.5,261.5C 64.596,260.791 64.2627,259.791 64.5,258.5 Z"/></g>
<g><path style="opacity:0.012" fill="#e1ddd9" d="M 65.5,261.5 C 65.8333,261.5 66.1667,261.5 66.5,261.5C 66.5,262.5 66.5,263.5 66.5,264.5C 65.596,263.791 65.2627,262.791 65.5,261.5 Z"/></g>
<g><path style="opacity:0.008" fill="#cec9c3" d="M 223.5,263.5 C 223.369,262.761 223.536,262.094 224,261.5C 224.692,262.437 224.525,263.103 223.5,263.5 Z"/></g>
<g><path style="opacity:0.012" fill="#d5d0cb" d="M 222.5,263.5 C 222.833,263.5 223.167,263.5 223.5,263.5C 223.167,266.167 222.833,266.167 222.5,263.5 Z"/></g>
<g><path style="opacity:0.008" fill="#e0dbd7" d="M 66.5,264.5 C 66.8333,264.5 67.1667,264.5 67.5,264.5C 67.1667,267.167 66.8333,267.167 66.5,264.5 Z"/></g>
<g><path style="opacity:0.012" fill="#dfdbd6" d="M 67.5,267.5 C 68.8333,268.167 68.8333,268.167 67.5,267.5 Z"/></g>
<g><path style="opacity:0.004" fill="#cdc8c1" d="M 221.5,266.5 C 222.833,267.167 222.833,267.833 221.5,268.5C 221.5,267.833 221.5,267.167 221.5,266.5 Z"/></g>
<g><path style="opacity:0.012" fill="#ddd9d4" d="M 69.5,269.5 C 68.8333,270.167 68.8333,270.167 69.5,269.5 Z"/></g>
<g><path style="opacity:0.008" fill="#cec8c2" d="M 220.5,268.5 C 220.833,268.5 221.167,268.5 221.5,268.5C 221.672,269.492 221.338,270.158 220.5,270.5C 220.5,269.833 220.5,269.167 220.5,268.5 Z"/></g>
<g><path style="opacity:0.122" fill="#020100" d="M 350.5,270.5 C 347.644,270.928 344.644,271.095 341.5,271C 344.798,271.487 347.798,272.653 350.5,274.5C 351.478,274.023 352.311,273.357 353,272.5C 353.278,273.416 353.778,274.082 354.5,274.5C 353.128,276.477 353.462,278.144 355.5,279.5C 355.5,280.167 355.833,280.5 356.5,280.5C 356.5,281.167 356.833,281.5 357.5,281.5C 357.298,283.95 357.631,286.283 358.5,288.5C 358.361,292.498 356.361,295.331 352.5,297C 358.175,297.464 358.508,298.131 353.5,299C 333.581,303.312 313.581,307.312 293.5,311C 264.055,314.842 234.722,318.342 205.5,321.5C 194.5,321.5 183.5,321.5 172.5,321.5C 164.503,320.645 156.336,319.978 148,319.5C 139.331,319.987 130.831,320.654 122.5,321.5C 118.167,321.5 113.833,321.5 109.5,321.5C 102.352,320.508 95.0191,320.175 87.5,320.5C 87.5,319.833 87.1667,319.5 86.5,319.5C 87.9187,318.549 89.5853,318.216 91.5,318.5C 97.3569,318.399 103.19,318.733 109,319.5C 111.821,319.592 114.321,318.926 116.5,317.5C 123.532,317.83 130.532,317.497 137.5,316.5C 139.534,310.24 137.867,305.24 132.5,301.5C 130.116,299.115 127.45,297.115 124.5,295.5C 127.482,295.963 130.482,296.296 133.5,296.5C 144.065,297.775 154.732,297.441 165.5,295.5C 162.991,296.921 160.657,298.588 158.5,300.5C 156.5,301.833 154.833,303.5 153.5,305.5C 152.662,305.842 152.328,306.508 152.5,307.5C 151.182,310.565 151.182,313.731 152.5,317C 161.399,317.21 170.233,318.043 179,319.5C 187.487,318.81 195.987,318.31 204.5,318C 207.088,314.09 207.088,310.256 204.5,306.5C 201.924,301.256 198.257,296.923 193.5,293.5C 196.638,291.76 199.638,289.76 202.5,287.5C 205.475,286.345 208.142,284.678 210.5,282.5C 211.167,282.5 211.5,282.167 211.5,281.5C 212.167,281.5 212.5,281.167 212.5,280.5C 213.167,280.5 213.5,280.167 213.5,279.5C 213.833,279.5 214.167,279.5 214.5,279.5C 215.964,280.16 217.631,280.493 219.5,280.5C 256.882,277.314 294.216,273.647 331.5,269.5C 337.974,269.732 344.307,270.065 350.5,270.5 Z"/></g>
<g><path style="opacity:0.004" fill="#000000" d="M 350.5,270.5 C 352.099,270.232 353.432,270.566 354.5,271.5C 352.901,271.768 351.568,271.434 350.5,270.5 Z"/></g>
<g><path style="opacity:0.012" fill="#ddd8d3" d="M 70.5,271.5 C 69.8333,272.167 69.8333,272.167 70.5,271.5 Z"/></g>
<g><path style="opacity:0.008" fill="#cdc7c1" d="M 219.5,270.5 C 219.833,270.5 220.167,270.5 220.5,270.5C 220.672,271.492 220.338,272.158 219.5,272.5C 219.5,271.833 219.5,271.167 219.5,270.5 Z"/></g>
<g><path style="opacity:0.004" fill="#000000" d="M 354.5,271.5 C 355.833,272.167 355.833,272.167 354.5,271.5 Z"/></g>
<g><path style="opacity:0.004" fill="#000000" d="M 357.5,273.5 C 356.833,272.167 356.833,272.167 357.5,273.5 Z"/></g>
<g><path style="opacity:0.008" fill="#dcd7d2" d="M 71.5,274.5 C 70.8333,273.167 70.8333,273.167 71.5,274.5 Z"/></g>
<g><path style="opacity:0.004" fill="#c8c3bb" d="M 218.5,272.5 C 218.833,272.5 219.167,272.5 219.5,272.5C 219.672,273.492 219.338,274.158 218.5,274.5C 218.5,273.833 218.5,273.167 218.5,272.5 Z"/></g>
<g><path style="opacity:0.004" fill="#000000" d="M 354.5,273.5 C 355.833,274.167 355.833,274.167 354.5,273.5 Z"/></g>
<g><path style="opacity:0.004" fill="#000000" d="M 357.5,274.5 C 357.5,274.167 357.5,273.833 357.5,273.5C 358.5,273.5 359.5,273.5 360.5,273.5C 360.649,274.552 360.483,275.552 360,276.5C 359.583,275.244 358.75,274.577 357.5,274.5 Z"/></g>
<g><path style="opacity:0.012" fill="#c9c5bc" d="M 217.5,274.5 C 217.833,274.5 218.167,274.5 218.5,274.5C 218.315,275.17 217.981,275.17 217.5,274.5 Z"/></g>
<g><path style="opacity:0.004" fill="#000000" d="M 357.5,274.5 C 357.5,275.167 357.5,275.833 357.5,276.5C 355.067,276.214 355.067,275.548 357.5,274.5 Z"/></g>
<g><path style="opacity:0.004" fill="#dcd5d1" d="M 71.5,274.5 C 71.8333,274.5 72.1667,274.5 72.5,274.5C 72.1667,277.167 71.8333,277.167 71.5,274.5 Z"/></g>
<g><path style="opacity:0.004" fill="#c9c3bc" d="M 216.5,275.5 C 216.833,275.5 217.167,275.5 217.5,275.5C 217.672,276.492 217.338,277.158 216.5,277.5C 216.5,276.833 216.5,276.167 216.5,275.5 Z"/></g>
<g><path style="opacity:0.004" fill="#000000" d="M 357.5,276.5 C 358.71,276.932 359.71,277.599 360.5,278.5C 359.167,278.833 359.167,279.167 360.5,279.5C 361.189,280.774 362.023,280.774 363,279.5C 363.658,281.108 363.158,282.275 361.5,283C 362.416,283.278 363.082,283.778 363.5,284.5C 362.503,284.47 361.836,284.97 361.5,286C 361.86,287.652 362.193,289.318 362.5,291C 359.403,294.33 358.07,293.496 358.5,288.5C 358.795,287.103 359.129,285.603 359.5,284C 358.934,283.005 358.267,282.172 357.5,281.5C 356.833,281.5 356.5,281.167 356.5,280.5C 355.833,280.5 355.5,280.167 355.5,279.5C 355.782,278.222 356.449,277.222 357.5,276.5 Z"/></g>
<g><path style="opacity:0.012" fill="#c7c1b8" d="M 215.5,277.5 C 215.833,277.5 216.167,277.5 216.5,277.5C 216.315,278.17 215.981,278.17 215.5,277.5 Z"/></g>
<g><path style="opacity:0.004" fill="#000000" d="M 361.5,278.5 C 362.601,277.402 363.934,277.235 365.5,278C 364.207,278.49 362.873,278.657 361.5,278.5 Z"/></g>
<g><path style="opacity:0.016" fill="#c8c2b9" d="M 214.5,278.5 C 214.833,278.5 215.167,278.5 215.5,278.5C 215.315,279.17 214.981,279.17 214.5,278.5 Z"/></g>
<g><path style="opacity:0.004" fill="#000000" d="M 360.5,278.5 C 360.833,278.5 361.167,278.5 361.5,278.5C 361.315,279.17 360.981,279.17 360.5,278.5 Z"/></g>
<g><path style="opacity:0.004" fill="#000000" d="M 365.5,281.5 C 364.475,281.103 364.308,280.437 365,279.5C 365.464,280.094 365.631,280.761 365.5,281.5 Z"/></g>
<g><path style="opacity:0.004" fill="#000000" d="M 365.5,281.5 C 366.885,282.947 366.552,283.947 364.5,284.5C 365.11,283.609 365.443,282.609 365.5,281.5 Z"/></g>
<g><path style="opacity:0.008" fill="#d6cec7" d="M 78.5,282.5 C 78.5,282.833 78.5,283.167 78.5,283.5C 77.8299,283.019 77.8299,282.685 78.5,282.5 Z"/></g>
<g><path style="opacity:0.999" fill="#d7c7b7" d="M 212.5,279.5 C 212.5,279.833 212.5,280.167 212.5,280.5C 211.833,280.5 211.5,280.833 211.5,281.5C 210.833,281.5 210.5,281.833 210.5,282.5C 208.142,284.678 205.475,286.345 202.5,287.5C 190.835,288.611 179.168,289.778 167.5,291C 161.746,292.416 156.079,294.083 150.5,296C 144.843,296.499 139.176,296.666 133.5,296.5C 130.482,296.296 127.482,295.963 124.5,295.5C 115.251,293.848 105.918,292.848 96.5,292.5C 95.8333,292.5 95.1667,292.5 94.5,292.5C 93.791,291.596 92.791,291.263 91.5,291.5C 91.0269,290.094 90.0269,289.427 88.5,289.5C 87.3065,288.728 86.3065,287.728 85.5,286.5C 92.0859,285.374 98.7526,285.208 105.5,286C 118.859,289.605 132.359,292.438 146,294.5C 151.47,293.206 156.97,292.039 162.5,291C 178.741,285.583 195.408,281.75 212.5,279.5 Z"/></g>
<g><path style="opacity:0.008" fill="#d5cdc5" d="M 78.5,283.5 C 79.1667,283.5 79.5,283.833 79.5,284.5C 79.1667,284.167 78.8333,283.833 78.5,283.5 Z"/></g>
<g><path style="opacity:0.004" fill="#d4cbc3" d="M 79.5,284.5 C 80.8333,285.167 80.8333,285.167 79.5,284.5 Z"/></g>
<g><path style="opacity:0.004" fill="#000000" d="M 363.5,284.5 C 363.833,284.5 364.167,284.5 364.5,284.5C 364.5,286.167 364.5,287.833 364.5,289.5C 363.549,288.081 363.216,286.415 363.5,284.5 Z"/></g>
<g><path style="opacity:0.016" fill="#d7cdc3" d="M 83.5,286.5 C 83.5,286.833 83.5,287.167 83.5,287.5C 82.8299,287.019 82.8299,286.685 83.5,286.5 Z"/></g>
<g><path style="opacity:0.008" fill="#d4c9bf" d="M 83.5,287.5 C 84.8333,288.167 84.8333,288.167 83.5,287.5 Z"/></g>
<g><path style="opacity:0.008" fill="#ddcfc2" d="M 88.5,289.5 C 88.5,289.833 88.5,290.167 88.5,290.5C 85.8333,290.167 85.8333,289.833 88.5,289.5 Z"/></g>
<g><path style="opacity:0.004" fill="#000000" d="M 364.5,289.5 C 365.525,289.897 365.692,290.563 365,291.5C 364.536,290.906 364.369,290.239 364.5,289.5 Z"/></g>
<g><path style="opacity:0.012" fill="#d6c6b7" d="M 88.5,290.5 C 89.8333,291.167 89.8333,291.167 88.5,290.5 Z"/></g>
<g><path style="opacity:0.012" fill="#d6c5b4" d="M 91.5,291.5 C 90.8333,292.167 90.8333,292.167 91.5,291.5 Z"/></g>
<g><path style="opacity:1" fill="#c5af9c" d="M 202.5,287.5 C 199.638,289.76 196.638,291.76 193.5,293.5C 193.167,293.5 192.833,293.5 192.5,293.5C 188.167,292.167 183.833,292.167 179.5,293.5C 174.657,293.222 169.99,293.889 165.5,295.5C 154.732,297.441 144.065,297.775 133.5,296.5C 139.176,296.666 144.843,296.499 150.5,296C 156.079,294.083 161.746,292.416 167.5,291C 179.168,289.778 190.835,288.611 202.5,287.5 Z"/></g>
<g><path style="opacity:0.004" fill="#e3c199" d="M 94.5,292.5 C 94.5,293.167 94.5,293.833 94.5,294.5C 92.0673,293.452 92.0673,292.786 94.5,292.5 Z"/></g>
<g><path style="opacity:1" fill="#c26d2c" d="M 96.5,293.5 C 96.5,293.167 96.5,292.833 96.5,292.5C 105.918,292.848 115.251,293.848 124.5,295.5C 127.45,297.115 130.116,299.115 132.5,301.5C 120.375,299.44 108.375,296.774 96.5,293.5 Z"/></g>
<g><path style="opacity:0.994" fill="#a55420" d="M 179.5,293.5 C 181.857,293.337 184.19,293.503 186.5,294C 177.471,297.51 168.138,299.677 158.5,300.5C 160.657,298.588 162.991,296.921 165.5,295.5C 169.99,293.889 174.657,293.222 179.5,293.5 Z"/></g>
<g><path style="opacity:0.004" fill="#e6b772" d="M 86.5,299.5 C 87.8333,300.167 87.8333,300.167 86.5,299.5 Z"/></g>
<g><path style="opacity:1" fill="#c27533" d="M 179.5,293.5 C 183.833,292.167 188.167,292.167 192.5,293.5C 194.077,295.802 193.411,297.302 190.5,298C 187.167,298.333 183.833,298.667 180.5,299C 175.926,301.757 171.093,302.591 166,301.5C 161.461,301.9 157.294,303.233 153.5,305.5C 154.833,303.5 156.5,301.833 158.5,300.5C 168.138,299.677 177.471,297.51 186.5,294C 184.19,293.503 181.857,293.337 179.5,293.5 Z"/></g>
<g><path style="opacity:0.012" fill="#ebc078" d="M 84.5,305.5 C 83.8333,304.167 83.8333,304.167 84.5,305.5 Z"/></g>
<g><path style="opacity:1" fill="#ce8c47" d="M 192.5,293.5 C 192.833,293.5 193.167,293.5 193.5,293.5C 198.257,296.923 201.924,301.256 204.5,306.5C 187.196,305.187 169.863,305.52 152.5,307.5C 152.328,306.508 152.662,305.842 153.5,305.5C 157.294,303.233 161.461,301.9 166,301.5C 171.093,302.591 175.926,301.757 180.5,299C 183.833,298.667 187.167,298.333 190.5,298C 193.411,297.302 194.077,295.802 192.5,293.5 Z"/></g>
<g><path style="opacity:0.008" fill="#eec279" d="M 83.5,308.5 C 82.475,308.103 82.3083,307.437 83,306.5C 83.4643,307.094 83.631,307.761 83.5,308.5 Z"/></g>
<g><path style="opacity:1" fill="#eec074" d="M 94.5,294.5 C 94.8333,294.5 95.1667,294.5 95.5,294.5C 103.522,296.276 111.188,299.11 118.5,303C 124.665,303.364 130.499,304.864 136,307.5C 136.667,309.5 136.667,311.5 136,313.5C 126.34,314.151 116.673,315.151 107,316.5C 103.096,316.073 99.2627,315.406 95.5,314.5C 91.4996,314.503 87.8329,315.503 84.5,317.5C 83.5975,314.609 83.2641,311.609 83.5,308.5C 84.404,307.791 84.7373,306.791 84.5,305.5C 87.1421,301.225 90.4754,297.558 94.5,294.5 Z"/></g>
<g><path style="opacity:0.012" fill="#e8bc76" d="M 81.5,309.5 C 82.6291,311.628 82.7958,313.961 82,316.5C 81.5034,314.19 81.3367,311.857 81.5,309.5 Z"/></g>
<g><path style="opacity:1" fill="#dfa95f" d="M 204.5,306.5 C 204.5,309.833 204.5,313.167 204.5,316.5C 200.141,316.534 195.808,316.201 191.5,315.5C 187.036,316.408 182.536,317.074 178,317.5C 173.019,316.516 168.019,315.516 163,314.5C 159.51,314.999 156.01,315.332 152.5,315.5C 152.5,312.833 152.5,310.167 152.5,307.5C 169.863,305.52 187.196,305.187 204.5,306.5 Z"/></g>
<g><path style="opacity:0.992" fill="#dc9c51" d="M 95.5,294.5 C 95.5,293.833 95.8333,293.5 96.5,293.5C 108.375,296.774 120.375,299.44 132.5,301.5C 137.867,305.24 139.534,310.24 137.5,316.5C 130.532,317.497 123.532,317.83 116.5,317.5C 107.983,317.174 99.6499,317.507 91.5,318.5C 89.5853,318.216 87.9187,318.549 86.5,319.5C 85.5,319.167 84.8333,318.5 84.5,317.5C 87.8329,315.503 91.4996,314.503 95.5,314.5C 99.2627,315.406 103.096,316.073 107,316.5C 116.673,315.151 126.34,314.151 136,313.5C 136.667,311.5 136.667,309.5 136,307.5C 130.499,304.864 124.665,303.364 118.5,303C 111.188,299.11 103.522,296.276 95.5,294.5 Z"/></g>
<g><path style="opacity:1" fill="#c48444" d="M 204.5,306.5 C 207.088,310.256 207.088,314.09 204.5,318C 195.987,318.31 187.487,318.81 179,319.5C 170.233,318.043 161.399,317.21 152.5,317C 151.182,313.731 151.182,310.565 152.5,307.5C 152.5,310.167 152.5,312.833 152.5,315.5C 156.01,315.332 159.51,314.999 163,314.5C 168.019,315.516 173.019,316.516 178,317.5C 182.536,317.074 187.036,316.408 191.5,315.5C 195.808,316.201 200.141,316.534 204.5,316.5C 204.5,313.167 204.5,309.833 204.5,306.5 Z"/></g>
<g><path style="opacity:0.008" fill="#d8a05f" d="M 82.5,317.5 C 83.8333,318.167 83.8333,318.167 82.5,317.5 Z"/></g>
<g><path style="opacity:1" fill="#b27338" d="M 91.5,318.5 C 99.6499,317.507 107.983,317.174 116.5,317.5C 114.321,318.926 111.821,319.592 109,319.5C 103.19,318.733 97.3569,318.399 91.5,318.5 Z"/></g>
<g><path style="opacity:0.004" fill="#e1ce6f" d="M 85.5,321.5 C 85.8417,320.662 86.5084,320.328 87.5,320.5C 87.5,320.833 87.5,321.167 87.5,321.5C 86.8333,321.5 86.1667,321.5 85.5,321.5 Z"/></g>
</svg>
