<?xml version="1.0" standalone="no"?>
<!DOCTYPE svg PUBLIC "-//W3C//DTD SVG 20010904//EN"
 "http://www.w3.org/TR/2001/REC-SVG-20010904/DTD/svg10.dtd">
<svg version="1.0" xmlns="http://www.w3.org/2000/svg"
 width="368.000000pt" height="368.000000pt" viewBox="0 0 368.000000 368.000000"
 preserveAspectRatio="xMidYMid meet">

<g transform="translate(0.000000,368.000000) scale(0.100000,-0.100000)"
fill="#000000" stroke="none">
<path d="M1615 3249 c-47 -6 -109 -33 -282 -120 -123 -62 -230 -120 -239 -131
-10 -10 -21 -18 -26 -18 -6 0 -21 -9 -35 -20 l-26 -20 -48 73 c-60 91 -127
155 -204 193 -51 25 -71 29 -135 28 -78 -1 -159 -26 -207 -64 -32 -25 -168
-196 -187 -235 -59 -120 -101 -229 -124 -327 -26 -107 -27 -126 -27 -363 0
-250 0 -250 28 -325 16 -41 39 -107 51 -147 13 -40 49 -116 81 -170 108 -185
183 -235 330 -215 49 7 84 17 101 31 l27 21 35 -52 c82 -122 192 -202 352
-253 47 -15 86 -29 87 -30 6 -4 -46 -143 -71 -193 -15 -29 -61 -89 -103 -133
-74 -77 -75 -80 -58 -99 25 -28 87 -26 177 6 87 31 142 61 223 123 66 50 74
58 112 115 l25 39 34 -54 c19 -29 52 -101 74 -159 58 -153 78 -189 140 -250
71 -72 136 -102 216 -102 74 -1 108 16 163 78 53 61 97 152 116 244 37 177 81
323 108 357 7 10 19 7 51 -13 22 -14 88 -49 146 -77 l105 -52 100 0 c88 0 106
4 151 27 43 23 74 59 74 87 0 21 -45 50 -116 75 -93 34 -165 78 -235 145 l-51
49 57 68 c32 37 76 105 98 151 l40 84 29 -60 c31 -66 86 -119 160 -157 76 -38
124 -45 219 -30 l83 13 78 82 c43 46 75 87 72 92 -3 6 3 20 13 32 21 23 60 89
99 168 45 91 103 338 103 439 0 25 3 99 6 165 7 143 -10 284 -53 425 -74 244
-183 353 -381 382 -66 10 -88 9 -145 -5 -129 -32 -254 -137 -342 -287 -39 -68
-41 -69 -62 -54 -12 8 -22 22 -22 30 0 8 -4 14 -9 14 -5 0 -12 8 -15 18 -3 10
-36 42 -72 72 -37 30 -80 67 -97 83 -35 32 -115 74 -237 124 -100 42 -343 95
-377 82 -13 -5 -25 -4 -28 1 -7 12 -65 11 -150 -1z m-890 -88 c20 -17 53 -42
73 -55 27 -17 52 -50 91 -120 l54 -97 -29 -30 -28 -29 -28 45 c-38 61 -98 120
-149 146 -52 26 -141 23 -185 -6 l-29 -20 57 -6 c89 -10 136 -52 217 -197 l41
-72 -40 -74 c-53 -97 -84 -177 -121 -311 -25 -96 -31 -138 -40 -325 -11 -240
-4 -331 36 -458 13 -42 23 -77 21 -79 -1 -2 -30 -6 -63 -9 -72 -8 -114 9 -176
70 -178 175 -265 499 -254 939 10 366 18 389 204 606 45 52 64 64 168 103 72
27 134 20 180 -21z m2478 -76 c69 -18 127 -53 160 -97 37 -50 104 -204 123
-283 22 -90 21 -402 0 -515 -31 -155 -47 -215 -80 -289 -19 -42 -37 -87 -41
-101 -21 -69 -90 -194 -137 -245 -84 -93 -155 -124 -235 -104 -68 17 -160 112
-191 195 -26 72 -27 83 -7 166 7 35 21 122 30 193 18 143 14 220 -16 325 -11
36 -19 80 -19 98 0 39 34 110 105 217 79 119 146 180 236 215 58 22 75 33 77
51 5 29 -13 39 -73 39 -126 0 -273 -129 -351 -308 -14 -34 -30 -59 -34 -57 -5
3 -16 29 -26 58 -9 28 -23 59 -30 68 -8 8 -14 23 -14 33 0 22 90 156 137 202
53 53 179 132 221 140 20 3 42 7 47 9 23 8 64 4 118 -10z m-2439 -734 c-13
-46 -30 -118 -38 -160 -11 -61 -14 -68 -15 -36 -1 38 21 131 55 238 26 79 24
49 -2 -42z m-41 -721 c6 -34 6 -34 -8 5 -9 28 -13 86 -13 190 l1 150 7 -155
c4 -85 10 -171 13 -190z m1851 -385 c66 -77 171 -148 251 -171 36 -10 64 -23
62 -29 -2 -5 -20 -18 -40 -28 -52 -26 -164 -25 -245 2 -93 32 -232 100 -239
118 -5 11 18 38 73 89 43 40 82 73 85 74 3 0 27 -25 53 -55z m-1286 -60 c58
-14 150 -54 127 -55 -14 0 -213 68 -200 69 6 0 38 -6 73 -14z m42 -131 c40
-15 74 -33 77 -40 8 -21 -42 -98 -94 -144 -92 -82 -278 -190 -327 -190 -41 0
-38 17 7 43 23 14 63 47 88 74 50 53 135 201 145 251 4 18 12 32 20 32 7 0 45
-12 84 -26z m714 -526 c-29 -53 -93 -85 -134 -70 -21 8 -19 10 21 20 25 6 60
22 79 36 42 29 43 30 34 14z"/>
</g>
</svg>
