<?xml version="1.0" encoding="UTF-8"?>
<!DOCTYPE svg PUBLIC "-//W3C//DTD SVG 1.1//EN" "http://www.w3.org/Graphics/SVG/1.1/DTD/svg11.dtd">
<svg xmlns="http://www.w3.org/2000/svg" version="1.1" width="243px" height="213px" style="shape-rendering:geometricPrecision; text-rendering:geometricPrecision; image-rendering:optimizeQuality; fill-rule:evenodd; clip-rule:evenodd" xmlns:xlink="http://www.w3.org/1999/xlink">
<g><path style="opacity:0.978" fill="#fbd36e" d="M 97.5,-0.5 C 101.167,-0.5 104.833,-0.5 108.5,-0.5C 113.592,1.88111 118.592,4.54778 123.5,7.5C 123.265,8.09674 122.765,8.43007 122,8.5C 120.202,7.49623 118.368,6.99623 116.5,7C 116.64,8.59707 116.64,10.0971 116.5,11.5C 114.518,12.2162 112.851,13.3829 111.5,15C 114.259,15.559 116.259,17.059 117.5,19.5C 116.349,20.731 115.183,20.731 114,19.5C 113.085,20.3279 112.419,21.3279 112,22.5C 111.586,22.0426 111.086,21.7093 110.5,21.5C 107.593,23.0665 104.926,24.8998 102.5,27C 104.5,28 106.5,29 108.5,30C 107.109,31.02 105.609,31.8534 104,32.5C 103.667,33.8333 103.333,35.1667 103,36.5C 99.9433,37.4505 96.7766,37.7839 93.5,37.5C 93.5,38.5 93.5,39.5 93.5,40.5C 91.8333,40.5 90.1667,40.5 88.5,40.5C 88.5,39.5 88.5,38.5 88.5,37.5C 86.7085,37.366 85.0418,37.6993 83.5,38.5C 81.9579,35.8927 82.4579,35.2261 85,36.5C 89.4378,31.6072 93.7712,31.2738 98,35.5C 99.0424,31.4519 99.3757,27.4519 99,23.5C 100.185,25.5593 101.352,25.726 102.5,24C 101.167,22 101.167,20 102.5,18C 101.937,16.2965 101.27,16.4632 100.5,18.5C 99.3112,19.4287 97.9778,19.762 96.5,19.5C 96.1192,17.0582 96.7859,16.3915 98.5,17.5C 99.3857,16.675 99.719,15.675 99.5,14.5C 98.1667,14.5 96.8333,14.5 95.5,14.5C 95.4268,11.3177 94.9268,8.31772 94,5.5C 94.414,5.04265 94.914,4.70931 95.5,4.5C 97.0089,6.9148 98.6755,7.08147 100.5,5C 99.5509,4.38277 98.7175,4.54943 98,5.5C 97.5204,3.86698 96.6871,2.53365 95.5,1.5C 96.1667,0.833333 96.8333,0.166667 97.5,-0.5 Z"/></g>
<g><path style="opacity:0.928" fill="#fcd472" d="M 95.5,1.5 C 96.6871,2.53365 97.5204,3.86698 98,5.5C 98.7175,4.54943 99.5509,4.38277 100.5,5C 98.6755,7.08147 97.0089,6.9148 95.5,4.5C 94.914,4.70931 94.414,5.04265 94,5.5C 94.9268,8.31772 95.4268,11.3177 95.5,14.5C 96.8333,14.5 98.1667,14.5 99.5,14.5C 99.719,15.675 99.3857,16.675 98.5,17.5C 96.7859,16.3915 96.1192,17.0582 96.5,19.5C 97.9778,19.762 99.3112,19.4287 100.5,18.5C 101.27,16.4632 101.937,16.2965 102.5,18C 101.167,20 101.167,22 102.5,24C 101.352,25.726 100.185,25.5593 99,23.5C 99.3757,27.4519 99.0424,31.4519 98,35.5C 93.7712,31.2738 89.4378,31.6072 85,36.5C 82.4579,35.2261 81.9579,35.8927 83.5,38.5C 81.8007,38.4729 80.4674,37.8062 79.5,36.5C 81.0998,25.5339 84.5998,15.2006 90,5.5C 91.451,3.53594 93.2843,2.20261 95.5,1.5 Z"/></g>
<g><path style="opacity:1" fill="#fbcf61" d="M 123.5,7.5 C 124.5,7.83333 125.167,8.5 125.5,9.5C 125.559,12.0613 124.892,14.728 123.5,17.5C 126.052,17.3545 128.385,16.8545 130.5,16C 129.289,17.1131 129.289,18.2798 130.5,19.5C 129.354,20.7187 128.354,22.0521 127.5,23.5C 124.005,21.1352 123.672,21.8019 126.5,25.5C 124.994,26.7472 123.494,26.7472 122,25.5C 121.667,26.5 121.333,27.5 121,28.5C 119.915,27.7069 118.748,27.0402 117.5,26.5C 115.239,28.5336 112.572,29.7003 109.5,30C 111.283,31.0665 111.783,32.5665 111,34.5C 109.951,35.5171 108.784,35.6838 107.5,35C 108.711,34.1072 108.711,33.2739 107.5,32.5C 104.84,35.489 104.84,38.489 107.5,41.5C 105.117,42.462 104.117,41.462 104.5,38.5C 103.022,38.238 101.689,38.5713 100.5,39.5C 101.325,40.3857 102.325,40.719 103.5,40.5C 103.5,41.5 103.5,42.5 103.5,43.5C 102.778,43.0825 102.278,42.4158 102,41.5C 98.2158,42.6371 94.3825,42.6371 90.5,41.5C 90.7229,44.1142 89.5562,45.7809 87,46.5C 86.3551,45.354 85.5217,44.354 84.5,43.5C 85.5628,41.634 84.8961,41.134 82.5,42C 81.6828,44.3725 80.3495,44.8725 78.5,43.5C 78.9926,41.1944 79.3259,38.861 79.5,36.5C 80.4674,37.8062 81.8007,38.4729 83.5,38.5C 85.0418,37.6993 86.7085,37.366 88.5,37.5C 88.5,38.5 88.5,39.5 88.5,40.5C 90.1667,40.5 91.8333,40.5 93.5,40.5C 93.5,39.5 93.5,38.5 93.5,37.5C 96.7766,37.7839 99.9433,37.4505 103,36.5C 103.333,35.1667 103.667,33.8333 104,32.5C 105.609,31.8534 107.109,31.02 108.5,30C 106.5,29 104.5,28 102.5,27C 104.926,24.8998 107.593,23.0665 110.5,21.5C 111.086,21.7093 111.586,22.0426 112,22.5C 112.419,21.3279 113.085,20.3279 114,19.5C 115.183,20.731 116.349,20.731 117.5,19.5C 116.259,17.059 114.259,15.559 111.5,15C 112.851,13.3829 114.518,12.2162 116.5,11.5C 116.64,10.0971 116.64,8.59707 116.5,7C 118.368,6.99623 120.202,7.49623 122,8.5C 122.765,8.43007 123.265,8.09674 123.5,7.5 Z"/></g>
<g><path style="opacity:1" fill="#fcd474" d="M 134.5,15.5 C 139.871,19.1794 145.204,22.8461 150.5,26.5C 149.078,26.7086 147.745,27.2086 146.5,28C 146.833,28.3333 147.167,28.6667 147.5,29C 146.624,30.586 145.624,32.086 144.5,33.5C 145.325,34.3857 146.325,34.719 147.5,34.5C 147.343,33.1266 147.51,31.7932 148,30.5C 148.317,32.3008 148.984,32.6341 150,31.5C 150.395,33.3423 151.228,35.3423 152.5,37.5C 151.187,39.9218 149.687,42.2551 148,44.5C 144.903,43.7107 144.736,42.544 147.5,41C 146.328,40.6466 145.162,40.8132 144,41.5C 142.503,40.5227 141.003,39.5227 139.5,38.5C 137.109,39.1914 137.109,40.1914 139.5,41.5C 138.423,42.7051 137.09,43.3718 135.5,43.5C 134.466,42.3129 133.133,41.4796 131.5,41C 133.481,40.3946 133.815,39.3946 132.5,38C 133.976,34.6879 134.81,31.1879 135,27.5C 135.493,30.9847 136.993,31.4847 139.5,29C 139.034,27.7012 139.034,26.2012 139.5,24.5C 137.833,24.5 136.167,24.5 134.5,24.5C 132.566,21.7284 133.233,19.8951 136.5,19C 133.81,18.6655 133.143,17.4988 134.5,15.5 Z"/></g>
<g><path style="opacity:1" fill="#fbd371" d="M 125.5,9.5 C 128.68,11.2549 131.68,13.2549 134.5,15.5C 133.143,17.4988 133.81,18.6655 136.5,19C 133.233,19.8951 132.566,21.7284 134.5,24.5C 136.167,24.5 137.833,24.5 139.5,24.5C 139.034,26.2012 139.034,27.7012 139.5,29C 136.993,31.4847 135.493,30.9847 135,27.5C 134.81,31.1879 133.976,34.6879 132.5,38C 133.815,39.3946 133.481,40.3946 131.5,41C 133.133,41.4796 134.466,42.3129 135.5,43.5C 136.353,45.5971 136.353,47.5971 135.5,49.5C 135.818,50.6473 136.484,51.4806 137.5,52C 135.996,53.3369 134.996,55.0036 134.5,57C 135.938,57.2189 137.271,57.7189 138.5,58.5C 137.391,60.2141 138.058,60.8808 140.5,60.5C 140.167,61.1667 139.833,61.8333 139.5,62.5C 136.098,64.431 133.931,67.431 133,71.5C 131.989,72.3366 130.822,72.67 129.5,72.5C 129.919,75.3245 128.919,77.4912 126.5,79C 128.693,78.4303 130.693,78.7637 132.5,80C 130.311,80.677 129.978,81.8437 131.5,83.5C 130.372,84.2621 129.205,84.9288 128,85.5C 127.308,86.4368 127.475,87.1034 128.5,87.5C 127.817,89.1765 126.483,89.8432 124.5,89.5C 124.762,88.0222 124.429,86.6888 123.5,85.5C 121.806,87.1937 120.14,88.8604 118.5,90.5C 114.964,89.619 111.63,88.2857 108.5,86.5C 109.242,84.6503 110.242,83.9836 111.5,84.5C 109.027,82.9385 107.027,80.9385 105.5,78.5C 106.325,77.6143 107.325,77.281 108.5,77.5C 108.846,70.8268 108.179,64.1601 106.5,57.5C 106.667,56.8333 106.833,56.1667 107,55.5C 107.249,56.624 107.749,57.624 108.5,58.5C 108.833,58.1667 109.167,57.8333 109.5,57.5C 107.507,54.1086 106.34,50.4419 106,46.5C 105.302,45.3094 104.469,44.3094 103.5,43.5C 103.5,42.5 103.5,41.5 103.5,40.5C 102.325,40.719 101.325,40.3857 100.5,39.5C 101.689,38.5713 103.022,38.238 104.5,38.5C 104.117,41.462 105.117,42.462 107.5,41.5C 104.84,38.489 104.84,35.489 107.5,32.5C 108.711,33.2739 108.711,34.1072 107.5,35C 108.784,35.6838 109.951,35.5171 111,34.5C 111.783,32.5665 111.283,31.0665 109.5,30C 112.572,29.7003 115.239,28.5336 117.5,26.5C 118.748,27.0402 119.915,27.7069 121,28.5C 121.333,27.5 121.667,26.5 122,25.5C 123.494,26.7472 124.994,26.7472 126.5,25.5C 123.672,21.8019 124.005,21.1352 127.5,23.5C 128.354,22.0521 129.354,20.7187 130.5,19.5C 129.289,18.2798 129.289,17.1131 130.5,16C 128.385,16.8545 126.052,17.3545 123.5,17.5C 124.892,14.728 125.559,12.0613 125.5,9.5 Z"/></g>
<g><path style="opacity:0.978" fill="#fad272" d="M 167.5,39.5 C 171.105,41.4719 174.105,44.1385 176.5,47.5C 176.297,49.0443 175.63,50.3777 174.5,51.5C 174.977,52.4776 175.643,53.3109 176.5,54C 174.687,53.9536 173.021,54.1203 171.5,54.5C 173.788,57.87 173.121,58.2034 169.5,55.5C 168.3,56.5312 166.966,57.3645 165.5,58C 165.833,58.3333 166.167,58.6667 166.5,59C 165.5,59.8333 164.5,60.6667 163.5,61.5C 164.311,62.2164 164.978,63.0497 165.5,64C 163.433,67.3941 160.766,68.3941 157.5,67C 161.585,65.3103 162.252,63.3103 159.5,61C 157.334,62.678 156.001,64.8447 155.5,67.5C 154.5,67.5 153.5,67.5 152.5,67.5C 152.5,68.5 152.5,69.5 152.5,70.5C 150.801,70.6602 149.134,70.4935 147.5,70C 149.569,69.6758 149.902,68.8425 148.5,67.5C 146.684,66.0576 144.684,65.5576 142.5,66C 143.784,67.2975 143.617,68.4642 142,69.5C 141.691,68.2341 141.191,67.0674 140.5,66C 140.833,65.6667 141.167,65.3333 141.5,65C 140.244,64.5831 139.577,63.7498 139.5,62.5C 139.833,61.8333 140.167,61.1667 140.5,60.5C 141.289,60.2172 141.956,59.7172 142.5,59C 141.488,56.6747 140.488,54.3413 139.5,52C 140.009,50.8315 140.842,49.9981 142,49.5C 142.333,51.1667 142.667,52.8333 143,54.5C 144.612,51.5211 147.112,50.1878 150.5,50.5C 150.479,54.6626 152.312,56.3293 156,55.5C 157.152,57.5117 158.318,57.6783 159.5,56C 157.999,54.7485 156.332,53.7485 154.5,53C 155.891,51.98 157.391,51.1466 159,50.5C 159.492,49.451 159.326,48.451 158.5,47.5C 161.23,45.5887 164.23,44.2554 167.5,43.5C 166.637,42.2736 166.637,40.9403 167.5,39.5 Z"/></g>
<g><path style="opacity:1" fill="#f9d170" d="M 150.5,26.5 C 156.475,30.4811 162.142,34.8144 167.5,39.5C 166.637,40.9403 166.637,42.2736 167.5,43.5C 164.23,44.2554 161.23,45.5887 158.5,47.5C 159.326,48.451 159.492,49.451 159,50.5C 157.391,51.1466 155.891,51.98 154.5,53C 156.332,53.7485 157.999,54.7485 159.5,56C 158.318,57.6783 157.152,57.5117 156,55.5C 152.312,56.3293 150.479,54.6626 150.5,50.5C 147.112,50.1878 144.612,51.5211 143,54.5C 142.667,52.8333 142.333,51.1667 142,49.5C 140.842,49.9981 140.009,50.8315 139.5,52C 140.488,54.3413 141.488,56.6747 142.5,59C 141.956,59.7172 141.289,60.2172 140.5,60.5C 138.058,60.8808 137.391,60.2141 138.5,58.5C 137.271,57.7189 135.938,57.2189 134.5,57C 134.996,55.0036 135.996,53.3369 137.5,52C 136.484,51.4806 135.818,50.6473 135.5,49.5C 136.353,47.5971 136.353,45.5971 135.5,43.5C 137.09,43.3718 138.423,42.7051 139.5,41.5C 137.109,40.1914 137.109,39.1914 139.5,38.5C 141.003,39.5227 142.503,40.5227 144,41.5C 145.162,40.8132 146.328,40.6466 147.5,41C 144.736,42.544 144.903,43.7107 148,44.5C 149.687,42.2551 151.187,39.9218 152.5,37.5C 151.228,35.3423 150.395,33.3423 150,31.5C 148.984,32.6341 148.317,32.3008 148,30.5C 147.51,31.7932 147.343,33.1266 147.5,34.5C 146.325,34.719 145.325,34.3857 144.5,33.5C 145.624,32.086 146.624,30.586 147.5,29C 147.167,28.6667 146.833,28.3333 146.5,28C 147.745,27.2086 149.078,26.7086 150.5,26.5 Z"/></g>
<g><path style="opacity:1" fill="#f7d06f" d="M 176.5,47.5 C 178.909,48.7007 180.909,50.3674 182.5,52.5C 182.279,53.7348 181.612,54.7348 180.5,55.5C 180.709,56.086 181.043,56.586 181.5,57C 176,62.3114 176.333,63.1448 182.5,59.5C 183.672,59.9186 184.672,60.5853 185.5,61.5C 181.204,67.5461 182.537,68.8795 189.5,65.5C 190.308,65.8076 190.975,66.3076 191.5,67C 188.461,67.3534 185.795,68.5201 183.5,70.5C 184.441,70.4895 185.108,70.9895 185.5,72C 185.333,72.5 185.167,73 185,73.5C 184.107,72.2888 183.274,72.2888 182.5,73.5C 186.057,76.4523 185.724,79.2856 181.5,82C 182.448,82.4828 183.448,82.6495 184.5,82.5C 182.407,83.9939 180.241,84.6606 178,84.5C 177.957,80.63 179.123,77.13 181.5,74C 179.447,73.6753 177.447,74.0087 175.5,75C 176.654,75.9138 176.487,76.7471 175,77.5C 171.766,75.5406 171.933,73.7073 175.5,72C 173.76,70.173 172.093,70.3397 170.5,72.5C 169.833,71.8333 169.167,71.1667 168.5,70.5C 165.279,72.8058 161.945,73.8058 158.5,73.5C 159.776,72.6136 159.776,71.6136 158.5,70.5C 156.866,70.968 155.7,71.968 155,73.5C 154.51,71.4546 154.677,69.4546 155.5,67.5C 156.001,64.8447 157.334,62.678 159.5,61C 162.252,63.3103 161.585,65.3103 157.5,67C 160.766,68.3941 163.433,67.3941 165.5,64C 164.978,63.0497 164.311,62.2164 163.5,61.5C 164.5,60.6667 165.5,59.8333 166.5,59C 166.167,58.6667 165.833,58.3333 165.5,58C 166.966,57.3645 168.3,56.5312 169.5,55.5C 173.121,58.2034 173.788,57.87 171.5,54.5C 173.021,54.1203 174.687,53.9536 176.5,54C 175.643,53.3109 174.977,52.4776 174.5,51.5C 175.63,50.3777 176.297,49.0443 176.5,47.5 Z"/></g>
<g><path style="opacity:1" fill="#cfa01a" d="M 36.5,68.5 C 42.8043,70.6557 48.8043,73.3224 54.5,76.5C 51.6844,76.8249 49.1844,77.8249 47,79.5C 45.4419,78.6548 44.4419,79.3215 44,81.5C 43.1739,79.5946 42.0072,79.2612 40.5,80.5C 41.8532,81.5237 42.5198,82.857 42.5,84.5C 44.5922,84.4386 46.0922,83.4386 47,81.5C 48.5848,82.3757 49.5848,83.7091 50,85.5C 51.883,84.3474 52.7163,82.6807 52.5,80.5C 55.8502,80.5056 58.8502,81.5056 61.5,83.5C 61.1667,83.8333 60.8333,84.1667 60.5,84.5C 54.147,81.1981 52.4803,82.5314 55.5,88.5C 57.5753,88.3016 59.5753,88.1349 61.5,88C 63.2772,91.9454 65.2772,95.7788 67.5,99.5C 66.5041,99.5858 65.6708,99.2524 65,98.5C 63.3142,103.659 61.9809,103.325 61,97.5C 59.7318,97.3842 58.3985,97.0509 57,96.5C 56.6667,94.8333 56.3333,93.1667 56,91.5C 55.2828,92.0442 54.7828,92.7109 54.5,93.5C 52.9519,93.1788 52.2852,92.1788 52.5,90.5C 50.3254,90.6822 48.3254,91.3489 46.5,92.5C 45.4461,92.3201 44.4461,91.9867 43.5,91.5C 41.8208,89.1575 40.1541,86.8242 38.5,84.5C 36.1625,86.0107 35.4958,85.6773 36.5,83.5C 34.471,81.3704 32.1377,79.7037 29.5,78.5C 30.5,77.8333 31.5,77.1667 32.5,76.5C 31.4104,75.3914 31.4104,74.3914 32.5,73.5C 33.7202,74.7111 34.8869,74.7111 36,73.5C 35.5241,71.6799 35.6907,70.0133 36.5,68.5 Z"/></g>
<g><path style="opacity:1" fill="#f4ca62" d="M 139.5,62.5 C 139.577,63.7498 140.244,64.5831 141.5,65C 141.167,65.3333 140.833,65.6667 140.5,66C 141.191,67.0674 141.691,68.2341 142,69.5C 143.617,68.4642 143.784,67.2975 142.5,66C 144.684,65.5576 146.684,66.0576 148.5,67.5C 149.902,68.8425 149.569,69.6758 147.5,70C 149.134,70.4935 150.801,70.6602 152.5,70.5C 152.5,69.5 152.5,68.5 152.5,67.5C 153.5,67.5 154.5,67.5 155.5,67.5C 154.677,69.4546 154.51,71.4546 155,73.5C 155.7,71.968 156.866,70.968 158.5,70.5C 159.776,71.6136 159.776,72.6136 158.5,73.5C 157.833,73.5 157.5,73.8333 157.5,74.5C 156.833,74.8333 156.167,75.1667 155.5,75.5C 154.883,75.3893 154.383,75.056 154,74.5C 153.335,76.9663 152.835,79.1329 152.5,81C 151.551,81.6172 150.718,81.4506 150,80.5C 149.612,81.428 148.945,82.0946 148,82.5C 146.386,81.1834 145.219,79.5167 144.5,77.5C 142.326,75.2192 140.326,75.2192 138.5,77.5C 137.579,79.7765 136.913,82.1099 136.5,84.5C 135.833,85.5 135.167,86.5 134.5,87.5C 134.631,86.6236 134.298,85.9569 133.5,85.5C 131.925,86.4565 130.258,87.1231 128.5,87.5C 127.475,87.1034 127.308,86.4368 128,85.5C 129.205,84.9288 130.372,84.2621 131.5,83.5C 129.978,81.8437 130.311,80.677 132.5,80C 130.693,78.7637 128.693,78.4303 126.5,79C 128.919,77.4912 129.919,75.3245 129.5,72.5C 130.822,72.67 131.989,72.3366 133,71.5C 133.931,67.431 136.098,64.431 139.5,62.5 Z"/></g>
<g><path style="opacity:1" fill="#f9d271" d="M 184.5,82.5 C 188.712,79.4804 189.712,79.9804 187.5,84C 187.833,84.1667 188.167,84.3333 188.5,84.5C 191.289,82.7018 194.289,82.2018 197.5,83C 195.661,84.1316 193.661,84.9649 191.5,85.5C 190.833,86.5 190.167,87.5 189.5,88.5C 187.954,86.516 186.287,86.1826 184.5,87.5C 182.473,88.1247 180.64,88.1247 179,87.5C 178.059,89.0614 176.892,90.3947 175.5,91.5C 174.707,90.6446 175.04,89.8113 176.5,89C 175.216,88.3162 174.049,88.4829 173,89.5C 173.178,87.5596 172.178,85.893 170,84.5C 165.566,85.3377 165.399,84.5043 169.5,82C 168.101,81.4054 166.768,81.5721 165.5,82.5C 164.193,81.1845 162.693,80.1845 161,79.5C 161.046,81.3126 160.88,82.9793 160.5,84.5C 158.691,81.4069 157.691,78.0736 157.5,74.5C 157.5,73.8333 157.833,73.5 158.5,73.5C 161.945,73.8058 165.279,72.8058 168.5,70.5C 169.167,71.1667 169.833,71.8333 170.5,72.5C 172.093,70.3397 173.76,70.173 175.5,72C 171.933,73.7073 171.766,75.5406 175,77.5C 176.487,76.7471 176.654,75.9138 175.5,75C 177.447,74.0087 179.447,73.6753 181.5,74C 179.123,77.13 177.957,80.63 178,84.5C 180.241,84.6606 182.407,83.9939 184.5,82.5 Z"/></g>
<g><path style="opacity:1" fill="#d5a416" d="M 54.5,76.5 C 62.2834,79.5582 69.9501,82.8916 77.5,86.5C 77.9267,89.0098 78.5933,91.3432 79.5,93.5C 79.9598,99.9251 80.9598,106.258 82.5,112.5C 80.0968,112.393 78.2635,113.393 77,115.5C 76.0853,114.672 75.4186,113.672 75,112.5C 74.6667,112.833 74.3333,113.167 74,113.5C 73.8091,111.292 73.3091,109.292 72.5,107.5C 71.2921,106.766 69.9587,106.433 68.5,106.5C 68.3259,104.139 67.9926,101.806 67.5,99.5C 65.2772,95.7788 63.2772,91.9454 61.5,88C 59.5753,88.1349 57.5753,88.3016 55.5,88.5C 52.4803,82.5314 54.147,81.1981 60.5,84.5C 60.8333,84.1667 61.1667,83.8333 61.5,83.5C 58.8502,81.5056 55.8502,80.5056 52.5,80.5C 52.7163,82.6807 51.883,84.3474 50,85.5C 49.5848,83.7091 48.5848,82.3757 47,81.5C 46.0922,83.4386 44.5922,84.4386 42.5,84.5C 42.5198,82.857 41.8532,81.5237 40.5,80.5C 42.0072,79.2612 43.1739,79.5946 44,81.5C 44.4419,79.3215 45.4419,78.6548 47,79.5C 49.1844,77.8249 51.6844,76.8249 54.5,76.5 Z"/></g>
<g><path style="opacity:1" fill="#c69a21" d="M 36.5,68.5 C 35.6907,70.0133 35.5241,71.6799 36,73.5C 34.8869,74.7111 33.7202,74.7111 32.5,73.5C 31.4104,74.3914 31.4104,75.3914 32.5,76.5C 31.5,77.1667 30.5,77.8333 29.5,78.5C 32.1377,79.7037 34.471,81.3704 36.5,83.5C 35.4958,85.6773 36.1625,86.0107 38.5,84.5C 40.1541,86.8242 41.8208,89.1575 43.5,91.5C 44.4461,91.9867 45.4461,92.3201 46.5,92.5C 48.3254,91.3489 50.3254,90.6822 52.5,90.5C 52.2852,92.1788 52.9519,93.1788 54.5,93.5C 54.1193,94.9311 53.1193,95.7645 51.5,96C 52.1667,96.6667 52.8333,97.3333 53.5,98C 52.7833,100.715 51.2833,102.882 49,104.5C 47.7202,104.387 46.8869,103.72 46.5,102.5C 47.2739,101.289 48.1072,101.289 49,102.5C 52.6802,98.5481 52.3468,97.8815 48,100.5C 46.779,99.7282 45.779,98.7282 45,97.5C 44.5078,98.549 44.6744,99.549 45.5,100.5C 44.4783,101.354 43.6449,102.354 43,103.5C 41.9887,102.663 40.8221,102.33 39.5,102.5C 39.8588,100.234 39.1922,98.4007 37.5,97C 38.3995,94.8083 39.3995,92.6416 40.5,90.5C 40,89.5 39.5,88.5 39,87.5C 36.8333,88.3333 35.3333,89.8333 34.5,92C 32.5355,92.624 30.8689,92.124 29.5,90.5C 28.1585,92.0049 26.4918,92.6715 24.5,92.5C 24.2343,88.9206 22.901,88.5873 20.5,91.5C 19.8243,90.3984 19.1577,89.3984 18.5,88.5C 18.8146,86.7741 18.9813,85.1075 19,83.5C 17.9887,84.3366 16.8221,84.67 15.5,84.5C 15.3739,82.8002 14.7073,81.3002 13.5,80C 14.2887,78.3745 15.2887,76.8745 16.5,75.5C 17.3957,76.5063 18.0623,76.5063 18.5,75.5C 15.3258,70.3768 12.3258,70.3768 9.5,75.5C 7.44947,72.785 5.7828,72.9517 4.5,76C 3.55198,76.4828 2.55198,76.6495 1.5,76.5C 0.833333,75.8333 0.166667,75.1667 -0.5,74.5C -0.5,70.8333 -0.5,67.1667 -0.5,63.5C 12.3691,60.6984 24.7024,62.3651 36.5,68.5 Z"/></g>
<g><path style="opacity:1" fill="#f9d170" d="M 155.5,75.5 C 155.414,79.3176 156.081,82.9843 157.5,86.5C 157.029,88.2464 156.362,89.913 155.5,91.5C 155.919,92.6721 156.585,93.6721 157.5,94.5C 153.782,95.269 152.782,97.269 154.5,100.5C 154.5,100.833 154.5,101.167 154.5,101.5C 152.766,100.438 151.099,100.438 149.5,101.5C 147.852,104.818 145.519,104.985 142.5,102C 143.833,100.16 143.666,99.6598 142,100.5C 142.141,96.1688 140.808,95.5022 138,98.5C 137.667,98.1667 137.333,97.8333 137,97.5C 137.665,93.153 137.498,88.8197 136.5,84.5C 136.913,82.1099 137.579,79.7765 138.5,77.5C 140.326,75.2192 142.326,75.2192 144.5,77.5C 145.219,79.5167 146.386,81.1834 148,82.5C 148.945,82.0946 149.612,81.428 150,80.5C 150.718,81.4506 151.551,81.6172 152.5,81C 152.835,79.1329 153.335,76.9663 154,74.5C 154.383,75.056 154.883,75.3893 155.5,75.5 Z"/></g>
<g><path style="opacity:1" fill="#fbd16c" d="M 136.5,84.5 C 137.498,88.8197 137.665,93.153 137,97.5C 137.333,97.8333 137.667,98.1667 138,98.5C 140.808,95.5022 142.141,96.1688 142,100.5C 143.666,99.6598 143.833,100.16 142.5,102C 145.519,104.985 147.852,104.818 149.5,101.5C 151.194,105.806 149.86,107.14 145.5,105.5C 143.172,107.574 143.839,108.574 147.5,108.5C 147.434,111.915 146.268,114.915 144,117.5C 143.329,118.252 142.496,118.586 141.5,118.5C 140.883,118.389 140.383,118.056 140,117.5C 139.691,118.766 139.191,119.933 138.5,121C 136.444,121.311 134.444,121.811 132.5,122.5C 131.479,123.002 131.312,123.668 132,124.5C 133.356,123.62 134.856,123.286 136.5,123.5C 136.671,126.797 136.005,127.131 134.5,124.5C 133.15,125.95 131.484,126.617 129.5,126.5C 129.579,125.07 129.246,123.736 128.5,122.5C 130.335,121.572 130.668,120.406 129.5,119C 131.278,116.865 131.945,114.365 131.5,111.5C 129.473,111.662 127.473,111.495 125.5,111C 125.957,110.586 126.291,110.086 126.5,109.5C 125.74,106.179 125.074,102.846 124.5,99.5C 124.783,98.7109 125.283,98.0442 126,97.5C 126.707,99.0806 127.54,100.581 128.5,102C 129.5,102.667 130.5,102.667 131.5,102C 130.601,99.8083 129.601,97.6416 128.5,95.5C 128.846,94.3044 129.346,94.3044 130,95.5C 131.287,92.5806 132.787,89.914 134.5,87.5C 135.167,86.5 135.833,85.5 136.5,84.5 Z"/></g>
<g><path style="opacity:1" fill="#f7c74d" d="M 103.5,43.5 C 104.469,44.3094 105.302,45.3094 106,46.5C 106.34,50.4419 107.507,54.1086 109.5,57.5C 109.167,57.8333 108.833,58.1667 108.5,58.5C 107.749,57.624 107.249,56.624 107,55.5C 106.833,56.1667 106.667,56.8333 106.5,57.5C 108.179,64.1601 108.846,70.8268 108.5,77.5C 107.325,77.281 106.325,77.6143 105.5,78.5C 107.027,80.9385 109.027,82.9385 111.5,84.5C 110.242,83.9836 109.242,84.6503 108.5,86.5C 111.63,88.2857 114.964,89.619 118.5,90.5C 120.14,88.8604 121.806,87.1937 123.5,85.5C 124.429,86.6888 124.762,88.0222 124.5,89.5C 126.483,89.8432 127.817,89.1765 128.5,87.5C 130.258,87.1231 131.925,86.4565 133.5,85.5C 134.298,85.9569 134.631,86.6236 134.5,87.5C 132.787,89.914 131.287,92.5806 130,95.5C 129.346,94.3044 128.846,94.3044 128.5,95.5C 129.601,97.6416 130.601,99.8083 131.5,102C 130.5,102.667 129.5,102.667 128.5,102C 127.54,100.581 126.707,99.0806 126,97.5C 125.283,98.0442 124.783,98.7109 124.5,99.5C 123.221,101.123 121.887,102.79 120.5,104.5C 123.044,105.937 123.044,107.437 120.5,109C 121.766,109.309 122.933,109.809 124,110.5C 124.045,113.334 124.879,115.834 126.5,118C 123.936,118.45 122.436,117.284 122,114.5C 120.989,115.337 119.822,115.67 118.5,115.5C 116.744,114.448 116.077,112.781 116.5,110.5C 111.121,111.933 110.454,110.766 114.5,107C 111.955,104.935 109.621,105.102 107.5,107.5C 106.264,106.754 104.93,106.421 103.5,106.5C 103.5,107.5 103.5,108.5 103.5,109.5C 101.94,109.481 100.44,109.148 99,108.5C 97.3468,108.82 96.3468,109.82 96,111.5C 95.5,111 95,110.5 94.5,110C 96.1724,106.663 97.839,103.33 99.5,100C 97.6239,98.6246 95.6239,97.458 93.5,96.5C 95.4691,94.579 96.9691,94.579 98,96.5C 97.8475,94.4815 97.3475,92.4815 96.5,90.5C 95.5,90.5 94.5,90.5 93.5,90.5C 93.719,91.675 93.3857,92.675 92.5,93.5C 91.7193,92.2634 90.7193,91.2634 89.5,90.5C 89.3306,92.1173 88.9972,93.784 88.5,95.5C 87.5224,95.0233 86.6891,94.3567 86,93.5C 85.8195,95.4884 85.9862,97.4884 86.5,99.5C 85.5,99.5 84.5,99.5 83.5,99.5C 83.8505,96.1438 83.0171,93.1438 81,90.5C 80.4867,91.5266 79.9867,92.5266 79.5,93.5C 78.5933,91.3432 77.9267,89.0098 77.5,86.5C 77.2551,72.1418 77.5884,57.8085 78.5,43.5C 80.3495,44.8725 81.6828,44.3725 82.5,42C 84.8961,41.134 85.5628,41.634 84.5,43.5C 85.5217,44.354 86.3551,45.354 87,46.5C 89.5562,45.7809 90.7229,44.1142 90.5,41.5C 94.3825,42.6371 98.2158,42.6371 102,41.5C 102.278,42.4158 102.778,43.0825 103.5,43.5 Z"/></g>
<g><path style="opacity:1" fill="#f8c235" d="M 81.5,70.5 C 83.0174,70.4894 84.1841,69.8228 85,68.5C 86.7441,69.6492 86.9108,70.9825 85.5,72.5C 87.229,73.5968 88.8956,74.7635 90.5,76C 89.5494,76.7175 89.3828,77.5509 90,78.5C 90.6891,77.6433 91.5224,76.9767 92.5,76.5C 92.402,77.6161 92.902,78.6161 94,79.5C 95.7659,78.7665 97.5992,78.4332 99.5,78.5C 99.5094,76.3392 100.176,75.0059 101.5,74.5C 100.99,72.9121 99.9904,71.7455 98.5,71C 101.167,70 101.167,69 98.5,68C 99.056,67.6174 99.3893,67.1174 99.5,66.5C 101.39,64.8053 103.723,64.4719 106.5,65.5C 107.582,71.4036 105.582,75.7369 100.5,78.5C 101.333,80.881 101,83.2143 99.5,85.5C 98.5,84.8333 97.5,84.1667 96.5,83.5C 95.5522,86.715 94.2189,87.0484 92.5,84.5C 92.1667,84.8333 91.8333,85.1667 91.5,85.5C 92.8334,86.6199 93.3334,87.9532 93,89.5C 91.647,88.3147 90.4803,86.9814 89.5,85.5C 90.6446,84.109 90.6446,82.7757 89.5,81.5C 87.8767,82.4756 86.5433,81.9756 85.5,80C 86.3452,78.4419 85.6785,77.4419 83.5,77C 84.1667,76.6667 84.8333,76.3333 85.5,76C 84.6198,74.6439 84.2865,73.1439 84.5,71.5C 83.209,71.7373 82.209,71.404 81.5,70.5 Z"/></g>
<g><path style="opacity:1" fill="#f5b911" d="M 99.5,65.5 C 99.5,65.8333 99.5,66.1667 99.5,66.5C 99.3893,67.1174 99.056,67.6174 98.5,68C 101.167,69 101.167,70 98.5,71C 99.9904,71.7455 100.99,72.9121 101.5,74.5C 100.176,75.0059 99.5094,76.3392 99.5,78.5C 97.5992,78.4332 95.7659,78.7665 94,79.5C 92.902,78.6161 92.402,77.6161 92.5,76.5C 91.5224,76.9767 90.6891,77.6433 90,78.5C 89.3828,77.5509 89.5494,76.7175 90.5,76C 88.8956,74.7635 87.229,73.5968 85.5,72.5C 86.9108,70.9825 86.7441,69.6492 85,68.5C 84.1841,69.8228 83.0174,70.4894 81.5,70.5C 82.4107,66.7573 84.4107,63.7573 87.5,61.5C 87.3764,60.8933 87.0431,60.56 86.5,60.5C 86.297,58.3618 85.297,56.6951 83.5,55.5C 84.727,54.4096 85.5604,53.0762 86,51.5C 88.1229,54.9704 89.2895,54.9704 89.5,51.5C 91.1667,51.5 92.8333,51.5 94.5,51.5C 94.5,53.5 94.5,55.5 94.5,57.5C 92.0885,57.1367 90.5885,58.1367 90,60.5C 89.3333,63.1667 89.3333,65.8333 90,68.5C 91.1131,69.7111 92.2798,69.7111 93.5,68.5C 93.9976,67.3966 94.3309,66.3966 94.5,65.5C 95.1667,66.1667 95.8333,66.8333 96.5,67.5C 97.2652,66.3881 98.2652,65.7214 99.5,65.5 Z"/></g>
<g><path style="opacity:1" fill="#f3bc28" d="M 99.5,65.5 C 98.2652,65.7214 97.2652,66.3881 96.5,67.5C 95.8333,66.8333 95.1667,66.1667 94.5,65.5C 94.3309,66.3966 93.9976,67.3966 93.5,68.5C 92.2798,69.7111 91.1131,69.7111 90,68.5C 89.3333,65.8333 89.3333,63.1667 90,60.5C 90.5885,58.1367 92.0885,57.1367 94.5,57.5C 94.5,55.5 94.5,53.5 94.5,51.5C 92.8333,51.5 91.1667,51.5 89.5,51.5C 89.2895,54.9704 88.1229,54.9704 86,51.5C 85.5604,53.0762 84.727,54.4096 83.5,55.5C 85.297,56.6951 86.297,58.3618 86.5,60.5C 85.7784,60.0825 85.2784,59.4158 85,58.5C 84.2441,61.7924 82.4107,62.7924 79.5,61.5C 83.771,57.7713 83.4376,54.6047 78.5,52C 80.4727,51.5045 82.4727,51.3379 84.5,51.5C 84.5,50.1667 84.5,48.8333 84.5,47.5C 87.3417,47.6146 89.8417,48.6146 92,50.5C 93.1712,49.6604 94.3379,48.8271 95.5,48C 95.1667,47.6667 94.8333,47.3333 94.5,47C 96.5155,46.5757 98.3488,45.7424 100,44.5C 104.764,44.96 105.264,46.1266 101.5,48C 104.038,50.3592 103.371,51.8592 99.5,52.5C 100.562,55.1029 100.728,57.7695 100,60.5C 99.2496,61.1258 98.4162,61.6258 97.5,62C 98.9733,62.7096 99.6399,63.8762 99.5,65.5 Z"/></g>
<g><path style="opacity:1" fill="#f7ce6a" d="M 157.5,74.5 C 157.691,78.0736 158.691,81.4069 160.5,84.5C 160.88,82.9793 161.046,81.3126 161,79.5C 162.693,80.1845 164.193,81.1845 165.5,82.5C 166.768,81.5721 168.101,81.4054 169.5,82C 165.399,84.5043 165.566,85.3377 170,84.5C 172.178,85.893 173.178,87.5596 173,89.5C 174.049,88.4829 175.216,88.3162 176.5,89C 175.04,89.8113 174.707,90.6446 175.5,91.5C 176.892,90.3947 178.059,89.0614 179,87.5C 180.64,88.1247 182.473,88.1247 184.5,87.5C 186.339,88.5819 188.339,89.4153 190.5,90C 189.594,91.6995 189.261,93.5328 189.5,95.5C 187.983,95.5106 186.816,96.1772 186,97.5C 185.46,95.8654 185.96,94.5321 187.5,93.5C 187.167,93.1667 186.833,92.8333 186.5,92.5C 184.52,93.4839 182.853,94.8173 181.5,96.5C 180.914,96.2907 180.414,95.9574 180,95.5C 178.927,97.361 177.76,99.1944 176.5,101C 176.645,101.772 176.978,102.439 177.5,103C 177,103.167 176.5,103.333 176,103.5C 174.629,102.419 173.129,101.585 171.5,101C 172.357,100.311 173.023,99.4776 173.5,98.5C 172.273,97.4096 171.44,96.0762 171,94.5C 169.644,95.3802 168.144,95.7135 166.5,95.5C 165.85,95.1961 165.183,94.8627 164.5,94.5C 161.397,96.9477 158.064,98.9477 154.5,100.5C 152.782,97.269 153.782,95.269 157.5,94.5C 156.585,93.6721 155.919,92.6721 155.5,91.5C 156.362,89.913 157.029,88.2464 157.5,86.5C 156.081,82.9843 155.414,79.3176 155.5,75.5C 156.167,75.1667 156.833,74.8333 157.5,74.5 Z"/></g>
<g><path style="opacity:1" fill="#f4cc6b" d="M 182.5,52.5 C 195.165,65.48 203.998,80.8134 209,98.5C 209.543,101.868 209.376,105.201 208.5,108.5C 207.5,108.5 206.5,108.5 205.5,108.5C 205.657,107.127 205.49,105.793 205,104.5C 203.16,105.833 202.66,105.666 203.5,104C 202.953,103.075 202.287,102.242 201.5,101.5C 200.167,102.833 198.833,104.167 197.5,105.5C 196.735,104.388 195.735,103.721 194.5,103.5C 193.07,103.579 191.736,103.246 190.5,102.5C 189.526,100.257 189.192,97.924 189.5,95.5C 189.261,93.5328 189.594,91.6995 190.5,90C 188.339,89.4153 186.339,88.5819 184.5,87.5C 186.287,86.1826 187.954,86.516 189.5,88.5C 190.167,87.5 190.833,86.5 191.5,85.5C 193.661,84.9649 195.661,84.1316 197.5,83C 194.289,82.2018 191.289,82.7018 188.5,84.5C 188.167,84.3333 187.833,84.1667 187.5,84C 189.712,79.9804 188.712,79.4804 184.5,82.5C 183.448,82.6495 182.448,82.4828 181.5,82C 185.724,79.2856 186.057,76.4523 182.5,73.5C 183.274,72.2888 184.107,72.2888 185,73.5C 185.167,73 185.333,72.5 185.5,72C 185.108,70.9895 184.441,70.4895 183.5,70.5C 185.795,68.5201 188.461,67.3534 191.5,67C 190.975,66.3076 190.308,65.8076 189.5,65.5C 182.537,68.8795 181.204,67.5461 185.5,61.5C 184.672,60.5853 183.672,59.9186 182.5,59.5C 176.333,63.1448 176,62.3114 181.5,57C 181.043,56.586 180.709,56.086 180.5,55.5C 181.612,54.7348 182.279,53.7348 182.5,52.5 Z"/></g>
<g><path style="opacity:1" fill="#c19723" d="M 18.5,88.5 C 15.1737,88.0111 15.0071,88.6778 18,90.5C 18.7581,92.7695 18.5914,94.9361 17.5,97C 18.448,97.4828 19.448,97.6495 20.5,97.5C 20.238,96.0222 20.5713,94.6888 21.5,93.5C 22.8661,96.2567 22.1995,98.4233 19.5,100C 21.1554,101.444 21.822,103.278 21.5,105.5C 20.5,105.5 19.5,105.5 18.5,105.5C 11.053,96.9484 5.38635,87.2818 1.5,76.5C 2.55198,76.6495 3.55198,76.4828 4.5,76C 5.7828,72.9517 7.44947,72.785 9.5,75.5C 12.3258,70.3768 15.3258,70.3768 18.5,75.5C 18.0623,76.5063 17.3957,76.5063 16.5,75.5C 15.2887,76.8745 14.2887,78.3745 13.5,80C 14.7073,81.3002 15.3739,82.8002 15.5,84.5C 16.8221,84.67 17.9887,84.3366 19,83.5C 18.9813,85.1075 18.8146,86.7741 18.5,88.5 Z"/></g>
<g><path style="opacity:1" fill="#c19725" d="M 67.5,99.5 C 67.9926,101.806 68.3259,104.139 68.5,106.5C 69.9587,106.433 71.2921,106.766 72.5,107.5C 71.8811,110.633 70.2144,113.133 67.5,115C 68.8932,116.301 69.3932,117.801 69,119.5C 66.3827,120.351 64.5494,122.018 63.5,124.5C 61.1799,122.581 58.8466,120.581 56.5,118.5C 57.989,118.467 59.3224,117.967 60.5,117C 58.842,116.275 58.342,115.108 59,113.5C 60.0437,112.377 60.7104,111.044 61,109.5C 65.5337,108.168 65.367,107.168 60.5,106.5C 60.5531,103.939 59.5531,101.939 57.5,100.5C 56.3739,102.793 55.0406,104.96 53.5,107C 51.6891,106.293 49.6891,105.793 47.5,105.5C 47.5,106.5 47.5,107.5 47.5,108.5C 44.4121,108.361 41.7454,107.361 39.5,105.5C 39.5,104.5 39.5,103.5 39.5,102.5C 40.8221,102.33 41.9887,102.663 43,103.5C 43.6449,102.354 44.4783,101.354 45.5,100.5C 44.6744,99.549 44.5078,98.549 45,97.5C 45.779,98.7282 46.779,99.7282 48,100.5C 52.3468,97.8815 52.6802,98.5481 49,102.5C 48.1072,101.289 47.2739,101.289 46.5,102.5C 46.8869,103.72 47.7202,104.387 49,104.5C 51.2833,102.882 52.7833,100.715 53.5,98C 52.8333,97.3333 52.1667,96.6667 51.5,96C 53.1193,95.7645 54.1193,94.9311 54.5,93.5C 54.7828,92.7109 55.2828,92.0442 56,91.5C 56.3333,93.1667 56.6667,94.8333 57,96.5C 58.3985,97.0509 59.7318,97.3842 61,97.5C 61.9809,103.325 63.3142,103.659 65,98.5C 65.6708,99.2524 66.5041,99.5858 67.5,99.5 Z"/></g>
<g><path style="opacity:1" fill="#b5902a" d="M 18.5,88.5 C 19.1577,89.3984 19.8243,90.3984 20.5,91.5C 22.901,88.5873 24.2343,88.9206 24.5,92.5C 26.4918,92.6715 28.1585,92.0049 29.5,90.5C 30.8689,92.124 32.5355,92.624 34.5,92C 35.3333,89.8333 36.8333,88.3333 39,87.5C 39.5,88.5 40,89.5 40.5,90.5C 39.3995,92.6416 38.3995,94.8083 37.5,97C 39.1922,98.4007 39.8588,100.234 39.5,102.5C 39.5,103.5 39.5,104.5 39.5,105.5C 41.7454,107.361 44.4121,108.361 47.5,108.5C 47.5,107.5 47.5,106.5 47.5,105.5C 49.6891,105.793 51.6891,106.293 53.5,107C 55.0406,104.96 56.3739,102.793 57.5,100.5C 59.5531,101.939 60.5531,103.939 60.5,106.5C 65.367,107.168 65.5337,108.168 61,109.5C 60.7104,111.044 60.0437,112.377 59,113.5C 58.342,115.108 58.842,116.275 60.5,117C 59.3224,117.967 57.989,118.467 56.5,118.5C 58.8466,120.581 61.1799,122.581 63.5,124.5C 62.791,125.404 61.791,125.737 60.5,125.5C 60.719,126.675 60.3857,127.675 59.5,128.5C 58.8333,126.833 58.1667,125.167 57.5,123.5C 55.9361,124.186 54.2694,124.019 52.5,123C 53.6039,121.869 53.2705,121.035 51.5,120.5C 49.1345,121.289 46.8012,120.956 44.5,119.5C 44.24,120.905 43.9066,122.238 43.5,123.5C 42.1938,122.533 41.5271,121.199 41.5,119.5C 37.2491,120.447 33.2491,120.447 29.5,119.5C 25.0775,115.413 21.4108,110.746 18.5,105.5C 19.5,105.5 20.5,105.5 21.5,105.5C 21.822,103.278 21.1554,101.444 19.5,100C 22.1995,98.4233 22.8661,96.2567 21.5,93.5C 20.5713,94.6888 20.238,96.0222 20.5,97.5C 19.448,97.6495 18.448,97.4828 17.5,97C 18.5914,94.9361 18.7581,92.7695 18,90.5C 15.0071,88.6778 15.1737,88.0111 18.5,88.5 Z"/></g>
<g><path style="opacity:0.997" fill="#f0c968" d="M 208.5,108.5 C 206.708,115.211 204.708,121.877 202.5,128.5C 200.801,128.66 199.134,128.494 197.5,128C 197.833,127.667 198.167,127.333 198.5,127C 196.833,124.83 194.833,122.996 192.5,121.5C 190.809,123.256 188.809,123.756 186.5,123C 188.044,122.71 189.377,122.044 190.5,121C 190.353,119.026 190.019,117.026 189.5,115C 191.569,114.676 191.902,113.842 190.5,112.5C 191.908,111.757 193.241,110.923 194.5,110C 193.09,109.632 192.09,108.799 191.5,107.5C 192.524,106.148 193.524,104.815 194.5,103.5C 195.735,103.721 196.735,104.388 197.5,105.5C 198.833,104.167 200.167,102.833 201.5,101.5C 202.287,102.242 202.953,103.075 203.5,104C 202.66,105.666 203.16,105.833 205,104.5C 205.49,105.793 205.657,107.127 205.5,108.5C 206.5,108.5 207.5,108.5 208.5,108.5 Z"/></g>
<g><path style="opacity:1" fill="#f4ca61" d="M 118.5,115.5 C 118.179,117.048 117.179,117.715 115.5,117.5C 115.178,119.475 115.178,121.142 115.5,122.5C 114.698,123.885 114.031,123.718 113.5,122C 114.148,120.56 114.481,119.06 114.5,117.5C 112.549,117.773 111.049,117.107 110,115.5C 107.73,116.727 105.897,118.394 104.5,120.5C 103.304,120.154 103.304,119.654 104.5,119C 102.191,118.994 100.025,118.828 98,118.5C 97.5,118.167 97,117.833 96.5,117.5C 98.9238,115.286 98.2571,114.286 94.5,114.5C 94.6168,116.484 93.9501,118.15 92.5,119.5C 94.4491,121.297 96.1158,123.297 97.5,125.5C 96.9423,126.79 95.9423,127.623 94.5,128C 98.404,129.598 99.0706,131.764 96.5,134.5C 94.4936,135.417 92.1603,135.417 89.5,134.5C 88.8333,134.5 88.5,134.167 88.5,133.5C 87.6792,129.873 86.3459,126.54 84.5,123.5C 84.4828,121.435 84.1495,119.435 83.5,117.5C 83.3713,115.784 83.038,114.117 82.5,112.5C 80.9598,106.258 79.9598,99.9251 79.5,93.5C 79.9867,92.5266 80.4867,91.5266 81,90.5C 83.0171,93.1438 83.8505,96.1438 83.5,99.5C 84.5,99.5 85.5,99.5 86.5,99.5C 85.9862,97.4884 85.8195,95.4884 86,93.5C 86.6891,94.3567 87.5224,95.0233 88.5,95.5C 88.9972,93.784 89.3306,92.1173 89.5,90.5C 90.7193,91.2634 91.7193,92.2634 92.5,93.5C 93.3857,92.675 93.719,91.675 93.5,90.5C 94.5,90.5 95.5,90.5 96.5,90.5C 97.3475,92.4815 97.8475,94.4815 98,96.5C 96.9691,94.579 95.4691,94.579 93.5,96.5C 95.6239,97.458 97.6239,98.6246 99.5,100C 97.839,103.33 96.1724,106.663 94.5,110C 95,110.5 95.5,111 96,111.5C 96.3468,109.82 97.3468,108.82 99,108.5C 100.44,109.148 101.94,109.481 103.5,109.5C 103.5,108.5 103.5,107.5 103.5,106.5C 104.93,106.421 106.264,106.754 107.5,107.5C 109.621,105.102 111.955,104.935 114.5,107C 110.454,110.766 111.121,111.933 116.5,110.5C 116.077,112.781 116.744,114.448 118.5,115.5 Z"/></g>
<g><path style="opacity:1" fill="#f3c75a" d="M 166.5,95.5 C 168.167,98.6938 169.833,101.36 171.5,103.5C 170.446,105.402 169.446,107.235 168.5,109C 168.645,109.772 168.978,110.439 169.5,111C 167.676,111.66 166.343,112.827 165.5,114.5C 163.352,114.389 163.019,115.056 164.5,116.5C 163.485,117.681 162.319,118.681 161,119.5C 155.826,117.375 153.659,118.875 154.5,124C 156.657,124.078 158.657,124.245 160.5,124.5C 157.876,126.913 157.876,129.247 160.5,131.5C 159.74,134.157 158.24,135.157 156,134.5C 153.947,136.713 154.113,138.713 156.5,140.5C 155.178,140.67 154.011,140.337 153,139.5C 151.669,136.166 149.835,133.166 147.5,130.5C 149.149,129.012 151.149,128.012 153.5,127.5C 151.986,125.579 151.153,123.579 151,121.5C 150.035,123.26 148.868,123.594 147.5,122.5C 149.167,119.833 150.833,117.167 152.5,114.5C 151.167,113.833 149.833,113.167 148.5,112.5C 151.711,111.414 152.711,109.414 151.5,106.5C 152.631,105.396 153.465,105.729 154,107.5C 154.197,105.139 155.364,103.472 157.5,102.5C 156.364,102.036 155.364,101.702 154.5,101.5C 154.5,101.167 154.5,100.833 154.5,100.5C 158.064,98.9477 161.397,96.9477 164.5,94.5C 165.183,94.8627 165.85,95.1961 166.5,95.5 Z"/></g>
<g><path style="opacity:1" fill="#b9932a" d="M 83.5,117.5 C 84.1495,119.435 84.4828,121.435 84.5,123.5C 83.7629,125.305 82.7629,126.971 81.5,128.5C 82.5,129.167 83.5,129.833 84.5,130.5C 82.1192,132.385 79.9525,134.385 78,136.5C 75.9662,135.278 73.7995,134.278 71.5,133.5C 71.7093,132.914 72.0426,132.414 72.5,132C 70.36,131.027 68.6933,129.527 67.5,127.5C 66.549,128.326 65.549,128.492 64.5,128C 66.2429,126.89 67.5762,125.39 68.5,123.5C 69.1667,124.167 69.8333,124.833 70.5,125.5C 72.5631,123.439 74.2297,121.106 75.5,118.5C 77.1727,120.086 79.1727,120.753 81.5,120.5C 81.2852,118.821 81.9519,117.821 83.5,117.5 Z"/></g>
<g><path style="opacity:1" fill="#f3cb65" d="M 189.5,95.5 C 189.192,97.924 189.526,100.257 190.5,102.5C 191.736,103.246 193.07,103.579 194.5,103.5C 193.524,104.815 192.524,106.148 191.5,107.5C 192.09,108.799 193.09,109.632 194.5,110C 193.241,110.923 191.908,111.757 190.5,112.5C 191.902,113.842 191.569,114.676 189.5,115C 190.019,117.026 190.353,119.026 190.5,121C 189.377,122.044 188.044,122.71 186.5,123C 188.809,123.756 190.809,123.256 192.5,121.5C 194.833,122.996 196.833,124.83 198.5,127C 198.167,127.333 197.833,127.667 197.5,128C 199.134,128.494 200.801,128.66 202.5,128.5C 201.151,132.029 199.151,135.195 196.5,138C 212.281,140.403 225.614,147.236 236.5,158.5C 234.323,158.586 232.323,159.253 230.5,160.5C 229.571,159.311 229.238,157.978 229.5,156.5C 228.5,156.5 227.5,156.5 226.5,156.5C 226.297,158.39 226.963,159.89 228.5,161C 226.013,160.808 223.513,160.641 221,160.5C 219.989,161.056 219.156,161.722 218.5,162.5C 217.721,160.073 216.554,160.073 215,162.5C 214.675,160.163 215.675,158.497 218,157.5C 218.333,156.167 218.667,154.833 219,153.5C 219.893,154.711 220.726,154.711 221.5,153.5C 218.625,152.919 215.958,151.919 213.5,150.5C 212.032,152.333 210.365,152.666 208.5,151.5C 210.641,149.747 209.974,148.747 206.5,148.5C 204.119,149.719 201.619,150.719 199,151.5C 197.199,149.862 197.032,148.028 198.5,146C 198.167,145.5 197.833,145 197.5,144.5C 196.614,145.325 196.281,146.325 196.5,147.5C 195.178,147.33 194.011,147.663 193,148.5C 192.542,144.042 190.209,141.042 186,139.5C 185.647,138.328 185.813,137.162 186.5,136C 184.615,130.332 183.115,124.499 182,118.5C 180.736,116.393 178.903,115.393 176.5,115.5C 176.5,116.833 176.5,118.167 176.5,119.5C 175.178,119.33 174.011,119.663 173,120.5C 172.798,118.744 172.298,117.078 171.5,115.5C 169.298,116.434 167.298,116.1 165.5,114.5C 166.343,112.827 167.676,111.66 169.5,111C 168.978,110.439 168.645,109.772 168.5,109C 169.446,107.235 170.446,105.402 171.5,103.5C 169.833,101.36 168.167,98.6938 166.5,95.5C 168.144,95.7135 169.644,95.3802 171,94.5C 171.44,96.0762 172.273,97.4096 173.5,98.5C 173.023,99.4776 172.357,100.311 171.5,101C 173.129,101.585 174.629,102.419 176,103.5C 176.5,103.333 177,103.167 177.5,103C 176.978,102.439 176.645,101.772 176.5,101C 177.76,99.1944 178.927,97.361 180,95.5C 180.414,95.9574 180.914,96.2907 181.5,96.5C 182.853,94.8173 184.52,93.4839 186.5,92.5C 186.833,92.8333 187.167,93.1667 187.5,93.5C 185.96,94.5321 185.46,95.8654 186,97.5C 186.816,96.1772 187.983,95.5106 189.5,95.5 Z"/></g>
<g><path style="opacity:1" fill="#f3c654" d="M 165.5,114.5 C 167.298,116.1 169.298,116.434 171.5,115.5C 172.298,117.078 172.798,118.744 173,120.5C 174.011,119.663 175.178,119.33 176.5,119.5C 176.5,118.167 176.5,116.833 176.5,115.5C 178.903,115.393 180.736,116.393 182,118.5C 183.115,124.499 184.615,130.332 186.5,136C 185.813,137.162 185.647,138.328 186,139.5C 190.209,141.042 192.542,144.042 193,148.5C 194.011,147.663 195.178,147.33 196.5,147.5C 196.281,146.325 196.614,145.325 197.5,144.5C 197.833,145 198.167,145.5 198.5,146C 197.032,148.028 197.199,149.862 199,151.5C 201.619,150.719 204.119,149.719 206.5,148.5C 206.5,150.167 206.5,151.833 206.5,153.5C 204.8,153.626 203.3,154.293 202,155.5C 201.127,155.265 200.293,154.931 199.5,154.5C 195.855,156.994 191.855,158.161 187.5,158C 186.929,156.795 186.262,155.628 185.5,154.5C 184.184,157.028 183.017,157.028 182,154.5C 181.667,155.5 181.333,156.5 181,157.5C 179.989,156.663 178.822,156.33 177.5,156.5C 176.172,155.09 176.505,153.924 178.5,153C 177.5,152.667 176.5,152.333 175.5,152C 178.5,150.333 180.833,148 182.5,145C 181.551,144.383 180.718,144.549 180,145.5C 179.28,143.888 179.446,142.388 180.5,141C 178.536,138.833 178.202,136.499 179.5,134C 177.912,134.908 176.246,136.075 174.5,137.5C 174.246,132.985 171.913,130.985 167.5,131.5C 167.36,133.124 168.027,134.29 169.5,135C 168.069,135.465 166.903,136.299 166,137.5C 165.461,134.471 164.794,131.471 164,128.5C 162.482,129.163 161.315,130.163 160.5,131.5C 157.876,129.247 157.876,126.913 160.5,124.5C 158.657,124.245 156.657,124.078 154.5,124C 153.659,118.875 155.826,117.375 161,119.5C 162.319,118.681 163.485,117.681 164.5,116.5C 163.019,115.056 163.352,114.389 165.5,114.5 Z"/></g>
<g><path style="opacity:1" fill="#f7ce68" d="M 115.5,122.5 C 117.084,123.382 118.751,124.215 120.5,125C 116.575,128.584 117.242,129.75 122.5,128.5C 122.579,129.93 122.246,131.264 121.5,132.5C 121.808,133.308 122.308,133.975 123,134.5C 125.483,132.74 125.983,130.573 124.5,128C 125.448,127.517 126.448,127.351 127.5,127.5C 128.321,130.554 128.321,133.554 127.5,136.5C 126.833,136.167 126.167,135.833 125.5,135.5C 122.983,137.722 120.649,140.055 118.5,142.5C 119.167,143.833 119.833,145.167 120.5,146.5C 117.031,147.51 113.865,146.843 111,144.5C 111.595,146.35 112.095,148.35 112.5,150.5C 110.738,150.643 109.071,150.309 107.5,149.5C 107.501,152.995 106.001,153.328 103,150.5C 102.517,149.552 102.351,148.552 102.5,147.5C 103.967,150.258 104.633,149.925 104.5,146.5C 105.5,146.5 106.5,146.5 107.5,146.5C 107.5,145.167 107.5,143.833 107.5,142.5C 109.827,142.753 111.827,142.086 113.5,140.5C 114.024,138.547 115.024,136.88 116.5,135.5C 115.5,134.167 114.5,132.833 113.5,131.5C 114.325,130.614 115.325,130.281 116.5,130.5C 116.67,129.178 116.337,128.011 115.5,127C 111.688,125.673 107.855,124.506 104,123.5C 103.885,126.008 102.885,128.008 101,129.5C 100.5,129.167 100,128.833 99.5,128.5C 102.369,125.038 101.702,124.038 97.5,125.5C 96.1158,123.297 94.4491,121.297 92.5,119.5C 93.9501,118.15 94.6168,116.484 94.5,114.5C 98.2571,114.286 98.9238,115.286 96.5,117.5C 97,117.833 97.5,118.167 98,118.5C 100.025,118.828 102.191,118.994 104.5,119C 103.304,119.654 103.304,120.154 104.5,120.5C 105.897,118.394 107.73,116.727 110,115.5C 111.049,117.107 112.549,117.773 114.5,117.5C 114.481,119.06 114.148,120.56 113.5,122C 114.031,123.718 114.698,123.885 115.5,122.5 Z"/></g>
<g><path style="opacity:1" fill="#ca9d1d" d="M 43.5,123.5 C 44.8673,126.132 45.7006,125.798 46,122.5C 47.5883,124.808 49.5883,125.475 52,124.5C 52.4828,125.448 52.6495,126.448 52.5,127.5C 56.5,128.167 56.5,128.833 52.5,129.5C 52.3505,130.552 52.5172,131.552 53,132.5C 55.0429,130.523 57.5429,129.523 60.5,129.5C 60.7852,131.288 60.4519,132.955 59.5,134.5C 57.9017,133.515 56.235,133.349 54.5,134C 56.3975,134.9 58.0642,136.066 59.5,137.5C 58.8333,139.167 58.1667,140.833 57.5,142.5C 58.365,143.583 59.365,143.749 60.5,143C 62.0381,138.399 63.3715,138.566 64.5,143.5C 62.8164,144.15 61.4831,145.15 60.5,146.5C 49.254,138.59 38.9207,129.59 29.5,119.5C 33.2491,120.447 37.2491,120.447 41.5,119.5C 41.5271,121.199 42.1938,122.533 43.5,123.5 Z"/></g>
<g><path style="opacity:1" fill="#c29824" d="M 72.5,107.5 C 73.3091,109.292 73.8091,111.292 74,113.5C 74.3333,113.167 74.6667,112.833 75,112.5C 75.4186,113.672 76.0853,114.672 77,115.5C 78.2635,113.393 80.0968,112.393 82.5,112.5C 83.038,114.117 83.3713,115.784 83.5,117.5C 81.9519,117.821 81.2852,118.821 81.5,120.5C 79.1727,120.753 77.1727,120.086 75.5,118.5C 74.2297,121.106 72.5631,123.439 70.5,125.5C 69.8333,124.833 69.1667,124.167 68.5,123.5C 67.5762,125.39 66.2429,126.89 64.5,128C 65.549,128.492 66.549,128.326 67.5,127.5C 68.6933,129.527 70.36,131.027 72.5,132C 72.0426,132.414 71.7093,132.914 71.5,133.5C 73.7995,134.278 75.9662,135.278 78,136.5C 79.9525,134.385 82.1192,132.385 84.5,130.5C 83.5,129.833 82.5,129.167 81.5,128.5C 82.7629,126.971 83.7629,125.305 84.5,123.5C 86.3459,126.54 87.6792,129.873 88.5,133.5C 87.2089,134.542 87.2089,135.708 88.5,137C 86.8659,137.494 85.1992,137.66 83.5,137.5C 83.8916,140.146 83.8916,142.646 83.5,145C 84.365,146.359 85.365,147.526 86.5,148.5C 81.9468,150.049 78.6135,153.049 76.5,157.5C 76.1667,157.5 75.8333,157.5 75.5,157.5C 70.6776,153.589 65.6776,149.922 60.5,146.5C 61.4831,145.15 62.8164,144.15 64.5,143.5C 63.3715,138.566 62.0381,138.399 60.5,143C 59.365,143.749 58.365,143.583 57.5,142.5C 58.1667,140.833 58.8333,139.167 59.5,137.5C 58.0642,136.066 56.3975,134.9 54.5,134C 56.235,133.349 57.9017,133.515 59.5,134.5C 60.4519,132.955 60.7852,131.288 60.5,129.5C 57.5429,129.523 55.0429,130.523 53,132.5C 52.5172,131.552 52.3505,130.552 52.5,129.5C 56.5,128.833 56.5,128.167 52.5,127.5C 52.6495,126.448 52.4828,125.448 52,124.5C 49.5883,125.475 47.5883,124.808 46,122.5C 45.7006,125.798 44.8673,126.132 43.5,123.5C 43.9066,122.238 44.24,120.905 44.5,119.5C 46.8012,120.956 49.1345,121.289 51.5,120.5C 53.2705,121.035 53.6039,121.869 52.5,123C 54.2694,124.019 55.9361,124.186 57.5,123.5C 58.1667,125.167 58.8333,126.833 59.5,128.5C 60.3857,127.675 60.719,126.675 60.5,125.5C 61.791,125.737 62.791,125.404 63.5,124.5C 64.5494,122.018 66.3827,120.351 69,119.5C 69.3932,117.801 68.8932,116.301 67.5,115C 70.2144,113.133 71.8811,110.633 72.5,107.5 Z"/></g>
<g><path style="opacity:1" fill="#f6c958" d="M 124.5,99.5 C 125.074,102.846 125.74,106.179 126.5,109.5C 126.291,110.086 125.957,110.586 125.5,111C 127.473,111.495 129.473,111.662 131.5,111.5C 131.945,114.365 131.278,116.865 129.5,119C 130.668,120.406 130.335,121.572 128.5,122.5C 129.246,123.736 129.579,125.07 129.5,126.5C 131.484,126.617 133.15,125.95 134.5,124.5C 136.005,127.131 136.671,126.797 136.5,123.5C 134.856,123.286 133.356,123.62 132,124.5C 131.312,123.668 131.479,123.002 132.5,122.5C 134.444,121.811 136.444,121.311 138.5,121C 139.191,119.933 139.691,118.766 140,117.5C 140.383,118.056 140.883,118.389 141.5,118.5C 141.611,119.117 141.944,119.617 142.5,120C 139.179,121.812 137.845,124.645 138.5,128.5C 140.575,128.302 142.575,128.135 144.5,128C 141.967,130.084 141.967,132.084 144.5,134C 143.255,134.791 141.922,135.291 140.5,135.5C 141.323,133.545 141.49,131.545 141,129.5C 138.35,133.327 136.183,137.327 134.5,141.5C 133.5,141.5 132.5,141.5 131.5,141.5C 131.5,142.5 131.5,143.5 131.5,144.5C 128.833,144.5 126.167,144.5 123.5,144.5C 123.072,147.246 121.406,148.913 118.5,149.5C 116.38,147.991 114.713,148.324 113.5,150.5C 113.167,150.5 112.833,150.5 112.5,150.5C 112.095,148.35 111.595,146.35 111,144.5C 113.865,146.843 117.031,147.51 120.5,146.5C 119.833,145.167 119.167,143.833 118.5,142.5C 120.649,140.055 122.983,137.722 125.5,135.5C 126.167,135.833 126.833,136.167 127.5,136.5C 128.321,133.554 128.321,130.554 127.5,127.5C 126.448,127.351 125.448,127.517 124.5,128C 125.983,130.573 125.483,132.74 123,134.5C 122.308,133.975 121.808,133.308 121.5,132.5C 122.246,131.264 122.579,129.93 122.5,128.5C 117.242,129.75 116.575,128.584 120.5,125C 118.751,124.215 117.084,123.382 115.5,122.5C 115.178,121.142 115.178,119.475 115.5,117.5C 117.179,117.715 118.179,117.048 118.5,115.5C 119.822,115.67 120.989,115.337 122,114.5C 122.436,117.284 123.936,118.45 126.5,118C 124.879,115.834 124.045,113.334 124,110.5C 122.933,109.809 121.766,109.309 120.5,109C 123.044,107.437 123.044,105.937 120.5,104.5C 121.887,102.79 123.221,101.123 124.5,99.5 Z"/></g>
<g><path style="opacity:1" fill="#f5cb62" d="M 154.5,101.5 C 155.364,101.702 156.364,102.036 157.5,102.5C 155.364,103.472 154.197,105.139 154,107.5C 153.465,105.729 152.631,105.396 151.5,106.5C 152.711,109.414 151.711,111.414 148.5,112.5C 149.833,113.167 151.167,113.833 152.5,114.5C 150.833,117.167 149.167,119.833 147.5,122.5C 148.868,123.594 150.035,123.26 151,121.5C 151.153,123.579 151.986,125.579 153.5,127.5C 151.149,128.012 149.149,129.012 147.5,130.5C 149.835,133.166 151.669,136.166 153,139.5C 154.011,140.337 155.178,140.67 156.5,140.5C 157.222,140.918 157.722,141.584 158,142.5C 158.523,140.777 159.523,139.444 161,138.5C 161.5,138.833 162,139.167 162.5,139.5C 161.687,140.814 160.687,141.981 159.5,143C 161.577,143.192 163.577,143.692 165.5,144.5C 164.102,146.13 163.102,147.964 162.5,150C 160.564,150.813 158.564,151.313 156.5,151.5C 153.978,159.108 155.145,159.441 160,152.5C 161.009,154.025 161.509,155.692 161.5,157.5C 162.791,157.263 163.791,157.596 164.5,158.5C 164.227,160.451 164.893,161.951 166.5,163C 165.809,164.067 165.309,165.234 165,166.5C 163.301,165.594 161.467,165.261 159.5,165.5C 159.523,167.6 158.856,169.433 157.5,171C 159.536,174.51 162.536,176.677 166.5,177.5C 166.784,179.415 166.451,181.081 165.5,182.5C 164.081,181.549 162.415,181.216 160.5,181.5C 160.421,180.07 160.754,178.736 161.5,177.5C 159.593,176.63 157.76,175.63 156,174.5C 154.322,176.282 152.489,176.615 150.5,175.5C 151.833,174.5 153.167,173.5 154.5,172.5C 153.467,171.548 152.3,171.548 151,172.5C 148.934,170.431 146.601,168.764 144,167.5C 143.689,166.258 144.189,165.258 145.5,164.5C 144.349,163.269 143.183,163.269 142,164.5C 141.583,163.244 140.75,162.577 139.5,162.5C 139.297,160.956 138.63,159.622 137.5,158.5C 138.397,158.331 139.397,157.998 140.5,157.5C 138.861,154.96 139.194,152.793 141.5,151C 140.699,148.326 141.032,145.659 142.5,143C 141.387,141.606 140.053,140.439 138.5,139.5C 139.18,138.14 139.847,136.807 140.5,135.5C 141.922,135.291 143.255,134.791 144.5,134C 141.967,132.084 141.967,130.084 144.5,128C 142.575,128.135 140.575,128.302 138.5,128.5C 137.845,124.645 139.179,121.812 142.5,120C 141.944,119.617 141.611,119.117 141.5,118.5C 142.496,118.586 143.329,118.252 144,117.5C 146.268,114.915 147.434,111.915 147.5,108.5C 143.839,108.574 143.172,107.574 145.5,105.5C 149.86,107.14 151.194,105.806 149.5,101.5C 151.099,100.438 152.766,100.438 154.5,101.5 Z"/></g>
<g><path style="opacity:1" fill="#f8d06f" d="M 102.5,147.5 C 101.316,145.59 99.816,145.257 98,146.5C 97.6824,144.939 96.8491,143.772 95.5,143C 99.2778,141.36 99.2778,140.193 95.5,139.5C 95.6287,137.784 95.962,136.117 96.5,134.5C 99.0706,131.764 98.404,129.598 94.5,128C 95.9423,127.623 96.9423,126.79 97.5,125.5C 101.702,124.038 102.369,125.038 99.5,128.5C 100,128.833 100.5,129.167 101,129.5C 102.885,128.008 103.885,126.008 104,123.5C 107.855,124.506 111.688,125.673 115.5,127C 116.337,128.011 116.67,129.178 116.5,130.5C 115.325,130.281 114.325,130.614 113.5,131.5C 114.5,132.833 115.5,134.167 116.5,135.5C 115.024,136.88 114.024,138.547 113.5,140.5C 111.827,142.086 109.827,142.753 107.5,142.5C 107.5,143.833 107.5,145.167 107.5,146.5C 106.5,146.5 105.5,146.5 104.5,146.5C 104.633,149.925 103.967,150.258 102.5,147.5 Z"/></g>
<g><path style="opacity:1" fill="#d6a413" d="M 88.5,133.5 C 88.5,134.167 88.8333,134.5 89.5,134.5C 90.1109,137.721 91.2776,140.721 93,143.5C 94.0113,144.337 95.1779,144.67 96.5,144.5C 96.3253,146.621 96.6586,148.621 97.5,150.5C 93.9852,149.081 90.3186,148.414 86.5,148.5C 85.365,147.526 84.365,146.359 83.5,145C 83.8916,142.646 83.8916,140.146 83.5,137.5C 85.1992,137.66 86.8659,137.494 88.5,137C 87.2089,135.708 87.2089,134.542 88.5,133.5 Z"/></g>
<g><path style="opacity:1" fill="#f7cb5f" d="M 177.5,156.5 C 176.738,158.262 175.404,159.262 173.5,159.5C 171.844,158.854 170.177,158.187 168.5,157.5C 167.833,157.667 167.167,157.833 166.5,158C 167.451,158.718 167.617,159.551 167,160.5C 166.292,159.619 165.458,158.953 164.5,158.5C 163.791,157.596 162.791,157.263 161.5,157.5C 161.509,155.692 161.009,154.025 160,152.5C 155.145,159.441 153.978,159.108 156.5,151.5C 158.564,151.313 160.564,150.813 162.5,150C 163.102,147.964 164.102,146.13 165.5,144.5C 163.577,143.692 161.577,143.192 159.5,143C 160.687,141.981 161.687,140.814 162.5,139.5C 162,139.167 161.5,138.833 161,138.5C 159.523,139.444 158.523,140.777 158,142.5C 157.722,141.584 157.222,140.918 156.5,140.5C 154.113,138.713 153.947,136.713 156,134.5C 158.24,135.157 159.74,134.157 160.5,131.5C 161.315,130.163 162.482,129.163 164,128.5C 164.794,131.471 165.461,134.471 166,137.5C 166.903,136.299 168.069,135.465 169.5,135C 168.027,134.29 167.36,133.124 167.5,131.5C 171.913,130.985 174.246,132.985 174.5,137.5C 176.246,136.075 177.912,134.908 179.5,134C 178.202,136.499 178.536,138.833 180.5,141C 179.446,142.388 179.28,143.888 180,145.5C 180.718,144.549 181.551,144.383 182.5,145C 180.833,148 178.5,150.333 175.5,152C 176.5,152.333 177.5,152.667 178.5,153C 176.505,153.924 176.172,155.09 177.5,156.5 Z"/></g>
<g><path style="opacity:1" fill="#f2c85f" d="M 206.5,148.5 C 209.974,148.747 210.641,149.747 208.5,151.5C 210.365,152.666 212.032,152.333 213.5,150.5C 215.958,151.919 218.625,152.919 221.5,153.5C 220.726,154.711 219.893,154.711 219,153.5C 218.667,154.833 218.333,156.167 218,157.5C 215.675,158.497 214.675,160.163 215,162.5C 216.554,160.073 217.721,160.073 218.5,162.5C 218.074,164.285 216.908,165.285 215,165.5C 212.924,164.388 210.757,163.888 208.5,164C 207.332,165.406 207.665,166.572 209.5,167.5C 207.379,167.54 205.379,168.04 203.5,169C 206.664,169.387 209.498,170.554 212,172.5C 214.609,171.131 216.609,171.797 218,174.5C 218.333,173.5 218.667,172.5 219,171.5C 220.466,173.325 222.299,173.825 224.5,173C 224.043,172.586 223.709,172.086 223.5,171.5C 224.689,170.571 226.022,170.238 227.5,170.5C 227.119,172.942 227.786,173.609 229.5,172.5C 230.521,173.002 230.688,173.668 230,174.5C 228.301,175.406 226.467,175.739 224.5,175.5C 225.263,178.141 225.43,180.808 225,183.5C 222.534,186.128 220.701,189.128 219.5,192.5C 218.702,190.922 218.202,189.256 218,187.5C 217.517,188.448 217.351,189.448 217.5,190.5C 216.167,190.5 214.833,190.5 213.5,190.5C 216.138,188.067 215.805,186.067 212.5,184.5C 212.64,182.876 211.973,181.71 210.5,181C 212.623,179.806 214.957,179.14 217.5,179C 215.12,177.274 212.62,176.774 210,177.5C 208.256,176.351 208.089,175.017 209.5,173.5C 207.239,170.745 205.406,171.078 204,174.5C 203.586,174.043 203.086,173.709 202.5,173.5C 199.346,176.583 197.013,176.083 195.5,172C 196.685,170.647 198.019,169.48 199.5,168.5C 198.726,167.289 197.893,167.289 197,168.5C 194.832,167.371 194.332,165.871 195.5,164C 193.753,163.648 192.086,163.148 190.5,162.5C 185.237,158.657 180.07,158.991 175,163.5C 174.667,163.167 174.333,162.833 174,162.5C 173.517,163.448 173.351,164.448 173.5,165.5C 172.127,165.657 170.793,165.49 169.5,165C 170.337,163.989 170.67,162.822 170.5,161.5C 172.179,161.715 173.179,161.048 173.5,159.5C 175.404,159.262 176.738,158.262 177.5,156.5C 178.822,156.33 179.989,156.663 181,157.5C 181.333,156.5 181.667,155.5 182,154.5C 183.017,157.028 184.184,157.028 185.5,154.5C 186.262,155.628 186.929,156.795 187.5,158C 191.855,158.161 195.855,156.994 199.5,154.5C 200.293,154.931 201.127,155.265 202,155.5C 203.3,154.293 204.8,153.626 206.5,153.5C 206.5,151.833 206.5,150.167 206.5,148.5 Z"/></g>
<g><path style="opacity:1" fill="#e6b942" d="M 140.5,135.5 C 139.847,136.807 139.18,138.14 138.5,139.5C 140.053,140.439 141.387,141.606 142.5,143C 141.032,145.659 140.699,148.326 141.5,151C 139.194,152.793 138.861,154.96 140.5,157.5C 139.397,157.998 138.397,158.331 137.5,158.5C 138.63,159.622 139.297,160.956 139.5,162.5C 138.218,164.866 136.551,167.033 134.5,169C 137.54,169.596 140.206,170.763 142.5,172.5C 142.631,173.239 142.464,173.906 142,174.5C 139.88,173.395 137.713,173.395 135.5,174.5C 130.265,172.871 125.265,170.871 120.5,168.5C 122.074,168.063 123.241,167.063 124,165.5C 124.691,168.591 126.524,169.757 129.5,169C 128.5,168.167 127.5,167.333 126.5,166.5C 127.853,163.755 127.686,161.088 126,158.5C 124.038,158.969 122.205,158.303 120.5,156.5C 121.605,155.108 122.939,153.941 124.5,153C 123.833,152.833 123.167,152.667 122.5,152.5C 120.722,153.945 118.722,154.945 116.5,155.5C 114.399,155.368 112.899,154.368 112,152.5C 110.981,153.687 109.814,154.687 108.5,155.5C 107.41,154.609 107.41,153.609 108.5,152.5C 110.291,151.83 111.958,151.163 113.5,150.5C 114.713,148.324 116.38,147.991 118.5,149.5C 121.406,148.913 123.072,147.246 123.5,144.5C 126.167,144.5 128.833,144.5 131.5,144.5C 131.5,143.5 131.5,142.5 131.5,141.5C 132.5,141.5 133.5,141.5 134.5,141.5C 136.183,137.327 138.35,133.327 141,129.5C 141.49,131.545 141.323,133.545 140.5,135.5 Z"/></g>
<g><path style="opacity:1" fill="#191817" d="M 86.5,148.5 C 90.3186,148.414 93.9852,149.081 97.5,150.5C 102.873,154.871 107.539,159.871 111.5,165.5C 110.833,167.833 110.167,170.167 109.5,172.5C 109.33,173.822 109.663,174.989 110.5,176C 108.152,176.11 106.652,177.277 106,179.5C 104.812,178.437 104.312,177.103 104.5,175.5C 100.54,175.005 98.2068,176.672 97.5,180.5C 94.5,181.833 91.5,181.833 88.5,180.5C 88.0825,179.778 87.4158,179.278 86.5,179C 88.0074,178.163 88.5074,176.996 88,175.5C 86.5341,177.325 84.7008,177.825 82.5,177C 83.731,175.817 83.731,174.651 82.5,173.5C 81.2638,174.246 79.9305,174.579 78.5,174.5C 77.6618,174.158 77.3284,173.492 77.5,172.5C 75.4289,167.604 75.0956,162.604 76.5,157.5C 78.6135,153.049 81.9468,150.049 86.5,148.5 Z"/></g>
<g><path style="opacity:1" fill="#edc151" d="M 96.5,134.5 C 95.962,136.117 95.6287,137.784 95.5,139.5C 99.2778,140.193 99.2778,141.36 95.5,143C 96.8491,143.772 97.6824,144.939 98,146.5C 99.816,145.257 101.316,145.59 102.5,147.5C 102.351,148.552 102.517,149.552 103,150.5C 106.001,153.328 107.501,152.995 107.5,149.5C 109.071,150.309 110.738,150.643 112.5,150.5C 112.833,150.5 113.167,150.5 113.5,150.5C 111.958,151.163 110.291,151.83 108.5,152.5C 107.41,153.609 107.41,154.609 108.5,155.5C 109.814,154.687 110.981,153.687 112,152.5C 112.899,154.368 114.399,155.368 116.5,155.5C 118.722,154.945 120.722,153.945 122.5,152.5C 123.167,152.667 123.833,152.833 124.5,153C 122.939,153.941 121.605,155.108 120.5,156.5C 122.205,158.303 124.038,158.969 126,158.5C 127.686,161.088 127.853,163.755 126.5,166.5C 127.5,167.333 128.5,168.167 129.5,169C 126.524,169.757 124.691,168.591 124,165.5C 123.241,167.063 122.074,168.063 120.5,168.5C 117.327,167.958 114.327,166.958 111.5,165.5C 107.539,159.871 102.873,154.871 97.5,150.5C 96.6586,148.621 96.3253,146.621 96.5,144.5C 95.1779,144.67 94.0113,144.337 93,143.5C 91.2776,140.721 90.1109,137.721 89.5,134.5C 92.1603,135.417 94.4936,135.417 96.5,134.5 Z"/></g>
<g><path style="opacity:0.329" fill="#5f4c1f" d="M 75.5,157.5 C 75.8333,157.5 76.1667,157.5 76.5,157.5C 75.0956,162.604 75.4289,167.604 77.5,172.5C 76.0337,171.653 75.2004,170.32 75,168.5C 74.2446,164.745 74.4113,161.078 75.5,157.5 Z"/></g>
<g><path style="opacity:1" fill="#f5cc67" d="M 173.5,159.5 C 173.179,161.048 172.179,161.715 170.5,161.5C 170.67,162.822 170.337,163.989 169.5,165C 170.793,165.49 172.127,165.657 173.5,165.5C 173.351,164.448 173.517,163.448 174,162.5C 174.333,162.833 174.667,163.167 175,163.5C 180.07,158.991 185.237,158.657 190.5,162.5C 190.306,164.912 188.973,165.912 186.5,165.5C 186.714,167.144 186.38,168.644 185.5,170C 186.448,170.483 187.448,170.649 188.5,170.5C 188.5,171.833 188.5,173.167 188.5,174.5C 183.672,171.34 179.006,171.34 174.5,174.5C 175.833,175.167 177.167,175.833 178.5,176.5C 177.675,177.386 176.675,177.719 175.5,177.5C 175.491,179.308 175.991,180.975 177,182.5C 177.333,181.5 177.667,180.5 178,179.5C 179.008,179.982 180.175,180.148 181.5,180C 180.138,182.034 179.138,184.201 178.5,186.5C 177.5,186.5 176.5,186.5 175.5,186.5C 173.615,184.15 173.282,181.65 174.5,179C 173.207,178.51 171.873,178.343 170.5,178.5C 170.33,179.822 170.663,180.989 171.5,182C 169.086,183.885 166.419,184.552 163.5,184C 164.044,183.283 164.711,182.783 165.5,182.5C 166.451,181.081 166.784,179.415 166.5,177.5C 162.536,176.677 159.536,174.51 157.5,171C 158.856,169.433 159.523,167.6 159.5,165.5C 161.467,165.261 163.301,165.594 165,166.5C 165.309,165.234 165.809,164.067 166.5,163C 164.893,161.951 164.227,160.451 164.5,158.5C 165.458,158.953 166.292,159.619 167,160.5C 167.617,159.551 167.451,158.718 166.5,158C 167.167,157.833 167.833,157.667 168.5,157.5C 170.177,158.187 171.844,158.854 173.5,159.5 Z"/></g>
<g><path style="opacity:1" fill="#f3cb67" d="M 236.5,158.5 C 238.861,160.194 240.861,162.194 242.5,164.5C 242.5,169.833 242.5,175.167 242.5,180.5C 241.5,181.833 240.5,183.167 239.5,184.5C 239.341,181.346 238.007,178.846 235.5,177C 236.337,175.989 236.67,174.822 236.5,173.5C 233.644,172.172 230.644,171.172 227.5,170.5C 226.022,170.238 224.689,170.571 223.5,171.5C 223.709,172.086 224.043,172.586 224.5,173C 222.299,173.825 220.466,173.325 219,171.5C 218.667,172.5 218.333,173.5 218,174.5C 216.609,171.797 214.609,171.131 212,172.5C 209.498,170.554 206.664,169.387 203.5,169C 205.379,168.04 207.379,167.54 209.5,167.5C 207.665,166.572 207.332,165.406 208.5,164C 210.757,163.888 212.924,164.388 215,165.5C 216.908,165.285 218.074,164.285 218.5,162.5C 219.156,161.722 219.989,161.056 221,160.5C 223.513,160.641 226.013,160.808 228.5,161C 226.963,159.89 226.297,158.39 226.5,156.5C 227.5,156.5 228.5,156.5 229.5,156.5C 229.238,157.978 229.571,159.311 230.5,160.5C 232.323,159.253 234.323,158.586 236.5,158.5 Z"/></g>
<g><path style="opacity:1" fill="#f8d06c" d="M 190.5,162.5 C 192.086,163.148 193.753,163.648 195.5,164C 194.332,165.871 194.832,167.371 197,168.5C 197.893,167.289 198.726,167.289 199.5,168.5C 198.019,169.48 196.685,170.647 195.5,172C 197.013,176.083 199.346,176.583 202.5,173.5C 203.086,173.709 203.586,174.043 204,174.5C 205.406,171.078 207.239,170.745 209.5,173.5C 208.089,175.017 208.256,176.351 210,177.5C 212.62,176.774 215.12,177.274 217.5,179C 214.957,179.14 212.623,179.806 210.5,181C 211.973,181.71 212.64,182.876 212.5,184.5C 211.624,184.369 210.957,184.702 210.5,185.5C 209.703,188.427 208.37,191.094 206.5,193.5C 204.94,191.571 202.94,190.238 200.5,189.5C 199.614,190.325 199.281,191.325 199.5,192.5C 197.9,190.702 197.566,188.702 198.5,186.5C 197.689,185.784 197.022,184.95 196.5,184C 196.85,182.743 197.517,182.409 198.5,183C 199.529,189.374 201.529,189.874 204.5,184.5C 204.333,184.167 204.167,183.833 204,183.5C 203.085,184.328 202.419,185.328 202,186.5C 201.207,183.83 200.04,181.33 198.5,179C 198.645,178.228 198.978,177.561 199.5,177C 197.512,176.82 195.512,176.986 193.5,177.5C 193.649,176.448 193.483,175.448 193,174.5C 191.701,174.966 190.201,174.966 188.5,174.5C 188.5,173.167 188.5,171.833 188.5,170.5C 187.448,170.649 186.448,170.483 185.5,170C 186.38,168.644 186.714,167.144 186.5,165.5C 188.973,165.912 190.306,164.912 190.5,162.5 Z"/></g>
<g><path style="opacity:1" fill="#1e1d1d" d="M 111.5,165.5 C 114.327,166.958 117.327,167.958 120.5,168.5C 125.265,170.871 130.265,172.871 135.5,174.5C 138.833,176.5 142.167,178.5 145.5,180.5C 145.703,182.044 146.37,183.378 147.5,184.5C 144.475,185.674 141.808,185.007 139.5,182.5C 138.468,184.04 137.135,184.54 135.5,184C 136.5,182.333 137.5,180.667 138.5,179C 137.552,178.517 136.552,178.351 135.5,178.5C 135.778,180.346 135.111,181.68 133.5,182.5C 132.614,181.675 132.281,180.675 132.5,179.5C 129.53,179.746 128.197,181.412 128.5,184.5C 125.979,184.44 123.646,185.106 121.5,186.5C 119.238,185.533 116.905,184.866 114.5,184.5C 113.939,183.092 113.605,181.592 113.5,180C 117.125,174.68 115.792,172.18 109.5,172.5C 110.167,170.167 110.833,167.833 111.5,165.5 Z"/></g>
<g><path style="opacity:1" fill="#caa236" d="M 153.5,183.5 C 150.838,182.501 148.172,181.501 145.5,180.5C 142.167,178.5 138.833,176.5 135.5,174.5C 137.713,173.395 139.88,173.395 142,174.5C 142.464,173.906 142.631,173.239 142.5,172.5C 144.455,171.677 146.455,171.51 148.5,172C 147.376,172.249 146.376,172.749 145.5,173.5C 147.636,177.387 150.303,180.72 153.5,183.5 Z"/></g>
<g><path style="opacity:1" fill="#35302b" d="M 109.5,172.5 C 115.792,172.18 117.125,174.68 113.5,180C 113.605,181.592 113.939,183.092 114.5,184.5C 110.327,183.163 106.493,181.163 103,178.5C 101.416,179.861 99.5824,180.528 97.5,180.5C 98.2068,176.672 100.54,175.005 104.5,175.5C 104.312,177.103 104.812,178.437 106,179.5C 106.652,177.277 108.152,176.11 110.5,176C 109.663,174.989 109.33,173.822 109.5,172.5 Z"/></g>
<g><path style="opacity:1" fill="#372f22" d="M 88.5,180.5 C 84.2066,180.023 80.8733,178.023 78.5,174.5C 79.9305,174.579 81.2638,174.246 82.5,173.5C 83.731,174.651 83.731,175.817 82.5,177C 84.7008,177.825 86.5341,177.325 88,175.5C 88.5074,176.996 88.0074,178.163 86.5,179C 87.4158,179.278 88.0825,179.778 88.5,180.5 Z"/></g>
<g><path style="opacity:1" fill="#f8d06e" d="M 188.5,174.5 C 190.201,174.966 191.701,174.966 193,174.5C 193.483,175.448 193.649,176.448 193.5,177.5C 195.512,176.986 197.512,176.82 199.5,177C 198.978,177.561 198.645,178.228 198.5,179C 200.04,181.33 201.207,183.83 202,186.5C 202.419,185.328 203.085,184.328 204,183.5C 204.167,183.833 204.333,184.167 204.5,184.5C 201.529,189.874 199.529,189.374 198.5,183C 197.517,182.409 196.85,182.743 196.5,184C 197.022,184.95 197.689,185.784 198.5,186.5C 197.566,188.702 197.9,190.702 199.5,192.5C 199.499,196.252 197.833,197.252 194.5,195.5C 193.897,193.548 194.23,191.548 195.5,189.5C 192.963,187.733 190.297,186.233 187.5,185C 189.929,184.549 190.096,183.715 188,182.5C 185.032,186.137 182.198,189.804 179.5,193.5C 178.069,193.023 176.736,192.357 175.5,191.5C 176.653,190.313 176.653,189.313 175.5,188.5C 175.5,187.833 175.5,187.167 175.5,186.5C 176.5,186.5 177.5,186.5 178.5,186.5C 179.138,184.201 180.138,182.034 181.5,180C 180.175,180.148 179.008,179.982 178,179.5C 177.667,180.5 177.333,181.5 177,182.5C 175.991,180.975 175.491,179.308 175.5,177.5C 176.675,177.719 177.675,177.386 178.5,176.5C 177.167,175.833 175.833,175.167 174.5,174.5C 179.006,171.34 183.672,171.34 188.5,174.5 Z"/></g>
<g><path style="opacity:1" fill="#302d2a" d="M 145.5,180.5 C 148.172,181.501 150.838,182.501 153.5,183.5C 154.167,183.5 154.5,183.833 154.5,184.5C 151.16,185.024 149.494,187.024 149.5,190.5C 146.52,190.759 144.687,189.426 144,186.5C 142.812,187.563 142.312,188.897 142.5,190.5C 139.059,190.699 135.726,190.199 132.5,189C 131.151,188.228 130.318,187.061 130,185.5C 128.173,187.24 128.34,188.907 130.5,190.5C 131.689,191.429 133.022,191.762 134.5,191.5C 134.5,192.5 134.5,193.5 134.5,194.5C 135.822,194.67 136.989,194.337 138,193.5C 138.41,194.901 138.91,196.234 139.5,197.5C 130.687,193.928 122.354,189.595 114.5,184.5C 116.905,184.866 119.238,185.533 121.5,186.5C 123.646,185.106 125.979,184.44 128.5,184.5C 128.197,181.412 129.53,179.746 132.5,179.5C 132.281,180.675 132.614,181.675 133.5,182.5C 135.111,181.68 135.778,180.346 135.5,178.5C 136.552,178.351 137.552,178.517 138.5,179C 137.5,180.667 136.5,182.333 135.5,184C 137.135,184.54 138.468,184.04 139.5,182.5C 141.808,185.007 144.475,185.674 147.5,184.5C 146.37,183.378 145.703,182.044 145.5,180.5 Z"/></g>
<g><path style="opacity:1" fill="#e8bd4f" d="M 139.5,162.5 C 140.75,162.577 141.583,163.244 142,164.5C 143.183,163.269 144.349,163.269 145.5,164.5C 144.189,165.258 143.689,166.258 144,167.5C 146.601,168.764 148.934,170.431 151,172.5C 152.3,171.548 153.467,171.548 154.5,172.5C 153.167,173.5 151.833,174.5 150.5,175.5C 152.489,176.615 154.322,176.282 156,174.5C 157.76,175.63 159.593,176.63 161.5,177.5C 160.754,178.736 160.421,180.07 160.5,181.5C 162.415,181.216 164.081,181.549 165.5,182.5C 164.711,182.783 164.044,183.283 163.5,184C 166.419,184.552 169.086,183.885 171.5,182C 170.663,180.989 170.33,179.822 170.5,178.5C 171.873,178.343 173.207,178.51 174.5,179C 173.282,181.65 173.615,184.15 175.5,186.5C 175.5,187.167 175.5,187.833 175.5,188.5C 175.028,190.531 174.028,192.198 172.5,193.5C 171.391,193.443 170.391,193.11 169.5,192.5C 164.667,189.582 159.667,186.916 154.5,184.5C 154.5,183.833 154.167,183.5 153.5,183.5C 150.303,180.72 147.636,177.387 145.5,173.5C 146.376,172.749 147.376,172.249 148.5,172C 146.455,171.51 144.455,171.677 142.5,172.5C 140.206,170.763 137.54,169.596 134.5,169C 136.551,167.033 138.218,164.866 139.5,162.5 Z"/></g>
<g><path style="opacity:1" fill="#232221" d="M 154.5,184.5 C 159.667,186.916 164.667,189.582 169.5,192.5C 167.564,192.816 165.731,194.15 164,196.5C 164.401,199.061 164.235,201.728 163.5,204.5C 161.901,204.232 160.568,204.566 159.5,205.5C 158.583,203.338 158.583,201.005 159.5,198.5C 157.396,198.799 155.396,198.466 153.5,197.5C 152.926,194.823 152.259,192.157 151.5,189.5C 149.862,190.705 149.529,192.038 150.5,193.5C 149.833,194.167 149.167,194.833 148.5,195.5C 149.641,196.425 149.641,197.259 148.5,198C 145.469,198.495 142.469,198.329 139.5,197.5C 138.91,196.234 138.41,194.901 138,193.5C 136.989,194.337 135.822,194.67 134.5,194.5C 134.5,193.5 134.5,192.5 134.5,191.5C 133.022,191.762 131.689,191.429 130.5,190.5C 128.34,188.907 128.173,187.24 130,185.5C 130.318,187.061 131.151,188.228 132.5,189C 135.726,190.199 139.059,190.699 142.5,190.5C 142.312,188.897 142.812,187.563 144,186.5C 144.687,189.426 146.52,190.759 149.5,190.5C 149.494,187.024 151.16,185.024 154.5,184.5 Z"/></g>
<g><path style="opacity:0.988" fill="#ebbf50" d="M 227.5,170.5 C 230.644,171.172 233.644,172.172 236.5,173.5C 236.67,174.822 236.337,175.989 235.5,177C 238.007,178.846 239.341,181.346 239.5,184.5C 234.078,193.223 226.078,197.89 215.5,198.5C 216.694,196.516 216.694,194.516 215.5,192.5C 214.269,193.651 214.269,194.817 215.5,196C 213.741,196.798 212.074,196.631 210.5,195.5C 210.957,193.402 211.957,191.736 213.5,190.5C 214.833,190.5 216.167,190.5 217.5,190.5C 217.351,189.448 217.517,188.448 218,187.5C 218.202,189.256 218.702,190.922 219.5,192.5C 220.701,189.128 222.534,186.128 225,183.5C 225.43,180.808 225.263,178.141 224.5,175.5C 226.467,175.739 228.301,175.406 230,174.5C 230.688,173.668 230.521,173.002 229.5,172.5C 227.786,173.609 227.119,172.942 227.5,170.5 Z"/></g>
<g><path style="opacity:1" fill="#f6cd69" d="M 199.5,192.5 C 199.281,191.325 199.614,190.325 200.5,189.5C 202.94,190.238 204.94,191.571 206.5,193.5C 208.37,191.094 209.703,188.427 210.5,185.5C 210.957,184.702 211.624,184.369 212.5,184.5C 215.805,186.067 216.138,188.067 213.5,190.5C 211.957,191.736 210.957,193.402 210.5,195.5C 212.074,196.631 213.741,196.798 215.5,196C 214.269,194.817 214.269,193.651 215.5,192.5C 216.694,194.516 216.694,196.516 215.5,198.5C 205.643,200.329 195.643,200.996 185.5,200.5C 180.724,198.946 176.39,196.613 172.5,193.5C 174.028,192.198 175.028,190.531 175.5,188.5C 176.653,189.313 176.653,190.313 175.5,191.5C 176.736,192.357 178.069,193.023 179.5,193.5C 182.198,189.804 185.032,186.137 188,182.5C 190.096,183.715 189.929,184.549 187.5,185C 190.297,186.233 192.963,187.733 195.5,189.5C 194.23,191.548 193.897,193.548 194.5,195.5C 197.833,197.252 199.499,196.252 199.5,192.5 Z"/></g>
<g><path style="opacity:1" fill="#35302b" d="M 159.5,205.5 C 160.167,205.5 160.5,205.833 160.5,206.5C 153.094,204.293 146.094,201.293 139.5,197.5C 142.469,198.329 145.469,198.495 148.5,198C 149.641,197.259 149.641,196.425 148.5,195.5C 149.167,194.833 149.833,194.167 150.5,193.5C 149.529,192.038 149.862,190.705 151.5,189.5C 152.259,192.157 152.926,194.823 153.5,197.5C 155.396,198.466 157.396,198.799 159.5,198.5C 158.583,201.005 158.583,203.338 159.5,205.5 Z"/></g>
<g><path style="opacity:1" fill="#1c1b19" d="M 169.5,192.5 C 170.391,193.11 171.391,193.443 172.5,193.5C 176.39,196.613 180.724,198.946 185.5,200.5C 188.5,202.167 190.833,204.5 192.5,207.5C 193.562,209.234 193.562,210.901 192.5,212.5C 187.833,212.5 183.167,212.5 178.5,212.5C 178.5,211.833 178.167,211.5 177.5,211.5C 175.162,209.96 172.495,209.294 169.5,209.5C 166.215,209.072 163.215,208.072 160.5,206.5C 160.5,205.833 160.167,205.5 159.5,205.5C 160.568,204.566 161.901,204.232 163.5,204.5C 164.235,201.728 164.401,199.061 164,196.5C 165.731,194.15 167.564,192.816 169.5,192.5 Z"/></g>
<g><path style="opacity:0.702" fill="#5d4b22" d="M 192.5,207.5 C 194.213,208.635 194.88,210.302 194.5,212.5C 193.833,212.5 193.167,212.5 192.5,212.5C 193.562,210.901 193.562,209.234 192.5,207.5 Z"/></g>
<g><path style="opacity:0.396" fill="#554313" d="M 169.5,209.5 C 172.495,209.294 175.162,209.96 177.5,211.5C 174.572,211.435 171.905,210.768 169.5,209.5 Z"/></g>
</svg>
