<?xml version="1.0" encoding="UTF-8"?>
<!DOCTYPE svg PUBLIC "-//W3C//DTD SVG 1.1//EN" "http://www.w3.org/Graphics/SVG/1.1/DTD/svg11.dtd">
<svg xmlns="http://www.w3.org/2000/svg" version="1.1" width="368px" height="450px" style="shape-rendering:geometricPrecision; text-rendering:geometricPrecision; image-rendering:optimizeQuality; fill-rule:evenodd; clip-rule:evenodd" xmlns:xlink="http://www.w3.org/1999/xlink">
<g><path style="opacity:0.908" fill="#e3a80d" d="M 66.5,3.5 C 66.3893,4.11742 66.056,4.61742 65.5,5C 66.1094,6.94828 66.776,8.78161 67.5,10.5C 67.5,11.5 67.5,12.5 67.5,13.5C 66.5655,14.5676 66.2322,15.901 66.5,17.5C 69.7131,17.81 72.7131,17.4767 75.5,16.5C 77.1172,17.038 78.7839,17.3713 80.5,17.5C 81.9525,18.8486 82.9525,20.5153 83.5,22.5C 82.1667,23.1667 82.1667,23.8333 83.5,24.5C 83.5,24.8333 83.5,25.1667 83.5,25.5C 82.8333,25.5 82.5,25.8333 82.5,26.5C 80.2048,27.4746 78.2048,28.8079 76.5,30.5C 75.2905,30.9321 74.2905,31.5987 73.5,32.5C 72.5084,32.3284 71.8417,32.6618 71.5,33.5C 70.8333,33.5 70.5,33.8333 70.5,34.5C 69.5084,34.3284 68.8417,34.6618 68.5,35.5C 65.7428,36.5122 63.0761,37.5122 60.5,38.5C 59.5084,38.3284 58.8417,38.6618 58.5,39.5C 57.209,39.2627 56.209,39.596 55.5,40.5C 54.5084,40.3284 53.8417,40.6618 53.5,41.5C 52.209,41.2627 51.209,41.596 50.5,42.5C 49.5655,43.5676 49.2322,44.901 49.5,46.5C 48.6618,46.8417 48.3284,47.5084 48.5,48.5C 46.9926,52.3911 46.3259,56.5578 46.5,61C 46.5022,64.0208 46.8356,66.8541 47.5,69.5C 47.4249,74.1925 48.4249,78.5258 50.5,82.5C 50.1107,85.5533 50.7773,88.22 52.5,90.5C 52.7191,94.8002 53.7191,98.8002 55.5,102.5C 55.2155,104.415 55.5489,106.081 56.5,107.5C 56.7856,109.933 57.4523,109.933 58.5,107.5C 60.2624,106.738 61.2624,105.404 61.5,103.5C 62.4916,103.672 63.1583,103.338 63.5,102.5C 66.4206,102.283 69.0872,102.949 71.5,104.5C 71.5,108.167 71.5,111.833 71.5,115.5C 70.5489,116.919 70.2155,118.585 70.5,120.5C 69.8333,120.5 69.5,120.833 69.5,121.5C 68.596,122.209 68.2627,123.209 68.5,124.5C 67.8333,124.5 67.5,124.833 67.5,125.5C 66.8333,125.5 66.5,125.833 66.5,126.5C 65.6554,127.671 64.9887,129.005 64.5,130.5C 63.0687,131.78 62.4021,133.447 62.5,135.5C 61.5084,135.328 60.8417,135.662 60.5,136.5C 59.596,137.209 59.2627,138.209 59.5,139.5C 58.5386,141.265 58.2053,143.265 58.5,145.5C 56.9605,147.838 56.2938,150.505 56.5,153.5C 55.6618,153.842 55.3284,154.508 55.5,155.5C 54.8333,155.5 54.5,155.833 54.5,156.5C 53.6618,156.842 53.3284,157.508 53.5,158.5C 52.8333,158.5 52.5,158.833 52.5,159.5C 51.8333,159.5 51.5,159.833 51.5,160.5C 50.8333,160.5 50.5,160.833 50.5,161.5C 49.8333,161.5 49.5,161.833 49.5,162.5C 48.8333,162.5 48.5,162.833 48.5,163.5C 46.3024,163.875 44.3024,164.542 42.5,165.5C 39.4552,165.492 36.4552,165.159 33.5,164.5C 28.991,162.98 25.1576,160.314 22,156.5C 21.4338,154.277 20.6005,152.277 19.5,150.5C 19.7373,149.209 19.404,148.209 18.5,147.5C 18.6716,146.508 18.3382,145.842 17.5,145.5C 13.8886,143.683 10.5553,141.35 7.5,138.5C 7.06795,137.29 6.40128,136.29 5.5,135.5C 4.13632,133.809 2.80299,132.142 1.5,130.5C -0.141964,126 0.191369,121.667 2.5,117.5C 3.95844,116.218 5.29177,116.218 6.5,117.5C 3.83333,117.833 3.83333,118.167 6.5,118.5C 9.287,120.253 12.287,120.586 15.5,119.5C 16.0522,117.997 16.0522,116.331 15.5,114.5C 16.2344,113.122 16.9011,111.622 17.5,110C 16.7193,105.259 16.386,100.592 16.5,96C 18.0386,88.9764 19.3719,82.1431 20.5,75.5C 21.404,74.791 21.7373,73.791 21.5,72.5C 22.404,71.791 22.7373,70.791 22.5,69.5C 23.4345,68.4324 23.7678,67.099 23.5,65.5C 27.9832,55.3044 34.1499,45.6377 42,36.5C 43.4838,32.5532 44.6505,28.5532 45.5,24.5C 47.0739,22.8984 47.7406,20.8984 47.5,18.5C 48.9313,17.2196 49.5979,15.5529 49.5,13.5C 52.988,9.94 55.1546,5.94 56,1.5C 56.9138,2.65367 57.7471,2.48701 58.5,1C 61.9711,-0.16343 64.6377,0.669904 66.5,3.5 Z M 56.5,107.5 C 57.1667,107.5 57.8333,107.5 58.5,107.5C 57.4523,109.933 56.7856,109.933 56.5,107.5 Z"/></g>
<g><path style="opacity:0.004" fill="#e1a500" d="M 66.5,3.5 C 66.369,2.76109 66.5357,2.09442 67,1.5C 67.6917,2.43677 67.525,3.10343 66.5,3.5 Z"/></g>
<g><path style="opacity:0.007" fill="#e2a400" d="M 68.5,10.5 C 68.1667,10.5 67.8333,10.5 67.5,10.5C 67.8333,3.83333 68.1667,3.83333 68.5,10.5 Z"/></g>
<g><path style="opacity:0.006" fill="#e2a400" d="M 68.5,10.5 C 69.525,10.8966 69.6917,11.5632 69,12.5C 68.5357,11.9056 68.369,11.2389 68.5,10.5 Z"/></g>
<g><path style="opacity:0.004" fill="#f3d751" d="M 49.5,13.5 C 48.8333,12.1667 48.8333,12.1667 49.5,13.5 Z"/></g>
<g><path style="opacity:0.007" fill="#e1a400" d="M 67.5,13.5 C 68.5336,14.6871 69.867,15.5204 71.5,16C 70.2068,16.49 68.8734,16.6567 67.5,16.5C 67.5,15.5 67.5,14.5 67.5,13.5 Z"/></g>
<g><path style="opacity:0.004" fill="#e1a400" d="M 72.5,15.5 C 73.8333,16.1667 73.8333,16.1667 72.5,15.5 Z"/></g>
<g><path style="opacity:0.004" fill="#e0a500" d="M 75.5,16.5 C 74.8333,15.1667 74.8333,15.1667 75.5,16.5 Z"/></g>
<g><path style="opacity:0.004" fill="#e1a500" d="M 80.5,16.5 C 79.7611,16.631 79.0944,16.4643 78.5,16C 79.4368,15.3083 80.1034,15.475 80.5,16.5 Z"/></g>
<g><path style="opacity:0.004" fill="#e1a500" d="M 80.5,16.5 C 81.8333,17.1667 81.8333,17.1667 80.5,16.5 Z"/></g>
<g><path style="opacity:0.008" fill="#df9f14" d="M 47.5,18.5 C 47.1667,18.5 46.8333,18.5 46.5,18.5C 46.8333,15.8333 47.1667,15.8333 47.5,18.5 Z"/></g>
<g><path style="opacity:0.012" fill="#e3ab0b" d="M 46.5,18.5 C 46.6495,19.552 46.4828,20.552 46,21.5C 45.2599,20.2506 45.4265,19.2506 46.5,18.5 Z"/></g>
<g><path style="opacity:0.008" fill="#e1a500" d="M 84.5,21.5 C 85.8333,22.1667 85.8333,22.1667 84.5,21.5 Z"/></g>
<g><path style="opacity:0.481" fill="#fdf07b" d="M 57.5,12.5 C 59.22,14.6581 60.0533,17.3248 60,20.5C 60.8333,21.3333 61.6667,22.1667 62.5,23C 66.8333,23.3333 71.1667,23.6667 75.5,24C 67.4168,28.7479 58.9168,32.5813 50,35.5C 52.1775,27.7996 54.6775,20.1329 57.5,12.5 Z"/></g>
<g><path style="opacity:0.006" fill="#e1a400" d="M 83.5,22.5 C 83.8333,22.5 84.1667,22.5 84.5,22.5C 84.6716,23.4916 84.3382,24.1583 83.5,24.5C 83.5,23.8333 83.5,23.1667 83.5,22.5 Z"/></g>
<g><path style="opacity:0.012" fill="#dc9604" d="M 45.5,24.5 C 44.475,24.1034 44.3083,23.4368 45,22.5C 45.4643,23.0944 45.631,23.7611 45.5,24.5 Z"/></g>
<g><path style="opacity:0.008" fill="#e1a601" d="M 43.5,25.5 C 44.525,25.8966 44.6917,26.5632 44,27.5C 43.5357,26.9056 43.369,26.2389 43.5,25.5 Z"/></g>
<g><path style="opacity:0.008" fill="#e1a500" d="M 83.5,25.5 C 84.8333,26.1667 84.8333,26.1667 83.5,25.5 Z"/></g>
<g><path style="opacity:0.004" fill="#e0a400" d="M 82.5,26.5 C 82.8333,26.5 83.1667,26.5 83.5,26.5C 83.3147,27.1701 82.9813,27.1701 82.5,26.5 Z"/></g>
<g><path style="opacity:0.012" fill="#e0a400" d="M 76.5,30.5 C 77.2389,30.369 77.9056,30.5357 78.5,31C 77.5632,31.6917 76.8966,31.525 76.5,30.5 Z"/></g>
<g><path style="opacity:0.004" fill="#e1a400" d="M 73.5,33.5 C 73.5,33.1667 73.5,32.8333 73.5,32.5C 76.1667,32.8333 76.1667,33.1667 73.5,33.5 Z"/></g>
<g><path style="opacity:0.01" fill="#e1a400" d="M 71.5,34.5 C 71.5,34.1667 71.5,33.8333 71.5,33.5C 72.1667,33.5 72.8333,33.5 73.5,33.5C 73.1583,34.3382 72.4916,34.6716 71.5,34.5 Z"/></g>
<g><path style="opacity:0.004" fill="#e1a500" d="M 70.5,34.5 C 70.8333,34.5 71.1667,34.5 71.5,34.5C 71.3147,35.1701 70.9813,35.1701 70.5,34.5 Z"/></g>
<g><path style="opacity:0.008" fill="#e1a400" d="M 68.5,36.5 C 68.5,36.1667 68.5,35.8333 68.5,35.5C 69.1667,35.5 69.8333,35.5 70.5,35.5C 70.1583,36.3382 69.4916,36.6716 68.5,36.5 Z"/></g>
<g><path style="opacity:0.004" fill="#e1a500" d="M 68.5,36.5 C 67.8333,37.1667 67.8333,37.1667 68.5,36.5 Z"/></g>
<g><path style="opacity:0.008" fill="#e1a500" d="M 65.5,37.5 C 66.8333,38.1667 66.8333,38.1667 65.5,37.5 Z"/></g>
<g><path style="opacity:0.006" fill="#e2a501" d="M 60.5,39.5 C 60.5,39.1667 60.5,38.8333 60.5,38.5C 65.8333,38.8333 65.8333,39.1667 60.5,39.5 Z"/></g>
<g><path style="opacity:0.006" fill="#e1a300" d="M 58.5,40.5 C 58.5,40.1667 58.5,39.8333 58.5,39.5C 59.1667,39.5 59.8333,39.5 60.5,39.5C 60.1583,40.3382 59.4916,40.6716 58.5,40.5 Z"/></g>
<g><path style="opacity:0.008" fill="#e1a400" d="M 55.5,41.5 C 55.5,41.1667 55.5,40.8333 55.5,40.5C 56.5,40.5 57.5,40.5 58.5,40.5C 57.791,41.404 56.791,41.7373 55.5,41.5 Z"/></g>
<g><path style="opacity:0.006" fill="#e1a400" d="M 53.5,42.5 C 53.5,42.1667 53.5,41.8333 53.5,41.5C 54.1667,41.5 54.8333,41.5 55.5,41.5C 55.1583,42.3382 54.4916,42.6716 53.5,42.5 Z"/></g>
<g><path style="opacity:0.01" fill="#e2a704" d="M 50.5,42.5 C 51.5,42.5 52.5,42.5 53.5,42.5C 52.5313,43.3094 51.6979,44.3094 51,45.5C 50.5172,44.552 50.3505,43.552 50.5,42.5 Z"/></g>
<g><path style="opacity:0.004" fill="#e4aa0a" d="M 49.5,46.5 C 50.8333,47.1667 50.8333,47.8333 49.5,48.5C 49.5,47.8333 49.5,47.1667 49.5,46.5 Z"/></g>
<g><path style="opacity:0.006" fill="#e2a606" d="M 48.5,48.5 C 48.8333,48.5 49.1667,48.5 49.5,48.5C 49.1667,53.8333 48.8333,53.8333 48.5,48.5 Z"/></g>
<g><path style="opacity:0.008" fill="#e5af18" d="M 47.5,53.5 C 48.5983,54.6009 48.765,55.9343 48,57.5C 47.51,56.2068 47.3433,54.8734 47.5,53.5 Z"/></g>
<g><path style="opacity:0.004" fill="#e1a500" d="M 25.5,57.5 C 26.8333,58.1667 26.8333,58.1667 25.5,57.5 Z"/></g>
<g><path style="opacity:0.008" fill="#eaba26" d="M 47.5,69.5 C 47.335,66.1501 47.5017,62.8168 48,59.5C 48.8075,63.0267 48.6408,66.3601 47.5,69.5 Z"/></g>
<g><path style="opacity:0.008" fill="#e1a500" d="M 23.5,65.5 C 22.8333,64.1667 22.8333,64.1667 23.5,65.5 Z"/></g>
<g><path style="opacity:0.007" fill="#e1a500" d="M 22.5,69.5 C 21.4265,68.7494 21.2599,67.7494 22,66.5C 22.4828,67.448 22.6495,68.448 22.5,69.5 Z"/></g>
<g><path style="opacity:0.012" fill="#e1a400" d="M 21.5,72.5 C 20.475,72.1034 20.3083,71.4368 21,70.5C 21.4643,71.0944 21.631,71.7611 21.5,72.5 Z"/></g>
<g><path style="opacity:0.008" fill="#e1a400" d="M 48.5,71.5 C 49.5735,72.2506 49.7401,73.2506 49,74.5C 48.5172,73.552 48.3505,72.552 48.5,71.5 Z"/></g>
<g><path style="opacity:0.008" fill="#e1a500" d="M 20.5,75.5 C 20.1667,75.5 19.8333,75.5 19.5,75.5C 19.8333,72.8333 20.1667,72.8333 20.5,75.5 Z"/></g>
<g><path style="opacity:0.004" fill="#e1a500" d="M 19.5,75.5 C 19.631,76.2389 19.4643,76.9056 19,77.5C 18.3083,76.5632 18.475,75.8966 19.5,75.5 Z"/></g>
<g><path style="opacity:0.66" fill="#fdee7f" d="M 49.5,146.5 C 48.7784,146.918 48.2784,147.584 48,148.5C 47.6529,144.884 46.4862,144.217 44.5,146.5C 44.2623,144.522 42.9289,142.855 40.5,141.5C 39.2638,140.754 37.9305,140.421 36.5,140.5C 36.33,139.178 36.6634,138.011 37.5,137C 35.5855,135.167 34.9188,133.167 35.5,131C 37.8486,129.315 39.1819,127.315 39.5,125C 36.8056,123.81 34.1389,123.644 31.5,124.5C 32.325,125.386 33.325,125.719 34.5,125.5C 34.5,126.5 34.5,127.5 34.5,128.5C 30.3903,128.793 27.7236,126.96 26.5,123C 26.9444,121.238 27.4444,121.405 28,123.5C 29.8962,121.47 32.0629,119.803 34.5,118.5C 33.0186,117.52 31.6853,116.353 30.5,115C 32.709,112.622 35.0424,110.455 37.5,108.5C 35.4793,105.64 32.646,103.974 29,103.5C 27.2442,104.902 25.7442,106.569 24.5,108.5C 23.4945,99.9301 23.9945,91.2634 26,82.5C 28.7739,74.4738 31.4406,66.1404 34,57.5C 36.5346,51.6395 39.868,46.3062 44,41.5C 42.8946,48.0884 41.3946,54.5884 39.5,61C 41.2563,76.1137 44.423,90.947 49,105.5C 49.711,107.899 49.5443,110.232 48.5,112.5C 50.0211,114.286 50.3544,116.119 49.5,118C 50.4408,121.574 51.1075,125.241 51.5,129C 50.9944,135.001 50.3277,140.834 49.5,146.5 Z"/></g>
<g><path style="opacity:0.009" fill="#e1a400" d="M 50.5,82.5 C 50.3505,81.448 50.5172,80.448 51,79.5C 51.7401,80.7494 51.5735,81.7494 50.5,82.5 Z"/></g>
<g><path style="opacity:0.008" fill="#e1a400" d="M 52.5,90.5 C 52.369,89.7611 52.5357,89.0944 53,88.5C 53.6917,89.4368 53.525,90.1034 52.5,90.5 Z"/></g>
<g><path style="opacity:0.004" fill="#feee83" d="M 66.5,88.5 C 67.525,88.8966 67.6917,89.5632 67,90.5C 66.5357,89.9056 66.369,89.2389 66.5,88.5 Z"/></g>
<g><path style="opacity:0.007" fill="#e1a400" d="M 55.5,102.5 C 55.3433,101.127 55.51,99.7932 56,98.5C 56.765,100.066 56.5983,101.399 55.5,102.5 Z"/></g>
<g><path style="opacity:0.006" fill="#e1a500" d="M 63.5,101.5 C 63.8966,100.475 64.5632,100.308 65.5,101C 64.9056,101.464 64.2389,101.631 63.5,101.5 Z"/></g>
<g><path style="opacity:0.008" fill="#e0a400" d="M 67.5,100.5 C 68.8333,101.167 68.8333,101.167 67.5,100.5 Z"/></g>
<g><path style="opacity:0.01" fill="#e1a500" d="M 14.5,101.5 C 15.5735,102.251 15.7401,103.251 15,104.5C 14.5172,103.552 14.3505,102.552 14.5,101.5 Z"/></g>
<g><path style="opacity:0.012" fill="#e1a400" d="M 63.5,101.5 C 63.5,101.833 63.5,102.167 63.5,102.5C 62.8299,102.019 62.8299,101.685 63.5,101.5 Z"/></g>
<g><path style="opacity:0.004" fill="#e0a500" d="M 61.5,103.5 C 60.8333,102.167 60.8333,102.167 61.5,103.5 Z"/></g>
<g><path style="opacity:0.014" fill="#e1a500" d="M 58.5,107.5 C 57.8333,107.5 57.1667,107.5 56.5,107.5C 56.5835,102.36 57.2502,102.36 58.5,107.5 Z"/></g>
<g><path style="opacity:0.008" fill="#e0a500" d="M 60.5,103.5 C 59.8333,104.167 59.8333,104.167 60.5,103.5 Z"/></g>
<g><path style="opacity:0.004" fill="#e0a500" d="M 72.5,104.5 C 71.8333,103.167 71.8333,103.167 72.5,104.5 Z"/></g>
<g><path style="opacity:0.007" fill="#e1a400" d="M 72.5,104.5 C 73.6225,106.288 73.7891,108.288 73,110.5C 72.5045,108.527 72.3379,106.527 72.5,104.5 Z"/></g>
<g><path style="opacity:0.01" fill="#e2a400" d="M 14.5,106.5 C 15.5735,107.251 15.7401,108.251 15,109.5C 14.5172,108.552 14.3505,107.552 14.5,106.5 Z"/></g>
<g><path style="opacity:0.016" fill="#e1a500" d="M 15.5,114.5 C 14.4017,113.399 14.235,112.066 15,110.5C 15.49,111.793 15.6567,113.127 15.5,114.5 Z"/></g>
<g><path style="opacity:0.007" fill="#e1a400" d="M 72.5,115.5 C 72.3433,114.127 72.51,112.793 73,111.5C 73.765,113.066 73.5983,114.399 72.5,115.5 Z"/></g>
<g><path style="opacity:0.004" fill="#e1a500" d="M 13.5,115.5 C 14.8333,116.167 14.8333,116.167 13.5,115.5 Z"/></g>
<g><path style="opacity:0.799" fill="#feec87" d="M 49.5,146.5 C 49.5793,149.271 49.0793,151.937 48,154.5C 41.573,160.573 35.2397,160.239 29,153.5C 23.6464,138.956 22.1464,123.956 24.5,108.5C 25.7442,106.569 27.2442,104.902 29,103.5C 32.646,103.974 35.4793,105.64 37.5,108.5C 35.0424,110.455 32.709,112.622 30.5,115C 31.6853,116.353 33.0186,117.52 34.5,118.5C 32.0629,119.803 29.8962,121.47 28,123.5C 27.4444,121.405 26.9444,121.238 26.5,123C 27.7236,126.96 30.3903,128.793 34.5,128.5C 34.5,127.5 34.5,126.5 34.5,125.5C 33.325,125.719 32.325,125.386 31.5,124.5C 34.1389,123.644 36.8056,123.81 39.5,125C 39.1819,127.315 37.8486,129.315 35.5,131C 34.9188,133.167 35.5855,135.167 37.5,137C 36.6634,138.011 36.33,139.178 36.5,140.5C 37.9305,140.421 39.2638,140.754 40.5,141.5C 42.9289,142.855 44.2623,144.522 44.5,146.5C 46.4862,144.217 47.6529,144.884 48,148.5C 48.2784,147.584 48.7784,146.918 49.5,146.5 Z"/></g>
<g><path style="opacity:0.008" fill="#e0a002" d="M 6.5,118.5 C 6.5,118.167 6.5,117.833 6.5,117.5C 11.8333,117.833 11.8333,118.167 6.5,118.5 Z"/></g>
<g><path style="opacity:0.008" fill="#e2a604" d="M 71.5,115.5 C 71.8333,115.5 72.1667,115.5 72.5,115.5C 72.1667,120.833 71.8333,120.833 71.5,115.5 Z"/></g>
<g><path style="opacity:0.012" fill="#e2a807" d="M 11.5,119.5 C 12.2506,118.427 13.2506,118.26 14.5,119C 13.552,119.483 12.552,119.649 11.5,119.5 Z"/></g>
<g><path style="opacity:0.656" fill="#fcea7d" d="M 64.5,109.5 C 65.0431,109.56 65.3764,109.893 65.5,110.5C 63.5153,116.463 61.0153,122.129 58,127.5C 56.9779,120.353 59.1446,114.353 64.5,109.5 Z"/></g>
<g><path style="opacity:0.004" fill="#e1a703" d="M 70.5,120.5 C 71.8333,121.167 71.8333,121.167 70.5,120.5 Z"/></g>
<g><path style="opacity:0.008" fill="#e1a501" d="M 69.5,121.5 C 69.8333,121.5 70.1667,121.5 70.5,121.5C 70.1667,124.167 69.8333,124.167 69.5,121.5 Z"/></g>
<g><path style="opacity:0.008" fill="#dfa100" d="M 68.5,124.5 C 69.8333,125.167 69.8333,125.167 68.5,124.5 Z"/></g>
<g><path style="opacity:0.02" fill="#e5b013" d="M 67.5,125.5 C 67.8333,125.5 68.1667,125.5 68.5,125.5C 68.3147,126.17 67.9813,126.17 67.5,125.5 Z"/></g>
<g><path style="opacity:0.754" fill="#fdec7e" d="M 7.5,126.5 C 9.77212,125.236 12.1055,125.402 14.5,127C 16.2044,129.949 17.5378,133.115 18.5,136.5C 17.9984,137.521 17.3317,137.688 16.5,137C 13.1268,133.708 10.1268,130.208 7.5,126.5 Z"/></g>
<g><path style="opacity:0.006" fill="#e1a501" d="M 66.5,126.5 C 66.8333,126.5 67.1667,126.5 67.5,126.5C 67.1667,130.5 66.8333,130.5 66.5,126.5 Z"/></g>
<g><path style="opacity:0.006" fill="#e1a400" d="M 1.5,130.5 C 1.63101,131.239 1.46434,131.906 1,132.5C 0.308314,131.563 0.474981,130.897 1.5,130.5 Z"/></g>
<g><path style="opacity:0.008" fill="#e3a704" d="M 64.5,130.5 C 65.525,130.897 65.6917,131.563 65,132.5C 64.5357,131.906 64.369,131.239 64.5,130.5 Z"/></g>
<g><path style="opacity:0.004" fill="#e1a500" d="M 63.5,135.5 C 63.369,134.761 63.5357,134.094 64,133.5C 64.6917,134.437 64.525,135.103 63.5,135.5 Z"/></g>
<g><path style="opacity:0.004" fill="#e1a500" d="M 62.5,135.5 C 62.8333,135.5 63.1667,135.5 63.5,135.5C 63.3147,136.17 62.9813,136.17 62.5,135.5 Z"/></g>
<g><path style="opacity:0.004" fill="#f9e376" d="M 5.5,135.5 C 5.63101,136.239 5.46434,136.906 5,137.5C 4.30831,136.563 4.47498,135.897 5.5,135.5 Z"/></g>
<g><path style="opacity:0.014" fill="#e9b430" d="M 60.5,136.5 C 61.1667,136.5 61.8333,136.5 62.5,136.5C 61.4523,138.933 60.7856,138.933 60.5,136.5 Z"/></g>
<g><path style="opacity:0.004" fill="#fef088" d="M 7.5,138.5 C 6.83333,139.167 6.83333,139.167 7.5,138.5 Z"/></g>
<g><path style="opacity:0.004" fill="#f1c94d" d="M 59.5,139.5 C 60.8333,141.5 60.8333,143.5 59.5,145.5C 59.5,143.5 59.5,141.5 59.5,139.5 Z"/></g>
<g><path style="opacity:0.014" fill="#e1a301" d="M 17.5,145.5 C 17.5,146.167 17.5,146.833 17.5,147.5C 13.7139,146.305 13.7139,145.638 17.5,145.5 Z"/></g>
<g><path style="opacity:0.008" fill="#dd9812" d="M 58.5,145.5 C 58.8333,145.5 59.1667,145.5 59.5,145.5C 59.1667,149.5 58.8333,149.5 58.5,145.5 Z"/></g>
<g><path style="opacity:0.008" fill="#e1a400" d="M 17.5,147.5 C 17.8333,147.5 18.1667,147.5 18.5,147.5C 18.1667,150.167 17.8333,150.167 17.5,147.5 Z"/></g>
<g><path style="opacity:0.004" fill="#e1a500" d="M 19.5,150.5 C 19.631,151.239 19.4643,151.906 19,152.5C 18.3083,151.563 18.475,150.897 19.5,150.5 Z"/></g>
<g><path style="opacity:0.004" fill="#e3a70a" d="M 57.5,153.5 C 57.3433,152.127 57.51,150.793 58,149.5C 58.765,151.066 58.5983,152.399 57.5,153.5 Z"/></g>
<g><path style="opacity:0.006" fill="#e1a400" d="M 56.5,153.5 C 56.8333,153.5 57.1667,153.5 57.5,153.5C 57.6716,154.492 57.3382,155.158 56.5,155.5C 56.5,154.833 56.5,154.167 56.5,153.5 Z"/></g>
<g><path style="opacity:0.012" fill="#e1a500" d="M 55.5,155.5 C 55.8333,155.5 56.1667,155.5 56.5,155.5C 56.3147,156.17 55.9813,156.17 55.5,155.5 Z"/></g>
<g><path style="opacity:0.016" fill="#e0a400" d="M 54.5,156.5 C 54.8333,156.5 55.1667,156.5 55.5,156.5C 55.3147,157.17 54.9813,157.17 54.5,156.5 Z"/></g>
<g><path style="opacity:0.004" fill="#e9b827" d="M 53.5,158.5 C 54.8333,159.167 54.8333,159.167 53.5,158.5 Z"/></g>
<g><path style="opacity:0.008" fill="#eec442" d="M 52.5,159.5 C 52.8333,159.5 53.1667,159.5 53.5,159.5C 53.3147,160.17 52.9813,160.17 52.5,159.5 Z"/></g>
<g><path style="opacity:0.008" fill="#f2cf58" d="M 51.5,160.5 C 51.8333,160.5 52.1667,160.5 52.5,160.5C 52.3147,161.17 51.9813,161.17 51.5,160.5 Z"/></g>
<g><path style="opacity:0.004" fill="#fef1a4" d="M 50.5,161.5 C 50.8333,161.5 51.1667,161.5 51.5,161.5C 51.3147,162.17 50.9813,162.17 50.5,161.5 Z"/></g>
<g><path style="opacity:0.004" fill="#feef9f" d="M 49.5,162.5 C 49.8333,162.5 50.1667,162.5 50.5,162.5C 50.3147,163.17 49.9813,163.17 49.5,162.5 Z"/></g>
<g><path style="opacity:0.004" fill="#fef1a4" d="M 48.5,163.5 C 48.8333,163.5 49.1667,163.5 49.5,163.5C 49.3147,164.17 48.9813,164.17 48.5,163.5 Z"/></g>
<g><path style="opacity:0.012" fill="#e3a915" d="M 33.5,164.5 C 33.5,164.833 33.5,165.167 33.5,165.5C 28.1667,165.167 28.1667,164.833 33.5,164.5 Z"/></g>
<g><path style="opacity:0.006" fill="#e1a300" d="M 33.5,165.5 C 34.2389,165.369 34.9056,165.536 35.5,166C 34.5632,166.692 33.8966,166.525 33.5,165.5 Z"/></g>
<g><path style="opacity:0.004" fill="#f5ce63" d="M 42.5,165.5 C 43.8734,165.343 45.2068,165.51 46.5,166C 44.9343,166.765 43.6009,166.598 42.5,165.5 Z"/></g>
<g><path style="opacity:0.008" fill="#e0a200" d="M 36.5,167.5 C 37.9464,166.387 39.6131,166.22 41.5,167C 39.8659,167.494 38.1992,167.66 36.5,167.5 Z"/></g>
<g><path style="opacity:0.008" fill="#ffe991" d="M 201.5,293.5 C 202.525,293.897 202.692,294.563 202,295.5C 201.536,294.906 201.369,294.239 201.5,293.5 Z"/></g>
<g><path style="opacity:0.01" fill="#e1a400" d="M 44.5,305.5 C 43.1266,305.657 41.7932,305.49 40.5,305C 42.0657,304.235 43.3991,304.402 44.5,305.5 Z"/></g>
<g><path style="opacity:0.004" fill="#e0a400" d="M 46.5,304.5 C 47.8333,305.167 47.8333,305.167 46.5,304.5 Z"/></g>
<g><path style="opacity:0.004" fill="#da9303" d="M 37.5,306.5 C 37.8966,305.475 38.5632,305.308 39.5,306C 38.9056,306.464 38.2389,306.631 37.5,306.5 Z"/></g>
<g><path style="opacity:0.931" fill="#e3a80d" d="M 44.5,305.5 C 46.2292,306.117 47.7292,307.117 49,308.5C 49.3333,308.167 49.6667,307.833 50,307.5C 52.268,312.146 54.4347,316.812 56.5,321.5C 56.3893,322.117 56.056,322.617 55.5,323C 56.3174,328.508 57.3174,334.008 58.5,339.5C 57.1667,339.833 57.1667,340.167 58.5,340.5C 58.6633,346.958 61.33,351.958 66.5,355.5C 66.5,356.167 66.8333,356.5 67.5,356.5C 72.1955,360.521 77.1955,364.188 82.5,367.5C 87.8333,372.167 93.1667,376.833 98.5,381.5C 100.138,382.832 101.804,384.166 103.5,385.5C 103.842,386.338 104.508,386.672 105.5,386.5C 105.821,388.048 106.821,388.715 108.5,388.5C 108.5,386.833 108.5,385.167 108.5,383.5C 109.404,382.791 109.737,381.791 109.5,380.5C 110.872,379.488 112.205,378.488 113.5,377.5C 117.338,377.022 120.671,378.022 123.5,380.5C 123.738,382.404 124.738,383.738 126.5,384.5C 128.346,386.7 130.012,389.033 131.5,391.5C 131.893,393.284 132.559,394.95 133.5,396.5C 133.461,399.089 134.461,401.089 136.5,402.5C 136.263,403.791 136.596,404.791 137.5,405.5C 138.322,407.728 139.655,408.395 141.5,407.5C 142.739,407.942 143.739,408.609 144.5,409.5C 143.167,409.833 143.167,410.167 144.5,410.5C 144.738,412.404 145.738,413.738 147.5,414.5C 147.989,415.995 148.655,417.329 149.5,418.5C 149.325,420.621 149.659,422.621 150.5,424.5C 149.662,424.842 149.328,425.508 149.5,426.5C 148.833,426.5 148.5,426.833 148.5,427.5C 147.596,428.209 147.263,429.209 147.5,430.5C 145.302,430.12 143.635,430.787 142.5,432.5C 142.167,432.5 141.833,432.5 141.5,432.5C 137.786,432.59 134.452,433.59 131.5,435.5C 129.901,435.232 128.568,435.566 127.5,436.5C 125.265,436.205 123.265,436.539 121.5,437.5C 113.167,437.5 104.833,437.5 96.5,437.5C 93.4557,435.989 90.1224,435.322 86.5,435.5C 82.6339,434.9 78.9673,433.566 75.5,431.5C 74.8549,430.188 73.8549,429.188 72.5,428.5C 71.359,426.579 71.1923,424.579 72,422.5C 72.9145,426.185 73.5811,425.852 74,421.5C 75.3968,419.93 76.8968,418.596 78.5,417.5C 79.8333,416.833 79.8333,416.167 78.5,415.5C 77.8561,412.856 76.1894,411.189 73.5,410.5C 70.7585,407.239 68.5918,403.572 67,399.5C 66.6667,400.167 66.3333,400.833 66,401.5C 65.8019,399.618 65.3019,397.952 64.5,396.5C 64.7678,394.901 64.4345,393.568 63.5,392.5C 63.6716,391.508 63.3382,390.842 62.5,390.5C 61.2479,387.837 60.2479,385.17 59.5,382.5C 59.6716,381.508 59.3382,380.842 58.5,380.5C 57.8691,377.298 56.8691,374.298 55.5,371.5C 55.6716,370.508 55.3382,369.842 54.5,369.5C 54.7373,368.209 54.404,367.209 53.5,366.5C 53.6716,365.508 53.3382,364.842 52.5,364.5C 52.6716,363.508 52.3382,362.842 51.5,362.5C 50.4479,360.744 48.7812,360.077 46.5,360.5C 41.0582,358.675 35.3916,357.341 29.5,356.5C 25.0637,353.771 20.7303,350.771 16.5,347.5C 16.7038,344.482 17.0371,341.482 17.5,338.5C 18.64,337.199 19.9733,336.032 21.5,335C 25.4934,334.83 29.4934,334.996 33.5,335.5C 34.1667,336.833 34.8333,336.833 35.5,335.5C 36.8333,334.5 36.8333,333.5 35.5,332.5C 35.8195,327.637 35.4861,322.97 34.5,318.5C 35.3686,316.283 35.702,313.95 35.5,311.5C 36.4212,310.019 37.5879,308.686 39,307.5C 41.0299,307.046 42.8632,306.38 44.5,305.5 Z M 108.5,383.5 C 108.5,385.167 108.5,386.833 108.5,388.5C 106.821,388.715 105.821,388.048 105.5,386.5C 106.728,385.694 107.728,384.694 108.5,383.5 Z"/></g>
<g><path style="opacity:0.004" fill="#e1a500" d="M 35.5,311.5 C 34.8333,310.167 34.8333,310.167 35.5,311.5 Z"/></g>
<g><path style="opacity:0.015" fill="#feed85" d="M 133.5,310.5 C 135.337,310.639 135.67,311.306 134.5,312.5C 133.702,312.043 133.369,311.376 133.5,310.5 Z"/></g>
<g><path style="opacity:0.007" fill="#e1a500" d="M 34.5,311.5 C 34.6495,312.552 34.4828,313.552 34,314.5C 33.2599,313.251 33.4265,312.251 34.5,311.5 Z"/></g>
<g><path style="opacity:0.007" fill="#e1a400" d="M 34.5,318.5 C 34.6653,322.182 34.4986,325.848 34,329.5C 33.1901,325.642 33.3567,321.976 34.5,318.5 Z"/></g>
<g><path style="opacity:0.004" fill="#e0a200" d="M 56.5,321.5 C 56.369,320.761 56.5357,320.094 57,319.5C 57.6917,320.437 57.525,321.103 56.5,321.5 Z"/></g>
<g><path style="opacity:0.004" fill="#feed84" d="M 133.5,319.5 C 135.185,320.184 136.185,321.517 136.5,323.5C 136.167,323.833 135.833,324.167 135.5,324.5C 134.05,323.15 133.383,321.484 133.5,319.5 Z"/></g>
<g><path style="opacity:0.005" fill="#e1a500" d="M 172.5,331.5 C 173.946,330.387 175.613,330.22 177.5,331C 175.866,331.494 174.199,331.66 172.5,331.5 Z"/></g>
<g><path style="opacity:0.008" fill="#e0a400" d="M 178.5,331.5 C 179.833,332.167 179.833,332.167 178.5,331.5 Z"/></g>
<g><path style="opacity:0.004" fill="#f8de70" d="M 22.5,332.5 C 23.8333,333.167 23.8333,333.167 22.5,332.5 Z"/></g>
<g><path style="opacity:0.004" fill="#e1a500" d="M 25.5,332.5 C 26.8333,333.167 26.8333,333.167 25.5,332.5 Z"/></g>
<g><path style="opacity:0.008" fill="#e1a400" d="M 35.5,332.5 C 35.5,333.5 35.5,334.5 35.5,335.5C 34.8333,335.5 34.1667,335.5 33.5,335.5C 33.9321,334.29 34.5987,333.29 35.5,332.5 Z"/></g>
<g><path style="opacity:0.892" fill="#e2a709" d="M 178.5,332.5 C 179.945,334.063 181.611,335.396 183.5,336.5C 183.5,337.167 183.833,337.5 184.5,337.5C 185.172,338.267 186.005,338.934 187,339.5C 188.84,338.167 189.34,338.334 188.5,340C 190.037,341.707 191.704,343.207 193.5,344.5C 195.807,345.977 197.64,347.977 199,350.5C 199.977,349.226 200.811,349.226 201.5,350.5C 200.167,351.167 200.167,351.833 201.5,352.5C 204.861,354.895 207.528,357.895 209.5,361.5C 211.074,362.984 212.407,364.651 213.5,366.5C 214.611,367.66 215.611,368.993 216.5,370.5C 217.107,370.376 217.44,370.043 217.5,369.5C 224.619,370.405 231.619,370.738 238.5,370.5C 240.265,371.461 242.265,371.795 244.5,371.5C 247.76,372.934 251.093,373.268 254.5,372.5C 255.919,373.451 257.585,373.784 259.5,373.5C 261.418,374.868 263.585,375.868 266,376.5C 266.561,375.978 267.228,375.645 268,375.5C 273.962,377.622 279.796,378.956 285.5,379.5C 289.65,380.81 293.983,381.81 298.5,382.5C 303.038,383.678 307.705,384.678 312.5,385.5C 315.003,386.371 317.67,387.037 320.5,387.5C 320.611,388.117 320.944,388.617 321.5,389C 325.584,389.522 329.584,390.355 333.5,391.5C 340.436,393.709 347.103,396.709 353.5,400.5C 354.795,401.488 356.128,402.488 357.5,403.5C 360.5,405.833 363.167,408.5 365.5,411.5C 366.758,415.2 366.758,418.866 365.5,422.5C 364.662,422.842 364.328,423.508 364.5,424.5C 363.662,424.842 363.328,425.508 363.5,426.5C 362.508,426.328 361.842,426.662 361.5,427.5C 360.833,427.5 360.5,427.833 360.5,428.5C 359.833,428.5 359.5,428.833 359.5,429.5C 358.508,429.328 357.842,429.662 357.5,430.5C 356.833,430.5 356.5,430.833 356.5,431.5C 355.833,431.5 355.5,431.833 355.5,432.5C 353.901,432.232 352.568,432.566 351.5,433.5C 350.508,433.328 349.842,433.662 349.5,434.5C 348.508,434.328 347.842,434.662 347.5,435.5C 347.167,435.5 346.833,435.5 346.5,435.5C 346.167,434.167 345.833,434.167 345.5,435.5C 344.508,435.328 343.842,435.662 343.5,436.5C 342.508,436.328 341.842,436.662 341.5,437.5C 339.585,437.216 337.919,437.549 336.5,438.5C 335.508,438.328 334.842,438.662 334.5,439.5C 332.328,438.552 330.328,438.885 328.5,440.5C 327.508,440.328 326.842,440.662 326.5,441.5C 325.209,441.263 324.209,441.596 323.5,442.5C 322.209,442.263 321.209,442.596 320.5,443.5C 317.123,443.068 314.123,443.735 311.5,445.5C 310.209,445.263 309.209,445.596 308.5,446.5C 307.508,446.328 306.842,446.662 306.5,447.5C 304.999,446.557 303.665,446.891 302.5,448.5C 300.901,448.232 299.568,448.566 298.5,449.5C 298.167,449.5 297.833,449.5 297.5,449.5C 296.432,448.566 295.099,448.232 293.5,448.5C 292.71,447.599 291.71,446.932 290.5,446.5C 290.047,444.435 289.047,442.768 287.5,441.5C 287.66,439.801 287.494,438.134 287,436.5C 286.193,440.449 285.693,440.449 285.5,436.5C 284.448,436.649 283.448,436.483 282.5,436C 283.833,435.667 285.167,435.333 286.5,435C 283.568,434.047 280.568,433.547 277.5,433.5C 277.158,432.662 276.492,432.328 275.5,432.5C 274.22,431.069 272.553,430.402 270.5,430.5C 269.791,429.596 268.791,429.263 267.5,429.5C 265.786,428.262 263.786,427.595 261.5,427.5C 260.22,426.069 258.553,425.402 256.5,425.5C 254.853,423.674 252.853,422.34 250.5,421.5C 249.048,420.698 247.382,420.198 245.5,420C 244.366,418.984 244.699,418.317 246.5,418C 244.593,416.878 242.593,416.045 240.5,415.5C 239.288,412.893 237.288,411.226 234.5,410.5C 232.393,408.273 230.06,406.273 227.5,404.5C 226.027,402.605 224.36,400.939 222.5,399.5C 222.737,398.209 222.404,397.209 221.5,396.5C 219.727,393.94 217.727,391.607 215.5,389.5C 215.5,388.167 214.833,387.5 213.5,387.5C 213.167,385.5 212.833,383.5 212.5,381.5C 210.901,381.232 209.568,381.566 208.5,382.5C 207.508,382.328 206.842,382.662 206.5,383.5C 205.508,383.328 204.842,383.662 204.5,384.5C 202.901,384.232 201.568,384.566 200.5,385.5C 199.209,385.263 198.209,385.596 197.5,386.5C 195.901,386.232 194.568,386.566 193.5,387.5C 189.613,387.646 185.946,388.313 182.5,389.5C 178.785,389.423 175.119,389.756 171.5,390.5C 170.22,389.069 168.553,388.402 166.5,388.5C 165.739,387.609 164.739,386.942 163.5,386.5C 162.571,385.311 162.238,383.978 162.5,382.5C 164.41,381.025 165.576,379.025 166,376.5C 168.795,374.707 171.295,372.54 173.5,370C 176.618,368.941 179.618,367.608 182.5,366C 180.487,365.125 180.487,363.791 182.5,362C 180.292,358.305 177.625,355.138 174.5,352.5C 174.25,350.326 173.25,348.659 171.5,347.5C 170.868,343.467 170.368,339.467 170,335.5C 172.196,332.875 175.03,331.875 178.5,332.5 Z M 213.5,387.5 C 214.833,387.5 215.5,388.167 215.5,389.5C 214.5,389.167 213.833,388.5 213.5,387.5 Z"/></g>
<g><path style="opacity:0.012" fill="#e0a400" d="M 180.5,332.5 C 181.833,333.167 181.833,333.167 180.5,332.5 Z"/></g>
<g><path style="opacity:0.01" fill="#e1a400" d="M 59.5,339.5 C 59.3433,338.127 59.51,336.793 60,335.5C 60.765,337.066 60.5983,338.399 59.5,339.5 Z"/></g>
<g><path style="opacity:0.005" fill="#e1a400" d="M 167.5,335.5 C 168.598,336.601 168.765,337.934 168,339.5C 167.51,338.207 167.343,336.873 167.5,335.5 Z"/></g>
<g><path style="opacity:0.005" fill="#e1a400" d="M 183.5,336.5 C 184.497,335.287 185.497,335.454 186.5,337C 185.906,337.464 185.239,337.631 184.5,337.5C 183.833,337.5 183.5,337.167 183.5,336.5 Z"/></g>
<g><path style="opacity:0.004" fill="#cb6e00" d="M 17.5,338.5 C 16.8333,337.167 16.8333,337.167 17.5,338.5 Z"/></g>
<g><path style="opacity:0.008" fill="#e4ab0c" d="M 16.5,338.5 C 16.6495,339.552 16.4828,340.552 16,341.5C 15.2599,340.251 15.4265,339.251 16.5,338.5 Z"/></g>
<g><path style="opacity:0.012" fill="#e1a500" d="M 58.5,339.5 C 58.8333,339.5 59.1667,339.5 59.5,339.5C 59.5,339.833 59.5,340.167 59.5,340.5C 59.1667,340.167 58.8333,339.833 58.5,339.5 Z"/></g>
<g><path style="opacity:0.008" fill="#e1a400" d="M 59.5,340.5 C 60.525,340.897 60.6917,341.563 60,342.5C 59.5357,341.906 59.369,341.239 59.5,340.5 Z"/></g>
<g><path style="opacity:0.006" fill="#e1a500" d="M 168.5,340.5 C 169.525,340.897 169.692,341.563 169,342.5C 168.536,341.906 168.369,341.239 168.5,340.5 Z"/></g>
<g><path style="opacity:0.472" fill="#fdec7e" d="M 44.5,316.5 C 48.5521,328.418 51.2188,340.752 52.5,353.5C 45.1586,351.667 37.8252,349.833 30.5,348C 28.4148,346.959 26.7481,345.459 25.5,343.5C 26.5,343.167 27.5,342.833 28.5,342.5C 33.2692,346.318 38.4359,346.985 44,344.5C 46.1019,336.123 45.9353,327.623 43.5,319C 43.7432,318.098 44.0766,317.265 44.5,316.5 Z"/></g>
<g><path style="opacity:0.016" fill="#e2a803" d="M 193.5,343.5 C 194.833,344.167 194.833,344.167 193.5,343.5 Z"/></g>
<g><path style="opacity:0.004" fill="#fbe676" d="M 15.5,347.5 C 14.475,347.103 14.3083,346.437 15,345.5C 15.4643,346.094 15.631,346.761 15.5,347.5 Z"/></g>
<g><path style="opacity:0.004" fill="#d99200" d="M 15.5,347.5 C 15.8333,347.5 16.1667,347.5 16.5,347.5C 16.3147,348.17 15.9813,348.17 15.5,347.5 Z"/></g>
<g><path style="opacity:0.004" fill="#e1a400" d="M 171.5,347.5 C 170.833,348.167 170.833,348.167 171.5,347.5 Z"/></g>
<g><path style="opacity:0.004" fill="#e1a500" d="M 171.5,349.5 C 172.833,350.167 172.833,350.167 171.5,349.5 Z"/></g>
<g><path style="opacity:0.007" fill="#e1a400" d="M 201.5,350.5 C 203.933,351.548 203.933,352.214 201.5,352.5C 201.5,351.833 201.5,351.167 201.5,350.5 Z"/></g>
<g><path style="opacity:0.004" fill="#e1a500" d="M 174.5,352.5 C 174.5,352.833 174.5,353.167 174.5,353.5C 173.83,353.019 173.83,352.685 174.5,352.5 Z"/></g>
<g><path style="opacity:0.007" fill="#e1a400" d="M 67.5,356.5 C 66.8333,356.5 66.5,356.167 66.5,355.5C 67.0533,353.343 68.0533,353.51 69.5,356C 68.9056,356.464 68.2389,356.631 67.5,356.5 Z"/></g>
<g><path style="opacity:0.008" fill="#e1a500" d="M 174.5,353.5 C 175.833,354.167 175.833,354.167 174.5,353.5 Z"/></g>
<g><path style="opacity:0.004" fill="#e1a500" d="M 175.5,355.5 C 176.833,356.167 176.833,356.167 175.5,355.5 Z"/></g>
<g><path style="opacity:0.847" fill="#fded7e" d="M 178.5,342.5 C 184.124,346.778 189.791,351.111 195.5,355.5C 201.128,361.135 206.462,367.135 211.5,373.5C 200.057,377.512 188.39,380.512 176.5,382.5C 175.167,382.167 173.833,381.833 172.5,381.5C 173.982,379.517 175.649,377.684 177.5,376C 181.568,373.556 185.901,371.556 190.5,370C 191.899,368.938 192.899,367.605 193.5,366C 188.308,358.304 183.308,350.471 178.5,342.5 Z"/></g>
<g><path style="opacity:0.008" fill="#e1a500" d="M 29.5,356.5 C 29.5,356.833 29.5,357.167 29.5,357.5C 25.5,357.167 25.5,356.833 29.5,356.5 Z"/></g>
<g><path style="opacity:0.004" fill="#e1a500" d="M 29.5,357.5 C 30.8333,358.167 30.8333,358.167 29.5,357.5 Z"/></g>
<g><path style="opacity:0.014" fill="#e1a400" d="M 209.5,361.5 C 209.369,360.761 209.536,360.094 210,359.5C 210.692,360.437 210.525,361.103 209.5,361.5 Z"/></g>
<g><path style="opacity:0.004" fill="#e1a400" d="M 46.5,360.5 C 45.3991,361.598 44.0657,361.765 42.5,361C 43.7932,360.51 45.1266,360.343 46.5,360.5 Z"/></g>
<g><path style="opacity:0.004" fill="#e0a400" d="M 47.5,361.5 C 48.8333,362.167 48.8333,362.167 47.5,361.5 Z"/></g>
<g><path style="opacity:0.012" fill="#e9ba23" d="M 50.5,362.5 C 49.8333,361.167 49.8333,361.167 50.5,362.5 Z"/></g>
<g><path style="opacity:0.004" fill="#e5af15" d="M 50.5,362.5 C 50.8333,362.5 51.1667,362.5 51.5,362.5C 51.5,363.167 51.5,363.833 51.5,364.5C 50.6618,364.158 50.3284,363.492 50.5,362.5 Z"/></g>
<g><path style="opacity:0.016" fill="#e1a400" d="M 213.5,366.5 C 213.369,365.761 213.536,365.094 214,364.5C 214.692,365.437 214.525,366.103 213.5,366.5 Z"/></g>
<g><path style="opacity:0.004" fill="#edc239" d="M 51.5,364.5 C 51.8333,364.5 52.1667,364.5 52.5,364.5C 52.5,365.167 52.5,365.833 52.5,366.5C 51.6618,366.158 51.3284,365.492 51.5,364.5 Z"/></g>
<g><path style="opacity:0.016" fill="#e1a500" d="M 82.5,366.5 C 83.8333,367.167 83.8333,367.167 82.5,366.5 Z"/></g>
<g><path style="opacity:0.004" fill="#e6b02e" d="M 52.5,366.5 C 52.8333,366.5 53.1667,366.5 53.5,366.5C 53.1667,369.167 52.8333,369.167 52.5,366.5 Z"/></g>
<g><path style="opacity:0.024" fill="#e6b317" d="M 217.5,369.5 C 216.833,368.167 216.833,368.167 217.5,369.5 Z"/></g>
<g><path style="opacity:0.006" fill="#e2a400" d="M 231.5,369.5 C 233.288,368.378 235.288,368.211 237.5,369C 235.527,369.495 233.527,369.662 231.5,369.5 Z"/></g>
<g><path style="opacity:0.007" fill="#e1a400" d="M 238.5,370.5 C 239.946,369.387 241.613,369.22 243.5,370C 241.866,370.494 240.199,370.66 238.5,370.5 Z"/></g>
<g><path style="opacity:0.004" fill="#e8b625" d="M 54.5,369.5 C 54.5,370.167 54.5,370.833 54.5,371.5C 53.1667,370.833 53.1667,370.167 54.5,369.5 Z"/></g>
<g><path style="opacity:0.013" fill="#e1a300" d="M 244.5,371.5 C 245.946,370.387 247.613,370.22 249.5,371C 247.866,371.494 246.199,371.66 244.5,371.5 Z"/></g>
<g><path style="opacity:0.005" fill="#e1a500" d="M 254.5,372.5 C 255.601,371.402 256.934,371.235 258.5,372C 257.207,372.49 255.873,372.657 254.5,372.5 Z"/></g>
<g><path style="opacity:0.004" fill="#eec248" d="M 54.5,371.5 C 54.8333,371.5 55.1667,371.5 55.5,371.5C 55.1667,375.5 54.8333,375.5 54.5,371.5 Z"/></g>
<g><path style="opacity:0.008" fill="#e1a500" d="M 259.5,373.5 C 259.897,372.475 260.563,372.308 261.5,373C 260.906,373.464 260.239,373.631 259.5,373.5 Z"/></g>
<g><path style="opacity:0.012" fill="#e1a400" d="M 262.5,374.5 C 263.251,373.427 264.251,373.26 265.5,374C 264.552,374.483 263.552,374.649 262.5,374.5 Z"/></g>
<g><path style="opacity:0.004" fill="#e1a500" d="M 270.5,374.5 C 271.833,375.167 271.833,375.167 270.5,374.5 Z"/></g>
<g><path style="opacity:0.006" fill="#e1a400" d="M 113.5,376.5 C 115.288,375.378 117.288,375.211 119.5,376C 117.527,376.495 115.527,376.662 113.5,376.5 Z"/></g>
<g><path style="opacity:0.008" fill="#e6b115" d="M 55.5,375.5 C 56.525,375.897 56.6917,376.563 56,377.5C 55.5357,376.906 55.369,376.239 55.5,375.5 Z"/></g>
<g><path style="opacity:0.014" fill="#e1a400" d="M 113.5,376.5 C 113.5,376.833 113.5,377.167 113.5,377.5C 110.833,377.167 110.833,376.833 113.5,376.5 Z"/></g>
<g><path style="opacity:0.004" fill="#f0cd4a" d="M 121.5,377.5 C 122.833,378.167 122.833,378.167 121.5,377.5 Z"/></g>
<g><path style="opacity:0.006" fill="#e2a400" d="M 285.5,378.5 C 284.761,378.631 284.094,378.464 283.5,378C 284.437,377.308 285.103,377.475 285.5,378.5 Z"/></g>
<g><path style="opacity:0.004" fill="#e0a500" d="M 55.5,378.5 C 56.8333,379.167 56.8333,379.167 55.5,378.5 Z"/></g>
<g><path style="opacity:0.007" fill="#e1a400" d="M 285.5,379.5 C 285.5,379.167 285.5,378.833 285.5,378.5C 292.167,378.833 292.167,379.167 285.5,379.5 Z"/></g>
<g><path style="opacity:0.004" fill="#e1a500" d="M 109.5,380.5 C 108.833,379.167 108.833,379.167 109.5,380.5 Z"/></g>
<g><path style="opacity:0.004" fill="#f5da63" d="M 124.5,380.5 C 123.833,379.167 123.833,379.167 124.5,380.5 Z"/></g>
<g><path style="opacity:0.008" fill="#e4ad0d" d="M 162.5,379.5 C 163.833,380.167 163.833,380.167 162.5,379.5 Z"/></g>
<g><path style="opacity:0.012" fill="#e1a300" d="M 291.5,380.5 C 291.897,379.475 292.563,379.308 293.5,380C 292.906,380.464 292.239,380.631 291.5,380.5 Z"/></g>
<g><path style="opacity:0.012" fill="#e1a500" d="M 98.5,380.5 C 99.8333,381.167 99.8333,381.167 98.5,380.5 Z"/></g>
<g><path style="opacity:0.004" fill="#f6dc67" d="M 124.5,380.5 C 125.833,381.167 125.833,381.167 124.5,380.5 Z"/></g>
<g><path style="opacity:0.008" fill="#e5ae11" d="M 58.5,380.5 C 58.5,381.167 58.5,381.833 58.5,382.5C 57.1667,381.833 57.1667,381.167 58.5,380.5 Z"/></g>
<g><path style="opacity:0.571" fill="#fdef7f" d="M 111.5,398.5 C 112.432,399.687 112.432,401.02 111.5,402.5C 111.818,403.647 112.484,404.481 113.5,405C 112.069,405.465 110.903,406.299 110,407.5C 109.922,414.456 107.422,415.789 102.5,411.5C 102.002,412.603 101.669,413.603 101.5,414.5C 100.328,414.081 99.3279,413.415 98.5,412.5C 99.7111,411.28 99.7111,410.113 98.5,409C 101.675,407.423 102.009,405.59 99.5,403.5C 100.665,402.416 101.998,401.583 103.5,401C 102.643,400.311 101.977,399.478 101.5,398.5C 102.471,397.038 102.138,395.705 100.5,394.5C 98.5708,395.38 96.7374,396.38 95,397.5C 92.6422,393.889 89.8089,390.556 86.5,387.5C 86.162,389.655 86.162,391.989 86.5,394.5C 83.6567,394.917 80.99,395.917 78.5,397.5C 79.5,398.333 80.5,399.167 81.5,400C 80.8311,402.262 80.4977,404.429 80.5,406.5C 77.6013,404.246 75.268,401.412 73.5,398C 71.8595,394.081 70.0262,390.247 68,386.5C 65.7801,378.289 62.9467,370.289 59.5,362.5C 59.8869,361.28 60.7202,360.613 62,360.5C 75.6465,369.794 88.4799,380.294 100.5,392C 104.492,393.661 108.158,395.827 111.5,398.5 Z"/></g>
<g><path style="opacity:0.008" fill="#e1a500" d="M 100.5,381.5 C 101.833,382.167 101.833,382.167 100.5,381.5 Z"/></g>
<g><path style="opacity:0.008" fill="#de9e00" d="M 162.5,382.5 C 161.833,381.167 161.833,381.167 162.5,382.5 Z"/></g>
<g><path style="opacity:0.006" fill="#e1a400" d="M 298.5,382.5 C 300.288,381.378 302.288,381.211 304.5,382C 302.527,382.495 300.527,382.662 298.5,382.5 Z"/></g>
<g><path style="opacity:0.012" fill="#e2a400" d="M 208.5,382.5 C 209.552,382.351 210.552,382.517 211.5,383C 210.251,383.74 209.251,383.573 208.5,382.5 Z"/></g>
<g><path style="opacity:0.006" fill="#e1a400" d="M 305.5,383.5 C 306.601,382.402 307.934,382.235 309.5,383C 308.207,383.49 306.873,383.657 305.5,383.5 Z"/></g>
<g><path style="opacity:0.012" fill="#e3ab0a" d="M 127.5,384.5 C 126.833,383.167 126.833,383.167 127.5,384.5 Z"/></g>
<g><path style="opacity:0.012" fill="#e1a400" d="M 206.5,383.5 C 207.833,384.167 207.833,384.167 206.5,383.5 Z"/></g>
<g><path style="opacity:0.006" fill="#e0a301" d="M 58.5,382.5 C 58.8333,382.5 59.1667,382.5 59.5,382.5C 59.1667,387.833 58.8333,387.833 58.5,382.5 Z"/></g>
<g><path style="opacity:0.024" fill="#e1a500" d="M 103.5,384.5 C 104.833,385.167 104.833,385.167 103.5,384.5 Z"/></g>
<g><path style="opacity:0.012" fill="#eabd2a" d="M 127.5,384.5 C 128.833,385.167 128.833,385.167 127.5,384.5 Z"/></g>
<g><path style="opacity:0.008" fill="#e3a80c" d="M 160.5,383.5 C 161.525,383.897 161.692,384.563 161,385.5C 160.536,384.906 160.369,384.239 160.5,383.5 Z"/></g>
<g><path style="opacity:0.008" fill="#e0a500" d="M 204.5,384.5 C 205.833,385.167 205.833,385.167 204.5,384.5 Z"/></g>
<g><path style="opacity:0.006" fill="#e1a400" d="M 312.5,385.5 C 313.946,384.387 315.613,384.22 317.5,385C 315.866,385.494 314.199,385.66 312.5,385.5 Z"/></g>
<g><path style="opacity:0.008" fill="#e1a200" d="M 200.5,385.5 C 201.552,385.351 202.552,385.517 203.5,386C 202.251,386.74 201.251,386.573 200.5,385.5 Z"/></g>
<g><path style="opacity:0.008" fill="#e1a400" d="M 197.5,386.5 C 198.239,386.369 198.906,386.536 199.5,387C 198.563,387.692 197.897,387.525 197.5,386.5 Z"/></g>
<g><path style="opacity:0.004" fill="#e0a500" d="M 320.5,386.5 C 321.833,387.167 321.833,387.167 320.5,386.5 Z"/></g>
<g><path style="opacity:0.008" fill="#e1a400" d="M 193.5,387.5 C 194.552,387.351 195.552,387.517 196.5,388C 195.251,388.74 194.251,388.573 193.5,387.5 Z"/></g>
<g><path style="opacity:0.005" fill="#e1a400" d="M 322.5,388.5 C 323.946,387.387 325.613,387.22 327.5,388C 325.866,388.494 324.199,388.66 322.5,388.5 Z"/></g>
<g><path style="opacity:0.008" fill="#e1a400" d="M 166.5,388.5 C 166.5,388.833 166.5,389.167 166.5,389.5C 163.833,389.167 163.833,388.833 166.5,388.5 Z"/></g>
<g><path style="opacity:0.008" fill="#e4aa0f" d="M 189.5,389.5 C 190.251,388.427 191.251,388.26 192.5,389C 191.552,389.483 190.552,389.649 189.5,389.5 Z"/></g>
<g><path style="opacity:0.008" fill="#e1a400" d="M 166.5,389.5 C 167.833,390.167 167.833,390.167 166.5,389.5 Z"/></g>
<g><path style="opacity:0.011" fill="#e3a90c" d="M 182.5,389.5 C 184.527,389.338 186.527,389.505 188.5,390C 186.288,390.789 184.288,390.622 182.5,389.5 Z"/></g>
<g><path style="opacity:0.016" fill="#e0a400" d="M 62.5,390.5 C 61.8333,391.167 61.8333,391.167 62.5,390.5 Z"/></g>
<g><path style="opacity:0.012" fill="#e4ad0e" d="M 131.5,390.5 C 132.833,391.167 132.833,391.167 131.5,390.5 Z"/></g>
<g><path style="opacity:0.006" fill="#e1a500" d="M 171.5,390.5 C 171.5,390.833 171.5,391.167 171.5,391.5C 168.833,391.167 168.833,390.833 171.5,390.5 Z"/></g>
<g><path style="opacity:0.012" fill="#e1a500" d="M 175.5,391.5 C 177.288,390.378 179.288,390.211 181.5,391C 179.527,391.495 177.527,391.662 175.5,391.5 Z"/></g>
<g><path style="opacity:0.004" fill="#e2a705" d="M 333.5,391.5 C 334.601,390.402 335.934,390.235 337.5,391C 336.207,391.49 334.873,391.657 333.5,391.5 Z"/></g>
<g><path style="opacity:0.005" fill="#e1a500" d="M 171.5,391.5 C 172.552,391.351 173.552,391.517 174.5,392C 173.251,392.74 172.251,392.573 171.5,391.5 Z"/></g>
<g><path style="opacity:0.004" fill="#e0a300" d="M 339.5,391.5 C 340.833,392.167 340.833,392.167 339.5,391.5 Z"/></g>
<g><path style="opacity:0.005" fill="#e1a300" d="M 63.5,392.5 C 63.5,393.833 63.5,395.167 63.5,396.5C 62.1667,395.167 62.1667,393.833 63.5,392.5 Z"/></g>
<g><path style="opacity:0.533" fill="#fdea87" d="M 116.5,386.5 C 118.736,387.389 120.736,388.722 122.5,390.5C 123.183,393.678 124.85,396.178 127.5,398C 127.333,398.5 127.167,399 127,399.5C 123.365,397.514 119.698,395.514 116,393.5C 116.207,391.249 116.373,388.915 116.5,386.5 Z"/></g>
<g><path style="opacity:0.575" fill="#feee80" d="M 340.5,430.5 C 338.801,430.66 337.134,430.494 335.5,430C 337.548,428.319 339.715,426.819 342,425.5C 342.562,421.7 341.562,421.033 339,423.5C 335.615,420.777 332.948,417.444 331,413.5C 329.024,414.428 327.191,415.595 325.5,417C 326.931,417.465 328.097,418.299 329,419.5C 328.333,423.5 328.333,427.5 329,431.5C 324.909,430.015 322.742,427.015 322.5,422.5C 323.426,420.23 323.76,418.063 323.5,416C 322.234,415.691 321.067,415.191 320,414.5C 319.667,414.833 319.333,415.167 319,415.5C 318.598,414.128 318.098,412.795 317.5,411.5C 318.025,410.808 318.692,410.308 319.5,410C 318.027,409.29 317.36,408.124 317.5,406.5C 314.14,405.79 312.307,407.124 312,410.5C 310.701,410.034 309.201,410.034 307.5,410.5C 306.108,407.975 306.442,405.808 308.5,404C 306.182,403.658 304.015,404.158 302,405.5C 301.581,401.148 300.914,400.815 300,404.5C 299.586,404.043 299.086,403.709 298.5,403.5C 297.319,404.515 296.319,405.681 295.5,407C 295.905,407.945 296.572,408.612 297.5,409C 294.482,409.001 291.482,408.501 288.5,407.5C 286.527,408.806 284.861,410.473 283.5,412.5C 283.002,411.397 282.669,410.397 282.5,409.5C 280.65,410.242 279.984,411.242 280.5,412.5C 278.991,410.085 277.324,409.919 275.5,412C 276.956,412.423 277.456,413.256 277,414.5C 270.327,421.305 265.827,419.972 263.5,410.5C 261.801,410.34 260.134,410.506 258.5,411C 262.421,413.988 262.754,416.821 259.5,419.5C 244.688,413.011 233.022,403.011 224.5,389.5C 220.715,384.81 218.715,379.477 218.5,373.5C 238.204,376.753 257.871,379.92 277.5,383C 279.731,384.147 282.065,385.147 284.5,386C 292.869,387.123 301.202,388.457 309.5,390C 319.606,393.943 329.939,397.109 340.5,399.5C 346.444,403.154 352.11,407.32 357.5,412C 360.615,416.644 359.948,420.644 355.5,424C 350.964,427.234 345.964,429.401 340.5,430.5 Z"/></g>
<g><path style="opacity:0.008" fill="#efc645" d="M 134.5,395.5 C 135.833,396.167 135.833,396.167 134.5,395.5 Z"/></g>
<g><path style="opacity:0.01" fill="#e1a400" d="M 63.5,396.5 C 63.8333,396.5 64.1667,396.5 64.5,396.5C 64.1667,399.167 63.8333,399.167 63.5,396.5 Z"/></g>
<g><path style="opacity:0.01" fill="#e1a500" d="M 221.5,396.5 C 221.631,397.239 221.464,397.906 221,398.5C 220.308,397.563 220.475,396.897 221.5,396.5 Z"/></g>
<g><path style="opacity:0.165" fill="#fdec98" d="M 133.5,396.5 C 133.833,396.5 134.167,396.5 134.5,396.5C 134.427,398.027 135.094,399.027 136.5,399.5C 136.5,400.5 136.5,401.5 136.5,402.5C 134.461,401.089 133.461,399.089 133.5,396.5 Z"/></g>
<g><path style="opacity:0.004" fill="#feec90" d="M 136.5,398.5 C 137.833,399.167 137.833,399.167 136.5,398.5 Z"/></g>
<g><path style="opacity:0.004" fill="#f1d245" d="M 222.5,399.5 C 221.833,400.167 221.833,400.167 222.5,399.5 Z"/></g>
<g><path style="opacity:0.02" fill="#e0a400" d="M 353.5,399.5 C 354.833,400.167 354.833,400.167 353.5,399.5 Z"/></g>
<g><path style="opacity:0.012" fill="#e6b215" d="M 66.5,402.5 C 67.8333,403.167 67.8333,403.167 66.5,402.5 Z"/></g>
<g><path style="opacity:0.016" fill="#e1a601" d="M 357.5,402.5 C 358.833,403.167 358.833,403.167 357.5,402.5 Z"/></g>
<g><path style="opacity:0.02" fill="#eab536" d="M 137.5,405.5 C 137.34,403.801 137.506,402.134 138,400.5C 138.78,402.387 138.613,404.054 137.5,405.5 Z"/></g>
<g><path style="opacity:0.678" fill="#fef178" d="M 340.5,430.5 C 326.927,434.5 313.26,438.5 299.5,442.5C 296.5,442.833 295.167,441.5 295.5,438.5C 295.686,436.42 296.686,434.92 298.5,434C 305.351,432.984 312.017,431.484 318.5,429.5C 318.67,428.178 318.337,427.011 317.5,426C 315.833,425.833 314.167,425.667 312.5,425.5C 304.722,426.411 297.222,428.411 290,431.5C 279.041,428.915 268.874,424.915 259.5,419.5C 262.754,416.821 262.421,413.988 258.5,411C 260.134,410.506 261.801,410.34 263.5,410.5C 265.827,419.972 270.327,421.305 277,414.5C 277.456,413.256 276.956,412.423 275.5,412C 277.324,409.919 278.991,410.085 280.5,412.5C 279.984,411.242 280.65,410.242 282.5,409.5C 282.669,410.397 283.002,411.397 283.5,412.5C 284.861,410.473 286.527,408.806 288.5,407.5C 291.482,408.501 294.482,409.001 297.5,409C 296.572,408.612 295.905,407.945 295.5,407C 296.319,405.681 297.319,404.515 298.5,403.5C 299.086,403.709 299.586,404.043 300,404.5C 300.914,400.815 301.581,401.148 302,405.5C 304.015,404.158 306.182,403.658 308.5,404C 306.442,405.808 306.108,407.975 307.5,410.5C 309.201,410.034 310.701,410.034 312,410.5C 312.307,407.124 314.14,405.79 317.5,406.5C 317.36,408.124 318.027,409.29 319.5,410C 318.692,410.308 318.025,410.808 317.5,411.5C 318.098,412.795 318.598,414.128 319,415.5C 319.333,415.167 319.667,414.833 320,414.5C 321.067,415.191 322.234,415.691 323.5,416C 323.76,418.063 323.426,420.23 322.5,422.5C 322.742,427.015 324.909,430.015 329,431.5C 328.333,427.5 328.333,423.5 329,419.5C 328.097,418.299 326.931,417.465 325.5,417C 327.191,415.595 329.024,414.428 331,413.5C 332.948,417.444 335.615,420.777 339,423.5C 341.562,421.033 342.562,421.7 342,425.5C 339.715,426.819 337.548,428.319 335.5,430C 337.134,430.494 338.801,430.66 340.5,430.5 Z"/></g>
<g><path style="opacity:0.012" fill="#e1a601" d="M 227.5,404.5 C 226.833,405.167 226.833,405.167 227.5,404.5 Z"/></g>
<g><path style="opacity:0.004" fill="#e1a601" d="M 139.5,405.5 C 140.833,406.167 140.833,406.167 139.5,405.5 Z"/></g>
<g><path style="opacity:0.004" fill="#e1a500" d="M 144.5,409.5 C 145.833,410.167 145.833,410.167 144.5,409.5 Z"/></g>
<g><path style="opacity:0.004" fill="#e1a500" d="M 73.5,410.5 C 72.8333,411.167 72.8333,411.167 73.5,410.5 Z"/></g>
<g><path style="opacity:0.004" fill="#e1a500" d="M 234.5,410.5 C 234.5,410.833 234.5,411.167 234.5,411.5C 231.833,411.167 231.833,410.833 234.5,410.5 Z"/></g>
<g><path style="opacity:0.004" fill="#e0a400" d="M 366.5,411.5 C 365.833,410.167 365.833,410.167 366.5,411.5 Z"/></g>
<g><path style="opacity:0.008" fill="#e0a400" d="M 234.5,411.5 C 235.833,412.167 235.833,412.167 234.5,411.5 Z"/></g>
<g><path style="opacity:0.008" fill="#e1a500" d="M 366.5,411.5 C 366.833,411.5 367.167,411.5 367.5,411.5C 367.5,411.833 367.5,412.167 367.5,412.5C 367.167,412.167 366.833,411.833 366.5,411.5 Z"/></g>
<g><path style="opacity:0.012" fill="#e1a500" d="M 75.5,413.5 C 74.8333,412.167 74.8333,412.167 75.5,413.5 Z"/></g>
<g><path style="opacity:0.004" fill="#e1a601" d="M 75.5,413.5 C 76.1667,413.5 76.5,413.833 76.5,414.5C 76.1667,414.167 75.8333,413.833 75.5,413.5 Z"/></g>
<g><path style="opacity:0.691" fill="#feec84" d="M 111.5,398.5 C 116.575,399.602 120.909,401.936 124.5,405.5C 123.951,407.687 122.785,408.354 121,407.5C 118.595,408.274 116.095,408.774 113.5,409C 110.844,411.229 111.177,413.062 114.5,414.5C 116.098,412.027 117.598,412.027 119,414.5C 120.333,413.833 121.667,413.167 123,412.5C 124.826,417.117 124.993,421.784 123.5,426.5C 122.5,426.5 121.5,426.5 120.5,426.5C 120.5,425.167 120.5,423.833 120.5,422.5C 117.013,422.974 116.013,424.808 117.5,428C 116.944,429.011 116.278,429.844 115.5,430.5C 113.906,430.08 112.406,429.414 111,428.5C 101.732,429.281 92.5654,428.447 83.5,426C 83.0426,425.586 82.7093,425.086 82.5,424.5C 84.987,423.424 87.3203,422.09 89.5,420.5C 91.9567,422.225 94.6234,422.725 97.5,422C 100.167,420 100.167,418 97.5,416C 93.0953,414.865 88.7619,413.532 84.5,412C 83.2527,410.048 81.9193,408.215 80.5,406.5C 80.4977,404.429 80.8311,402.262 81.5,400C 80.5,399.167 79.5,398.333 78.5,397.5C 80.99,395.917 83.6567,394.917 86.5,394.5C 86.162,391.989 86.162,389.655 86.5,387.5C 89.8089,390.556 92.6422,393.889 95,397.5C 96.7374,396.38 98.5708,395.38 100.5,394.5C 102.138,395.705 102.471,397.038 101.5,398.5C 101.977,399.478 102.643,400.311 103.5,401C 101.998,401.583 100.665,402.416 99.5,403.5C 102.009,405.59 101.675,407.423 98.5,409C 99.7111,410.113 99.7111,411.28 98.5,412.5C 99.3279,413.415 100.328,414.081 101.5,414.5C 101.669,413.603 102.002,412.603 102.5,411.5C 107.422,415.789 109.922,414.456 110,407.5C 110.903,406.299 112.069,405.465 113.5,405C 112.484,404.481 111.818,403.647 111.5,402.5C 112.432,401.02 112.432,399.687 111.5,398.5 Z"/></g>
<g><path style="opacity:0.008" fill="#e6b218" d="M 147.5,413.5 C 148.833,414.167 148.833,414.167 147.5,413.5 Z"/></g>
<g><path style="opacity:0.008" fill="#e6b315" d="M 76.5,414.5 C 77.1667,414.5 77.5,414.833 77.5,415.5C 77.1667,415.167 76.8333,414.833 76.5,414.5 Z"/></g>
<g><path style="opacity:0.004" fill="#fbe474" d="M 149.5,418.5 C 149.351,417.448 149.517,416.448 150,415.5C 150.74,416.749 150.573,417.749 149.5,418.5 Z"/></g>
<g><path style="opacity:0.004" fill="#e0a400" d="M 240.5,415.5 C 239.833,416.167 239.833,416.167 240.5,415.5 Z"/></g>
<g><path style="opacity:0.008" fill="#e6b116" d="M 77.5,415.5 C 77.8333,415.5 78.1667,415.5 78.5,415.5C 78.5,416.167 78.5,416.833 78.5,417.5C 76.3023,417.591 75.9689,416.925 77.5,415.5 Z"/></g>
<g><path style="opacity:0.004" fill="#b74400" d="M 150.5,421.5 C 151.833,422.167 151.833,422.167 150.5,421.5 Z"/></g>
<g><path style="opacity:0.016" fill="#dfa001" d="M 250.5,421.5 C 250.5,421.833 250.5,422.167 250.5,422.5C 247.833,422.167 247.833,421.833 250.5,421.5 Z"/></g>
<g><path style="opacity:0.008" fill="#eabe27" d="M 250.5,422.5 C 251.833,423.167 251.833,423.167 250.5,422.5 Z"/></g>
<g><path style="opacity:0.016" fill="#e0a001" d="M 365.5,422.5 C 366.833,423.167 366.833,423.833 365.5,424.5C 365.5,423.833 365.5,423.167 365.5,422.5 Z"/></g>
<g><path style="opacity:0.008" fill="#e1a500" d="M 364.5,424.5 C 364.833,424.5 365.167,424.5 365.5,424.5C 365.315,425.17 364.981,425.17 364.5,424.5 Z"/></g>
<g><path style="opacity:0.004" fill="#e4a90c" d="M 150.5,424.5 C 151.833,425.167 151.833,425.833 150.5,426.5C 150.5,425.833 150.5,425.167 150.5,424.5 Z"/></g>
<g><path style="opacity:0.004" fill="#f7e15b" d="M 256.5,425.5 C 255.833,426.167 255.833,426.167 256.5,425.5 Z"/></g>
<g><path style="opacity:0.718" fill="#fee98c" d="M 124.5,405.5 C 130.044,408.529 135.211,412.196 140,416.5C 141.721,419.315 142.388,422.315 142,425.5C 134.797,427.463 127.63,429.463 120.5,431.5C 118.929,430.691 117.262,430.357 115.5,430.5C 116.278,429.844 116.944,429.011 117.5,428C 116.013,424.808 117.013,422.974 120.5,422.5C 120.5,423.833 120.5,425.167 120.5,426.5C 121.5,426.5 122.5,426.5 123.5,426.5C 124.993,421.784 124.826,417.117 123,412.5C 121.667,413.167 120.333,413.833 119,414.5C 117.598,412.027 116.098,412.027 114.5,414.5C 111.177,413.062 110.844,411.229 113.5,409C 116.095,408.774 118.595,408.274 121,407.5C 122.785,408.354 123.951,407.687 124.5,405.5 Z"/></g>
<g><path style="opacity:0.012" fill="#e2a807" d="M 149.5,426.5 C 149.833,426.5 150.167,426.5 150.5,426.5C 150.315,427.17 149.981,427.17 149.5,426.5 Z"/></g>
<g><path style="opacity:0.004" fill="#fef87f" d="M 257.5,426.5 C 258.833,427.167 258.833,427.167 257.5,426.5 Z"/></g>
<g><path style="opacity:0.004" fill="#e1a500" d="M 363.5,426.5 C 364.833,427.167 364.833,427.167 363.5,426.5 Z"/></g>
<g><path style="opacity:0.012" fill="#e1a400" d="M 148.5,427.5 C 148.833,427.5 149.167,427.5 149.5,427.5C 149.167,430.167 148.833,430.167 148.5,427.5 Z"/></g>
<g><path style="opacity:0.008" fill="#f5db5a" d="M 261.5,427.5 C 261.5,427.833 261.5,428.167 261.5,428.5C 258.833,428.167 258.833,427.833 261.5,427.5 Z"/></g>
<g><path style="opacity:0.006" fill="#e1a500" d="M 361.5,428.5 C 361.5,428.167 361.5,427.833 361.5,427.5C 362.167,427.5 362.833,427.5 363.5,427.5C 363.158,428.338 362.492,428.672 361.5,428.5 Z"/></g>
<g><path style="opacity:0.008" fill="#e9b81f" d="M 261.5,428.5 C 262.239,428.369 262.906,428.536 263.5,429C 262.563,429.692 261.897,429.525 261.5,428.5 Z"/></g>
<g><path style="opacity:0.012" fill="#e1a500" d="M 360.5,428.5 C 360.833,428.5 361.167,428.5 361.5,428.5C 361.315,429.17 360.981,429.17 360.5,428.5 Z"/></g>
<g><path style="opacity:0.004" fill="#efca3b" d="M 72.5,430.5 C 71.8333,429.167 71.8333,429.167 72.5,430.5 Z"/></g>
<g><path style="opacity:0.008" fill="#eabc27" d="M 267.5,429.5 C 266.749,430.573 265.749,430.74 264.5,430C 265.448,429.517 266.448,429.351 267.5,429.5 Z"/></g>
<g><path style="opacity:0.012" fill="#e1a500" d="M 359.5,429.5 C 359.833,429.5 360.167,429.5 360.5,429.5C 360.315,430.17 359.981,430.17 359.5,429.5 Z"/></g>
<g><path style="opacity:0.004" fill="#f1ce42" d="M 72.5,430.5 C 73.1667,430.5 73.5,430.833 73.5,431.5C 73.1667,431.167 72.8333,430.833 72.5,430.5 Z"/></g>
<g><path style="opacity:0.008" fill="#da9109" d="M 270.5,430.5 C 270.5,430.833 270.5,431.167 270.5,431.5C 267.833,431.167 267.833,430.833 270.5,430.5 Z"/></g>
<g><path style="opacity:0.008" fill="#e2a400" d="M 357.5,431.5 C 357.5,431.167 357.5,430.833 357.5,430.5C 358.167,430.5 358.833,430.5 359.5,430.5C 359.158,431.338 358.492,431.672 357.5,431.5 Z"/></g>
<g><path style="opacity:0.004" fill="#b3591a" d="M 73.5,431.5 C 74.1667,431.5 74.8333,431.5 75.5,431.5C 74.8333,432.833 74.1667,432.833 73.5,431.5 Z"/></g>
<g><path style="opacity:0.008" fill="#e2a607" d="M 144.5,432.5 C 144.897,431.475 145.563,431.308 146.5,432C 145.906,432.464 145.239,432.631 144.5,432.5 Z"/></g>
<g><path style="opacity:0.012" fill="#e6b216" d="M 270.5,431.5 C 271.239,431.369 271.906,431.536 272.5,432C 271.563,432.692 270.897,432.525 270.5,431.5 Z"/></g>
<g><path style="opacity:0.004" fill="#e1a500" d="M 356.5,431.5 C 356.833,431.5 357.167,431.5 357.5,431.5C 357.315,432.17 356.981,432.17 356.5,431.5 Z"/></g>
<g><path style="opacity:0.008" fill="#d99000" d="M 142.5,432.5 C 143.833,433.167 143.833,433.167 142.5,432.5 Z"/></g>
<g><path style="opacity:0.004" fill="#e3a80d" d="M 275.5,432.5 C 275.103,433.525 274.437,433.692 273.5,433C 274.094,432.536 274.761,432.369 275.5,432.5 Z"/></g>
<g><path style="opacity:0.008" fill="#e1a500" d="M 355.5,432.5 C 355.833,432.5 356.167,432.5 356.5,432.5C 356.315,433.17 355.981,433.17 355.5,432.5 Z"/></g>
<g><path style="opacity:0.365" fill="#fae186" d="M 141.5,432.5 C 141.5,432.833 141.5,433.167 141.5,433.5C 140.508,433.328 139.842,433.662 139.5,434.5C 137.585,434.216 135.919,434.549 134.5,435.5C 133.5,435.5 132.5,435.5 131.5,435.5C 134.452,433.59 137.786,432.59 141.5,432.5 Z"/></g>
<g><path style="opacity:0.004" fill="#f8dd78" d="M 141.5,433.5 C 141.833,433.5 142.167,433.5 142.5,433.5C 142.315,434.17 141.981,434.17 141.5,433.5 Z"/></g>
<g><path style="opacity:0.016" fill="#e1a703" d="M 277.5,433.5 C 276.833,434.167 276.833,434.167 277.5,433.5 Z"/></g>
<g><path style="opacity:0.013" fill="#e1a400" d="M 351.5,434.5 C 351.5,434.167 351.5,433.833 351.5,433.5C 352.833,433.5 354.167,433.5 355.5,433.5C 354.432,434.434 353.099,434.768 351.5,434.5 Z"/></g>
<g><path style="opacity:0.004" fill="#fdea93" d="M 139.5,435.5 C 139.5,435.167 139.5,434.833 139.5,434.5C 140.167,434.5 140.833,434.5 141.5,434.5C 141.158,435.338 140.492,435.672 139.5,435.5 Z"/></g>
<g><path style="opacity:0.008" fill="#e3a907" d="M 278.5,435.5 C 279.251,434.427 280.251,434.26 281.5,435C 280.552,435.483 279.552,435.649 278.5,435.5 Z"/></g>
<g><path style="opacity:0.006" fill="#e2a400" d="M 349.5,435.5 C 349.5,435.167 349.5,434.833 349.5,434.5C 350.167,434.5 350.833,434.5 351.5,434.5C 351.158,435.338 350.492,435.672 349.5,435.5 Z"/></g>
<g><path style="opacity:0.008" fill="#e1a408" d="M 86.5,435.5 C 84.7116,436.622 82.7116,436.789 80.5,436C 82.4727,435.505 84.4727,435.338 86.5,435.5 Z"/></g>
<g><path style="opacity:0.004" fill="#f1c363" d="M 134.5,435.5 C 136.167,435.5 137.833,435.5 139.5,435.5C 137.833,436.833 136.167,436.833 134.5,435.5 Z"/></g>
<g><path style="opacity:0.004" fill="#e1a500" d="M 345.5,435.5 C 345.833,435.5 346.167,435.5 346.5,435.5C 346.315,436.17 345.981,436.17 345.5,435.5 Z"/></g>
<g><path style="opacity:0.006" fill="#e1a500" d="M 347.5,435.5 C 348.167,435.5 348.833,435.5 349.5,435.5C 348.833,436.833 348.167,436.833 347.5,435.5 Z"/></g>
<g><path style="opacity:0.012" fill="#d98e06" d="M 88.5,437.5 C 89.2506,436.427 90.2506,436.26 91.5,437C 90.552,437.483 89.552,437.649 88.5,437.5 Z"/></g>
<g><path style="opacity:0.008" fill="#e6ad27" d="M 127.5,436.5 C 129.199,436.34 130.866,436.506 132.5,437C 130.613,437.78 128.946,437.613 127.5,436.5 Z"/></g>
<g><path style="opacity:0.014" fill="#e1a500" d="M 343.5,437.5 C 343.5,437.167 343.5,436.833 343.5,436.5C 344.167,436.5 344.833,436.5 345.5,436.5C 345.158,437.338 344.492,437.672 343.5,437.5 Z"/></g>
<g><path style="opacity:0.01" fill="#e3a910" d="M 96.5,437.5 C 95.3991,438.598 94.0657,438.765 92.5,438C 93.7932,437.51 95.1266,437.343 96.5,437.5 Z"/></g>
<g><path style="opacity:0.009" fill="#e2a705" d="M 121.5,438.5 C 121.5,438.167 121.5,437.833 121.5,437.5C 128.167,437.833 128.167,438.167 121.5,438.5 Z"/></g>
<g><path style="opacity:0.008" fill="#e1a500" d="M 341.5,438.5 C 341.5,438.167 341.5,437.833 341.5,437.5C 342.167,437.5 342.833,437.5 343.5,437.5C 343.158,438.338 342.492,438.672 341.5,438.5 Z"/></g>
<g><path style="opacity:0.007" fill="#e5ac19" d="M 121.5,438.5 C 113.677,439.656 105.677,439.823 97.5,439C 105.493,438.5 113.493,438.334 121.5,438.5 Z"/></g>
<g><path style="opacity:0.009" fill="#e1a500" d="M 336.5,439.5 C 336.5,439.167 336.5,438.833 336.5,438.5C 338.167,438.5 339.833,438.5 341.5,438.5C 340.081,439.451 338.415,439.784 336.5,439.5 Z"/></g>
<g><path style="opacity:0.004" fill="#e1a500" d="M 334.5,439.5 C 335.167,439.5 335.833,439.5 336.5,439.5C 335.833,440.833 335.167,440.833 334.5,439.5 Z"/></g>
<g><path style="opacity:0.01" fill="#e1a500" d="M 328.5,441.5 C 328.5,441.167 328.5,440.833 328.5,440.5C 332.5,440.833 332.5,441.167 328.5,441.5 Z"/></g>
<g><path style="opacity:0.004" fill="#e1a500" d="M 287.5,441.5 C 286.833,442.167 286.833,442.167 287.5,441.5 Z"/></g>
<g><path style="opacity:0.008" fill="#e2a501" d="M 326.5,441.5 C 327.167,441.5 327.833,441.5 328.5,441.5C 327.833,442.833 327.167,442.833 326.5,441.5 Z"/></g>
<g><path style="opacity:0.008" fill="#de9b07" d="M 323.5,443.5 C 323.5,443.167 323.5,442.833 323.5,442.5C 326.167,442.833 326.167,443.167 323.5,443.5 Z"/></g>
<g><path style="opacity:0.008" fill="#eec543" d="M 320.5,444.5 C 320.5,444.167 320.5,443.833 320.5,443.5C 321.5,443.5 322.5,443.5 323.5,443.5C 322.791,444.404 321.791,444.737 320.5,444.5 Z"/></g>
<g><path style="opacity:0.008" fill="#e0a500" d="M 287.5,444.5 C 288.833,445.167 288.833,445.167 287.5,444.5 Z"/></g>
<g><path style="opacity:0.008" fill="#e3a42e" d="M 320.5,444.5 C 318.712,445.622 316.712,445.789 314.5,445C 316.473,444.505 318.473,444.338 320.5,444.5 Z"/></g>
<g><path style="opacity:0.006" fill="#e1a500" d="M 311.5,446.5 C 311.5,446.167 311.5,445.833 311.5,445.5C 314.167,445.833 314.167,446.167 311.5,446.5 Z"/></g>
<g><path style="opacity:0.004" fill="#e1a500" d="M 290.5,446.5 C 289.833,447.167 289.833,447.167 290.5,446.5 Z"/></g>
<g><path style="opacity:0.009" fill="#e1a500" d="M 308.5,447.5 C 308.5,447.167 308.5,446.833 308.5,446.5C 309.5,446.5 310.5,446.5 311.5,446.5C 310.791,447.404 309.791,447.737 308.5,447.5 Z"/></g>
<g><path style="opacity:0.008" fill="#e1a500" d="M 306.5,447.5 C 307.167,447.5 307.833,447.5 308.5,447.5C 307.833,448.833 307.167,448.833 306.5,447.5 Z"/></g>
<g><path style="opacity:0.004" fill="#e7b31a" d="M 291.5,449.5 C 291.842,448.662 292.508,448.328 293.5,448.5C 293.5,448.833 293.5,449.167 293.5,449.5C 292.833,449.5 292.167,449.5 291.5,449.5 Z"/></g>
<g><path style="opacity:0.006" fill="#e1a400" d="M 302.5,449.5 C 302.5,449.167 302.5,448.833 302.5,448.5C 303.492,448.328 304.158,448.662 304.5,449.5C 303.833,449.5 303.167,449.5 302.5,449.5 Z"/></g>
</svg>
