<svg width="376" height="550" viewBox="0 0 376 550" fill="none" xmlns="http://www.w3.org/2000/svg">
<rect width="376" height="550" rx="29" fill="#141212"/>
<rect x="35.3728" y="11.7857" width="309.185" height="369.286" fill="url(#paint0_radial_9_200)"/>
<path d="M67.7528 438.236V437.894C68.5731 437.9 69.1102 437.907 69.3641 437.913C69.618 437.92 69.8296 437.926 69.9989 437.933C71.0927 437.933 71.8121 437.92 72.1571 437.894L72.1376 438.275C71.6884 438.314 71.3531 438.369 71.1317 438.441C70.9104 438.506 70.7509 438.649 70.6532 438.87C70.5946 439.014 70.5523 439.372 70.5262 439.945C70.5002 440.517 70.4774 441.253 70.4579 442.152C70.4318 443.161 70.4123 444.075 70.3993 444.896C70.3863 445.716 70.3798 446.53 70.3798 447.337C70.3798 448.073 70.3993 448.616 70.4384 448.968C70.4774 449.32 70.5425 449.541 70.6337 449.632C70.7443 449.717 70.9266 449.779 71.1805 449.818C71.441 449.857 71.9911 449.876 72.8309 449.876C73.7554 449.876 74.5269 449.801 75.1454 449.652C75.7704 449.502 76.2391 449.342 76.5516 449.173C76.9683 448.919 77.2548 448.486 77.411 447.874L77.7333 447.913C77.6942 448.18 77.6063 448.581 77.4696 449.115C77.3329 449.648 77.1734 450.133 76.9911 450.57C76.4312 450.504 75.9852 450.472 75.6532 450.472C75.4514 450.465 75.2626 450.459 75.0868 450.452C74.9175 450.452 74.719 450.452 74.4911 450.452H67.6356L67.6161 450.15C68.0002 450.072 68.2802 449.987 68.4559 449.896C68.6317 449.805 68.7619 449.648 68.8466 449.427C68.9377 449.199 68.993 448.861 69.0126 448.411C69.0386 447.962 69.0516 447.314 69.0516 446.468L69.0712 442.171C69.0842 441.201 69.0842 440.465 69.0712 439.964C69.0581 439.463 69.0126 439.092 68.9344 438.851C68.8563 438.603 68.7326 438.444 68.5634 438.372C68.3941 438.294 68.1239 438.249 67.7528 438.236ZM84.9891 445.374L80.1063 446.429C80.1389 447.041 80.1975 447.516 80.2821 447.855C80.3733 448.187 80.549 448.525 80.8094 448.87C81.3108 449.528 81.9162 449.857 82.6259 449.857C82.9188 449.857 83.2313 449.801 83.5634 449.691C83.8954 449.58 84.2632 449.381 84.6669 449.095L84.8427 449.329C83.7098 450.143 82.704 450.55 81.8251 450.55C80.8941 450.55 80.1682 450.198 79.6473 449.495C79.1265 448.792 78.8661 447.985 78.8661 447.073C78.8661 446.142 79.0647 445.371 79.4618 444.759C79.8589 444.141 80.3049 443.691 80.7997 443.411C81.2945 443.131 81.6688 442.991 81.9227 442.991C82.2157 442.991 82.5184 443.04 82.8309 443.138C83.1499 443.229 83.4592 443.408 83.7587 443.675C84.0647 443.942 84.3186 444.307 84.5204 444.769C84.579 444.866 84.6343 444.932 84.6864 444.964C84.7385 444.997 84.8329 445.013 84.9696 445.013L84.9891 445.374ZM80.1259 446.048L81.4052 445.775C81.4572 445.749 81.6525 445.697 81.9911 445.618C82.3361 445.54 82.5673 445.491 82.6844 445.472C83.023 445.394 83.2378 445.338 83.329 445.306C83.4201 445.273 83.4657 445.221 83.4657 445.15C83.4657 445.045 83.3876 444.87 83.2313 444.622C83.0751 444.368 82.8505 444.137 82.5575 443.929C82.271 443.721 81.9325 443.616 81.5419 443.616C81.0536 443.616 80.7053 443.874 80.4969 444.388C80.2951 444.902 80.1714 445.456 80.1259 446.048ZM86.8055 447.65L86.8544 443.851C86.5549 443.812 86.2066 443.792 85.8094 443.792C85.8225 443.74 85.829 443.659 85.829 443.548C86.3954 443.203 86.8381 442.874 87.1571 442.562C87.4761 442.249 87.8537 441.807 88.2899 441.234L88.1923 442.991C88.7522 443.044 89.3641 443.07 90.0282 443.07C90.3472 443.07 90.6955 443.063 91.0731 443.05L91.0536 443.656C90.715 443.695 90.3667 443.714 90.0087 443.714C89.9761 443.714 89.8492 443.711 89.6278 443.704C89.4065 443.691 89.0614 443.675 88.5927 443.656C88.469 443.656 88.3746 443.669 88.3094 443.695C88.2509 443.714 88.2085 443.756 88.1825 443.822C88.163 443.887 88.1467 444.01 88.1337 444.193C88.1272 444.375 88.1206 444.567 88.1141 444.769L88.0653 447.816C88.0523 448.402 88.1174 448.887 88.2606 449.271C88.4104 449.648 88.7652 449.837 89.3251 449.837C89.5399 449.837 89.8036 449.792 90.1161 449.7C90.4351 449.603 90.7997 449.46 91.2098 449.271C91.2229 449.323 91.2294 449.362 91.2294 449.388C91.2359 449.414 91.2424 449.443 91.2489 449.476C91.021 449.723 90.6011 449.967 89.9891 450.208C89.3837 450.449 88.8368 450.57 88.3485 450.57C87.9253 450.57 87.5608 450.426 87.2548 450.14C86.9553 449.847 86.8055 449.346 86.8055 448.636V447.65ZM97.5477 447.65L97.5966 443.851C97.2971 443.812 96.9488 443.792 96.5516 443.792C96.5647 443.74 96.5712 443.659 96.5712 443.548C97.1376 443.203 97.5803 442.874 97.8993 442.562C98.2183 442.249 98.5959 441.807 99.0321 441.234L98.9344 442.991C99.4943 443.044 100.106 443.07 100.77 443.07C101.089 443.07 101.438 443.063 101.815 443.05L101.796 443.656C101.457 443.695 101.109 443.714 100.751 443.714C100.718 443.714 100.591 443.711 100.37 443.704C100.149 443.691 99.8036 443.675 99.3348 443.656C99.2111 443.656 99.1167 443.669 99.0516 443.695C98.993 443.714 98.9507 443.756 98.9247 443.822C98.9052 443.887 98.8889 444.01 98.8759 444.193C98.8693 444.375 98.8628 444.567 98.8563 444.769L98.8075 447.816C98.7945 448.402 98.8596 448.887 99.0028 449.271C99.1525 449.648 99.5074 449.837 100.067 449.837C100.282 449.837 100.546 449.792 100.858 449.7C101.177 449.603 101.542 449.46 101.952 449.271C101.965 449.323 101.972 449.362 101.972 449.388C101.978 449.414 101.985 449.443 101.991 449.476C101.763 449.723 101.343 449.967 100.731 450.208C100.126 450.449 99.579 450.57 99.0907 450.57C98.6675 450.57 98.3029 450.426 97.9969 450.14C97.6975 449.847 97.5477 449.346 97.5477 448.636V447.65ZM102.333 438.568V438.197C102.476 438.125 102.571 438.076 102.616 438.05L104.511 437.132L104.833 436.956L105.155 437.113C105.031 437.698 104.944 438.376 104.891 439.144C104.839 439.906 104.8 440.876 104.774 442.054L104.716 444.036C105.484 443.704 106.106 443.46 106.581 443.304C107.063 443.148 107.525 443.07 107.968 443.07C108.593 443.07 109.048 443.262 109.335 443.646C109.621 444.023 109.797 444.489 109.862 445.042C109.934 445.589 109.97 446.312 109.97 447.21C109.97 447.386 109.966 447.549 109.96 447.698C109.96 447.848 109.957 448.06 109.95 448.333C109.944 448.6 109.934 448.848 109.921 449.075C109.914 449.297 109.911 449.424 109.911 449.456C109.911 449.736 109.979 449.922 110.116 450.013C110.253 450.104 110.63 450.15 111.249 450.15L111.229 450.452H110.595C110.497 450.452 110.093 450.456 109.384 450.462C108.681 450.469 108.319 450.472 108.3 450.472C108.28 450.472 108.137 450.504 107.87 450.57C107.805 450.57 107.772 450.524 107.772 450.433C107.772 450.368 107.824 450.322 107.929 450.296C108.176 450.238 108.358 450.133 108.475 449.984C108.599 449.834 108.681 449.58 108.72 449.222C108.765 448.864 108.788 448.275 108.788 447.454C108.788 446.159 108.684 445.234 108.475 444.681C108.267 444.128 107.792 443.851 107.05 443.851C106.666 443.851 106.242 443.922 105.78 444.066C105.318 444.209 104.976 444.339 104.755 444.456C104.755 444.639 104.742 444.945 104.716 445.374L104.628 447.728C104.628 447.878 104.625 448.014 104.618 448.138C104.618 448.262 104.615 448.398 104.608 448.548C104.608 449.18 104.651 449.587 104.735 449.769C104.768 449.879 104.846 449.958 104.97 450.003C105.093 450.042 105.422 450.085 105.956 450.13V450.472C105.741 450.446 105.285 450.433 104.589 450.433C103.866 450.433 103.088 450.465 102.255 450.531L102.274 450.208C102.691 450.124 102.964 450.042 103.095 449.964C103.231 449.879 103.322 449.723 103.368 449.495C103.42 449.267 103.456 448.841 103.475 448.216C103.495 447.194 103.521 446.318 103.554 445.589L103.593 442.855C103.606 442.575 103.612 441.953 103.612 440.99C103.612 440.111 103.573 439.463 103.495 439.046C103.423 438.623 103.241 438.411 102.948 438.411C102.903 438.411 102.697 438.463 102.333 438.568ZM118.27 445.374L113.388 446.429C113.42 447.041 113.479 447.516 113.563 447.855C113.655 448.187 113.83 448.525 114.091 448.87C114.592 449.528 115.197 449.857 115.907 449.857C116.2 449.857 116.513 449.801 116.845 449.691C117.177 449.58 117.544 449.381 117.948 449.095L118.124 449.329C116.991 450.143 115.985 450.55 115.106 450.55C114.175 450.55 113.449 450.198 112.929 449.495C112.408 448.792 112.147 447.985 112.147 447.073C112.147 446.142 112.346 445.371 112.743 444.759C113.14 444.141 113.586 443.691 114.081 443.411C114.576 443.131 114.95 442.991 115.204 442.991C115.497 442.991 115.8 443.04 116.112 443.138C116.431 443.229 116.74 443.408 117.04 443.675C117.346 443.942 117.6 444.307 117.802 444.769C117.86 444.866 117.916 444.932 117.968 444.964C118.02 444.997 118.114 445.013 118.251 445.013L118.27 445.374ZM113.407 446.048L114.686 445.775C114.738 445.749 114.934 445.697 115.272 445.618C115.617 445.54 115.849 445.491 115.966 445.472C116.304 445.394 116.519 445.338 116.61 445.306C116.701 445.273 116.747 445.221 116.747 445.15C116.747 445.045 116.669 444.87 116.513 444.622C116.356 444.368 116.132 444.137 115.839 443.929C115.552 443.721 115.214 443.616 114.823 443.616C114.335 443.616 113.987 443.874 113.778 444.388C113.576 444.902 113.453 445.456 113.407 446.048ZM130.575 449.232L130.712 449.515C129.846 450.231 128.954 450.589 128.036 450.589C127.509 450.589 126.962 450.482 126.395 450.267C125.835 450.045 125.396 449.762 125.077 449.417C124.875 449.176 124.716 448.841 124.599 448.411C124.488 447.975 124.432 447.555 124.432 447.152C124.432 446.338 124.651 445.599 125.087 444.935C125.523 444.264 126.057 443.743 126.688 443.372C127.326 443.001 127.922 442.816 128.475 442.816C128.807 442.816 129.27 442.91 129.862 443.099C130.455 443.281 130.751 443.454 130.751 443.616C130.751 443.682 130.66 443.851 130.477 444.124C130.295 444.398 130.149 444.534 130.038 444.534C129.986 444.534 129.911 444.508 129.813 444.456C129.722 444.404 129.563 444.316 129.335 444.193C128.625 443.9 128.039 443.753 127.577 443.753C126.919 443.753 126.425 443.968 126.093 444.398C125.761 444.827 125.595 445.472 125.595 446.331C125.595 447.119 125.767 447.783 126.112 448.323C126.457 448.864 126.871 449.258 127.352 449.505C127.841 449.753 128.287 449.876 128.69 449.876C129.029 449.876 129.341 449.818 129.628 449.7C129.921 449.583 130.237 449.427 130.575 449.232ZM133.475 444.691L132.274 445.228C132.222 445.019 132.196 444.866 132.196 444.769C132.196 444.437 132.398 444.131 132.802 443.851C133.212 443.564 133.671 443.333 134.179 443.157C134.693 442.982 135.051 442.894 135.253 442.894C135.429 442.894 135.647 442.972 135.907 443.128C136.168 443.284 136.376 443.441 136.532 443.597C136.669 443.727 136.773 443.857 136.845 443.988C136.923 444.111 136.991 444.31 137.05 444.583C137.108 444.857 137.138 445.205 137.138 445.628C137.138 445.752 137.121 446.188 137.089 446.937L137.05 447.669C137.024 448.021 137.011 448.301 137.011 448.509C137.011 448.776 137.046 449.062 137.118 449.368C137.183 449.681 137.33 449.837 137.557 449.837C137.811 449.837 138.15 449.743 138.573 449.554V449.954L137.138 450.531C136.851 450.628 136.688 450.677 136.649 450.677C136.5 450.677 136.35 450.579 136.2 450.384C136.057 450.182 135.94 449.945 135.849 449.671C134.644 450.342 133.72 450.677 133.075 450.677C132.678 450.677 132.378 450.563 132.177 450.335C131.975 450.101 131.874 449.753 131.874 449.29C131.874 448.848 131.926 448.519 132.03 448.304C132.141 448.089 132.317 447.92 132.557 447.796C133.046 447.549 133.563 447.366 134.11 447.249C134.657 447.126 135.23 447.021 135.829 446.937L135.878 445.736V445.413C135.878 444.86 135.718 444.424 135.399 444.105C135.087 443.779 134.719 443.616 134.296 443.616C134.094 443.616 133.889 443.675 133.681 443.792C133.479 443.903 133.378 444.062 133.378 444.271C133.378 444.375 133.41 444.515 133.475 444.691ZM135.79 449.31C135.77 449.095 135.79 448.483 135.849 447.474C134.989 447.415 134.299 447.519 133.778 447.786C133.257 448.053 132.997 448.389 132.997 448.792C132.997 449.085 133.075 449.362 133.231 449.622C133.394 449.883 133.615 450.013 133.895 450.013C134.208 450.013 134.839 449.779 135.79 449.31ZM139.052 450.472L139.071 450.189C139.397 450.124 139.621 450.059 139.745 449.993C139.869 449.928 139.976 449.775 140.067 449.534C140.158 449.294 140.217 448.932 140.243 448.45C140.276 447.969 140.292 447.23 140.292 446.234C140.292 445.446 140.25 444.922 140.165 444.661C140.08 444.401 139.869 444.271 139.53 444.271C139.328 444.271 139.123 444.297 138.915 444.349L138.954 444.036L141.474 442.572C141.5 442.975 141.513 443.529 141.513 444.232L142.557 443.636C142.61 443.603 142.655 443.574 142.694 443.548C142.766 443.509 142.847 443.463 142.938 443.411C143.03 443.353 143.186 443.258 143.407 443.128C143.628 442.991 143.804 442.881 143.934 442.796L144.013 442.835C144.052 442.874 144.097 442.907 144.149 442.933C144.345 443.024 144.498 443.128 144.608 443.245C144.719 443.363 144.774 443.532 144.774 443.753C144.774 444.007 144.67 444.215 144.462 444.378C144.253 444.541 144.003 444.639 143.71 444.671C143.71 444.45 143.658 444.281 143.554 444.163C143.449 444.046 143.303 443.988 143.114 443.988C142.919 443.988 142.688 444.059 142.421 444.202C142.154 444.339 141.952 444.469 141.815 444.593C141.653 444.736 141.555 444.857 141.522 444.954C141.496 445.045 141.48 445.277 141.474 445.648C141.434 446.748 141.415 447.331 141.415 447.396C141.415 448.665 141.48 449.45 141.61 449.749C141.669 449.853 141.734 449.919 141.806 449.945C141.877 449.964 142.001 449.974 142.177 449.974L142.431 449.954L143.593 449.935L143.573 450.335C143.541 450.335 143.335 450.342 142.958 450.355C142.58 450.368 142.326 450.374 142.196 450.374L139.052 450.472ZM151.22 441.156V439.788C151.174 439.352 151.132 439.053 151.093 438.89C151.06 438.721 151.005 438.61 150.927 438.558C150.855 438.499 150.738 438.47 150.575 438.47C150.399 438.47 150.181 438.503 149.921 438.568L149.901 438.275C151.099 437.78 151.959 437.347 152.479 436.976L152.714 437.073C152.642 437.386 152.58 437.93 152.528 438.704C152.476 439.479 152.424 440.407 152.372 441.488L152.333 442.454L152.255 446.39V447.337C152.255 448.268 152.284 448.968 152.343 449.437C152.408 449.899 152.499 450.13 152.616 450.13C152.688 450.13 152.837 450.098 153.065 450.032C153.3 449.967 153.544 449.892 153.798 449.808V450.169C152.268 450.703 151.441 450.97 151.317 450.97C151.22 450.97 151.145 450.837 151.093 450.57C151.041 450.309 151.015 449.915 151.015 449.388C150.311 449.759 149.752 450.023 149.335 450.179C148.918 450.335 148.479 450.413 148.016 450.413C147.535 450.413 147.063 450.29 146.6 450.042C146.138 449.788 145.757 449.42 145.458 448.939C145.165 448.457 145.018 447.9 145.018 447.269C145.018 446.403 145.21 445.68 145.595 445.101C145.985 444.515 146.431 444.075 146.932 443.782C147.44 443.483 147.922 443.271 148.378 443.148C148.84 443.017 149.14 442.952 149.276 442.952C149.478 442.952 149.735 442.978 150.048 443.031C150.36 443.083 150.731 443.164 151.161 443.275C151.2 442.552 151.22 441.846 151.22 441.156ZM151.015 447.933L151.073 444.593C151.073 444.443 150.959 444.31 150.731 444.193C150.51 444.069 150.263 443.975 149.989 443.909C149.722 443.844 149.426 443.789 149.1 443.743C148.775 443.698 148.586 443.675 148.534 443.675C148.117 443.675 147.72 443.786 147.343 444.007C146.972 444.222 146.672 444.518 146.444 444.896C146.223 445.273 146.112 445.693 146.112 446.156C146.112 446.872 146.242 447.49 146.503 448.011C146.763 448.532 147.115 448.929 147.557 449.202C148.007 449.476 148.498 449.613 149.032 449.613C149.41 449.613 149.752 449.547 150.057 449.417C150.37 449.281 150.689 449.111 151.015 448.909C151.008 448.864 151.005 448.737 151.005 448.529C151.011 448.32 151.015 448.122 151.015 447.933ZM165.712 441.156V439.788C165.666 439.352 165.624 439.053 165.585 438.89C165.552 438.721 165.497 438.61 165.419 438.558C165.347 438.499 165.23 438.47 165.067 438.47C164.891 438.47 164.673 438.503 164.413 438.568L164.393 438.275C165.591 437.78 166.451 437.347 166.972 436.976L167.206 437.073C167.134 437.386 167.072 437.93 167.02 438.704C166.968 439.479 166.916 440.407 166.864 441.488L166.825 442.454L166.747 446.39V447.337C166.747 448.268 166.776 448.968 166.835 449.437C166.9 449.899 166.991 450.13 167.108 450.13C167.18 450.13 167.33 450.098 167.557 450.032C167.792 449.967 168.036 449.892 168.29 449.808V450.169C166.76 450.703 165.933 450.97 165.809 450.97C165.712 450.97 165.637 450.837 165.585 450.57C165.533 450.309 165.507 449.915 165.507 449.388C164.804 449.759 164.244 450.023 163.827 450.179C163.41 450.335 162.971 450.413 162.509 450.413C162.027 450.413 161.555 450.29 161.093 450.042C160.63 449.788 160.25 449.42 159.95 448.939C159.657 448.457 159.511 447.9 159.511 447.269C159.511 446.403 159.703 445.68 160.087 445.101C160.477 444.515 160.923 444.075 161.425 443.782C161.932 443.483 162.414 443.271 162.87 443.148C163.332 443.017 163.632 442.952 163.768 442.952C163.97 442.952 164.227 442.978 164.54 443.031C164.852 443.083 165.224 443.164 165.653 443.275C165.692 442.552 165.712 441.846 165.712 441.156ZM165.507 447.933L165.565 444.593C165.565 444.443 165.451 444.31 165.224 444.193C165.002 444.069 164.755 443.975 164.481 443.909C164.214 443.844 163.918 443.789 163.593 443.743C163.267 443.698 163.078 443.675 163.026 443.675C162.61 443.675 162.212 443.786 161.835 444.007C161.464 444.222 161.164 444.518 160.936 444.896C160.715 445.273 160.604 445.693 160.604 446.156C160.604 446.872 160.735 447.49 160.995 448.011C161.255 448.532 161.607 448.929 162.05 449.202C162.499 449.476 162.99 449.613 163.524 449.613C163.902 449.613 164.244 449.547 164.55 449.417C164.862 449.281 165.181 449.111 165.507 448.909C165.5 448.864 165.497 448.737 165.497 448.529C165.503 448.32 165.507 448.122 165.507 447.933ZM169.1 446.79C169.1 446.217 169.205 445.7 169.413 445.238C169.628 444.769 169.921 444.365 170.292 444.027C170.663 443.688 171.096 443.428 171.591 443.245C172.085 443.063 172.616 442.972 173.182 442.972C173.697 442.972 174.182 443.066 174.638 443.255C175.1 443.444 175.503 443.704 175.849 444.036C176.194 444.368 176.464 444.762 176.659 445.218C176.861 445.667 176.962 446.152 176.962 446.673C176.962 447.35 176.799 447.985 176.474 448.577C176.155 449.17 175.699 449.648 175.106 450.013C174.52 450.371 173.843 450.55 173.075 450.55C172.496 450.55 171.897 450.423 171.278 450.169C170.666 449.915 170.149 449.508 169.725 448.948C169.309 448.382 169.1 447.663 169.1 446.79ZM170.38 446.253C170.38 446.859 170.5 447.461 170.741 448.06C170.982 448.659 171.317 449.15 171.747 449.534C172.183 449.919 172.662 450.111 173.182 450.111C173.638 450.111 174.052 449.987 174.423 449.74C174.794 449.486 175.09 449.128 175.311 448.665C175.533 448.203 175.643 447.679 175.643 447.093C175.643 446.501 175.513 445.924 175.253 445.365C174.999 444.798 174.644 444.339 174.188 443.988C173.739 443.629 173.241 443.45 172.694 443.45C172.252 443.45 171.854 443.571 171.503 443.812C171.151 444.053 170.875 444.388 170.673 444.818C170.477 445.247 170.38 445.726 170.38 446.253ZM185.038 444.691L183.837 445.228C183.785 445.019 183.759 444.866 183.759 444.769C183.759 444.437 183.96 444.131 184.364 443.851C184.774 443.564 185.233 443.333 185.741 443.157C186.255 442.982 186.613 442.894 186.815 442.894C186.991 442.894 187.209 442.972 187.47 443.128C187.73 443.284 187.938 443.441 188.095 443.597C188.231 443.727 188.335 443.857 188.407 443.988C188.485 444.111 188.554 444.31 188.612 444.583C188.671 444.857 188.7 445.205 188.7 445.628C188.7 445.752 188.684 446.188 188.651 446.937L188.612 447.669C188.586 448.021 188.573 448.301 188.573 448.509C188.573 448.776 188.609 449.062 188.681 449.368C188.746 449.681 188.892 449.837 189.12 449.837C189.374 449.837 189.712 449.743 190.136 449.554V449.954L188.7 450.531C188.414 450.628 188.251 450.677 188.212 450.677C188.062 450.677 187.912 450.579 187.763 450.384C187.619 450.182 187.502 449.945 187.411 449.671C186.207 450.342 185.282 450.677 184.638 450.677C184.24 450.677 183.941 450.563 183.739 450.335C183.537 450.101 183.436 449.753 183.436 449.29C183.436 448.848 183.488 448.519 183.593 448.304C183.703 448.089 183.879 447.92 184.12 447.796C184.608 447.549 185.126 447.366 185.673 447.249C186.22 447.126 186.793 447.021 187.391 446.937L187.44 445.736V445.413C187.44 444.86 187.281 444.424 186.962 444.105C186.649 443.779 186.281 443.616 185.858 443.616C185.656 443.616 185.451 443.675 185.243 443.792C185.041 443.903 184.94 444.062 184.94 444.271C184.94 444.375 184.973 444.515 185.038 444.691ZM187.352 449.31C187.333 449.095 187.352 448.483 187.411 447.474C186.552 447.415 185.862 447.519 185.341 447.786C184.82 448.053 184.559 448.389 184.559 448.792C184.559 449.085 184.638 449.362 184.794 449.622C184.957 449.883 185.178 450.013 185.458 450.013C185.77 450.013 186.402 449.779 187.352 449.31ZM190.399 450.491V450.189C190.888 450.104 191.233 449.958 191.434 449.749C191.636 449.541 191.763 449.222 191.815 448.792C191.848 448.571 191.884 448.063 191.923 447.269C191.962 446.468 191.998 445.553 192.03 444.525C192.063 443.496 192.079 442.572 192.079 441.751C192.079 440.032 191.991 439.053 191.815 438.812C191.705 438.649 191.483 438.568 191.151 438.568C191.073 438.568 191.011 438.571 190.966 438.577C190.92 438.584 190.878 438.59 190.839 438.597C190.8 438.603 190.757 438.61 190.712 438.616V438.314C191.955 437.793 192.831 437.353 193.339 436.995H193.632C193.43 437.764 193.303 439.157 193.251 441.175L193.173 445.872C193.173 448.073 193.222 449.32 193.319 449.613C193.378 449.782 193.573 449.912 193.905 450.003C194.237 450.088 194.533 450.143 194.794 450.169V450.531C193.518 450.439 192.658 450.394 192.216 450.394C191.623 450.394 191.018 450.426 190.399 450.491ZM195.204 450.491V450.189C195.692 450.104 196.037 449.958 196.239 449.749C196.441 449.541 196.568 449.222 196.62 448.792C196.653 448.571 196.688 448.063 196.727 447.269C196.766 446.468 196.802 445.553 196.835 444.525C196.867 443.496 196.884 442.572 196.884 441.751C196.884 440.032 196.796 439.053 196.62 438.812C196.509 438.649 196.288 438.568 195.956 438.568C195.878 438.568 195.816 438.571 195.77 438.577C195.725 438.584 195.682 438.59 195.643 438.597C195.604 438.603 195.562 438.61 195.516 438.616V438.314C196.76 437.793 197.636 437.353 198.143 436.995H198.436C198.235 437.764 198.108 439.157 198.056 441.175L197.977 445.872C197.977 448.073 198.026 449.32 198.124 449.613C198.182 449.782 198.378 449.912 198.71 450.003C199.042 450.088 199.338 450.143 199.599 450.169V450.531C198.322 450.439 197.463 450.394 197.02 450.394C196.428 450.394 195.822 450.426 195.204 450.491ZM205.126 450.472L205.145 450.189C205.471 450.124 205.696 450.059 205.819 449.993C205.943 449.928 206.05 449.775 206.141 449.534C206.233 449.294 206.291 448.932 206.317 448.45C206.35 447.969 206.366 447.23 206.366 446.234C206.366 445.446 206.324 444.922 206.239 444.661C206.155 444.401 205.943 444.271 205.604 444.271C205.403 444.271 205.197 444.297 204.989 444.349L205.028 444.036L207.548 442.572C207.574 442.975 207.587 443.529 207.587 444.232L208.632 443.636C208.684 443.603 208.729 443.574 208.768 443.548C208.84 443.509 208.921 443.463 209.013 443.411C209.104 443.353 209.26 443.258 209.481 443.128C209.703 442.991 209.878 442.881 210.009 442.796L210.087 442.835C210.126 442.874 210.171 442.907 210.224 442.933C210.419 443.024 210.572 443.128 210.682 443.245C210.793 443.363 210.849 443.532 210.849 443.753C210.849 444.007 210.744 444.215 210.536 444.378C210.328 444.541 210.077 444.639 209.784 444.671C209.784 444.45 209.732 444.281 209.628 444.163C209.524 444.046 209.377 443.988 209.188 443.988C208.993 443.988 208.762 444.059 208.495 444.202C208.228 444.339 208.026 444.469 207.89 444.593C207.727 444.736 207.629 444.857 207.597 444.954C207.571 445.045 207.554 445.277 207.548 445.648C207.509 446.748 207.489 447.331 207.489 447.396C207.489 448.665 207.554 449.45 207.684 449.749C207.743 449.853 207.808 449.919 207.88 449.945C207.951 449.964 208.075 449.974 208.251 449.974L208.505 449.954L209.667 449.935L209.647 450.335C209.615 450.335 209.41 450.342 209.032 450.355C208.655 450.368 208.401 450.374 208.27 450.374L205.126 450.472ZM217.528 445.374L212.645 446.429C212.678 447.041 212.737 447.516 212.821 447.855C212.912 448.187 213.088 448.525 213.349 448.87C213.85 449.528 214.455 449.857 215.165 449.857C215.458 449.857 215.77 449.801 216.102 449.691C216.434 449.58 216.802 449.381 217.206 449.095L217.382 449.329C216.249 450.143 215.243 450.55 214.364 450.55C213.433 450.55 212.707 450.198 212.186 449.495C211.666 448.792 211.405 447.985 211.405 447.073C211.405 446.142 211.604 445.371 212.001 444.759C212.398 444.141 212.844 443.691 213.339 443.411C213.834 443.131 214.208 442.991 214.462 442.991C214.755 442.991 215.057 443.04 215.37 443.138C215.689 443.229 215.998 443.408 216.298 443.675C216.604 443.942 216.858 444.307 217.059 444.769C217.118 444.866 217.173 444.932 217.225 444.964C217.278 444.997 217.372 445.013 217.509 445.013L217.528 445.374ZM212.665 446.048L213.944 445.775C213.996 445.749 214.192 445.697 214.53 445.618C214.875 445.54 215.106 445.491 215.224 445.472C215.562 445.394 215.777 445.338 215.868 445.306C215.959 445.273 216.005 445.221 216.005 445.15C216.005 445.045 215.927 444.87 215.77 444.622C215.614 444.368 215.39 444.137 215.097 443.929C214.81 443.721 214.472 443.616 214.081 443.616C213.593 443.616 213.244 443.874 213.036 444.388C212.834 444.902 212.71 445.456 212.665 446.048ZM218.466 448.255L218.807 448.275C218.807 448.398 218.912 448.6 219.12 448.88C219.335 449.16 219.621 449.414 219.979 449.642C220.337 449.863 220.728 449.974 221.151 449.974C221.457 449.974 221.763 449.909 222.069 449.779C222.375 449.648 222.528 449.365 222.528 448.929C222.528 448.473 222.369 448.105 222.05 447.825C221.731 447.552 221.369 447.314 220.966 447.113L220.233 446.771C219.804 446.549 219.462 446.315 219.208 446.068C218.954 445.827 218.827 445.514 218.827 445.13C218.827 444.831 218.934 444.518 219.149 444.193C219.364 443.861 219.673 443.587 220.077 443.372C220.487 443.157 220.949 443.05 221.464 443.05C221.776 443.05 222.297 443.099 223.026 443.197L223.349 444.857H223.007C222.948 444.629 222.811 444.414 222.597 444.212C222.388 444.004 222.141 443.828 221.854 443.685C221.574 443.542 221.334 443.47 221.132 443.47C220.787 443.47 220.507 443.577 220.292 443.792C220.077 444.007 219.97 444.281 219.97 444.613C219.97 444.879 220.048 445.091 220.204 445.247C220.36 445.41 220.656 445.599 221.093 445.814L221.688 446.097C222.229 446.351 222.691 446.647 223.075 446.986C223.459 447.331 223.651 447.806 223.651 448.411C223.651 448.639 223.602 448.883 223.505 449.144C223.414 449.398 223.274 449.58 223.085 449.691C222.544 450.036 222.099 450.26 221.747 450.365C221.395 450.462 221.037 450.511 220.673 450.511C220.543 450.511 220.357 450.495 220.116 450.462C219.875 450.43 219.706 450.404 219.608 450.384C219.511 450.365 219.341 450.319 219.1 450.247C218.86 450.176 218.703 450.13 218.632 450.111C218.684 449.85 218.71 449.665 218.71 449.554C218.71 449.391 218.681 449.17 218.622 448.89C218.57 448.603 218.518 448.392 218.466 448.255ZM225.809 447.65L225.858 443.851C225.559 443.812 225.21 443.792 224.813 443.792C224.826 443.74 224.833 443.659 224.833 443.548C225.399 443.203 225.842 442.874 226.161 442.562C226.48 442.249 226.858 441.807 227.294 441.234L227.196 442.991C227.756 443.044 228.368 443.07 229.032 443.07C229.351 443.07 229.699 443.063 230.077 443.05L230.057 443.656C229.719 443.695 229.371 443.714 229.013 443.714C228.98 443.714 228.853 443.711 228.632 443.704C228.41 443.691 228.065 443.675 227.597 443.656C227.473 443.656 227.378 443.669 227.313 443.695C227.255 443.714 227.212 443.756 227.186 443.822C227.167 443.887 227.151 444.01 227.138 444.193C227.131 444.375 227.125 444.567 227.118 444.769L227.069 447.816C227.056 448.402 227.121 448.887 227.265 449.271C227.414 449.648 227.769 449.837 228.329 449.837C228.544 449.837 228.807 449.792 229.12 449.7C229.439 449.603 229.804 449.46 230.214 449.271C230.227 449.323 230.233 449.362 230.233 449.388C230.24 449.414 230.246 449.443 230.253 449.476C230.025 449.723 229.605 449.967 228.993 450.208C228.388 450.449 227.841 450.57 227.352 450.57C226.929 450.57 226.565 450.426 226.259 450.14C225.959 449.847 225.809 449.346 225.809 448.636V447.65ZM235.897 446.79C235.897 446.217 236.002 445.7 236.21 445.238C236.425 444.769 236.718 444.365 237.089 444.027C237.46 443.688 237.893 443.428 238.388 443.245C238.882 443.063 239.413 442.972 239.979 442.972C240.494 442.972 240.979 443.066 241.434 443.255C241.897 443.444 242.3 443.704 242.645 444.036C242.99 444.368 243.261 444.762 243.456 445.218C243.658 445.667 243.759 446.152 243.759 446.673C243.759 447.35 243.596 447.985 243.27 448.577C242.951 449.17 242.496 449.648 241.903 450.013C241.317 450.371 240.64 450.55 239.872 450.55C239.293 450.55 238.694 450.423 238.075 450.169C237.463 449.915 236.946 449.508 236.522 448.948C236.106 448.382 235.897 447.663 235.897 446.79ZM237.177 446.253C237.177 446.859 237.297 447.461 237.538 448.06C237.779 448.659 238.114 449.15 238.544 449.534C238.98 449.919 239.459 450.111 239.979 450.111C240.435 450.111 240.849 449.987 241.22 449.74C241.591 449.486 241.887 449.128 242.108 448.665C242.33 448.203 242.44 447.679 242.44 447.093C242.44 446.501 242.31 445.924 242.05 445.365C241.796 444.798 241.441 444.339 240.985 443.988C240.536 443.629 240.038 443.45 239.491 443.45C239.048 443.45 238.651 443.571 238.3 443.812C237.948 444.053 237.671 444.388 237.47 444.818C237.274 445.247 237.177 445.726 237.177 446.253ZM245.214 443.695V443.109L246.513 443.089C246.519 441.956 246.617 441.058 246.806 440.394C246.994 439.73 247.268 439.189 247.626 438.773C247.912 438.441 248.27 438.138 248.7 437.865C249.13 437.585 249.556 437.37 249.979 437.22C250.403 437.07 250.754 436.995 251.034 436.995C251.412 436.995 251.786 437.064 252.157 437.2C252.528 437.331 252.714 437.487 252.714 437.669C252.714 437.773 252.642 437.93 252.499 438.138C252.356 438.346 252.219 438.45 252.089 438.45L251.307 438.177C250.761 437.975 250.328 437.874 250.009 437.874C249.494 437.874 249.081 438.024 248.768 438.323C248.456 438.623 248.218 439.154 248.056 439.915C247.893 440.677 247.798 441.735 247.772 443.089H250.429V443.714L247.772 443.734L247.733 446.517C247.733 447.637 247.743 448.46 247.763 448.988C247.782 449.515 247.837 449.824 247.929 449.915C247.987 449.961 248.085 449.99 248.222 450.003C248.358 450.016 248.755 450.032 249.413 450.052V450.433C249.029 450.42 248.375 450.41 247.45 450.404C246.532 450.397 245.764 450.394 245.145 450.394V450.072C245.49 450.052 245.748 450.01 245.917 449.945C246.093 449.873 246.22 449.753 246.298 449.583C246.382 449.407 246.434 449.16 246.454 448.841C246.48 448.516 246.493 448.06 246.493 447.474L246.513 444.212C246.513 443.978 246.487 443.844 246.434 443.812C246.311 443.734 245.904 443.695 245.214 443.695ZM258.895 447.65L258.944 443.851C258.645 443.812 258.296 443.792 257.899 443.792C257.912 443.74 257.919 443.659 257.919 443.548C258.485 443.203 258.928 442.874 259.247 442.562C259.566 442.249 259.944 441.807 260.38 441.234L260.282 442.991C260.842 443.044 261.454 443.07 262.118 443.07C262.437 443.07 262.785 443.063 263.163 443.05L263.143 443.656C262.805 443.695 262.457 443.714 262.099 443.714C262.066 443.714 261.939 443.711 261.718 443.704C261.496 443.691 261.151 443.675 260.682 443.656C260.559 443.656 260.464 443.669 260.399 443.695C260.341 443.714 260.298 443.756 260.272 443.822C260.253 443.887 260.237 444.01 260.224 444.193C260.217 444.375 260.21 444.567 260.204 444.769L260.155 447.816C260.142 448.402 260.207 448.887 260.35 449.271C260.5 449.648 260.855 449.837 261.415 449.837C261.63 449.837 261.893 449.792 262.206 449.7C262.525 449.603 262.89 449.46 263.3 449.271C263.313 449.323 263.319 449.362 263.319 449.388C263.326 449.414 263.332 449.443 263.339 449.476C263.111 449.723 262.691 449.967 262.079 450.208C261.474 450.449 260.927 450.57 260.438 450.57C260.015 450.57 259.651 450.426 259.345 450.14C259.045 449.847 258.895 449.346 258.895 448.636V447.65ZM263.681 438.568V438.197C263.824 438.125 263.918 438.076 263.964 438.05L265.858 437.132L266.181 436.956L266.503 437.113C266.379 437.698 266.291 438.376 266.239 439.144C266.187 439.906 266.148 440.876 266.122 442.054L266.063 444.036C266.832 443.704 267.453 443.46 267.929 443.304C268.41 443.148 268.873 443.07 269.315 443.07C269.94 443.07 270.396 443.262 270.682 443.646C270.969 444.023 271.145 444.489 271.21 445.042C271.281 445.589 271.317 446.312 271.317 447.21C271.317 447.386 271.314 447.549 271.307 447.698C271.307 447.848 271.304 448.06 271.298 448.333C271.291 448.6 271.281 448.848 271.268 449.075C271.262 449.297 271.259 449.424 271.259 449.456C271.259 449.736 271.327 449.922 271.464 450.013C271.6 450.104 271.978 450.15 272.597 450.15L272.577 450.452H271.942C271.845 450.452 271.441 450.456 270.731 450.462C270.028 450.469 269.667 450.472 269.647 450.472C269.628 450.472 269.485 450.504 269.218 450.57C269.153 450.57 269.12 450.524 269.12 450.433C269.12 450.368 269.172 450.322 269.276 450.296C269.524 450.238 269.706 450.133 269.823 449.984C269.947 449.834 270.028 449.58 270.067 449.222C270.113 448.864 270.136 448.275 270.136 447.454C270.136 446.159 270.031 445.234 269.823 444.681C269.615 444.128 269.14 443.851 268.397 443.851C268.013 443.851 267.59 443.922 267.128 444.066C266.666 444.209 266.324 444.339 266.102 444.456C266.102 444.639 266.089 444.945 266.063 445.374L265.975 447.728C265.975 447.878 265.972 448.014 265.966 448.138C265.966 448.262 265.962 448.398 265.956 448.548C265.956 449.18 265.998 449.587 266.083 449.769C266.115 449.879 266.194 449.958 266.317 450.003C266.441 450.042 266.77 450.085 267.304 450.13V450.472C267.089 450.446 266.633 450.433 265.936 450.433C265.214 450.433 264.436 450.465 263.602 450.531L263.622 450.208C264.039 450.124 264.312 450.042 264.442 449.964C264.579 449.879 264.67 449.723 264.716 449.495C264.768 449.267 264.804 448.841 264.823 448.216C264.843 447.194 264.869 446.318 264.901 445.589L264.94 442.855C264.953 442.575 264.96 441.953 264.96 440.99C264.96 440.111 264.921 439.463 264.843 439.046C264.771 438.623 264.589 438.411 264.296 438.411C264.25 438.411 264.045 438.463 263.681 438.568ZM279.618 445.374L274.735 446.429C274.768 447.041 274.826 447.516 274.911 447.855C275.002 448.187 275.178 448.525 275.438 448.87C275.94 449.528 276.545 449.857 277.255 449.857C277.548 449.857 277.86 449.801 278.192 449.691C278.524 449.58 278.892 449.381 279.296 449.095L279.472 449.329C278.339 450.143 277.333 450.55 276.454 450.55C275.523 450.55 274.797 450.198 274.276 449.495C273.755 448.792 273.495 447.985 273.495 447.073C273.495 446.142 273.694 445.371 274.091 444.759C274.488 444.141 274.934 443.691 275.429 443.411C275.923 443.131 276.298 442.991 276.552 442.991C276.845 442.991 277.147 443.04 277.46 443.138C277.779 443.229 278.088 443.408 278.388 443.675C278.694 443.942 278.947 444.307 279.149 444.769C279.208 444.866 279.263 444.932 279.315 444.964C279.367 444.997 279.462 445.013 279.599 445.013L279.618 445.374ZM274.755 446.048L276.034 445.775C276.086 445.749 276.281 445.697 276.62 445.618C276.965 445.54 277.196 445.491 277.313 445.472C277.652 445.394 277.867 445.338 277.958 445.306C278.049 445.273 278.095 445.221 278.095 445.15C278.095 445.045 278.016 444.87 277.86 444.622C277.704 444.368 277.479 444.137 277.186 443.929C276.9 443.721 276.561 443.616 276.171 443.616C275.682 443.616 275.334 443.874 275.126 444.388C274.924 444.902 274.8 445.456 274.755 446.048ZM285.204 450.472L285.224 450.169C285.614 450.078 285.897 449.964 286.073 449.827C286.249 449.691 286.376 449.401 286.454 448.958C286.539 448.516 286.581 447.842 286.581 446.937C286.581 446.058 286.535 445.433 286.444 445.062C286.36 444.691 286.229 444.46 286.054 444.368C285.884 444.277 285.601 444.225 285.204 444.212V443.89C285.901 443.727 286.613 443.428 287.343 442.991C287.421 442.939 287.486 442.913 287.538 442.913C287.668 442.913 287.746 443.083 287.772 443.421C287.805 443.76 287.808 444.056 287.782 444.31C287.919 444.232 288.16 444.101 288.505 443.919C288.856 443.73 289.13 443.59 289.325 443.499C289.527 443.402 289.784 443.304 290.097 443.206C290.409 443.102 290.682 443.05 290.917 443.05C291.255 443.05 291.587 443.148 291.913 443.343C292.245 443.532 292.473 443.848 292.597 444.29C293.801 443.652 294.843 443.333 295.722 443.333C296.347 443.333 296.802 443.473 297.089 443.753C297.375 444.033 297.548 444.394 297.606 444.837C297.671 445.273 297.704 445.905 297.704 446.732V448.47C297.684 448.971 297.678 449.316 297.684 449.505C297.691 449.687 297.72 449.808 297.772 449.866C297.831 449.919 297.935 449.954 298.085 449.974C298.137 449.98 298.316 450.016 298.622 450.081C298.934 450.146 299.113 450.182 299.159 450.189L299.022 450.452H295.321L295.263 450.189C295.666 450.085 295.943 449.971 296.093 449.847C296.242 449.723 296.347 449.46 296.405 449.056C296.47 448.652 296.503 447.946 296.503 446.937C296.503 446.338 296.451 445.83 296.347 445.413C296.249 444.997 296.07 444.678 295.809 444.456C295.549 444.228 295.188 444.115 294.725 444.115C294.14 444.115 293.459 444.294 292.684 444.652C292.717 444.925 292.74 445.397 292.753 446.068C292.766 446.732 292.779 447.419 292.792 448.128C292.805 448.831 292.815 449.287 292.821 449.495C292.834 449.671 292.863 449.795 292.909 449.866C292.955 449.932 293.039 449.98 293.163 450.013C293.293 450.045 293.567 450.091 293.983 450.15V450.452H292.763C292.652 450.452 292.242 450.465 291.532 450.491C290.822 450.517 290.399 450.531 290.263 450.531L290.204 450.228C290.634 450.143 290.943 450.032 291.132 449.896C291.321 449.753 291.444 449.505 291.503 449.154C291.568 448.795 291.594 448.19 291.581 447.337L291.561 446.39C291.548 445.589 291.425 444.98 291.19 444.564C290.962 444.141 290.585 443.929 290.057 443.929C289.804 443.929 289.537 443.975 289.257 444.066C288.977 444.157 288.71 444.267 288.456 444.398C288.202 444.521 287.984 444.632 287.802 444.73C287.795 444.84 287.789 445.124 287.782 445.579C287.776 446.029 287.769 446.4 287.763 446.693V447.689C287.776 448.854 287.795 449.489 287.821 449.593C287.847 449.71 287.942 449.818 288.104 449.915C288.267 450.006 288.619 450.091 289.159 450.169V450.511C289.081 450.511 288.801 450.498 288.319 450.472C287.837 450.446 287.551 450.433 287.46 450.433L285.204 450.472ZM301.483 444.691L300.282 445.228C300.23 445.019 300.204 444.866 300.204 444.769C300.204 444.437 300.406 444.131 300.809 443.851C301.22 443.564 301.679 443.333 302.186 443.157C302.701 442.982 303.059 442.894 303.261 442.894C303.436 442.894 303.655 442.972 303.915 443.128C304.175 443.284 304.384 443.441 304.54 443.597C304.677 443.727 304.781 443.857 304.852 443.988C304.931 444.111 304.999 444.31 305.057 444.583C305.116 444.857 305.145 445.205 305.145 445.628C305.145 445.752 305.129 446.188 305.097 446.937L305.057 447.669C305.031 448.021 305.018 448.301 305.018 448.509C305.018 448.776 305.054 449.062 305.126 449.368C305.191 449.681 305.337 449.837 305.565 449.837C305.819 449.837 306.158 449.743 306.581 449.554V449.954L305.145 450.531C304.859 450.628 304.696 450.677 304.657 450.677C304.507 450.677 304.358 450.579 304.208 450.384C304.065 450.182 303.947 449.945 303.856 449.671C302.652 450.342 301.727 450.677 301.083 450.677C300.686 450.677 300.386 450.563 300.184 450.335C299.983 450.101 299.882 449.753 299.882 449.29C299.882 448.848 299.934 448.519 300.038 448.304C300.149 448.089 300.324 447.92 300.565 447.796C301.054 447.549 301.571 447.366 302.118 447.249C302.665 447.126 303.238 447.021 303.837 446.937L303.886 445.736V445.413C303.886 444.86 303.726 444.424 303.407 444.105C303.095 443.779 302.727 443.616 302.304 443.616C302.102 443.616 301.897 443.675 301.688 443.792C301.487 443.903 301.386 444.062 301.386 444.271C301.386 444.375 301.418 444.515 301.483 444.691ZM303.798 449.31C303.778 449.095 303.798 448.483 303.856 447.474C302.997 447.415 302.307 447.519 301.786 447.786C301.265 448.053 301.005 448.389 301.005 448.792C301.005 449.085 301.083 449.362 301.239 449.622C301.402 449.883 301.623 450.013 301.903 450.013C302.216 450.013 302.847 449.779 303.798 449.31ZM309.921 449.173C309.55 449.082 309.172 448.945 308.788 448.763C308.41 448.581 308.069 448.288 307.763 447.884C307.457 447.474 307.304 446.924 307.304 446.234C307.304 445.609 307.47 445.036 307.802 444.515C308.14 443.988 308.576 443.577 309.11 443.284C309.651 442.985 310.201 442.835 310.761 442.835C311.106 442.835 311.428 442.884 311.727 442.982C312.027 443.073 312.304 443.216 312.557 443.411C313.026 443.32 313.521 443.275 314.042 443.275C314.387 443.275 314.621 443.288 314.745 443.314C314.725 443.665 314.638 444.017 314.481 444.368C314.039 444.186 313.573 444.095 313.085 444.095C313.169 444.212 313.254 444.372 313.339 444.573C313.423 444.769 313.492 444.98 313.544 445.208C313.596 445.436 313.622 445.657 313.622 445.872C313.622 446.471 313.488 446.979 313.222 447.396C312.955 447.812 312.623 448.148 312.225 448.402C311.835 448.649 311.334 448.919 310.722 449.212C309.576 449.72 309.003 450.088 309.003 450.316C309.003 450.713 309.481 450.911 310.438 450.911C311.233 450.911 311.851 450.924 312.294 450.95C312.737 450.976 313.127 451.045 313.466 451.156C313.804 451.266 314.068 451.452 314.257 451.712C314.446 451.979 314.54 452.347 314.54 452.816C314.54 453.447 314.293 454.004 313.798 454.486C313.309 454.974 312.681 455.348 311.913 455.609C311.151 455.876 310.386 456.009 309.618 456.009C308.628 456.009 307.942 455.791 307.557 455.355C307.173 454.925 306.981 454.469 306.981 453.988C306.981 453.441 307.147 453.001 307.479 452.669C307.818 452.337 308.244 452.018 308.759 451.712C308.069 451.335 307.73 450.833 307.743 450.208C308.049 449.974 308.56 449.723 309.276 449.456L309.921 449.173ZM310.966 448.656C311.434 448.408 311.799 448.135 312.059 447.835C312.326 447.536 312.46 447.047 312.46 446.37C312.46 445.986 312.405 445.618 312.294 445.267C312.183 444.909 312.03 444.593 311.835 444.32C311.64 444.046 311.399 443.828 311.112 443.665C310.832 443.496 310.516 443.411 310.165 443.411C309.631 443.411 309.182 443.616 308.817 444.027C308.459 444.43 308.28 444.945 308.28 445.57C308.28 446.448 308.544 447.109 309.071 447.552C309.599 447.995 310.23 448.363 310.966 448.656ZM309.306 451.937C308.902 452.06 308.537 452.266 308.212 452.552C307.886 452.845 307.724 453.177 307.724 453.548C307.724 453.978 307.974 454.365 308.475 454.71C308.977 455.055 309.625 455.228 310.419 455.228C310.868 455.228 311.356 455.159 311.884 455.023C312.411 454.892 312.86 454.681 313.231 454.388C313.609 454.095 313.798 453.737 313.798 453.314C313.798 453.021 313.697 452.744 313.495 452.484C313.287 452.23 312.974 452.087 312.557 452.054C312.466 452.041 312.134 452.038 311.561 452.044C310.995 452.051 310.656 452.054 310.546 452.054C309.966 452.054 309.553 452.015 309.306 451.937ZM315.565 450.491L315.604 450.189C316.158 450.137 316.47 450.039 316.542 449.896C316.574 449.837 316.604 449.606 316.63 449.202C316.656 448.792 316.675 448.307 316.688 447.747C316.708 447.181 316.718 446.862 316.718 446.79C316.718 445.866 316.701 445.273 316.669 445.013C316.643 444.753 316.587 444.573 316.503 444.476C316.477 444.443 316.314 444.411 316.015 444.378C315.715 444.346 315.565 444.303 315.565 444.251C315.565 444.147 315.624 444.082 315.741 444.056C316.516 443.815 317.274 443.389 318.016 442.777C318.062 442.777 318.124 442.79 318.202 442.816C318.137 443.083 318.082 443.473 318.036 443.988C317.99 444.502 317.951 445.042 317.919 445.609C317.893 446.175 317.88 446.676 317.88 447.113C317.88 447.438 317.89 447.907 317.909 448.519C317.935 449.124 317.977 449.534 318.036 449.749C318.088 449.866 318.153 449.941 318.231 449.974C318.309 450.006 318.466 450.032 318.7 450.052C318.928 450.059 319.156 450.078 319.384 450.111L319.501 450.394L315.565 450.491ZM317.04 438.812C317.04 438.59 317.115 438.408 317.265 438.265C317.414 438.122 317.593 438.05 317.802 438.05C318.01 438.05 318.186 438.125 318.329 438.275C318.472 438.424 318.544 438.603 318.544 438.812C318.544 439.02 318.472 439.199 318.329 439.349C318.192 439.499 318.016 439.573 317.802 439.573C317.593 439.573 317.414 439.499 317.265 439.349C317.115 439.199 317.04 439.02 317.04 438.812ZM326.727 449.232L326.864 449.515C325.998 450.231 325.106 450.589 324.188 450.589C323.661 450.589 323.114 450.482 322.548 450.267C321.988 450.045 321.548 449.762 321.229 449.417C321.028 449.176 320.868 448.841 320.751 448.411C320.64 447.975 320.585 447.555 320.585 447.152C320.585 446.338 320.803 445.599 321.239 444.935C321.675 444.264 322.209 443.743 322.841 443.372C323.479 443.001 324.074 442.816 324.628 442.816C324.96 442.816 325.422 442.91 326.015 443.099C326.607 443.281 326.903 443.454 326.903 443.616C326.903 443.682 326.812 443.851 326.63 444.124C326.447 444.398 326.301 444.534 326.19 444.534C326.138 444.534 326.063 444.508 325.966 444.456C325.875 444.404 325.715 444.316 325.487 444.193C324.778 443.9 324.192 443.753 323.729 443.753C323.072 443.753 322.577 443.968 322.245 444.398C321.913 444.827 321.747 445.472 321.747 446.331C321.747 447.119 321.919 447.783 322.265 448.323C322.61 448.864 323.023 449.258 323.505 449.505C323.993 449.753 324.439 449.876 324.843 449.876C325.181 449.876 325.494 449.818 325.78 449.7C326.073 449.583 326.389 449.427 326.727 449.232Z" fill="white"/>
<path d="M56.7549 409.6C56.7175 409.697 56.5565 410.251 56.272 411.262C55.4634 411.502 54.7297 411.689 54.0709 411.823C53.412 411.951 52.697 412.014 51.9258 412.014C50.9975 412.014 50.0691 411.85 49.1407 411.52C48.2123 411.191 47.3775 410.704 46.6363 410.06C45.8951 409.409 45.3074 408.619 44.8731 407.691C44.4389 406.755 44.2217 405.692 44.2217 404.501C44.2217 402.869 44.6223 401.491 45.4234 400.368C46.232 399.245 47.2577 398.418 48.5005 397.886C49.7509 397.355 51.0386 397.089 52.3638 397.089C53.4045 397.089 54.4078 397.273 55.3736 397.639C55.8228 397.782 56.1597 397.853 56.3843 397.853C56.4892 397.83 56.564 397.815 56.6089 397.808C56.6614 397.8 56.725 397.793 56.7999 397.785C56.8448 397.785 56.8935 397.815 56.9459 397.875L56.7774 398.515C56.6202 399.077 56.4817 399.792 56.3619 400.66C56.2271 400.638 56.1373 400.593 56.0923 400.526C56.0474 400.451 56.025 400.335 56.025 400.177C56.01 399.706 55.9464 399.384 55.834 399.212C55.6319 398.882 55.1265 398.545 54.3179 398.201C53.5093 397.857 52.697 397.684 51.8809 397.684C50.8028 397.684 49.8257 397.954 48.9498 398.493C48.0813 399.024 47.3925 399.807 46.8834 400.84C46.3817 401.873 46.1309 403.086 46.1309 404.479C46.1309 405.759 46.3518 406.863 46.7935 407.792C47.2427 408.713 47.8005 409.443 48.4669 409.982C49.1407 410.521 49.822 410.91 50.5108 411.15C51.2071 411.389 51.8098 411.509 52.3189 411.509C53.1275 411.509 53.7976 411.378 54.3292 411.116C54.8607 410.846 55.2763 410.528 55.5757 410.161C55.8827 409.787 56.1784 409.342 56.463 408.825C56.5753 408.608 56.6726 408.499 56.7549 408.499C56.8972 408.499 56.9683 408.567 56.9683 408.701C56.9683 408.799 56.8972 409.098 56.7549 409.6ZM58.1588 411.88L58.1812 411.554C58.5556 411.479 58.8139 411.404 58.9561 411.329C59.0984 411.254 59.2219 411.079 59.3267 410.802C59.4315 410.524 59.4989 410.109 59.5289 409.555C59.5663 409.001 59.585 408.151 59.585 407.006C59.585 406.1 59.5364 405.497 59.439 405.198C59.3417 404.898 59.0984 404.748 58.709 404.748C58.4769 404.748 58.2411 404.778 58.0015 404.838L58.0464 404.479L60.9439 402.794C60.9739 403.258 60.9888 403.895 60.9888 404.703L62.1905 404.018C62.2504 403.981 62.3028 403.947 62.3477 403.917C62.4301 403.872 62.5237 403.82 62.6285 403.76C62.7333 403.693 62.913 403.584 63.1675 403.434C63.4221 403.277 63.6242 403.15 63.774 403.052L63.8638 403.097C63.9088 403.142 63.9612 403.18 64.0211 403.21C64.2457 403.315 64.4216 403.434 64.5489 403.569C64.6762 403.704 64.7398 403.899 64.7398 404.153C64.7398 404.445 64.62 404.685 64.3804 404.872C64.1408 405.059 63.8526 405.171 63.5157 405.209C63.5157 404.954 63.4558 404.76 63.336 404.625C63.2162 404.49 63.0477 404.423 62.8306 404.423C62.606 404.423 62.3402 404.505 62.0333 404.67C61.7263 404.827 61.4942 404.977 61.337 405.119C61.1498 405.284 61.0375 405.422 61.0001 405.534C60.9701 405.639 60.9514 405.905 60.9439 406.332C60.899 407.597 60.8765 408.267 60.8765 408.342C60.8765 409.802 60.9514 410.704 61.1011 411.049C61.1685 411.168 61.2434 411.243 61.3257 411.273C61.4081 411.296 61.5504 411.307 61.7525 411.307L62.0445 411.284L63.3809 411.262L63.3585 411.722C63.321 411.722 63.0852 411.73 62.6509 411.745C62.2167 411.76 61.9247 411.767 61.775 411.767L58.1588 411.88ZM65.5709 404.018V403.67C65.9377 403.715 66.4506 403.738 67.1094 403.738C67.8806 403.738 68.648 403.693 69.4117 403.603L69.378 404.018C69.071 404.078 68.8502 404.149 68.7154 404.232C68.5806 404.307 68.5132 404.456 68.5132 404.681C68.5132 405.04 68.6742 405.819 68.9962 407.017C69.3181 408.215 69.6999 409.405 70.1417 410.588L70.8829 409.263C71.2048 408.709 71.5866 407.938 72.0284 406.949C72.4701 405.961 72.691 405.284 72.691 404.917C72.691 404.393 72.1706 404.067 71.1299 403.94L71.2872 403.58C72.1781 403.67 72.953 403.715 73.6119 403.715C74.0985 403.715 74.4691 403.693 74.7237 403.648L74.7012 404.018C74.4991 404.048 74.3157 404.127 74.1509 404.254C73.9937 404.374 73.844 404.546 73.7017 404.771C73.567 404.988 73.4172 405.265 73.2525 405.602L72.0284 408.129C72.0134 408.166 71.7289 408.72 71.1749 409.791C70.3738 411.363 69.7711 412.613 69.3668 413.542C68.97 414.47 68.678 415.241 68.4908 415.855C68.3111 416.469 68.1015 417.281 67.8619 418.292H65.4698V417.91C65.9639 417.798 66.3607 417.622 66.6602 417.383C66.9597 417.15 67.2292 416.829 67.4688 416.417C67.7084 416.012 68.0079 415.399 68.3672 414.575L69.2432 412.621C68.8165 411.011 68.4234 409.596 68.064 408.376C67.7047 407.155 67.364 406.163 67.0421 405.4C66.8923 405.01 66.7388 404.722 66.5816 404.535C66.4319 404.34 66.2896 404.22 66.1548 404.176C66.0276 404.123 65.8329 404.071 65.5709 404.018ZM75.274 409.33L75.6671 409.353C75.6671 409.495 75.7868 409.727 76.0264 410.049C76.2735 410.371 76.6029 410.663 77.0147 410.925C77.4265 411.18 77.8757 411.307 78.3624 411.307C78.7143 411.307 79.0661 411.232 79.418 411.082C79.7699 410.933 79.9459 410.607 79.9459 410.105C79.9459 409.581 79.7624 409.158 79.3956 408.836C79.0287 408.522 78.6132 408.248 78.149 408.016L77.3067 407.623C76.8126 407.369 76.4195 407.099 76.1275 406.815C75.8355 406.538 75.6895 406.178 75.6895 405.737C75.6895 405.392 75.813 405.033 76.0601 404.658C76.3072 404.277 76.6628 403.962 77.127 403.715C77.5987 403.468 78.1303 403.344 78.7217 403.344C79.0811 403.344 79.6801 403.401 80.5186 403.513L80.8892 405.422H80.4962C80.4288 405.16 80.2715 404.913 80.0245 404.681C79.7849 404.441 79.5004 404.239 79.171 404.074C78.849 403.91 78.572 403.827 78.3399 403.827C77.9431 403.827 77.6212 403.951 77.3741 404.198C77.127 404.445 77.0035 404.76 77.0035 405.141C77.0035 405.448 77.0933 405.692 77.273 405.871C77.4527 406.059 77.7934 406.276 78.295 406.523L78.98 406.848C79.6015 407.14 80.133 407.481 80.5748 407.87C81.0165 408.267 81.2374 408.814 81.2374 409.51C81.2374 409.772 81.1812 410.053 81.0689 410.352C80.9641 410.644 80.8031 410.854 80.586 410.981C79.9646 411.378 79.4517 411.636 79.0474 411.756C78.6431 411.868 78.2313 411.925 77.8121 411.925C77.6623 411.925 77.449 411.906 77.1719 411.868C76.8949 411.831 76.7003 411.801 76.588 411.779C76.4756 411.756 76.281 411.704 76.004 411.621C75.7269 411.539 75.5473 411.487 75.4649 411.464C75.5248 411.165 75.5547 410.951 75.5547 410.824C75.5547 410.637 75.5211 410.382 75.4537 410.06C75.3938 409.731 75.3339 409.488 75.274 409.33ZM83.7193 408.634L83.7755 404.265C83.4311 404.22 83.0305 404.198 82.5738 404.198C82.5888 404.138 82.5963 404.045 82.5963 403.917C83.2476 403.52 83.7567 403.142 84.1236 402.783C84.4905 402.424 84.9247 401.914 85.4263 401.256L85.314 403.277C85.9579 403.337 86.6617 403.367 87.4254 403.367C87.7922 403.367 88.1928 403.359 88.627 403.344L88.6046 404.041C88.2152 404.086 87.8147 404.108 87.4029 404.108C87.3655 404.108 87.2195 404.104 86.9649 404.097C86.7103 404.082 86.3135 404.063 85.7745 404.041C85.6322 404.041 85.5237 404.056 85.4488 404.086C85.3814 404.108 85.3327 404.157 85.3028 404.232C85.2803 404.307 85.2616 404.449 85.2466 404.658C85.2392 404.868 85.2317 405.089 85.2242 405.321L85.168 408.825C85.1531 409.499 85.2279 410.057 85.3926 410.498C85.5648 410.933 85.9729 411.15 86.6168 411.15C86.8638 411.15 87.1671 411.097 87.5264 410.992C87.8933 410.88 88.3126 410.715 88.7842 410.498C88.7992 410.558 88.8067 410.603 88.8067 410.633C88.8142 410.663 88.8217 410.697 88.8292 410.734C88.5671 411.019 88.0842 411.299 87.3804 411.576C86.6841 411.853 86.0552 411.992 85.4937 411.992C85.0071 411.992 84.5878 411.827 84.2359 411.498C83.8915 411.161 83.7193 410.584 83.7193 409.768V408.634ZM91.5694 405.231L90.188 405.849C90.1282 405.609 90.0982 405.433 90.0982 405.321C90.0982 404.939 90.3303 404.587 90.7945 404.265C91.2662 403.936 91.794 403.67 92.378 403.468C92.9695 403.266 93.3812 403.165 93.6133 403.165C93.8155 403.165 94.0663 403.255 94.3658 403.434C94.6653 403.614 94.9048 403.794 95.0845 403.973C95.2418 404.123 95.3616 404.273 95.4439 404.423C95.5338 404.565 95.6124 404.793 95.6797 405.108C95.7471 405.422 95.7808 405.823 95.7808 406.309C95.7808 406.452 95.7621 406.953 95.7247 407.814L95.6797 408.656C95.6498 409.061 95.6348 409.383 95.6348 409.622C95.6348 409.929 95.676 410.259 95.7584 410.611C95.8332 410.97 96.0017 411.15 96.2637 411.15C96.5557 411.15 96.945 411.041 97.4317 410.824V411.284L95.7808 411.947C95.4514 412.059 95.2642 412.115 95.2193 412.115C95.0471 412.115 94.8749 412.003 94.7027 411.779C94.538 411.546 94.4032 411.273 94.2984 410.959C92.9133 411.73 91.8502 412.115 91.1089 412.115C90.6522 412.115 90.3078 411.984 90.0757 411.722C89.8436 411.453 89.7276 411.052 89.7276 410.521C89.7276 410.012 89.7875 409.634 89.9073 409.386C90.0346 409.139 90.2367 408.945 90.5137 408.802C91.0753 408.518 91.6705 408.308 92.2994 408.174C92.9283 408.031 93.5871 407.912 94.2759 407.814L94.3321 406.433V406.062C94.3321 405.426 94.1487 404.924 93.7818 404.557C93.4224 404.183 92.9994 403.996 92.5128 403.996C92.2807 403.996 92.0448 404.063 91.8052 404.198C91.5731 404.325 91.4571 404.509 91.4571 404.748C91.4571 404.868 91.4945 405.029 91.5694 405.231ZM94.231 410.543C94.2086 410.296 94.231 409.592 94.2984 408.432C93.3101 408.365 92.5165 408.484 91.9175 408.791C91.3186 409.098 91.0191 409.484 91.0191 409.948C91.0191 410.285 91.1089 410.603 91.2886 410.903C91.4758 411.202 91.7304 411.352 92.0523 411.352C92.4117 411.352 93.1379 411.082 94.231 410.543ZM97.7349 411.902V411.554C98.2964 411.457 98.6933 411.288 98.9254 411.049C99.1575 410.809 99.3034 410.442 99.3633 409.948C99.4008 409.693 99.442 409.109 99.4869 408.196C99.5318 407.275 99.573 406.223 99.6104 405.04C99.6478 403.857 99.6666 402.794 99.6666 401.851C99.6666 399.874 99.5655 398.747 99.3633 398.47C99.2361 398.283 98.9815 398.19 98.5997 398.19C98.5098 398.19 98.4387 398.193 98.3863 398.201C98.3339 398.208 98.2852 398.216 98.2403 398.223C98.1954 398.231 98.1467 398.238 98.0943 398.246V397.898C99.5243 397.299 100.531 396.793 101.115 396.382H101.452C101.22 397.265 101.074 398.867 101.014 401.188L100.924 406.59C100.924 409.121 100.981 410.554 101.093 410.891C101.16 411.086 101.385 411.236 101.767 411.341C102.148 411.438 102.489 411.502 102.789 411.531V411.947C101.321 411.842 100.333 411.79 99.8238 411.79C99.1425 411.79 98.4462 411.827 97.7349 411.902Z" fill="white"/>
<rect x="86.1568" y="258.976" width="219.408" height="20.2619" rx="6" fill="url(#paint1_linear_9_200)" stroke="#B26B42" stroke-width="2"/>
<path d="M103.841 283.276C103.224 282.642 103.673 281.578 104.558 281.578L294.444 281.579C295.371 281.579 295.799 282.732 295.096 283.337L259.369 314.066C259.187 314.222 258.956 314.308 258.717 314.308L134.481 314.307C134.211 314.307 133.953 314.198 133.765 314.005L103.841 283.276Z" fill="#1F1F1F"/>
<path d="M285.413 161.726C285.413 212.608 244.146 253.857 193.24 253.857C142.334 253.857 101.068 212.608 101.068 161.726C101.068 110.844 142.334 69.5952 193.24 69.5952C244.146 69.5952 285.413 110.844 285.413 161.726Z" fill="#1F1F1F" stroke="#B26B42" stroke-width="3"/>
<path d="M271.002 161.071C271.002 204.359 235.894 239.452 192.585 239.452C149.277 239.452 114.169 204.359 114.169 161.071C114.169 117.783 149.277 82.6905 192.585 82.6905C235.894 82.6905 271.002 117.783 271.002 161.071Z" fill="#1F1F1F" stroke="#B26B42" stroke-width="3"/>
<g filter="url(#filter0_dd_9_200)">
<path d="M216.397 154.376C222.019 165.963 217.18 179.912 205.587 185.532C193.994 191.152 180.039 186.314 174.417 174.726C168.795 163.139 173.634 149.19 185.227 143.57C196.82 137.951 210.775 142.789 216.397 154.376Z" stroke="#B26B42" stroke-width="2" shape-rendering="crispEdges"/>
</g>
<g filter="url(#filter1_dd_9_200)">
<ellipse cx="12.8035" cy="12.8" rx="12.8035" ry="12.8" transform="matrix(0.899843 -0.436215 0.436528 0.899691 180.009 159.213)" fill="#B26B42"/>
</g>
<g filter="url(#filter2_dd_9_200)">
<path d="M237.763 139.751C249.866 164.694 239.447 194.722 214.492 206.819C189.537 218.917 159.497 208.502 147.394 183.559C135.292 158.616 145.71 128.588 170.665 116.491C195.62 104.393 225.661 114.808 237.763 139.751Z" stroke="#B26B42" stroke-width="2" shape-rendering="crispEdges"/>
</g>
<g filter="url(#filter3_dd_9_200)">
<path d="M187.139 136.38C201.021 133.911 217.062 138.546 239.272 149.795C226.861 175.471 213.573 190.053 198.767 193.129C183.989 196.199 167.16 187.901 147.406 166.348C161.322 148.437 173.281 138.844 187.139 136.38Z" stroke="#B26B42" stroke-width="2" shape-rendering="crispEdges"/>
</g>
<g filter="url(#filter4_dd_9_200)">
<path d="M144.553 288.526L147.326 292.965L152.406 291.7L149.04 295.708L151.812 300.146L146.959 298.185L143.593 302.192L143.96 296.972L139.106 295.01L144.186 293.746L144.553 288.526Z" fill="#B26B42"/>
</g>
<g filter="url(#filter5_dd_9_200)">
<path d="M167.26 288.285L167.806 293.49L172.927 294.579L168.144 296.706L168.689 301.91L165.187 298.021L160.404 300.148L163.023 295.617L159.521 291.727L164.642 292.816L167.26 288.285Z" fill="#B26B42"/>
</g>
<g filter="url(#filter6_dd_9_200)">
<path d="M183.14 289.015L186.995 292.555L191.555 289.984L189.378 294.743L193.233 298.283L188.032 297.684L185.855 302.443L184.818 297.314L179.617 296.715L184.177 294.144L183.14 289.015Z" fill="#B26B42"/>
</g>
<g filter="url(#filter7_dd_9_200)">
<path d="M201.666 291.571L206.741 292.855L209.531 288.427L209.878 293.648L214.953 294.932L210.092 296.875L210.438 302.096L207.088 298.076L202.227 300.019L205.017 295.591L201.666 291.571Z" fill="#B26B42"/>
</g>
<g filter="url(#filter8_dd_9_200)">
<path d="M220.99 293.643L226.225 293.625L227.825 288.642L229.461 293.613L234.696 293.595L230.471 296.686L232.107 301.657L227.86 298.596L223.636 301.687L225.236 296.704L220.99 293.643Z" fill="#B26B42"/>
</g>
<g filter="url(#filter9_dd_9_200)">
<path d="M245.134 288.139L248.478 292.165L253.342 290.231L250.545 294.654L253.889 298.68L248.816 297.387L246.018 301.81L245.68 296.588L240.608 295.296L245.472 293.361L245.134 288.139Z" fill="#B26B42"/>
</g>
<line y1="-0.5" x2="51.0907" y2="-0.5" transform="matrix(0.923137 0.38447 -0.384761 0.923016 262.021 220)" stroke="#B26B42"/>
<line y1="-0.5" x2="23.4338" y2="-0.5" transform="matrix(0.894506 0.447055 -0.447372 0.894348 248.92 235.714)" stroke="#B26B42"/>
<line y1="-0.5" x2="16.7746" y2="-0.5" transform="matrix(0.781004 0.624526 -0.624864 0.780734 235.819 244.881)" stroke="#B26B42"/>
<line y1="-0.5" x2="32.3553" y2="-0.5" transform="matrix(0.931298 0.364259 -0.364539 0.931188 273.812 202.976)" stroke="#B26B42"/>
<line y1="-0.5" x2="38.3524" y2="-0.5" transform="matrix(0.990629 0.136578 -0.136697 0.990613 282.983 182.024)" stroke="#B26B42"/>
<line y1="-0.5" x2="39.8448" y2="-0.5" transform="matrix(0.986406 -0.164328 0.16447 0.986382 285.603 162.381)" stroke="#B26B42"/>
<line y1="-0.5" x2="39.2562" y2="-0.5" transform="matrix(0.901077 -0.433659 0.433972 0.900926 282.983 136.19)" stroke="#B26B42"/>
<line y1="-0.5" x2="34.6088" y2="-0.5" transform="matrix(0.870656 -0.491892 0.492223 0.870469 273.812 116.548)" stroke="#B26B42"/>
<line y1="-0.5" x2="24.7159" y2="-0.5" transform="matrix(0.848104 -0.52983 0.530168 0.847893 262.021 100.833)" stroke="#B26B42"/>
<line y1="-0.5" x2="30.5775" y2="-0.5" transform="matrix(0.685526 -0.728048 0.728352 0.685204 243.679 85.1191)" stroke="#B26B42"/>
<line y1="-0.5" x2="44.3177" y2="-0.5" transform="matrix(0.561672 -0.82736 0.827591 0.561331 233.199 79.881)" stroke="#B26B42"/>
<line y1="-0.5" x2="20.4991" y2="-0.5" transform="matrix(0.447372 -0.894348 0.894506 0.447055 222.718 74.6429)" stroke="#B26B42"/>
<line y1="-0.5" x2="19.067" y2="-0.5" transform="matrix(0.274834 -0.961492 0.961556 0.274609 209.617 72.0238)" stroke="#B26B42"/>
<line y1="-0.5" x2="28.8393" y2="-0.5" transform="matrix(0.0454278 -0.998968 0.998969 0.0453876 196.516 68.0952)" stroke="#B26B42"/>
<line y1="-0.5" x2="23.7165" y2="-0.5" transform="matrix(-0.11048 -0.993878 0.993889 -0.110383 179.484 69.4047)" stroke="#B26B42"/>
<line y1="-0.5" x2="36.8778" y2="-0.5" transform="matrix(-0.284204 -0.958764 0.958832 -0.283973 161.143 74.6429)" stroke="#B26B42"/>
<line y1="-0.5" x2="24.0769" y2="-0.5" transform="matrix(-0.380894 -0.924619 0.924737 -0.380605 146.732 82.5)" stroke="#B26B42"/>
<line y1="-0.5" x2="39.2969" y2="-0.5" transform="matrix(-0.800128 -0.59983 0.60017 -0.799872 129.7 94.2858)" stroke="#B26B42"/>
<line y1="-0.5" x2="15.7718" y2="-0.5" transform="matrix(-0.664528 -0.747263 0.747555 -0.664199 137.561 86.4286)" stroke="#B26B42"/>
<line y1="-0.5" x2="18.7564" y2="-0.5" transform="matrix(-0.90803 -0.418905 0.419211 -0.907889 121.84 104.762)" stroke="#B26B42"/>
<line y1="-0.5" x2="22.3859" y2="-0.5" transform="matrix(-0.93638 -0.350987 0.35126 -0.936278 112.669 113.929)" stroke="#B26B42"/>
<line y1="-0.5" x2="17.8187" y2="-0.5" transform="matrix(-0.955816 -0.293967 0.294205 -0.955742 107.429 125.714)" stroke="#B26B42"/>
<line y1="-0.5" x2="27.3548" y2="-0.5" transform="matrix(-0.957861 -0.287231 0.287465 -0.957791 104.808 140.119)" stroke="#B26B42"/>
<line y1="-0.5" x2="40.6976" y2="-0.5" transform="matrix(-0.997927 -0.0643539 0.0644107 -0.997923 100.878 154.524)" stroke="#B26B42"/>
<line x1="100.878" y1="170.738" x2="78.6063" y2="170.738" stroke="#B26B42"/>
<line y1="-0.5" x2="21.3266" y2="-0.5" transform="matrix(-0.982887 0.18421 -0.184367 -0.982857 106.118 185.952)" stroke="#B26B42"/>
<line y1="-0.5" x2="25.3008" y2="-0.5" transform="matrix(-0.932059 0.362307 -0.362586 -0.93195 108.739 199.048)" stroke="#B26B42"/>
<line y1="-0.5" x2="48.3257" y2="-0.5" transform="matrix(-0.840406 0.541957 -0.542297 -0.840187 115.289 212.143)" stroke="#B26B42"/>
<line y1="-0.5" x2="22.5365" y2="-0.5" transform="matrix(-0.813855 0.581068 -0.581409 -0.813612 125.77 223.929)" stroke="#B26B42"/>
<line y1="-0.5" x2="14.8189" y2="-0.5" transform="matrix(-0.707263 0.70695 -0.707263 -0.70695 136.251 233.095)" stroke="#B26B42"/>
<line y1="-0.5" x2="15.9871" y2="-0.5" transform="matrix(-0.573633 0.819112 -0.819351 -0.573292 150.662 243.571)" stroke="#B26B42"/>
<line y1="-0.5" x2="20.3377" y2="-0.5" transform="matrix(0.966263 -0.257556 0.257769 0.966206 285.603 149.286)" stroke="#B26B42"/>
<defs>
<filter id="filter0_dd_9_200" x="167.073" y="140.228" width="56.6684" height="56.6469" filterUnits="userSpaceOnUse" color-interpolation-filters="sRGB">
<feFlood flood-opacity="0" result="BackgroundImageFix"/>
<feColorMatrix in="SourceAlpha" type="matrix" values="0 0 0 0 0 0 0 0 0 0 0 0 0 0 0 0 0 0 127 0" result="hardAlpha"/>
<feOffset dy="4"/>
<feGaussianBlur stdDeviation="2"/>
<feComposite in2="hardAlpha" operator="out"/>
<feColorMatrix type="matrix" values="0 0 0 0 0 0 0 0 0 0 0 0 0 0 0 0 0 0 0.25 0"/>
<feBlend mode="normal" in2="BackgroundImageFix" result="effect1_dropShadow_9_200"/>
<feColorMatrix in="SourceAlpha" type="matrix" values="0 0 0 0 0 0 0 0 0 0 0 0 0 0 0 0 0 0 127 0" result="hardAlpha"/>
<feOffset dy="4"/>
<feGaussianBlur stdDeviation="2"/>
<feComposite in2="hardAlpha" operator="out"/>
<feColorMatrix type="matrix" values="0 0 0 0 0 0 0 0 0 0 0 0 0 0 0 0 0 0 0.25 0"/>
<feBlend mode="normal" in2="effect1_dropShadow_9_200" result="effect2_dropShadow_9_200"/>
<feBlend mode="normal" in="SourceGraphic" in2="effect2_dropShadow_9_200" result="shape"/>
</filter>
<filter id="filter1_dd_9_200" x="180.31" y="152.342" width="33.615" height="33.6036" filterUnits="userSpaceOnUse" color-interpolation-filters="sRGB">
<feFlood flood-opacity="0" result="BackgroundImageFix"/>
<feColorMatrix in="SourceAlpha" type="matrix" values="0 0 0 0 0 0 0 0 0 0 0 0 0 0 0 0 0 0 127 0" result="hardAlpha"/>
<feOffset dy="4"/>
<feGaussianBlur stdDeviation="2"/>
<feComposite in2="hardAlpha" operator="out"/>
<feColorMatrix type="matrix" values="0 0 0 0 0 0 0 0 0 0 0 0 0 0 0 0 0 0 0.25 0"/>
<feBlend mode="normal" in2="BackgroundImageFix" result="effect1_dropShadow_9_200"/>
<feColorMatrix in="SourceAlpha" type="matrix" values="0 0 0 0 0 0 0 0 0 0 0 0 0 0 0 0 0 0 127 0" result="hardAlpha"/>
<feOffset dy="4"/>
<feGaussianBlur stdDeviation="2"/>
<feComposite in2="hardAlpha" operator="out"/>
<feColorMatrix type="matrix" values="0 0 0 0 0 0 0 0 0 0 0 0 0 0 0 0 0 0 0.25 0"/>
<feBlend mode="normal" in2="effect1_dropShadow_9_200" result="effect2_dropShadow_9_200"/>
<feBlend mode="normal" in="SourceGraphic" in2="effect2_dropShadow_9_200" result="shape"/>
</filter>
<filter id="filter2_dd_9_200" x="137.349" y="110.448" width="110.46" height="110.414" filterUnits="userSpaceOnUse" color-interpolation-filters="sRGB">
<feFlood flood-opacity="0" result="BackgroundImageFix"/>
<feColorMatrix in="SourceAlpha" type="matrix" values="0 0 0 0 0 0 0 0 0 0 0 0 0 0 0 0 0 0 127 0" result="hardAlpha"/>
<feOffset dy="4"/>
<feGaussianBlur stdDeviation="2"/>
<feComposite in2="hardAlpha" operator="out"/>
<feColorMatrix type="matrix" values="0 0 0 0 0 0 0 0 0 0 0 0 0 0 0 0 0 0 0.25 0"/>
<feBlend mode="normal" in2="BackgroundImageFix" result="effect1_dropShadow_9_200"/>
<feColorMatrix in="SourceAlpha" type="matrix" values="0 0 0 0 0 0 0 0 0 0 0 0 0 0 0 0 0 0 127 0" result="hardAlpha"/>
<feOffset dy="4"/>
<feGaussianBlur stdDeviation="2"/>
<feComposite in2="hardAlpha" operator="out"/>
<feColorMatrix type="matrix" values="0 0 0 0 0 0 0 0 0 0 0 0 0 0 0 0 0 0 0.25 0"/>
<feBlend mode="normal" in2="effect1_dropShadow_9_200" result="effect2_dropShadow_9_200"/>
<feBlend mode="normal" in="SourceGraphic" in2="effect2_dropShadow_9_200" result="shape"/>
</filter>
<filter id="filter3_dd_9_200" x="142.101" y="134.734" width="102.496" height="68.0137" filterUnits="userSpaceOnUse" color-interpolation-filters="sRGB">
<feFlood flood-opacity="0" result="BackgroundImageFix"/>
<feColorMatrix in="SourceAlpha" type="matrix" values="0 0 0 0 0 0 0 0 0 0 0 0 0 0 0 0 0 0 127 0" result="hardAlpha"/>
<feOffset dy="4"/>
<feGaussianBlur stdDeviation="2"/>
<feComposite in2="hardAlpha" operator="out"/>
<feColorMatrix type="matrix" values="0 0 0 0 0 0 0 0 0 0 0 0 0 0 0 0 0 0 0.25 0"/>
<feBlend mode="normal" in2="BackgroundImageFix" result="effect1_dropShadow_9_200"/>
<feColorMatrix in="SourceAlpha" type="matrix" values="0 0 0 0 0 0 0 0 0 0 0 0 0 0 0 0 0 0 127 0" result="hardAlpha"/>
<feOffset dy="4"/>
<feGaussianBlur stdDeviation="2"/>
<feComposite in2="hardAlpha" operator="out"/>
<feColorMatrix type="matrix" values="0 0 0 0 0 0 0 0 0 0 0 0 0 0 0 0 0 0 0.25 0"/>
<feBlend mode="normal" in2="effect1_dropShadow_9_200" result="effect2_dropShadow_9_200"/>
<feBlend mode="normal" in="SourceGraphic" in2="effect2_dropShadow_9_200" result="shape"/>
</filter>
<filter id="filter4_dd_9_200" x="135.106" y="288.526" width="21.2997" height="21.6661" filterUnits="userSpaceOnUse" color-interpolation-filters="sRGB">
<feFlood flood-opacity="0" result="BackgroundImageFix"/>
<feColorMatrix in="SourceAlpha" type="matrix" values="0 0 0 0 0 0 0 0 0 0 0 0 0 0 0 0 0 0 127 0" result="hardAlpha"/>
<feOffset dy="4"/>
<feGaussianBlur stdDeviation="2"/>
<feComposite in2="hardAlpha" operator="out"/>
<feColorMatrix type="matrix" values="0 0 0 0 0 0 0 0 0 0 0 0 0 0 0 0 0 0 0.25 0"/>
<feBlend mode="normal" in2="BackgroundImageFix" result="effect1_dropShadow_9_200"/>
<feColorMatrix in="SourceAlpha" type="matrix" values="0 0 0 0 0 0 0 0 0 0 0 0 0 0 0 0 0 0 127 0" result="hardAlpha"/>
<feOffset dy="4"/>
<feGaussianBlur stdDeviation="2"/>
<feComposite in2="hardAlpha" operator="out"/>
<feColorMatrix type="matrix" values="0 0 0 0 0 0 0 0 0 0 0 0 0 0 0 0 0 0 0.25 0"/>
<feBlend mode="normal" in2="effect1_dropShadow_9_200" result="effect2_dropShadow_9_200"/>
<feBlend mode="normal" in="SourceGraphic" in2="effect2_dropShadow_9_200" result="shape"/>
</filter>
<filter id="filter5_dd_9_200" x="155.521" y="288.285" width="21.4055" height="21.6251" filterUnits="userSpaceOnUse" color-interpolation-filters="sRGB">
<feFlood flood-opacity="0" result="BackgroundImageFix"/>
<feColorMatrix in="SourceAlpha" type="matrix" values="0 0 0 0 0 0 0 0 0 0 0 0 0 0 0 0 0 0 127 0" result="hardAlpha"/>
<feOffset dy="4"/>
<feGaussianBlur stdDeviation="2"/>
<feComposite in2="hardAlpha" operator="out"/>
<feColorMatrix type="matrix" values="0 0 0 0 0 0 0 0 0 0 0 0 0 0 0 0 0 0 0.25 0"/>
<feBlend mode="normal" in2="BackgroundImageFix" result="effect1_dropShadow_9_200"/>
<feColorMatrix in="SourceAlpha" type="matrix" values="0 0 0 0 0 0 0 0 0 0 0 0 0 0 0 0 0 0 127 0" result="hardAlpha"/>
<feOffset dy="4"/>
<feGaussianBlur stdDeviation="2"/>
<feComposite in2="hardAlpha" operator="out"/>
<feColorMatrix type="matrix" values="0 0 0 0 0 0 0 0 0 0 0 0 0 0 0 0 0 0 0.25 0"/>
<feBlend mode="normal" in2="effect1_dropShadow_9_200" result="effect2_dropShadow_9_200"/>
<feBlend mode="normal" in="SourceGraphic" in2="effect2_dropShadow_9_200" result="shape"/>
</filter>
<filter id="filter6_dd_9_200" x="175.617" y="289.015" width="21.6157" height="21.4283" filterUnits="userSpaceOnUse" color-interpolation-filters="sRGB">
<feFlood flood-opacity="0" result="BackgroundImageFix"/>
<feColorMatrix in="SourceAlpha" type="matrix" values="0 0 0 0 0 0 0 0 0 0 0 0 0 0 0 0 0 0 127 0" result="hardAlpha"/>
<feOffset dy="4"/>
<feGaussianBlur stdDeviation="2"/>
<feComposite in2="hardAlpha" operator="out"/>
<feColorMatrix type="matrix" values="0 0 0 0 0 0 0 0 0 0 0 0 0 0 0 0 0 0 0.25 0"/>
<feBlend mode="normal" in2="BackgroundImageFix" result="effect1_dropShadow_9_200"/>
<feColorMatrix in="SourceAlpha" type="matrix" values="0 0 0 0 0 0 0 0 0 0 0 0 0 0 0 0 0 0 127 0" result="hardAlpha"/>
<feOffset dy="4"/>
<feGaussianBlur stdDeviation="2"/>
<feComposite in2="hardAlpha" operator="out"/>
<feColorMatrix type="matrix" values="0 0 0 0 0 0 0 0 0 0 0 0 0 0 0 0 0 0 0.25 0"/>
<feBlend mode="normal" in2="effect1_dropShadow_9_200" result="effect2_dropShadow_9_200"/>
<feBlend mode="normal" in="SourceGraphic" in2="effect2_dropShadow_9_200" result="shape"/>
</filter>
<filter id="filter7_dd_9_200" x="197.666" y="288.427" width="21.2869" height="21.6697" filterUnits="userSpaceOnUse" color-interpolation-filters="sRGB">
<feFlood flood-opacity="0" result="BackgroundImageFix"/>
<feColorMatrix in="SourceAlpha" type="matrix" values="0 0 0 0 0 0 0 0 0 0 0 0 0 0 0 0 0 0 127 0" result="hardAlpha"/>
<feOffset dy="4"/>
<feGaussianBlur stdDeviation="2"/>
<feComposite in2="hardAlpha" operator="out"/>
<feColorMatrix type="matrix" values="0 0 0 0 0 0 0 0 0 0 0 0 0 0 0 0 0 0 0.25 0"/>
<feBlend mode="normal" in2="BackgroundImageFix" result="effect1_dropShadow_9_200"/>
<feColorMatrix in="SourceAlpha" type="matrix" values="0 0 0 0 0 0 0 0 0 0 0 0 0 0 0 0 0 0 127 0" result="hardAlpha"/>
<feOffset dy="4"/>
<feGaussianBlur stdDeviation="2"/>
<feComposite in2="hardAlpha" operator="out"/>
<feColorMatrix type="matrix" values="0 0 0 0 0 0 0 0 0 0 0 0 0 0 0 0 0 0 0.25 0"/>
<feBlend mode="normal" in2="effect1_dropShadow_9_200" result="effect2_dropShadow_9_200"/>
<feBlend mode="normal" in="SourceGraphic" in2="effect2_dropShadow_9_200" result="shape"/>
</filter>
<filter id="filter8_dd_9_200" x="216.99" y="288.642" width="21.7057" height="21.0441" filterUnits="userSpaceOnUse" color-interpolation-filters="sRGB">
<feFlood flood-opacity="0" result="BackgroundImageFix"/>
<feColorMatrix in="SourceAlpha" type="matrix" values="0 0 0 0 0 0 0 0 0 0 0 0 0 0 0 0 0 0 127 0" result="hardAlpha"/>
<feOffset dy="4"/>
<feGaussianBlur stdDeviation="2"/>
<feComposite in2="hardAlpha" operator="out"/>
<feColorMatrix type="matrix" values="0 0 0 0 0 0 0 0 0 0 0 0 0 0 0 0 0 0 0.25 0"/>
<feBlend mode="normal" in2="BackgroundImageFix" result="effect1_dropShadow_9_200"/>
<feColorMatrix in="SourceAlpha" type="matrix" values="0 0 0 0 0 0 0 0 0 0 0 0 0 0 0 0 0 0 127 0" result="hardAlpha"/>
<feOffset dy="4"/>
<feGaussianBlur stdDeviation="2"/>
<feComposite in2="hardAlpha" operator="out"/>
<feColorMatrix type="matrix" values="0 0 0 0 0 0 0 0 0 0 0 0 0 0 0 0 0 0 0.25 0"/>
<feBlend mode="normal" in2="effect1_dropShadow_9_200" result="effect2_dropShadow_9_200"/>
<feBlend mode="normal" in="SourceGraphic" in2="effect2_dropShadow_9_200" result="shape"/>
</filter>
<filter id="filter9_dd_9_200" x="236.608" y="288.139" width="21.2811" height="21.6712" filterUnits="userSpaceOnUse" color-interpolation-filters="sRGB">
<feFlood flood-opacity="0" result="BackgroundImageFix"/>
<feColorMatrix in="SourceAlpha" type="matrix" values="0 0 0 0 0 0 0 0 0 0 0 0 0 0 0 0 0 0 127 0" result="hardAlpha"/>
<feOffset dy="4"/>
<feGaussianBlur stdDeviation="2"/>
<feComposite in2="hardAlpha" operator="out"/>
<feColorMatrix type="matrix" values="0 0 0 0 0 0 0 0 0 0 0 0 0 0 0 0 0 0 0.25 0"/>
<feBlend mode="normal" in2="BackgroundImageFix" result="effect1_dropShadow_9_200"/>
<feColorMatrix in="SourceAlpha" type="matrix" values="0 0 0 0 0 0 0 0 0 0 0 0 0 0 0 0 0 0 127 0" result="hardAlpha"/>
<feOffset dy="4"/>
<feGaussianBlur stdDeviation="2"/>
<feComposite in2="hardAlpha" operator="out"/>
<feColorMatrix type="matrix" values="0 0 0 0 0 0 0 0 0 0 0 0 0 0 0 0 0 0 0.25 0"/>
<feBlend mode="normal" in2="effect1_dropShadow_9_200" result="effect2_dropShadow_9_200"/>
<feBlend mode="normal" in="SourceGraphic" in2="effect2_dropShadow_9_200" result="shape"/>
</filter>
<radialGradient id="paint0_radial_9_200" cx="0" cy="0" r="1" gradientUnits="userSpaceOnUse" gradientTransform="translate(189.965 196.429) rotate(90) scale(184.643 154.592)">
<stop stop-color="#B26B42"/>
<stop offset="0.0001" stop-color="#B26B42" stop-opacity="0.395"/>
<stop offset="0.675" stop-color="#B26B42" stop-opacity="0.325"/>
<stop offset="1" stop-color="#B26B42" stop-opacity="0"/>
</radialGradient>
<linearGradient id="paint1_linear_9_200" x1="85.1568" y1="269.107" x2="306.564" y2="269.107" gradientUnits="userSpaceOnUse">
<stop offset="1" stop-color="#1E1A18"/>
</linearGradient>
</defs>
</svg>
