<?xml version="1.0" encoding="UTF-8"?>
<!DOCTYPE svg PUBLIC "-//W3C//DTD SVG 1.1//EN" "http://www.w3.org/Graphics/SVG/1.1/DTD/svg11.dtd">
<svg xmlns="http://www.w3.org/2000/svg" version="1.1" width="368px" height="367px" style="shape-rendering:geometricPrecision; text-rendering:geometricPrecision; image-rendering:optimizeQuality; fill-rule:evenodd; clip-rule:evenodd" xmlns:xlink="http://www.w3.org/1999/xlink">
<g><path style="opacity:0.996" fill="#fee6c4" d="M 107.5,-0.5 C 110.167,-0.5 112.833,-0.5 115.5,-0.5C 116.836,1.01027 118.003,2.67694 119,4.5C 121.682,2.41499 124.516,0.748322 127.5,-0.5C 142.833,-0.5 158.167,-0.5 173.5,-0.5C 176.653,0.995157 179.819,2.66182 183,4.5C 184.025,2.31305 185.525,0.646381 187.5,-0.5C 189.5,-0.5 191.5,-0.5 193.5,-0.5C 200.115,5.37296 200.115,11.373 193.5,17.5C 215.832,58.3348 242.998,95.6681 275,129.5C 315.738,180.966 346.572,237.966 367.5,300.5C 367.5,309.833 367.5,319.167 367.5,328.5C 362.601,348.399 350.267,361.066 330.5,366.5C 291.167,366.5 251.833,366.5 212.5,366.5C 197.454,363.868 186.62,355.535 180,341.5C 176.76,333.357 173.26,325.357 169.5,317.5C 164.014,305.193 158.514,292.859 153,280.5C 150.902,274.374 151.236,268.374 154,262.5C 156.333,266.5 158.667,270.5 161,274.5C 161.667,273.167 161.667,271.833 161,270.5C 158.181,266.876 156.514,262.876 156,258.5C 158.714,255.449 161.714,252.782 165,250.5C 167.49,254.137 169.99,257.803 172.5,261.5C 172.833,261.167 173.167,260.833 173.5,260.5C 171.246,256.993 169.246,253.327 167.5,249.5C 168.381,248.029 169.714,247.196 171.5,247C 175.495,245.639 179.495,245.473 183.5,246.5C 184.68,249.54 186.347,252.206 188.5,254.5C 188.833,254.167 189.167,253.833 189.5,253.5C 187.342,250.852 186.008,247.852 185.5,244.5C 191.025,243.071 196.025,240.571 200.5,237C 210.548,228.035 219.048,217.868 226,206.5C 236.644,194.928 249.811,188.261 265.5,186.5C 261.135,185.298 256.802,185.465 252.5,187C 233.914,194.917 219.748,207.751 210,225.5C 203.688,232.149 196.521,237.649 188.5,242C 175.052,241.808 163.885,246.641 155,256.5C 150.44,262.84 148.773,269.84 150,277.5C 155.668,291.494 161.835,305.161 168.5,318.5C 167.5,322.5 166.5,326.5 165.5,330.5C 162.075,339.346 157.575,347.679 152,355.5C 148.707,358.787 144.873,361.287 140.5,363C 124.879,364.586 109.213,364.919 93.5,364C 91.6667,363.5 90.5,362.333 90,360.5C 88.5951,356.928 88.2617,353.261 89,349.5C 101.052,325.677 109.719,300.677 115,274.5C 118.156,260.221 120.989,245.887 123.5,231.5C 125.247,220.524 126.914,209.524 128.5,198.5C 127.833,194.5 127.167,194.5 126.5,198.5C 125.504,204.47 124.837,210.47 124.5,216.5C 118.858,215.182 113.525,213.015 108.5,210C 100.733,205.392 93.3995,200.225 86.5,194.5C 66.6195,176.779 51.1195,155.779 40,131.5C 31.8343,112.833 24.501,93.833 18,74.5C 16.5328,67.2225 16.1994,59.8892 17,52.5C 17.3736,50.5087 18.207,48.842 19.5,47.5C 22.0905,41.9078 26.0905,37.5744 31.5,34.5C 42.4188,24.6785 53.7521,24.1785 65.5,33C 69.7229,38.2239 73.5563,43.7239 77,49.5C 84.728,65.9561 92.728,82.2895 101,98.5C 103.56,71.4365 106.393,44.4365 109.5,17.5C 102.504,12.1937 101.837,6.19367 107.5,-0.5 Z"/></g>
<g><path style="opacity:1" fill="#333231" d="M 123.5,13.5 C 125.144,13.2865 126.644,13.6198 128,14.5C 128.667,18.5 128.667,22.5 128,26.5C 126.333,27.8333 124.667,27.8333 123,26.5C 122.232,22.0804 122.398,17.7471 123.5,13.5 Z"/></g>
<g><path style="opacity:1" fill="#393735" d="M 152.5,13.5 C 154.722,13.178 156.556,13.8446 158,15.5C 158.667,18.8333 158.667,22.1667 158,25.5C 156,28.1667 154,28.1667 152,25.5C 151.238,21.4126 151.404,17.4126 152.5,13.5 Z"/></g>
<g><path style="opacity:1" fill="#343332" d="M 147.5,28.5 C 144.999,28.5109 144.832,29.1776 147,30.5C 147.667,34.1667 147.667,37.8333 147,41.5C 143.011,46.3557 138.678,46.689 134,42.5C 132.539,38.1212 132.039,33.7879 132.5,29.5C 129.651,31.0119 127.984,33.3452 127.5,36.5C 126.833,36.5 126.5,36.1667 126.5,35.5C 127.585,31.2462 130.252,28.4129 134.5,27C 138.167,26.3333 141.833,26.3333 145.5,27C 146.416,27.2784 147.082,27.7784 147.5,28.5 Z"/></g>
<g><path style="opacity:1" fill="#3d3b38" d="M 47.5,27.5 C 51.0298,31.5582 53.1965,36.2249 54,41.5C 51.0118,37.1915 48.8451,32.5249 47.5,27.5 Z"/></g>
<g><path style="opacity:1" fill="#fbe3c2" d="M 147.5,28.5 C 149.555,30.5549 151.221,32.8883 152.5,35.5C 152.5,41.5 152.5,47.5 152.5,53.5C 150.643,59.5268 146.477,62.5268 140,62.5C 132.68,61.6786 128.513,57.6786 127.5,50.5C 127.5,45.8333 127.5,41.1667 127.5,36.5C 127.984,33.3452 129.651,31.0119 132.5,29.5C 132.039,33.7879 132.539,38.1212 134,42.5C 138.678,46.689 143.011,46.3557 147,41.5C 147.667,37.8333 147.667,34.1667 147,30.5C 144.832,29.1776 144.999,28.5109 147.5,28.5 Z"/></g>
<g><path style="opacity:1" fill="#534e48" d="M 147.5,28.5 C 150.908,29.5778 152.908,31.9111 153.5,35.5C 153.167,35.5 152.833,35.5 152.5,35.5C 151.221,32.8883 149.555,30.5549 147.5,28.5 Z"/></g>
<g><path style="opacity:1" fill="#988c7a" d="M 126.5,35.5 C 126.5,36.1667 126.833,36.5 127.5,36.5C 127.5,41.1667 127.5,45.8333 127.5,50.5C 126.833,46.1667 126.167,41.8333 125.5,37.5C 125.328,36.5084 125.662,35.8417 126.5,35.5 Z"/></g>
<g><path style="opacity:1" fill="#59544c" d="M 125.5,37.5 C 126.167,41.8333 126.833,46.1667 127.5,50.5C 128.513,57.6786 132.68,61.6786 140,62.5C 146.477,62.5268 150.643,59.5268 152.5,53.5C 152.833,53.5 153.167,53.5 153.5,53.5C 152.844,58.287 150.178,61.4536 145.5,63C 137.198,65.5369 131.032,63.0369 127,55.5C 125.639,49.5933 125.139,43.5933 125.5,37.5 Z"/></g>
<g><path style="opacity:1" fill="#8a7f70" d="M 152.5,35.5 C 152.833,35.5 153.167,35.5 153.5,35.5C 154.833,41.5 154.833,47.5 153.5,53.5C 153.167,53.5 152.833,53.5 152.5,53.5C 152.5,47.5 152.5,41.5 152.5,35.5 Z"/></g>
<g><path style="opacity:1" fill="#3e3c39" d="M 31.5,34.5 C 34.2254,38.2676 36.7254,42.2676 39,46.5C 39.6877,47.3317 39.521,47.9984 38.5,48.5C 35.1129,44.3925 32.7796,39.7259 31.5,34.5 Z"/></g>
<g><path style="opacity:1" fill="#3f3c39" d="M 19.5,47.5 C 20.4959,47.4142 21.3292,47.7476 22,48.5C 24.5684,52.6118 26.2351,56.9452 27,61.5C 24.233,56.9654 21.733,52.2987 19.5,47.5 Z"/></g>
<g><path style="opacity:1" fill="#484440" d="M 100.5,100.5 C 103.998,103.092 106.831,106.425 109,110.5C 115.048,116.37 120.548,122.036 125.5,127.5C 114.689,120.693 106.356,111.693 100.5,100.5 Z"/></g>
<g><path style="opacity:1" fill="#343331" d="M 86.5,194.5 C 93.3995,200.225 100.733,205.392 108.5,210C 113.525,213.015 118.858,215.182 124.5,216.5C 124.837,210.47 125.504,204.47 126.5,198.5C 127.167,194.5 127.833,194.5 128.5,198.5C 126.914,209.524 125.247,220.524 123.5,231.5C 122.596,230.791 122.263,229.791 122.5,228.5C 122.756,226.208 122.423,224.041 121.5,222C 107.307,216.078 94.6408,207.912 83.5,197.5C 84.6935,196.728 85.6935,195.728 86.5,194.5 Z"/></g>
<g><path style="opacity:0.993" fill="#fde6c4" d="M 83.5,197.5 C 94.6408,207.912 107.307,216.078 121.5,222C 122.423,224.041 122.756,226.208 122.5,228.5C 117.162,258.807 109.996,288.807 101,318.5C 96.3333,329.167 91.6667,339.833 87,350.5C 85.9531,356.86 87.7864,362.193 92.5,366.5C 79.5,366.5 66.5,366.5 53.5,366.5C 44.9087,363.615 37.742,358.615 32,351.5C 21.0468,327.44 10.2135,303.44 -0.5,279.5C -0.5,275.167 -0.5,270.833 -0.5,266.5C 0.312714,264.739 1.31271,263.072 2.5,261.5C 4.87618,256.285 8.54284,252.118 13.5,249C 21.2556,246.149 29.2556,244.149 37.5,243C 52,235.167 63.1667,224 71,209.5C 75.0621,205.269 79.2288,201.269 83.5,197.5 Z"/></g>
<g><path style="opacity:1" fill="#45423e" d="M 32.5,245.5 C 34.5576,247.927 36.3909,250.593 38,253.5C 38.6877,254.332 38.521,254.998 37.5,255.5C 34.7797,252.726 33.1131,249.393 32.5,245.5 Z"/></g>
<g><path style="opacity:1" fill="#3f3c39" d="M 14.5,249.5 C 17.8679,253.202 20.5346,257.536 22.5,262.5C 22.1667,262.833 21.8333,263.167 21.5,263.5C 18.6284,259.09 16.2951,254.423 14.5,249.5 Z"/></g>
<g><path style="opacity:1" fill="#403e3b" d="M 169.5,317.5 C 168.833,317.5 168.5,317.833 168.5,318.5C 161.835,305.161 155.668,291.494 150,277.5C 148.773,269.84 150.44,262.84 155,256.5C 163.885,246.641 175.052,241.808 188.5,242C 196.521,237.649 203.688,232.149 210,225.5C 219.748,207.751 233.914,194.917 252.5,187C 256.802,185.465 261.135,185.298 265.5,186.5C 249.811,188.261 236.644,194.928 226,206.5C 219.048,217.868 210.548,228.035 200.5,237C 196.025,240.571 191.025,243.071 185.5,244.5C 186.008,247.852 187.342,250.852 189.5,253.5C 189.167,253.833 188.833,254.167 188.5,254.5C 186.347,252.206 184.68,249.54 183.5,246.5C 179.495,245.473 175.495,245.639 171.5,247C 169.714,247.196 168.381,248.029 167.5,249.5C 169.246,253.327 171.246,256.993 173.5,260.5C 173.167,260.833 172.833,261.167 172.5,261.5C 169.99,257.803 167.49,254.137 165,250.5C 161.714,252.782 158.714,255.449 156,258.5C 156.514,262.876 158.181,266.876 161,270.5C 161.667,271.833 161.667,273.167 161,274.5C 158.667,270.5 156.333,266.5 154,262.5C 151.236,268.374 150.902,274.374 153,280.5C 158.514,292.859 164.014,305.193 169.5,317.5 Z"/></g>
<g><path style="opacity:1" fill="#3d3b38" d="M 2.5,261.5 C 3.4959,261.414 4.32924,261.748 5,262.5C 7.56843,266.612 9.23509,270.945 10,275.5C 7.23299,270.965 4.73299,266.299 2.5,261.5 Z"/></g>
<g><path style="opacity:1" fill="#423f3c" d="M 201.5,282.5 C 208.481,294.456 214.981,306.789 221,319.5C 224.048,332.242 220.214,342.408 209.5,350C 200.175,354.501 192.841,352.334 187.5,343.5C 188.002,342.479 188.668,342.312 189.5,343C 193.76,350.126 199.76,352.126 207.5,349C 218.458,341.92 222.292,332.087 219,319.5C 212.45,307.467 206.617,295.133 201.5,282.5 Z"/></g>
<g><path style="opacity:1" fill="#3f3c39" d="M 122.5,228.5 C 122.263,229.791 122.596,230.791 123.5,231.5C 120.989,245.887 118.156,260.221 115,274.5C 109.719,300.677 101.052,325.677 89,349.5C 88.2617,353.261 88.5951,356.928 90,360.5C 90.5,362.333 91.6667,363.5 93.5,364C 109.213,364.919 124.879,364.586 140.5,363C 144.873,361.287 148.707,358.787 152,355.5C 157.575,347.679 162.075,339.346 165.5,330.5C 165.5,331.167 165.833,331.5 166.5,331.5C 163.173,342.991 157.173,352.825 148.5,361C 143.361,363.774 138.028,365.607 132.5,366.5C 119.167,366.5 105.833,366.5 92.5,366.5C 87.7864,362.193 85.9531,356.86 87,350.5C 91.6667,339.833 96.3333,329.167 101,318.5C 109.996,288.807 117.162,258.807 122.5,228.5 Z"/></g>
<g><path style="opacity:1" fill="#302f2f" d="M 169.5,317.5 C 173.26,325.357 176.76,333.357 180,341.5C 186.62,355.535 197.454,363.868 212.5,366.5C 202.5,366.5 192.5,366.5 182.5,366.5C 177.934,354.376 172.601,342.709 166.5,331.5C 165.833,331.5 165.5,331.167 165.5,330.5C 166.5,326.5 167.5,322.5 168.5,318.5C 168.5,317.833 168.833,317.5 169.5,317.5 Z"/></g>
<g><path style="opacity:1" fill="#fae3c1" d="M 166.5,331.5 C 172.601,342.709 177.934,354.376 182.5,366.5C 165.833,366.5 149.167,366.5 132.5,366.5C 138.028,365.607 143.361,363.774 148.5,361C 157.173,352.825 163.173,342.991 166.5,331.5 Z"/></g>
<g><path style="opacity:1" fill="#3c3a38" d="M 49.5,282.5 C 50.4959,282.414 51.3292,282.748 52,283.5C 56.8061,294.446 62.1394,305.112 68,315.5C 74.0225,329.112 71.1892,340.612 59.5,350C 51.3411,354.264 44.1744,353.098 38,346.5C 37.3333,345.5 37.3333,344.5 38,343.5C 42.0166,350.138 47.8499,352.304 55.5,350C 68.465,342.44 72.2983,331.607 67,317.5C 60.6284,306.09 54.7951,294.423 49.5,282.5 Z"/></g>
</svg>
