<?xml version="1.0" standalone="no"?>
<!DOCTYPE svg PUBLIC "-//W3C//DTD SVG 20010904//EN"
 "http://www.w3.org/TR/2001/REC-SVG-20010904/DTD/svg10.dtd">
<svg version="1.0" xmlns="http://www.w3.org/2000/svg"
 width="368.000000pt" height="368.000000pt" viewBox="0 0 368.000000 368.000000"
 preserveAspectRatio="xMidYMid meet">

<g transform="translate(0.000000,368.000000) scale(0.100000,-0.100000)"
fill="#000000" stroke="none">
<path d="M2300 3358 c-46 -25 -37 -45 24 -58 30 -6 74 -10 98 -8 35 2 44 7 46
25 4 28 -20 41 -89 48 -36 4 -63 1 -79 -7z"/>
<path d="M1266 2884 c-26 -20 -46 -40 -44 -45 4 -12 188 -18 188 -6 0 5 -12
26 -27 48 -35 49 -57 49 -117 3z"/>
<path d="M1145 2765 l-30 -30 28 -3 c36 -4 39 -1 35 35 l-3 28 -30 -30z"/>
<path d="M1225 1766 c-89 -41 -141 -122 -133 -211 3 -39 4 -40 63 -58 68 -21
245 -47 322 -47 64 0 77 17 77 105 0 175 -172 285 -329 211z"/>
<path d="M2280 1777 c-49 -16 -123 -93 -138 -143 -15 -52 -15 -111 -1 -154
l12 -33 105 7 c106 7 211 24 292 48 40 12 45 17 48 45 12 122 -106 245 -232
242 -28 -1 -67 -6 -86 -12z"/>
<path d="M1375 1113 c11 -48 43 -106 91 -166 36 -44 49 -55 56 -45 8 10 9 9 5
-4 -3 -9 3 -24 13 -33 19 -17 20 -17 39 6 19 24 21 24 243 27 236 3 273 -2
286 -39 8 -21 9 -21 45 11 56 48 135 159 153 213 9 27 14 51 11 54 -3 3 -21
-7 -40 -21 -61 -46 -142 -69 -224 -63 -70 5 -73 5 -85 -20 -45 -91 -206 -95
-248 -7 l-15 32 -70 -5 c-79 -5 -164 18 -221 62 -42 32 -48 31 -39 -2z m783
-228 c-3 -3 -9 2 -12 12 -6 14 -5 15 5 6 7 -7 10 -15 7 -18z"/>
</g>
</svg>
