<?xml version="1.0" encoding="UTF-8"?>
<!DOCTYPE svg PUBLIC "-//W3C//DTD SVG 1.1//EN" "http://www.w3.org/Graphics/SVG/1.1/DTD/svg11.dtd">
<svg xmlns="http://www.w3.org/2000/svg" version="1.1" width="368px" height="368px" style="shape-rendering:geometricPrecision; text-rendering:geometricPrecision; image-rendering:optimizeQuality; fill-rule:evenodd; clip-rule:evenodd" xmlns:xlink="http://www.w3.org/1999/xlink">
<g><path style="opacity:0.943" fill="#020101" d="M 174.5,10.5 C 181.759,10.1855 188.759,11.3522 195.5,14C 198.373,17.5772 200.873,21.4106 203,25.5C 206.095,16.8639 212.262,12.5306 221.5,12.5C 226.982,12.7786 232.149,14.1119 237,16.5C 240.125,23.9961 242.792,31.6628 245,39.5C 245.886,51.8418 241.719,62.0084 232.5,70C 230.564,70.813 228.564,71.313 226.5,71.5C 224.44,79.7036 223.106,88.037 222.5,96.5C 235.176,98.1681 247.843,100.001 260.5,102C 274.798,107.633 284.298,117.799 289,132.5C 289.828,137.976 291.161,143.309 293,148.5C 294.911,142.028 296.244,135.361 297,128.5C 298.933,119.928 297.267,112.262 292,105.5C 285.145,99.7341 278.478,93.7341 272,87.5C 263.975,74.8965 259.808,61.0631 259.5,46C 260.496,39.3457 262.496,33.0124 265.5,27C 264.199,25.0608 264.865,23.8942 267.5,23.5C 272.186,23.9494 276.519,25.4494 280.5,28C 286,33.5 291.5,39 297,44.5C 300.588,50.6754 303.922,57.0087 307,63.5C 313.432,57.0615 320.432,51.3948 328,46.5C 331.915,47.0501 335.748,47.8834 339.5,49C 340.167,51 340.833,53 341.5,55C 339.585,58.7273 338.918,62.5606 339.5,66.5C 337.994,76.854 335.161,86.854 331,96.5C 328.017,101.801 324.684,106.801 321,111.5C 320.691,136.434 316.358,160.768 308,184.5C 305.423,190.66 302.09,196.327 298,201.5C 297.73,204.224 297.23,206.891 296.5,209.5C 296.653,219.804 296.986,230.137 297.5,240.5C 303.524,244.357 308.357,249.357 312,255.5C 315.123,262.985 317.79,270.651 320,278.5C 320.866,285.963 322.366,293.296 324.5,300.5C 323.559,305.146 322.726,309.813 322,314.5C 318.205,323.434 312.372,325.267 304.5,320C 298.578,315.257 295.078,309.091 294,301.5C 292.99,294.437 291.656,287.437 290,280.5C 287.708,274.382 284.541,273.549 280.5,278C 281.667,279.167 282.833,280.333 284,281.5C 288.744,295.576 288.578,309.576 283.5,323.5C 285.512,332.935 283.179,341.101 276.5,348C 274.167,348.667 271.833,348.667 269.5,348C 267.667,345.5 265.833,343 264,340.5C 261.094,324.505 258.427,308.505 256,292.5C 236.557,298.326 216.724,302.492 196.5,305C 176.423,305.66 156.423,303.66 136.5,299C 128.605,297.147 121.105,294.314 114,290.5C 111.763,292.647 109.763,294.98 108,297.5C 104.34,305.132 100.674,312.798 97,320.5C 95.7889,326.606 95.1223,332.606 95,338.5C 91.7728,346.223 86.6061,352.223 79.5,356.5C 74.9668,355.468 71.8001,352.801 70,348.5C 67.2653,343.129 65.432,337.463 64.5,331.5C 66.5966,318.113 70.0966,305.113 75,292.5C 77.6364,288.521 80.3031,284.521 83,280.5C 90.6505,276.129 90.3172,272.463 82,269.5C 80.0561,270.439 78.3894,271.773 77,273.5C 74.8611,278.916 72.5278,284.249 70,289.5C 69,290.5 68,291.5 67,292.5C 65.1047,298.34 64.1047,304.34 64,310.5C 61.7386,315.414 58.7386,319.747 55,323.5C 49.2898,320.467 45.9564,315.801 45,309.5C 43.6037,298.561 44.6037,287.894 48,277.5C 55.0322,262.747 64.0322,249.414 75,237.5C 75.0582,232.481 75.8916,227.648 77.5,223C 76.9731,217.937 77.6397,212.937 79.5,208C 78.9726,201.253 80.306,194.753 83.5,188.5C 79.8483,183.877 76.6817,178.877 74,173.5C 68.8886,158.72 64.5553,143.72 61,128.5C 42.2352,123.4 29.5686,111.733 23,93.5C 20.9515,86.2581 19.2848,78.9248 18,71.5C 16.0768,69.8812 15.5768,68.0479 16.5,66C 37.0747,64.1369 55.4081,69.6369 71.5,82.5C 76.2402,74.923 82.2402,68.423 89.5,63C 94.5,60.5 99.5,58 104.5,55.5C 109.062,56.8918 113.729,57.8918 118.5,58.5C 118.709,59.086 119.043,59.586 119.5,60C 117.085,84.3308 107.251,105.164 90,122.5C 89.9317,127.828 90.265,133.162 91,138.5C 91.2704,141.362 92.1038,144.028 93.5,146.5C 100.589,131.946 111.589,121.446 126.5,115C 134.043,112.033 141.71,109.533 149.5,107.5C 149.335,104.482 149.502,101.482 150,98.5C 151.701,95.6442 153.034,92.6442 154,89.5C 154.341,83.5807 155.175,77.7474 156.5,72C 156.333,70.5 156.167,69 156,67.5C 152.902,65.072 150.569,62.072 149,58.5C 148.402,50.4689 148.735,42.4689 150,34.5C 154.773,22.892 162.94,14.892 174.5,10.5 Z M 196.5,57.5 C 197.345,61.3548 199.012,64.8548 201.5,68C 198.06,77.3211 195.226,86.8211 193,96.5C 192.5,97.6667 191.667,98.5 190.5,99C 187.518,99.498 184.518,99.6646 181.5,99.5C 183.26,86.7933 186.427,74.46 191,62.5C 193.191,61.1666 195.024,59.5 196.5,57.5 Z"/></g>
<g><path style="opacity:1" fill="#e2877b" d="M 183.5,15.5 C 187.382,16.2108 189.882,18.5442 191,22.5C 192.457,26.7411 192.791,31.0745 192,35.5C 187.737,44.3739 182.737,52.7073 177,60.5C 174.636,74.4847 172.469,88.4847 170.5,102.5C 167.545,103.159 164.545,103.492 161.5,103.5C 165.286,92.2954 167.953,80.7954 169.5,69C 169,66.5 168.5,64 168,61.5C 160.187,55.0406 156.853,46.7073 158,36.5C 162.933,25.1233 171.433,18.1233 183.5,15.5 Z"/></g>
<g><path style="opacity:1" fill="#e2877b" d="M 221.5,16.5 C 224.807,16.0632 227.807,16.7298 230.5,18.5C 237.564,29.9646 238.064,41.6313 232,53.5C 228.15,57.7592 223.483,60.7592 218,62.5C 216.158,73.9055 213.992,85.2388 211.5,96.5C 207.906,97.4259 204.24,97.7592 200.5,97.5C 202.555,88.3997 205.055,79.3997 208,70.5C 210.029,67.9708 211.862,65.3041 213.5,62.5C 211.433,61.8659 209.6,60.8659 208,59.5C 202.199,41.7426 206.699,27.4093 221.5,16.5 Z"/></g>
<g><path style="opacity:0.996" fill="#050202" d="M 170.5,26.5 C 174.24,26.2408 177.906,26.5741 181.5,27.5C 183.321,29.4753 184.321,31.8086 184.5,34.5C 182.895,39.7125 180.729,44.7125 178,49.5C 169.786,57.313 165.286,55.4796 164.5,44C 164.667,42.1667 164.833,40.3333 165,38.5C 167.119,34.5977 168.952,30.5977 170.5,26.5 Z"/></g>
<g><path style="opacity:1" fill="#e2877c" d="M 268.5,27.5 C 269.721,26.5354 271.054,26.702 272.5,28C 283.428,37.9278 291.594,49.7611 297,63.5C 298.607,69.6884 298.774,75.855 297.5,82C 300.833,84.6667 304.167,87.3333 307.5,90C 308.449,90.6172 309.282,90.4506 310,89.5C 313.56,80.1668 317.894,71.1668 323,62.5C 324.739,60.2589 326.906,58.5922 329.5,57.5C 330.807,75.2677 324.974,90.2677 312,102.5C 312.484,108.795 312.484,115.129 312,121.5C 308.539,137.691 305.539,154.024 303,170.5C 301.818,174.583 299.984,178.25 297.5,181.5C 296.808,180.975 296.308,180.308 296,179.5C 295.333,174.833 295.333,170.167 296,165.5C 305.386,148.228 308.052,129.895 304,110.5C 302.667,107.833 301.333,105.167 300,102.5C 276.011,86.513 266.178,64.1797 270.5,35.5C 270.713,32.4733 270.047,29.8066 268.5,27.5 Z"/></g>
<g><path style="opacity:0.996" fill="#030201" d="M 220.5,29.5 C 222.785,30.9309 225.285,31.9309 228,32.5C 227.968,40.9104 225.801,48.7437 221.5,56C 217.102,57.3785 213.602,56.2118 211,52.5C 210.426,46.3696 211.759,40.7029 215,35.5C 217.04,33.6298 218.873,31.6298 220.5,29.5 Z"/></g>
<g><path style="opacity:1" fill="#e4887d" d="M 102.5,65.5 C 103.5,65.5 104.5,65.5 105.5,65.5C 104.955,68.8131 104.455,72.1464 104,75.5C 97.4443,86.7772 91.2777,98.2772 85.5,110C 83.0218,112.478 80.5218,114.978 78,117.5C 77.3333,119.5 77.3333,121.5 78,123.5C 81.46,131.106 83.7934,139.106 85,147.5C 86.3314,150.834 88.1647,153.834 90.5,156.5C 87.687,162.422 85.8537,168.422 85,174.5C 78.4622,158.348 73.7955,141.681 71,124.5C 64.0143,121.724 57.181,118.557 50.5,115C 47.7198,113.188 45.2198,111.021 43,108.5C 36.2389,98.2328 31.4056,87.0662 28.5,75C 28.6301,73.9412 29.1301,73.1079 30,72.5C 41.8959,75.4479 52.5625,80.7813 62,88.5C 62.8372,90.3506 63.6705,92.1839 64.5,94C 68.25,95.875 71.9167,97.7084 75.5,99.5C 76.7716,99.4302 77.9383,99.0968 79,98.5C 82.9038,84.6889 90.7372,73.6889 102.5,65.5 Z"/></g>
<g><path style="opacity:1" fill="#ba544f" d="M 225.5,106.5 C 236.472,106.204 247.139,107.704 257.5,111C 259.333,112.833 261.167,114.667 263,116.5C 276.797,140.189 282.297,165.855 279.5,193.5C 281.122,201.884 282.122,210.384 282.5,219C 281.875,229.494 281.375,239.994 281,250.5C 266.838,263.988 251.671,276.154 235.5,287C 195.261,295.936 155.594,293.936 116.5,281C 107.117,277.228 98.6166,272.061 91,265.5C 90,263.5 89,261.5 88,259.5C 86.8057,242.504 86.139,225.504 86,208.5C 88.5369,199.222 90.8702,189.888 93,180.5C 96.5928,172.721 99.5928,164.721 102,156.5C 105.75,149.998 109.75,143.665 114,137.5C 118.451,134.717 122.617,131.55 126.5,128C 158.302,114.742 191.302,107.575 225.5,106.5 Z"/></g>
<g><path style="opacity:0.995" fill="#070202" d="M 198.5,132.5 C 201.157,132.162 203.49,132.829 205.5,134.5C 201.868,148.932 195.201,161.766 185.5,173C 175.166,177.581 167.666,174.747 163,164.5C 161.819,156.8 162.819,149.467 166,142.5C 167.252,144.001 168.252,145.668 169,147.5C 169.333,153.5 169.667,159.5 170,165.5C 172.104,171.667 175.104,172.001 179,166.5C 184.753,154.65 191.253,143.317 198.5,132.5 Z"/></g>
<g><path style="opacity:1" fill="#e3887c" d="M 295.5,248.5 C 299.219,251.054 302.052,254.387 304,258.5C 306.517,268.117 308.851,277.783 311,287.5C 311.789,293.237 311.456,298.903 310,304.5C 308.951,306.107 307.451,306.773 305.5,306.5C 306.007,295.524 303.173,285.524 297,276.5C 293.783,273.62 290.95,270.453 288.5,267C 289.953,263.928 291.787,261.095 294,258.5C 295.199,255.274 295.699,251.941 295.5,248.5 Z"/></g>
<g><path style="opacity:1" fill="#e0867a" d="M 73.5,252.5 C 74.4972,252.47 75.1639,252.97 75.5,254C 76.8614,256.73 77.3614,259.563 77,262.5C 72.711,268.458 68.0443,274.124 63,279.5C 60.1965,287.578 57.1965,295.578 54,303.5C 51.7694,292.635 53.4361,282.302 59,272.5C 64.4387,266.235 69.272,259.568 73.5,252.5 Z"/></g>
<g><path style="opacity:1" fill="#e3887c" d="M 93.5,278.5 C 97.9726,280.905 102.306,283.571 106.5,286.5C 102.671,289.496 99.1708,292.829 96,296.5C 89.9078,311.693 84.0744,327.026 78.5,342.5C 77.675,343.386 76.675,343.719 75.5,343.5C 73.1048,328.969 74.9381,314.969 81,301.5C 85.1791,293.806 89.3457,286.14 93.5,278.5 Z"/></g>
<g><path style="opacity:1" fill="#e3887c" d="M 273.5,282.5 C 275.17,282.751 276.67,283.418 278,284.5C 279.648,293.211 279.648,301.878 278,310.5C 274.589,314.557 272.422,319.224 271.5,324.5C 268.899,312.602 266.233,300.769 263.5,289C 266.728,286.56 270.061,284.394 273.5,282.5 Z"/></g>
</svg>
