<?xml version="1.0" encoding="UTF-8"?>
<!DOCTYPE svg PUBLIC "-//W3C//DTD SVG 1.1//EN" "http://www.w3.org/Graphics/SVG/1.1/DTD/svg11.dtd">
<svg xmlns="http://www.w3.org/2000/svg" version="1.1" width="368px" height="368px" style="shape-rendering:geometricPrecision; text-rendering:geometricPrecision; image-rendering:optimizeQuality; fill-rule:evenodd; clip-rule:evenodd" xmlns:xlink="http://www.w3.org/1999/xlink">
<g><path style="opacity:0.938" fill="#030100" d="M 261.5,75.5 C 279.249,74.4406 296.583,76.6073 313.5,82C 330.109,89.0319 339.609,101.532 342,119.5C 342.333,126.5 342.667,133.5 343,140.5C 349.588,147.089 352.755,155.089 352.5,164.5C 352.738,173.954 349.905,182.288 344,189.5C 340.942,191.575 337.608,192.908 334,193.5C 331.614,202.937 327.614,211.603 322,219.5C 318,224.833 313.333,229.5 308,233.5C 306.609,244.317 310.442,252.817 319.5,259C 330.129,264.767 341.129,269.767 352.5,274C 355.663,276.202 358.497,278.702 361,281.5C 363.218,287.152 361.385,290.985 355.5,293C 328.766,297.786 304.433,292.119 282.5,276C 281.378,273.876 279.878,272.043 278,270.5C 273.024,274.883 267.191,277.216 260.5,277.5C 260.016,284.118 257.85,290.118 254,295.5C 234.731,313.698 211.897,320.864 185.5,317C 177.496,315.145 174.496,310.311 176.5,302.5C 178.028,301.139 179.695,299.972 181.5,299C 189.836,296.665 197.503,292.998 204.5,288C 181.728,283.52 160.062,275.853 139.5,265C 128.833,256.333 118.167,247.667 107.5,239C 97.8913,235.847 88.2246,232.847 78.5,230C 64.0952,221.964 49.0952,215.297 33.5,210C 24.1996,205.37 16.0329,199.204 9,191.5C 2.31216,182.414 3.47882,174.58 12.5,168C 27.9817,164.5 43.8151,161.667 60,159.5C 61.1074,159.585 62.1074,159.919 63,160.5C 61.9747,152.72 62.6414,145.053 65,137.5C 67.0652,134.124 70.0652,132.791 74,133.5C 82.1295,133.898 88.7961,137.231 94,143.5C 100.604,155.098 107.604,166.431 115,177.5C 117.036,181.948 118.87,186.448 120.5,191C 137.652,197.287 154.652,196.954 171.5,190C 178.386,186.114 183.553,180.614 187,173.5C 195.312,156.227 202.646,138.56 209,120.5C 215.91,106.255 225.743,94.4219 238.5,85C 245.819,80.6636 253.486,77.4969 261.5,75.5 Z"/></g>
<g><path style="opacity:1" fill="#925f36" d="M 262.5,84.5 C 281.251,82.7514 299.251,85.5847 316.5,93C 324.194,97.8721 329.36,104.705 332,113.5C 334.992,120.281 335.826,127.281 334.5,134.5C 325.723,130.445 316.723,126.945 307.5,124C 305.205,120.703 302.538,117.703 299.5,115C 292.857,115.109 286.19,115.442 279.5,116C 277.221,116.473 275.221,117.473 273.5,119C 245.492,121.702 225.992,135.869 215,161.5C 210.563,179.664 217.563,189.331 236,190.5C 234.598,201.252 236.265,211.585 241,221.5C 244.738,228.523 250.405,231.857 258,231.5C 258.578,223.656 258.411,215.823 257.5,208C 258.213,198.822 259.046,189.656 260,180.5C 270.034,172.103 277.368,161.77 282,149.5C 288.406,162.241 296.739,173.574 307,183.5C 307.081,198.68 303.914,213.18 297.5,227C 298.09,229.196 298.757,231.362 299.5,233.5C 290.679,251.156 277.845,265.156 261,275.5C 261.194,263.036 255.194,256.369 243,255.5C 239.541,255.267 236.374,256.101 233.5,258C 227.98,266.53 221.313,274.197 213.5,281C 208.12,281.596 202.787,281.262 197.5,280C 181.793,275.32 166.459,269.653 151.5,263C 127.502,245.677 104.668,226.844 83,206.5C 79.4096,201.986 76.9096,196.986 75.5,191.5C 75.5943,189.077 76.0943,186.744 77,184.5C 79.5541,183.224 82.2208,182.224 85,181.5C 90.1969,182.347 95.0302,184.181 99.5,187C 128.496,208.801 158.162,209.801 188.5,190C 193.258,185.633 197.425,180.8 201,175.5C 208.722,160.389 215.056,144.723 220,128.5C 226.454,112.714 236.621,99.8806 250.5,90C 254.71,88.3914 258.71,86.5581 262.5,84.5 Z"/></g>
<g><path style="opacity:0.992" fill="#040201" d="M 245.5,101.5 C 250.804,105.913 252.637,111.58 251,118.5C 244.027,123.419 240.527,121.419 240.5,112.5C 240.823,108.19 242.49,104.523 245.5,101.5 Z"/></g>
<g><path style="opacity:0.993" fill="#050201" d="M 321.5,105.5 C 327.55,107.26 329.717,111.26 328,117.5C 326.852,124.722 324.186,125.388 320,119.5C 319.352,114.686 319.852,110.019 321.5,105.5 Z"/></g>
<g><path style="opacity:0.999" fill="#653a10" d="M 270.5,125.5 C 274.137,126.775 277.804,128.108 281.5,129.5C 278.031,140.737 273.864,151.737 269,162.5C 262.133,171.178 253.966,178.345 244.5,184C 219.744,188.931 212.577,180.098 223,157.5C 228.5,148 236,140.5 245.5,135C 253.62,130.91 261.953,127.743 270.5,125.5 Z"/></g>
<g><path style="opacity:0.999" fill="#653a10" d="M 294.5,127.5 C 303.613,131.625 312.946,135.459 322.5,139C 326.387,142.111 330.72,144.444 335.5,146C 349.685,158.507 349.685,171.174 335.5,184C 330.935,185.645 326.269,186.312 321.5,186C 307.194,178.238 296.361,167.071 289,152.5C 287.437,144.913 287.104,137.246 288,129.5C 290.277,128.883 292.444,128.216 294.5,127.5 Z"/></g>
<g><path style="opacity:0.983" fill="#070300" d="M 260.5,133.5 C 262.708,134.918 263.542,136.918 263,139.5C 259.592,143.25 255.758,146.083 251.5,148C 250.251,145.79 250.418,143.624 252,141.5C 254.729,138.601 257.562,135.934 260.5,133.5 Z"/></g>
<g><path style="opacity:0.985" fill="#050200" d="M 294.5,137.5 C 301.046,136.739 306.879,138.739 312,143.5C 312.483,144.448 312.649,145.448 312.5,146.5C 310.473,146.662 308.473,146.495 306.5,146C 302.343,143.336 298.343,140.503 294.5,137.5 Z"/></g>
<g><path style="opacity:1" fill="#673b10" d="M 74.5,138.5 C 79.6781,138.843 83.8447,141.176 87,145.5C 95.1667,159.167 103.333,172.833 111.5,186.5C 111.167,186.833 110.833,187.167 110.5,187.5C 102.963,183.432 94.9629,180.765 86.5,179.5C 71.7698,181.474 67.9365,189.141 75,202.5C 79.687,210.858 85.5204,218.358 92.5,225C 79.4948,219.672 66.4948,214.005 53.5,208C 40.813,204.777 29.1463,199.443 18.5,192C 15.208,189.588 14.0413,186.421 15,182.5C 17.894,179.639 21.0607,177.139 24.5,175C 31.7235,172.592 39.0569,170.592 46.5,169C 55.0041,168.565 63.3374,167.231 71.5,165C 71.6178,157.592 71.7844,150.092 72,142.5C 72.6622,141.016 73.4955,139.683 74.5,138.5 Z"/></g>
<g><path style="opacity:0.986" fill="#040200" d="M 297.5,145.5 C 303.034,147.863 307.201,151.863 310,157.5C 310.833,160.667 309.667,161.833 306.5,161C 301.298,157.094 298.298,151.927 297.5,145.5 Z"/></g>
<g><path style="opacity:0.983" fill="#050200" d="M 240.5,145.5 C 241.748,146.334 242.415,147.667 242.5,149.5C 241.921,154.658 239.754,158.991 236,162.5C 235.055,162.095 234.388,161.428 234,160.5C 233.333,158.167 233.333,155.833 234,153.5C 236.415,150.986 238.581,148.319 240.5,145.5 Z"/></g>
<g><path style="opacity:0.981" fill="#050200" d="M 264.5,148.5 C 265.117,148.611 265.617,148.944 266,149.5C 267.122,154.919 265.289,158.919 260.5,161.5C 259.914,161.291 259.414,160.957 259,160.5C 258.333,158.5 258.333,156.5 259,154.5C 261.04,152.63 262.873,150.63 264.5,148.5 Z"/></g>
<g><path style="opacity:0.988" fill="#090400" d="M 318.5,148.5 C 323.155,148.949 327.488,150.449 331.5,153C 334.372,155.532 334.039,157.365 330.5,158.5C 324.798,157.012 320.798,153.678 318.5,148.5 Z"/></g>
<g><path style="opacity:0.982" fill="#060200" d="M 250.5,153.5 C 252.775,159.113 251.275,164.113 246,168.5C 243.697,166.662 243.031,164.328 244,161.5C 246.001,158.669 248.167,156.003 250.5,153.5 Z"/></g>
<g><path style="opacity:0.988" fill="#040200" d="M 316.5,157.5 C 321.232,158.71 325.066,161.377 328,165.5C 328.238,168.65 326.738,169.816 323.5,169C 319.498,166.161 317.165,162.327 316.5,157.5 Z"/></g>
<g><path style="opacity:0.983" fill="#080300" d="M 332.5,166.5 C 338.02,165.164 340.853,167.497 341,173.5C 340.282,174.451 339.449,174.617 338.5,174C 335.879,171.886 333.879,169.386 332.5,166.5 Z"/></g>
<g><path style="opacity:0.986" fill="#050200" d="M 233.5,166.5 C 236.139,167.706 236.972,169.706 236,172.5C 234.8,176.246 232.634,179.246 229.5,181.5C 227.888,180.451 226.888,178.951 226.5,177C 227.931,172.765 230.264,169.265 233.5,166.5 Z"/></g>
<g><path style="opacity:0.98" fill="#050200" d="M 252.5,166.5 C 254.914,167.406 255.747,169.072 255,171.5C 253.022,174.645 250.522,177.312 247.5,179.5C 245.554,177.956 245.054,175.956 246,173.5C 248.372,171.297 250.539,168.963 252.5,166.5 Z"/></g>
<g><path style="opacity:0.978" fill="#070300" d="M 312.5,172.5 C 314.089,171.379 315.756,171.546 317.5,173C 320.695,174.695 323.028,177.195 324.5,180.5C 322.926,181.631 321.259,181.798 319.5,181C 316.546,178.559 314.213,175.725 312.5,172.5 Z"/></g>
<g><path style="opacity:1" fill="#f0bca5" d="M 253.5,185.5 C 254.156,186.622 254.489,187.955 254.5,189.5C 253.041,202.116 252.041,214.782 251.5,227.5C 247.293,224.115 244.46,219.782 243,214.5C 241.654,208.912 240.821,203.245 240.5,197.5C 239.336,190.308 242.336,187.141 249.5,188C 251.066,187.392 252.4,186.558 253.5,185.5 Z"/></g>
<g><path style="opacity:1" fill="#f2bea6" d="M 312.5,187.5 C 317.047,190.406 322.047,192.24 327.5,193C 325.381,208.353 317.547,220.186 304,228.5C 306.829,219.669 309.495,210.669 312,201.5C 312.499,196.845 312.666,192.179 312.5,187.5 Z"/></g>
<g><path style="opacity:1" fill="#663b10" d="M 301.5,246.5 C 304.313,250.098 307.147,253.765 310,257.5C 321.07,265.872 333.236,272.372 346.5,277C 348.792,278.29 350.792,279.957 352.5,282C 349.305,285.904 345.139,287.404 340,286.5C 318.447,285.985 299.28,279.152 282.5,266C 290.378,260.956 296.712,254.456 301.5,246.5 Z"/></g>
<g><path style="opacity:1" fill="#663b10" d="M 239.5,260.5 C 243.915,260.305 248.249,260.805 252.5,262C 255.693,282.278 248.027,296.945 229.5,306C 215.913,311.052 201.913,313.385 187.5,313C 181.876,312.742 180.543,310.409 183.5,306C 203.225,299.712 219.725,288.545 233,272.5C 235.274,268.465 237.441,264.465 239.5,260.5 Z"/></g>
</svg>
