<?xml version="1.0" encoding="UTF-8"?>
<!DOCTYPE svg PUBLIC "-//W3C//DTD SVG 1.1//EN" "http://www.w3.org/Graphics/SVG/1.1/DTD/svg11.dtd">
<svg xmlns="http://www.w3.org/2000/svg" version="1.1" width="368px" height="477px" style="shape-rendering:geometricPrecision; text-rendering:geometricPrecision; image-rendering:optimizeQuality; fill-rule:evenodd; clip-rule:evenodd" xmlns:xlink="http://www.w3.org/1999/xlink">
<g><path style="opacity:0.99" fill="#1a1a1a" d="M 140.5,-0.5 C 146.5,-0.5 152.5,-0.5 158.5,-0.5C 176.209,4.35815 189.375,15.0248 198,31.5C 214.715,66.2338 218.048,102.234 208,139.5C 206.222,145.504 204.055,151.338 201.5,157C 217.233,154.573 232.899,155.073 248.5,158.5C 249.167,158.167 249.833,157.833 250.5,157.5C 245.038,128.685 251.204,102.685 269,79.5C 279.12,68.0237 291.62,60.5237 306.5,57C 339.598,55.0858 358.765,70.5858 364,103.5C 368.454,131.354 362.12,156.354 345,178.5C 334.356,190.408 321.19,198.075 305.5,201.5C 325.074,238.129 324.907,274.796 305,311.5C 279.951,346.612 247.784,373.112 208.5,391C 189.136,400.073 168.803,403.74 147.5,402C 144.233,401.547 141.066,400.713 138,399.5C 129.314,404.505 122.648,411.505 118,420.5C 110.896,433.479 105.563,447.146 102,461.5C 98.9596,467.603 94.1263,469.769 87.5,468C 85.3762,466.878 83.5429,465.378 82,463.5C 73.6113,423.501 79.6113,385.834 100,350.5C 99.2873,339.692 98.454,328.859 97.5,318C 98.2714,307.802 99.2714,297.636 100.5,287.5C 50.4902,270.322 17.9902,236.322 3,185.5C 1.92199,179.343 0.755321,173.343 -0.5,167.5C -0.5,158.833 -0.5,150.167 -0.5,141.5C 0.434491,120.132 9.43449,102.965 26.5,90C 41.6362,82.4017 56.3029,83.4017 70.5,93C 73.6667,95.5 76.8333,98 80,100.5C 80.1793,76.1165 85.846,53.1165 97,31.5C 107.187,14.837 121.687,4.17034 140.5,-0.5 Z"/></g>
<g><path style="opacity:1" fill="#fdfdfd" d="M 141.5,19.5 C 156.923,18.4615 168.757,24.4615 177,37.5C 189.181,61.7514 193.847,87.418 191,114.5C 188.008,135.494 180.342,154.494 168,171.5C 152.709,181.791 139.709,194.458 129,209.5C 103.436,162.649 95.4358,112.983 105,60.5C 110.418,40.5947 122.584,26.928 141.5,19.5 Z"/></g>
<g><path style="opacity:1" fill="#fbcc2e" d="M 210.5,176.5 C 253.848,173.242 282.015,192.242 295,233.5C 296.546,244.45 296.879,255.45 296,266.5C 295.767,268.78 294.934,270.78 293.5,272.5C 257.321,251.488 229.488,222.488 210,185.5C 208.864,182.904 208.031,180.237 207.5,177.5C 208.791,177.737 209.791,177.404 210.5,176.5 Z"/></g>
<g><path style="opacity:1" fill="#fbcc2e" d="M 167.5,195.5 C 191.755,244.591 227.589,282.924 275,310.5C 275.315,311.908 274.982,313.241 274,314.5C 265.82,323.346 256.986,331.513 247.5,339C 203.063,317.562 170.229,284.395 149,239.5C 147.067,234.533 145.233,229.533 143.5,224.5C 149.37,213.106 157.37,203.439 167.5,195.5 Z"/></g>
<g><path style="opacity:1" fill="#fbcc2e" d="M 121.5,279.5 C 143.259,314.092 171.593,342.259 206.5,364C 207.711,364.893 207.711,365.726 206.5,366.5C 190.236,374.552 173.07,379.219 155,380.5C 149.562,380.515 144.396,379.349 139.5,377C 125.461,365.58 118.294,350.746 118,332.5C 116.683,314.65 117.85,296.983 121.5,279.5 Z"/></g>
</svg>
